<?xml version="1.0" encoding="UTF-8"?>
<svg id="Calque_1" xmlns="http://www.w3.org/2000/svg" version="1.1" viewBox="0 0 1200 1200">
  <!-- Generator: Adobe Illustrator 29.3.1, SVG Export Plug-In . SVG Version: 2.1.0 Build 151)  -->
  <defs>
    <style>
      .st0 {
        fill: #0071ce;
      }

      .st1 {
        fill: #92c0e9;
      }
    </style>
  </defs>
  <path class="st1" d="M642.5,123.5s75.6,37.8,108,205.1c32.4,167.4,97.2,399.5,97.2,399.5l113.4,102.6,10.8,151.2-103.9,112-129.6-28.3-52.6-10.8-74.2,32.4-109.3-45.9-97.2,37.8-105.3-17.5-86.4-86.4-1.3-133.6,93.1-85,63.4-62.1,41.8-206.5,31-184.9,45.9-118.8,62.1-55.3,93.1-5.4Z"/>
  <path class="st0" d="M903.2,717.2c-12.9-5-22.1-17.8-24-33.1-22.6-196.8-60.8-356.1-120.2-500.8-25.4-64.7-89.3-108.2-159-108.2s-133.7,43.5-158.8,107.5c-59.7,145.3-97.9,304.7-120.5,501.1-1.9,15.6-11.1,28.4-23.7,33.3-99.7,38-153.6,142.6-128.3,248.3,17.5,75.6,77.4,135.8,152.4,153.3,61.4,14.8,124.4,1.4,173.5-34.6,28.6,25.6,65.9,40.7,105.3,40.7s76.5-15,105-40.5c35.8,26.2,78.9,40.4,123.4,40.3,16.6,0,33.5-1.9,50-5.9,75.4-17.5,135.3-77.8,152.6-153.1,25.4-106-28.6-210.6-127.9-248.5h0ZM946,945.7c-9.8,42.7-44.9,78-87.6,88-36.3,8.8-71.9,1.2-100.3-19.4,13.1-13,31-20.6,49.8-20.6h10.9c24.2,0,43.7-19.6,43.7-43.7s-19.6-43.7-43.7-43.7h-10.9c-56,0-108.2,30-136.4,78.4l-10.5,17.9c-12.6,21.6-35.9,34.9-60.8,34.9s-48.3-13.4-60.9-35l-10.4-17.8c-28.2-48.3-80.5-78.4-136.5-78.4h-10.9c-24.2,0-43.7,19.6-43.7,43.7s19.6,43.7,43.7,43.7h10.9c18.8,0,36.7,7.6,49.7,20.6-28.4,20.5-64.1,28.1-100.6,19.3-42.4-9.9-77.5-45.2-87.4-88.2-17-71.2,24.5-127.6,74.7-146.7,42.8-16.8,73.1-56.7,79-104.6,21.6-188.6,58-340.5,114.8-478.8,12.3-31.4,43.5-52.6,77.6-52.6s65.2,21.2,77.9,53.3c56.5,137.6,92.9,289.6,114.5,478.5,5.9,47.5,36.1,87.5,79.3,104.4,49.9,19,91.4,75.4,74.3,146.9Z"/>
</svg>