<?xml version="1.0" encoding="UTF-8"?>
<svg id="Calque_1" xmlns="http://www.w3.org/2000/svg" version="1.1" viewBox="0 0 1200 1200">
  <!-- Generator: Adobe Illustrator 29.3.1, SVG Export Plug-In . SVG Version: 2.1.0 Build 151)  -->
  <defs>
    <style>
      .st0 {
        fill: #0071ce;
      }

      .st1 {
        fill: #92c0e9;
      }
    </style>
  </defs>
  <g>
    <path class="st0" d="M1048.5,714.6c.7-9.3-6.6-17.3-16-17.3h0c-4.2,0-133.6,0-127.1,0,1-10.3,1.7-20.8,1.7-31.4,0-137.5-88.7-254.4-211.8-297.1,9.6-4.7,18.7-10.6,26.6-18.5,43.5-43.5,31.9-122.2,31.3-125.5-1.1-6.9-6.5-12.3-13.4-13.4-3.3-.5-82-12.2-125.5,31.3-8.8,8.8-15.2,19-20.1,29.7-14.7-29-37.4-47.7-53.5-54.2-13-5.2-27.8,1-33,14-5.2,13,1.1,27.8,14,33,16.6,8,27.7,13.6,41.2,38.5,6.4,12.1,12.3,28.3,16,48-167.4,7.1-301.5,145-301.5,314.1s141.3,314.8,314.9,314.8,58.5-4.2,86.6-12.2c.3,0,.5.1.8.2,26.1,7.8,58.3,12.1,81.9,12.1,150.6,0,275.8-117.6,287-266.2ZM761.5,948.6c-127.4,0-235.3-94.5-253-219.1h34.1c15.4,108.7,108.5,189.8,218.8,189.8s0,0,0,0,0,0,0,0c0,0,0,0,0,0,110.2,0,203.3-80.8,218.9-189.8h34.1c-17.9,124.6-125.7,219.1-253.1,219.1ZM648.3,849.4l97.2-97.2v134.3c-36.6-3.1-69.3-16.2-97.2-37.1ZM777.6,752.2l97.3,97.3c-28.4,21.2-62,34-97.3,37v-134.2ZM624.2,828c-26-27.5-43.1-61.6-49.2-98.6h147.8l-98.6,98.6ZM898.9,828.1l-98.6-98.6c10.9,0,153.9,0,147.8,0-6.2,36.9-23.3,71.1-49.2,98.6ZM636.9,265.5c23.5-23.5,64.9-24.5,85.6-23.4,1.1,20.6,0,62.1-23.4,85.6-23.5,23.5-65.1,24.5-85.7,23.4-1.3-23.5,1.5-63.6,23.5-85.6Z"/>
    <path class="st0" d="M761.5,1063.7c-25.6,0-55.6-3.6-82.8-9.6-28.5,6.4-57.4,9.6-86.4,9.6-219.4,0-397.8-178.4-397.8-397.6s100.3-307.1,244.7-366.9c-2.9-4.7-5.5-9.6-7.6-14.8-11.3-26.6-11.6-56-.8-82.8,10.8-26.9,31.4-47.8,58-59.2,26.6-11.3,56-11.6,82.9-.8,8.2,3.3,16.3,7.5,24.2,12.5,64.9-35.7,139.5-27.1,156.3-24.5,43,6.7,76.2,39.9,82.8,82.7,2.3,14.6,9.2,72.6-12.3,130.2,89.3,63.6,149.4,162,163.9,272.1h45.9c27.5,0,53.9,11.5,72.6,31.7.1.1.3.3.4.5h4.8l-.7,4.7c15.7,19.5,23.5,44.4,21.6,69.5-14.4,192.2-176.8,342.8-369.6,342.8ZM583.4,434.7h-1c-124.6,5.3-222.2,106.9-222.2,231.3s43.2,154.8,108.1,196c-21.1-36.4-35.7-77.2-41.9-120.9l-13.4-94.5h281.6v-94.5l66.8,66.8,43.9-43.9c-25.2-58.7-74.3-106-137.4-127.9l-37.4-13c-6.6.2-12.8,0-18.3-.2l-13.7,30.5-15.1-29.8Z"/>
  </g>
  <g>
    <g>
      <path class="st1" d="M1048.5,714.6c.7-9.3-6.6-17.3-16-17.3h0c-4.2,0-133.6,0-127.1,0,1-10.3,1.7-20.8,1.7-31.4,0-137.5-88.7-254.4-211.8-297.1,9.6-4.7,18.7-10.6,26.6-18.5,43.5-43.5,31.9-122.2,31.3-125.5-1.1-6.9-6.5-12.3-13.4-13.4-3.3-.5-82-12.2-125.5,31.3-8.8,8.8-15.2,19-20.1,29.7-14.7-29-37.4-47.7-53.5-54.2-13-5.2-27.8,1-33,14-5.2,13,1.1,27.8,14,33,16.6,8,27.7,13.6,41.2,38.5,6.4,12.1,12.3,28.3,16,48-167.4,7.1-301.5,145-301.5,314.1s141.3,314.8,314.9,314.8,58.5-4.2,86.6-12.2c.3,0,.5.1.8.2,26.1,7.8,58.3,12.1,81.9,12.1,150.6,0,275.8-117.6,287-266.2ZM761.5,948.6c-127.4,0-235.3-94.5-253-219.1h34.1c15.4,108.7,108.5,189.8,218.8,189.8s0,0,0,0,0,0,0,0c0,0,0,0,0,0,110.2,0,203.3-80.8,218.9-189.8h34.1c-17.9,124.6-125.7,219.1-253.1,219.1ZM648.3,849.4l97.2-97.2v134.3c-36.6-3.1-69.3-16.2-97.2-37.1ZM777.6,752.2l97.3,97.3c-28.4,21.2-62,34-97.3,37v-134.2ZM624.2,828c-26-27.5-43.1-61.6-49.2-98.6h147.8l-98.6,98.6ZM898.9,828.1l-98.6-98.6c10.9,0,153.9,0,147.8,0-6.2,36.9-23.3,71.1-49.2,98.6ZM636.9,265.5c23.5-23.5,64.9-24.5,85.6-23.4,1.1,20.6,0,62.1-23.4,85.6-23.5,23.5-65.1,24.5-85.7,23.4-1.3-23.5,1.5-63.6,23.5-85.6Z"/>
      <path class="st0" d="M761.5,982.6c-25.3,0-57.6-4.8-82.4-12.1h-.3c-28.4,8-57.5,12.1-86.6,12.1-174.6,0-316.6-142-316.6-316.5s132.1-307.5,301.2-315.7c-3.4-17.1-8.7-32.8-15.4-45.5-13.5-24.9-24.8-30.3-40.5-37.8-6.6-2.7-11.9-7.8-14.7-14.5-2.8-6.7-2.9-14-.2-20.7,5.6-13.9,21.4-20.6,35.3-15,14.8,6,37.2,23.1,52.7,51.9,5.1-10.5,11.5-19.6,18.9-27.1,43.9-43.9,123.6-32.3,127-31.8,7.7,1.2,13.7,7.2,14.9,14.9.5,3.4,12.3,82.8-31.8,127-6.6,6.6-14.2,12.1-23.4,17,125.3,45.3,209.2,164.3,209.2,297.4s-.5,18.6-1.5,29.6h125.2c4.9,0,9.7,2.1,13.1,5.7,3.4,3.6,5.1,8.5,4.7,13.4h0c-11.3,150.2-138,267.8-288.7,267.8ZM678.9,966.7l1.3.4c24.5,7.3,56.4,12,81.4,12,148.8,0,274.1-116.2,285.2-264.6h0c.3-4-1-7.9-3.8-10.8-2.7-3-6.5-4.6-10.5-4.6h-127.4v-1.7h-1.5c1.2-11.9,1.7-21.8,1.7-31.3,0-133-84.7-251.7-210.7-295.5l-3.9-1.4,3.7-1.8c10.4-5.1,19-11,26.1-18.2,42.9-42.9,31.4-120.7,30.9-124-1-6.2-5.8-11-12-12-3.3-.5-81.3-11.9-124,30.9-7.9,7.9-14.5,17.7-19.7,29.2l-1.5,3.3-1.6-3.2c-15.1-29.8-37.8-47.4-52.6-53.3-5.9-2.4-12.3-2.3-18.1.2-5.8,2.5-10.3,7.1-12.7,12.9-2.4,5.9-2.3,12.3.2,18.1,2.5,5.8,7.1,10.3,12.9,12.7,16.3,7.8,28.1,13.4,42.1,39.3,7.2,13.5,12.7,30.3,16.2,48.5l.4,2h-2c-168.2,7.2-299.9,144.4-299.9,312.4s140.5,313,313.2,313,57.9-4.1,86.1-12.1h.5ZM761.5,950.4c-127.4,0-236.9-94.8-254.7-220.6l-.3-2h37.6l.2,1.5c15.2,107.4,108.6,188.4,217.1,188.4,108.5,0,201.8-81,217.2-188.4l.2-1.5h37.6l-.3,2c-18.1,125.8-127.6,220.6-254.8,220.6ZM510.5,731.2c18.4,123.1,126,215.7,251,215.7s232.4-92.6,251.1-215.7h-30.6c-16.3,108.3-110.7,189.8-220.4,189.8-109.8,0-204.3-81.5-220.4-189.8h-30.6ZM747.2,888.4l-1.9-.2c-35.9-3-68.9-15.6-98.1-37.4l-1.6-1.2,101.5-101.5v140.3ZM650.9,849.2c27.7,20.3,58.9,32.2,92.8,35.4v-128.2l-92.8,92.8ZM775.9,888.3v-140.3l101.6,101.6-1.6,1.2c-28.6,21.4-62.5,34.3-98.2,37.3l-1.9.2ZM779.3,756.4v128.2c33.7-3.2,65.7-15.4,92.9-35.3l-92.9-92.9ZM898.9,830.5l-102.8-102.8h152.2v1.8l1.5.2c-6.3,37.3-23.5,71.7-49.7,99.5l-1.2,1.3ZM804.5,731.2l94.4,94.4c24.6-26.5,40.9-59.1,47.2-94.4h-141.6ZM624.2,830.5l-1.2-1.3c-26.3-27.8-43.5-62.2-49.7-99.5l-.3-2h154l-102.8,102.8ZM577,731.2c6.3,35.2,22.5,67.8,47.2,94.3l94.3-94.3h-141.6ZM624.4,353.1c-4,0-7.8-.1-11.1-.3h-1.5c0,0,0-1.6,0-1.6-.8-14-1.3-61.6,24-86.9,23.6-23.6,64.6-25.1,86.9-23.9h1.6c0,0,0,1.6,0,1.6,1.2,22.3-.3,63.3-23.9,86.9-20.1,20.2-52.9,24.2-75.9,24.2ZM615,349.4c22.2,1.1,60.6-.8,82.8-23,22.1-22.1,24-60.7,23-82.7-22.1-.9-60.6.9-82.7,23-23.5,23.5-23.8,67.4-23.1,82.7Z"/>
    </g>
    <path class="st0" d="M415.4,537.1c-7.5-4.7-17.4-2.4-22.1,5.1-19.9,31.8-31.9,68.4-34.7,105.8-.7,8.8,6,16.6,14.8,17.2.4,0,.8,0,1.2,0,8.3,0,15.4-6.4,16-14.9,2.5-32.2,12.8-63.8,29.9-91.3,4.7-7.5,2.4-17.4-5.1-22.1Z"/>
    <path class="st0" d="M500.8,485.7c7.9-4,11.1-13.7,7-21.6-4-7.9-13.7-11.1-21.6-7-10.5,5.4-20.7,11.6-30.4,18.5-7.2,5.2-8.9,15.2-3.7,22.4,5.1,7.2,15.1,8.9,22.4,3.7,8.3-6,17.1-11.3,26.2-15.9Z"/>
    <circle class="st0" cx="690.7" cy="471.9" r="16.1"/>
    <path class="st0" d="M756.1,568.9c8.9,0,16.1-7.3,16.1-16.1s-7.3-16.1-16.1-16.1-16.1,7.3-16.1,16.1,7.3,16.1,16.1,16.1Z"/>
    <path class="st0" d="M776.2,649.7c8.9,0,16.1-7.3,16.1-16.1s-7.3-16.1-16.1-16.1c-21.3,0-21.3,32.3,0,32.3Z"/>
    <path class="st0" d="M691.4,633.5c0-8.9-7.3-16.1-16.1-16.1s-16.1,7.3-16.1,16.1c0,21.3,32.3,21.4,32.3,0Z"/>
    <path class="st0" d="M675.3,557.3c8.9,0,16.1-7.3,16.1-16.1s-7.3-16.1-16.1-16.1-16.1,7.3-16.1,16.1,7.3,16.1,16.1,16.1Z"/>
  </g>
</svg>