<?xml version="1.0" encoding="UTF-8"?>
<svg id="Calque_1" xmlns="http://www.w3.org/2000/svg" version="1.1" viewBox="0 0 1200 1200">
  <!-- Generator: Adobe Illustrator 29.3.1, SVG Export Plug-In . SVG Version: 2.1.0 Build 151)  -->
  <defs>
    <style>
      .st0 {
        fill: #0071ce;
      }

      .st1 {
        fill: #92c0e9;
      }
    </style>
  </defs>
  <g>
    <path class="st1" d="M878.5,828.9c1.1-3.7,1.8-7.6,1.9-11.6.3-14.4-6.6-25.6-14.8-36.1-11.5-14.6-22.3-29-32.2-44.9-.4-.7-.9-1.4-1.4-2.1-.9-1.5-1.8-3-2.7-4.5-9-15-17.3-30.4-25-46.1,4.4-2,8.5-4.8,11.8-8.2,5.7-5.9,9.4-13.7,10.4-22.2.1-.9.3-1.7.4-2.6.2-3.6-.3-7-1.1-10.1-1.9-7.4-6.1-13.9-10.8-20-9.7-12.4-18.9-24.5-27.2-38-11.8-19.2-22.2-39.3-31.2-59.9,4.2-5.8,6.9-12.9,7.3-20.4,0-1.2,0-2.4,0-3.6-.3-4.6-1.4-8.8-3.2-12.8-2-4.4-4.8-8.5-7.9-12.5-.3-.4-.7-.9-1-1.3-12.1-15.3-22.7-30.8-32.2-46.9-8.7-14.7-16.6-30-23.8-46.2-.2-.4-.3-.7-.5-1.1,2.8-3.2,5.1-6.4,6.8-9.5.3-.5.5-1,.7-1.5.7-1.3,1.3-2.7,1.8-4,.1-.3.3-.5.3-.8,0-.3.1-.5.2-.8.5-1.6,1-3.1,1.3-4.6,0-.2.1-.5.2-.7.3-1.7.5-3.4.5-5.1,0-.4,0-.9,0-1.3,0-1.4-.1-2.7-.3-4.1,0-.4,0-.7-.1-1.1-.3-1.6-.7-3.2-1.1-4.8-.1-.4-.3-.8-.4-1.2-.4-1.2-.9-2.5-1.4-3.7-.2-.4-.4-.9-.6-1.3-.7-1.5-1.5-2.9-2.3-4.4-.2-.3-.4-.7-.7-1-.7-1.1-1.4-2.2-2.2-3.3-.4-.5-.7-1-1.1-1.5-.8-1.1-1.7-2.2-2.6-3.3-.2-.2-.4-.5-.5-.7-5.7-6.9-11.5-13.7-17-20.8-7-9.1-13.6-18.7-19.9-28.6-19.9-31.4-36.4-66.6-48.1-101.7-.4-1.1-.9-2-1.5-2.8-.6-.8-1.3-1.4-2.1-2,0,0,0,0,0,0-.5-.4-1.2-.6-1.8-.8-.3-.1-.5-.3-.8-.4-.1,0-.3,0-.4,0-4.3-1.1-9.4.9-11.1,6-1.2,3.5-2.5,7.1-3.8,10.6-1,2.9-2,5.7-3.1,8.6-.3.7-.5,1.3-.8,2-7.2,18.5-15.5,36.7-25,54.3-10.6,19.6-22.5,38.1-35.4,55-5.5,7.1-11.3,13.9-17,20.8-10.2,12.3-17.2,26.7-11.2,42.9,2.2,5.9,5.6,11.1,9.8,15.3-10.6,23.7-22.8,46.7-37.1,68.3-10.9,16.5-31.7,34-31.7,54.8,0,8.3,2.7,15.9,7.3,22.2-11,25.2-24,49.6-39.2,72.5-10.5,15.8-31.1,34.1-31.1,53.8s9.3,28.8,22.7,34.7c-11.1,22.8-23.6,45-37.7,66.2-13,19.5-38.4,42.1-38.4,66.5s21,46.9,46.9,46.9,24.4-5.1,32.8-13.4c3.4-3.3,8.8-3.3,12.2,0,8.5,8.3,20.1,13.4,32.8,13.4s24.4-5.1,32.8-13.4c3.4-3.3,8.8-3.3,12.2,0,8.5,8.3,20.1,13.4,32.8,13.4s10.3-1.1,15-2.7v107c0,2.2-.5,4.4-1.4,6.4l-19.8,42.7c-4.7,10.1,2.7,21.7,13.8,21.7h78.7s0,0,0,0h61.6c3.7,0,7-1.4,9.6-3.5,4.3-3.5,6.5-9.2,5.3-14.9-.2-1.1-.6-2.3-1.1-3.4l-20.9-44.5c-.7-1.4-1-3-1.2-4.6,0-.6-.2-1.3-.2-1.9v-105.5c5.1,1.9,10.6,3.1,16.4,3.1,12.8,0,24.4-5.1,32.8-13.4,3.4-3.3,8.8-3.3,12.2,0,8.5,8.3,20.1,13.4,32.8,13.4s24.4-5.1,32.8-13.4c3.4-3.3,8.8-3.3,12.2,0,8.9,8.7,21.4,13.9,35,13.3,5.9-.3,11.6-1.7,16.7-4.1.1,0,.3,0,.5-.2,12.4-5.7,21.7-16.8,25.5-30Z"/>
    <path class="st0" d="M599.9,161.6c.8,0,1.6,0,2.4.3.1,0,.3,0,.4,0,.3,0,.5.3.8.4.6.2,1.2.5,1.8.8,0,0,0,0,0,0,.8.5,1.5,1.2,2.1,2,.6.8,1.1,1.7,1.5,2.8,11.7,35.1,28.2,70.3,48.1,101.7,6.3,10,13,19.6,19.9,28.6,5.5,7.1,11.3,13.9,17,20.8.2.2.4.5.5.7.9,1.1,1.7,2.2,2.6,3.3.4.5.7,1,1.1,1.5.8,1.1,1.5,2.2,2.2,3.3.2.3.4.7.7,1,.8,1.4,1.6,2.9,2.3,4.4.2.4.4.9.6,1.3.5,1.2,1,2.4,1.4,3.7.1.4.3.8.4,1.2.5,1.6.9,3.2,1.1,4.8,0,.4,0,.7.1,1.1.2,1.3.3,2.7.3,4.1,0,.4,0,.9,0,1.3,0,1.7-.2,3.4-.5,5.1,0,.2-.1.5-.2.7-.3,1.5-.7,3.1-1.3,4.6,0,.3-.1.5-.2.8,0,.3-.2.5-.3.8-.5,1.3-1.1,2.7-1.8,4-.3.5-.5,1-.7,1.5-1.8,3.1-4,6.3-6.8,9.5.2.4.3.7.5,1.1,7.3,16.1,15.1,31.4,23.8,46.2,9.5,16.1,20.1,31.5,32.2,46.9.3.4.7.9,1,1.3,3.1,4,5.9,8.1,7.9,12.5,1.8,3.9,3,8.2,3.2,12.8,0,1.2.1,2.4,0,3.6-.4,7.6-3,14.6-7.3,20.4,9,20.6,19.4,40.7,31.2,59.9,8.3,13.5,17.5,25.6,27.2,38,4.8,6.1,8.9,12.5,10.8,20,.8,3.2,1.3,6.5,1.1,10.1,0,.9-.3,1.7-.4,2.6-1,8.5-4.7,16.3-10.4,22.2-3.4,3.5-7.4,6.2-11.8,8.2,7.7,15.7,16,31.1,25,46.1.9,1.5,1.8,3,2.7,4.5.4.7.9,1.4,1.4,2.1,9.9,15.8,20.8,30.2,32.2,44.9,8.2,10.5,15.1,21.7,14.8,36.1,0,4-.9,7.9-1.9,11.6-3.8,13.3-13.1,24.3-25.5,30-.1,0-.3,0-.5.2-5.2,2.3-10.8,3.8-16.7,4.1-.8,0-1.5,0-2.2,0-12.8,0-24.3-5.1-32.8-13.4-1.7-1.7-4-2.5-6.2-2.5s-4.4.8-6,2.5c-8.5,8.3-20.1,13.4-32.8,13.4s-24.4-5.1-32.8-13.4c-1.7-1.7-3.9-2.5-6.1-2.5s-4.4.8-6.1,2.5c-8.5,8.3-20.1,13.4-32.8,13.4s-11.3-1.2-16.4-3.1v105.5c0,.7.1,1.3.2,1.9.2,1.6.6,3.1,1.2,4.6l20.9,44.5c.5,1.1.8,2.3,1.1,3.4,1.2,5.7-1,11.4-5.3,14.9-2.6,2.1-5.8,3.5-9.6,3.5h-61.6s0,0,0,0h-78.7c-11.1,0-18.5-11.6-13.8-21.7l19.8-42.7c.9-2,1.4-4.2,1.4-6.4v-107c-4.7,1.6-9.7,2.7-15,2.7-12.8,0-24.4-5.1-32.8-13.4-1.7-1.7-3.9-2.5-6.1-2.5s-4.4.8-6.1,2.5c-8.5,8.3-20.1,13.4-32.8,13.4s-24.4-5.1-32.8-13.4c-1.7-1.7-3.9-2.5-6.1-2.5s-4.4.8-6.1,2.5c-8.5,8.3-20.1,13.4-32.8,13.4-25.9,0-46.9-21-46.9-46.9s25.4-47,38.4-66.5c14-21.2,26.5-43.4,37.7-66.2-13.3-5.9-22.7-19.2-22.7-34.7s20.6-38,31.1-53.8c15.2-22.9,28.2-47.3,39.2-72.5-4.5-6.2-7.3-13.9-7.3-22.2,0-20.9,20.9-38.3,31.7-54.8,14.3-21.7,26.5-44.6,37.1-68.3-4.2-4.3-7.7-9.5-9.8-15.3-6-16.2,1-30.6,11.2-42.9,5.7-6.9,11.5-13.7,17-20.8,12.9-16.8,24.8-35.4,35.4-55,9.5-17.5,17.8-35.8,25-54.3.3-.7.6-1.3.8-2,1.1-2.9,2-5.7,3.1-8.6,1.3-3.5,2.6-7.1,3.8-10.6,1.4-4.2,5.1-6.3,8.7-6.3M599.9,78.8c-39.7,0-74.8,25.3-87.4,63-.6,1.7-1.2,3.5-1.9,5.2l-1.3,3.5-1.4,3.9c-.3.9-.6,1.7-.9,2.6-.3.8-.6,1.5-.9,2.3-6,15.6-13,30.7-20.6,44.8-8.7,16.1-18.2,30.9-28.2,43.9-3.6,4.6-7.4,9.2-11.2,13.7l-3.8,4.6c-35.5,42.8-35.6,83.5-29.5,110-4.6,8.3-9.4,16.3-14.4,23.9-.9,1.3-3.7,4.8-5.8,7.4-14.8,18.2-39.6,48.5-39.6,93.1,0,5.5.4,10.9,1.1,16.2-6,11.5-12.5,22.4-19.2,32.6-.9,1.3-3.7,4.8-5.7,7.3-14.6,18.2-39.2,48.8-39.2,92.3s2.6,28.5,7.4,41.6c-2.8,4.6-5.7,9.1-8.6,13.5-1.4,2.2-5,6.6-8.1,10.5-16.5,20.5-44.1,54.9-44.1,101.8,0,71.6,58.2,129.8,129.8,129.8s26.5-2,38.9-5.9c12.4,3.9,25.5,5.9,38.9,5.9s6.7-.1,10-.4v6.9l-13.5,29.1c-14.2,30.5-11.8,65.7,6.3,94.1,18.1,28.4,49,45.3,82.7,45.3h78.7s61.6,0,61.6,0c22.5,0,44.6-7.9,62.1-22.2,28.5-23.3,41.5-60.2,33.9-96.2-1.6-7.6-4-14.7-7.2-21.5l-14.5-30.8v-4.9c3.8.3,7.5.5,11.3.5,13.4,0,26.5-2,38.9-5.9,12.4,3.9,25.5,5.9,38.9,5.9s4,0,6.1-.1c14-.7,27.7-3.6,40.9-8.7l1.8-.5,5.5-2.5c34.3-15.9,60-46,70.4-82.5,3.2-11.2,4.9-21.8,5.1-32.6.9-41.5-18-70.6-32.3-88.9-10.8-13.8-19.6-25.6-27.3-37.8-.4-.6-.8-1.2-1.2-1.8h0c3-8.3,5.1-16.8,6.3-25.5.4-2.6.9-6.2,1.1-10.5.5-11.5-.7-23.1-3.6-34.5-5.9-23.2-17.6-39.9-25.8-50.4-9.3-11.8-16.1-21-21.9-30.3-4.4-7.2-8.7-14.7-12.8-22.4.5-3.5.8-7.1,1-10.7.2-5.2,0-9.6-.1-12.4-.9-14.6-4.4-28.8-10.6-42.3-5.8-12.7-12.8-22.4-17.6-28.7l-1.6-2.1c-9.7-12.3-18.2-24.6-26-37.8-1.3-2.1-2.5-4.3-3.8-6.5.1-.4.2-.9.3-1.3.3-1.5.7-3,.9-4.5,1-5.7,1.6-11.7,1.7-17.8,0-1.6,0-3.2,0-4.8,0-4.2-.4-8.6-.9-12.8-.2-1.5-.4-3.1-.7-4.6-.9-5.2-2.1-10.3-3.6-15.3-.4-1.3-.9-2.7-1.4-4.1-1.2-3.4-2.5-6.7-3.9-10-.5-1.1-1-2.3-1.6-3.4-1.8-3.9-3.8-7.5-5.8-11-.6-1.1-1.3-2.1-1.9-3.1-1.4-2.3-2.9-4.5-4.4-6.7-.7-1.1-1.5-2.1-2.2-3.1-1.4-1.8-2.7-3.6-4.1-5.4-.6-.8-1.2-1.5-1.8-2.3l-3.8-4.6c-3.8-4.5-7.6-9.1-11.2-13.8-5.2-6.7-10.4-14.3-15.6-22.5-16.1-25.4-29.7-54.3-39.5-83.6-3.2-9.6-7.9-18.6-14-26.6-2.9-3.9-6.2-7.5-9.7-10.9l-2.2-2.5-5.4-4c-.5-.4-1-.8-1.5-1.1l-1.1-.8-1.5-1c-5.8-3.9-11.1-6.5-14.5-8-3.6-1.6-7.2-3-10.9-4.1l-8.1-2.4-5.3-.5c-4.3-.6-8.8-.9-13.2-.9h0Z"/>
  </g>
  <g>
    <path class="st1" d="M878.5,828.9c1.1-3.7,1.8-7.6,1.9-11.6.3-14.4-6.6-25.6-14.8-36.1-11.5-14.6-22.3-29-32.2-44.9-.4-.7-.9-1.4-1.4-2.1-.9-1.5-1.8-3-2.7-4.5-9-15-17.3-30.4-25-46.1,4.4-2,8.5-4.8,11.8-8.2,5.7-5.9,9.4-13.7,10.4-22.2.1-.9.3-1.7.4-2.6.2-3.6-.3-7-1.1-10.1-1.9-7.4-6.1-13.9-10.8-20-9.7-12.4-18.9-24.5-27.2-38-11.8-19.2-22.2-39.3-31.2-59.9,4.2-5.8,6.9-12.9,7.3-20.4,0-1.2,0-2.4,0-3.6-.3-4.6-1.4-8.8-3.2-12.8-2-4.4-4.8-8.5-7.9-12.5-.3-.4-.7-.9-1-1.3-12.1-15.3-22.7-30.8-32.2-46.9-8.7-14.7-16.6-30-23.8-46.2-.2-.4-.3-.7-.5-1.1,2.8-3.2,5.1-6.4,6.8-9.5.3-.5.5-1,.7-1.5.7-1.3,1.3-2.7,1.8-4,.1-.3.3-.5.3-.8,0-.3.1-.5.2-.8.5-1.6,1-3.1,1.3-4.6,0-.2.1-.5.2-.7.3-1.7.5-3.4.5-5.1,0-.4,0-.9,0-1.3,0-1.4-.1-2.7-.3-4.1,0-.4,0-.7-.1-1.1-.3-1.6-.7-3.2-1.1-4.8-.1-.4-.3-.8-.4-1.2-.4-1.2-.9-2.5-1.4-3.7-.2-.4-.4-.9-.6-1.3-.7-1.5-1.5-2.9-2.3-4.4-.2-.3-.4-.7-.7-1-.7-1.1-1.4-2.2-2.2-3.3-.4-.5-.7-1-1.1-1.5-.8-1.1-1.7-2.2-2.6-3.3-.2-.2-.4-.5-.5-.7-5.7-6.9-11.5-13.7-17-20.8-7-9.1-13.6-18.7-19.9-28.6-19.9-31.4-36.4-66.6-48.1-101.7-.4-1.1-.9-2-1.5-2.8-.6-.8-1.3-1.4-2.1-2,0,0,0,0,0,0-.5-.4-1.2-.6-1.8-.8-.3-.1-.5-.3-.8-.4-.1,0-.3,0-.4,0-4.3-1.1-9.4.9-11.1,6-1.2,3.5-2.5,7.1-3.8,10.6-1,2.9-2,5.7-3.1,8.6-.3.7-.5,1.3-.8,2-7.2,18.5-15.5,36.7-25,54.3-10.6,19.6-22.5,38.1-35.4,55-5.5,7.1-11.3,13.9-17,20.8-10.2,12.3-17.2,26.7-11.2,42.9,2.2,5.9,5.6,11.1,9.8,15.3-10.6,23.7-22.8,46.7-37.1,68.3-10.9,16.5-31.7,34-31.7,54.8,0,8.3,2.7,15.9,7.3,22.2-11,25.2-24,49.6-39.2,72.5-10.5,15.8-31.1,34.1-31.1,53.8s9.3,28.8,22.7,34.7c-11.1,22.8-23.6,45-37.7,66.2-13,19.5-38.4,42.1-38.4,66.5s21,46.9,46.9,46.9,24.4-5.1,32.8-13.4c3.4-3.3,8.8-3.3,12.2,0,8.5,8.3,20.1,13.4,32.8,13.4s24.4-5.1,32.8-13.4c3.4-3.3,8.8-3.3,12.2,0,8.5,8.3,20.1,13.4,32.8,13.4s10.3-1.1,15-2.7v107c0,2.2-.5,4.4-1.4,6.4l-19.8,42.7c-4.7,10.1,2.7,21.7,13.8,21.7h78.7s0,0,0,0h61.6c3.7,0,7-1.4,9.6-3.5,4.3-3.5,6.5-9.2,5.3-14.9-.2-1.1-.6-2.3-1.1-3.4l-20.9-44.5c-.7-1.4-1-3-1.2-4.6,0-.6-.2-1.3-.2-1.9v-105.5c5.1,1.9,10.6,3.1,16.4,3.1,12.8,0,24.4-5.1,32.8-13.4,3.4-3.3,8.8-3.3,12.2,0,8.5,8.3,20.1,13.4,32.8,13.4s24.4-5.1,32.8-13.4c3.4-3.3,8.8-3.3,12.2,0,8.9,8.7,21.4,13.9,35,13.3,5.9-.3,11.6-1.7,16.7-4.1.1,0,.3,0,.5-.2,12.4-5.7,21.7-16.8,25.5-30Z"/>
    <path class="st0" d="M670.1,1041.8h-140.3c-6.4,0-12.3-3.2-15.8-8.6-3.4-5.4-3.9-12.1-1.2-17.9l19.8-42.7c.7-1.5,1.1-3.3,1.1-5v-102.4c-18,4.6-34.7-1-46.8-12.9-2-2-5.3-2-7.3,0-9.5,9.3-22,14.4-35.3,14.4s-25.8-5.1-35.3-14.4c-2-2-5.3-2-7.3,0-9.5,9.3-22,14.4-35.3,14.4-27.7,0-50.3-22.6-50.3-50.3s14.1-36.6,26.6-52.1c4.6-5.7,9-11.1,12.4-16.3,12.8-19.3,24.9-40.4,35.9-62.7-13.2-7.2-21.5-21.1-21.5-36.2s11.5-29.9,21.7-42.6c3.7-4.6,7.2-9,10-13.2,14.2-21.3,27-45,38.1-70.2-4.4-6.8-6.8-14.5-6.8-22.5,0-16.3,11.5-30.4,21.7-42.9,3.9-4.8,7.6-9.4,10.6-13.8,13.2-20,25.3-42.1,35.9-65.7-4-4.4-7-9.4-9-14.8-5.5-15-1.7-30.1,11.8-46.3l3.5-4.2c4.5-5.4,9.1-10.8,13.4-16.5,12.5-16.4,24.3-34.7,35.1-54.5,9.2-17.1,17.6-35.2,24.8-53.9l.8-1.9c.7-1.8,1.3-3.6,2-5.4l2.3-6.5c.9-2.4,1.8-4.8,2.5-7.2,2.1-6.4,8.6-9.9,15.2-8.3,1.1.3,1.5.5,1.7.6.5.2.9.4,1.4.6h.2l.7.5s0,0,.1,0l1.5,1.2c.5.5,1,1,1.4,1.5.8,1.1,1.5,2.4,2,3.8,11.8,35.3,28.3,70.2,47.8,100.9,6.4,10.1,13.1,19.7,19.7,28.4,4.3,5.6,8.8,11,13.4,16.5l4.1,5c.9,1.1,1.8,2.3,2.6,3.4l1.1,1.6c.8,1.1,1.6,2.3,2.3,3.5l.7,1.1c.9,1.5,1.7,3,2.4,4.6l.6,1.4c.6,1.3,1.1,2.6,1.5,4l.4,1.2c.5,1.7.9,3.4,1.2,5.2v1.2c.4,1.5.5,3,.5,4.5,0,.5,0,1,0,1.5,0,1.8-.2,3.7-.5,5.6l-.2.9c-.3,1.6-.8,3.3-1.4,5-.3,1.1-.5,1.4-.6,1.6-.6,1.5-1.3,2.9-2,4.4-.4.9-.6,1.3-.8,1.6-1.5,2.7-3.4,5.5-5.8,8.3,7.3,16.1,14.9,30.8,23.2,44.9,9.6,16.2,20.1,31.4,32,46.5l.6.8c4.3,5.6,6.9,9.7,8.8,13.8,2.1,4.6,3.3,9.2,3.5,14,0,1.3.1,2.6,0,4-.4,7.3-2.7,14.4-6.8,20.7,9,20.4,19.2,39.8,30.2,57.7,8.4,13.8,18,26.2,27,37.7,4.2,5.3,9.3,12.6,11.5,21.2,1,3.8,1.4,7.4,1.2,11.1,0,.7-.1,1.4-.3,2-1.2,9.9-5.2,18.5-11.5,25-2.8,2.9-6.1,5.4-9.7,7.4,7.3,14.8,15.1,29.1,23.4,42.8l4,6.6c10.1,16.1,21.4,30.9,32,44.6,8.3,10.6,15.9,22.5,15.5,38.3,0,3.9-.7,7.8-2.1,12.5h0c-4.1,14.3-14.1,26.1-27.4,32.2-6.3,2.8-12.3,4.2-18.5,4.5-13.9.7-27.5-4.4-37.6-14.3-2-2-5.4-2.1-7.4,0-9.5,9.3-22,14.4-35.2,14.4s-25.8-5.1-35.3-14.4c-2-2-5.3-2-7.4,0-12.5,12.3-30.4,17.5-48.2,12.6v100.7c0,.3,0,.6,0,.9.3,2,.6,3.2,1,4.1l20.9,44.5c.6,1.2,1,2.5,1.3,4.1,1.4,6.8-1.1,13.8-6.5,18.3-3.4,2.8-7.5,4.3-11.7,4.3ZM608.5,1034.9h61.6c3.4,0,5.9-1.5,7.4-2.7,3.5-2.8,5-7.2,4.1-11.5-.2-1.1-.5-1.9-.8-2.6l-20.9-44.5c-.8-1.6-1.3-3.5-1.5-5.6-.2-1.1-.2-1.7-.2-2.4v-110.4l4.7,1.7c16.8,6.3,33.8,1.9,45.6-9.6,4.7-4.6,12.3-4.6,17,0,8.2,8,19,12.4,30.4,12.4s22.2-4.4,30.4-12.4c4.7-4.6,12.4-4.5,17.1,0,8.7,8.5,20.3,12.8,32.4,12.3,5.3-.2,10.5-1.5,15.5-3.8,11.9-5.5,20.5-15.6,24.1-28h0c1.2-4.1,1.7-7.5,1.8-10.8.3-13.6-6.6-24.3-14-33.9-10.8-13.8-22.2-28.8-32.4-45.1l-4.1-6.7c-8.9-14.7-17.3-30.4-25.2-46.4l-1.6-3.2,3.3-1.5c4.1-1.9,7.8-4.4,10.8-7.5,5.2-5.4,8.6-12.6,9.5-20.2l.2-1.2c0-.4.1-.8.2-1.1.1-3-.2-6-1-9.1-1.9-7.4-6.2-13.6-10.2-18.7-9.1-11.7-18.8-24.3-27.4-38.3-11.5-18.7-22.1-39-31.4-60.3l-.8-1.8,1.2-1.6c4-5.6,6.3-12,6.6-18.6,0-1.1,0-2.2,0-3.3-.2-3.9-1.2-7.7-2.9-11.6-1.6-3.6-3.9-7.2-7.5-11.8h0s-1-1.3-1-1.3c-12.1-15.3-22.7-30.8-32.5-47.2-8.7-14.6-16.5-29.8-24-46.5l-.9-2,.9-2.7c2.7-3.1,4.8-6.1,6.4-8.9l.7-1.4c.7-1.2,1.2-2.5,1.7-3.7l.5-1.3c.5-1.5.9-2.9,1.2-4.3.4-2.2.6-3.8.6-5.3v-1.2c0-1.3-.1-2.5-.3-3.7l3.3-1.6-3.4.6c-.3-1.5-.6-2.9-1-4.3l2.9-2.2-3.3,1.1c-.4-1.1-.8-2.3-1.3-3.4l-.6-1.2c-.6-1.4-1.4-2.7-2.2-4.1l2.3-2.8-2.9,1.8c-.6-1.1-1.3-2.1-2.1-3.1l-1-1.4c-.8-1.1-1.6-2.1-2.5-3.2l-4-4.9c-4.6-5.5-9.2-11-13.5-16.7-6.8-8.9-13.5-18.6-20.1-28.9-19.8-31.2-36.5-66.6-48.5-102.5-.2-.7-.5-1.3-.9-1.8-.2-.2-.3-.4-.5-.6h-2.2l-.3-1.4c-2.7-.6-5.9.3-7.1,3.8-.8,2.5-1.7,4.9-2.6,7.4l-2.3,6.4c-.6,1.9-1.3,3.7-2,5.6l-.5,1.2c-7.7,19.7-16.1,38.1-25.5,55.4-10.9,20.1-22.9,38.8-35.7,55.4-4.4,5.7-9,11.2-13.5,16.7l-3.5,4.2c-11.9,14.3-15.3,26.9-10.6,39.5,1.9,5.3,5,10,9,14.1l1.7,1.7-1,2.2c-11,24.8-23.6,47.9-37.4,68.8-3.1,4.8-7,9.4-11,14.4-9.9,12.2-20.2,24.7-20.2,38.5s2.3,14.2,6.6,20.1l1.1,1.6-.8,1.8c-11.5,26.3-24.8,50.9-39.5,73-2.9,4.4-6.5,8.9-10.4,13.7-9.9,12.3-20.1,25.1-20.1,38.3s8.1,26,20.6,31.5l3.3,1.5-1.6,3.2c-11.6,23.8-24.3,46.2-37.9,66.6-3.6,5.4-8.1,11-12.7,16.8-11.7,14.6-25.1,31.2-25.1,47.8,0,23.9,19.5,43.4,43.4,43.4s22.3-4.4,30.4-12.4c4.7-4.6,12.3-4.6,17,0,8.2,8,19,12.4,30.4,12.4s22.3-4.4,30.4-12.4c4.7-4.6,12.3-4.6,17,0,8.2,8,19,12.4,30.4,12.4s9-.8,13.9-2.5l4.6-1.6v111.9c0,2.7-.6,5.4-1.7,7.9l-19.8,42.7c-1.7,3.7-1.4,7.9.8,11.3,2.2,3.4,5.9,5.4,10,5.4h78.7Z"/>
  </g>
</svg>