<?xml version="1.0" encoding="UTF-8"?>
<svg id="Calque_1" xmlns="http://www.w3.org/2000/svg" version="1.1" viewBox="0 0 1200 1200">
  <!-- Generator: Adobe Illustrator 29.3.1, SVG Export Plug-In . SVG Version: 2.1.0 Build 151)  -->
  <defs>
    <style>
      .st0 {
        fill: #0071ce;
      }

      .st1 {
        fill: #92c0e9;
      }
    </style>
  </defs>
  <path class="st0" d="M1144.5,583.9c0-5.4-.6-10.7-1.4-15.9,1.1-6.6,1.6-13.3,1.4-20.1-5.7-138.7-77.5-240.7-190-274.6-27.9-71-96.9-121.4-177.7-121.4s-183.5,78.6-190.3,177.8l-386.7,132.6c-16.9,6.5-42.7,16.1-42.7,16.1-62,22.7-101.6,53.3-101.6,105.5v337.5c0,69.9,56.9,126.7,126.7,126.7h835.6c69.9,0,126.7-56.9,126.7-126.7v-134.6c0-9.3-1.4-18.4-4-27,2.4-8.5,4-17.2,4-26v-149.8ZM229,646.3c.5,0,.9.1,1.4.1h54.5c-6.2,7.5-11.3,15.9-15.1,25.2-1,2.6-3.6,4.3-6.3,4.3-2.1-.1-4.8-.2-6.9-.2-3.1,0-11.3,0-23.1-22.2-1.4-2.5-3-4.9-4.5-7.2ZM430.4,646.4h133.6c-7,7.1-13,15.3-17.6,24.6-11.7,24.1-31.9,52.8-61.5,52.8s-21.3-11.6-40.9-55.6c-3.6-8-8.2-15.3-13.7-21.9ZM699.2,646.4h81.8c-16.1,9.8-29.4,24.3-37.4,42.4-3.8,8.6-7.3,14-9.8,17-3-3.7-8.1-11.4-13.3-25.7-4.7-12.9-12.1-24.3-21.3-33.7ZM1050,692.3c-20.7,0-41.3,6.8-58.3,20.1-9.5,7.4-21.4,11.5-33.5,11.5s-2.3,0-3.1,0h-1c-15.5,0-29.1-10-33.7-24.8-7-22.5-22-40.9-41.3-52.7h170.8v45.9ZM1040.5,489.4h-48.3c-2.2-1-4.4-1.6-6.8-1.6s-4.6.6-6.7,1.6h-57.7c0-.6.4-1.2.4-1.8v-20.2c8-9.3,15.1-19.3,21.2-30.1,2.9,2.2,6.2,3.7,9.7,3.7s7.6-1.3,10.6-4c6.7-5.9,7.3-16,1.4-22.7l-7.4-8.8c2.9-8.4,5.4-16.9,7.1-25.7,44.4,26.7,66,70.8,76.4,109.6ZM776.8,246.5c29.6,0,56,13.4,73.7,34.3-.9.7-2,1.1-2.9,1.8-20.7,15.5-34.1,38.8-37.2,64.4-2,17-16.4,29.8-33.5,29.8s-2.8,0-4.2-.3c-11-1.3-20.7-7.9-25.9-17.7-1.5-2.7-3.2-5.2-4.9-7.8,1.5-2.4,2.6-5.2,2.6-8.2,0-17.8,14.4-32.1,32.1-32.1s16.1-7.2,16.1-16.1-7.2-16.1-16.1-16.1c-29.1,0-53.4,19.5-61.3,46-9.1-6-19.2-10.5-29.8-13.1,13-37.8,48.8-65.1,91.1-65.1ZM604,423.7c4,8.5,8.4,16.7,13.6,24.4-5.9,4.6-8.1,12.6-4.7,19.5,2.8,5.7,8.5,9,14.4,9s4.8-.5,7.1-1.7l3.2-1.7c5.3,5.7,10.9,11.1,16.9,16.1h-160.4c-2.2-1-4.4-1.6-6.8-1.6s-4.6.6-6.7,1.6h-68.1l191.5-65.7ZM1017.8,953.5H182.2c-17.8,0-32.1-14.4-32.1-32.1v-126c30.1,24.2,66.1,37.3,106.5,37.3s67.3-9,90.5-22.7c31.3,38.7,75.6,70.9,137.9,70.9s103.4-20.4,143.4-58.5c39.8,37.2,83.7,42.5,105.4,42.5s57-4.3,93.3-32.1c34.6,31.2,79.5,48.1,130.7,48.1s62.6-6.7,92.2-20.7v61.2c0,17.8-14.4,32.1-32.1,32.1Z"/>
  <path class="st1" d="M904.3,358.3c-8.4,70.4-72.4,120.7-142.8,112.3-41.8-5-78.4-30.1-98.2-67.3l-433,148.5h819.6c-1.9-45.6-18.4-172.3-145.6-193.5ZM498.9,514.9l-16.1,16.1c-6.4,6.2-16.6,6-22.7-.4-6-6.2-6-16.1,0-22.3l16.1-16.1c6.4-6.2,16.6-6,22.7.4,6,6.2,6,16.1,0,22.3ZM590.6,535.7h-22.7c-8.9,0-16.1-7.2-16.1-16.1s7.2-16.1,16.1-16.1h22.7c8.9,0,16.1,7.2,16.1,16.1s-7.2,16.1-16.1,16.1ZM654.4,464.2l-20,10.7c-8,3.9-17.6.6-21.5-7.3-3.7-7.6-.9-16.8,6.4-21l20-10.7c7.9-4.1,17.6-1,21.7,6.9,4,7.7,1.1,17.3-6.5,21.5h0ZM739.9,531c-6.3,6.3-16.4,6.3-22.7,0l-16.1-16.1c-6.2-6.4-6-16.6.4-22.7,6.2-6,16.1-6,22.3,0l16.1,16.1c6.3,6.3,6.3,16.4,0,22.7ZM852.4,531c-6.3,6.3-16.4,6.3-22.7,0l-16.1-16.1c-6.2-6.4-6-16.6.4-22.7,6.2-6,16.1-6,22.3,0l16.1,16.1c6.3,6.3,6.3,16.4,0,22.7ZM921.4,487.5c0,8.9-7.2,16.1-16.1,16.1s-16.1-7.2-16.1-16.1v-22.7c0-8.9,7.2-16.1,16.1-16.1s16.1,7.2,16.1,16.1v22.7ZM939.8,434.9l-14.6-17.4c-5.7-6.8-4.8-16.9,2-22.6,6.8-5.7,16.9-4.8,22.6,2l14.6,17.4c5.9,6.7,5.2,16.8-1.4,22.7-6.7,5.9-16.8,5.2-22.7-1.4-.2-.2-.3-.4-.5-.6h0ZM981,531c-6.4,6.2-16.6,6-22.7-.4-6-6.2-6-16.1,0-22.3l16.1-16.1c6.4-6.2,16.6-6,22.7.4,6,6.2,6,16.1,0,22.3l-16.1,16.1Z"/>
  <path class="st1" d="M776.8,439.3c53.3,0,96.4-43.2,96.4-96.4s-43.2-96.4-96.4-96.4-96.4,43.2-96.4,96.4c0,53.2,43.2,96.4,96.4,96.4ZM776.8,278.6c8.9,0,16.1,7.2,16.1,16.1s-7.2,16.1-16.1,16.1c-17.8,0-32.1,14.4-32.1,32.1s-7.2,16.1-16.1,16.1-16.1-7.2-16.1-16.1c0-35.5,28.8-64.3,64.3-64.3Z"/>
  <path class="st1" d="M830.1,727c-16.3,37-45.5,75.3-96.4,75.3s-87.4-49.4-102.2-90c-24.7,50.8-71.7,106.1-146.6,106.1s-105.5-62.8-127.3-111.8c-16.3,40.9-57.2,66.6-101.1,63.6-45,0-81.6-25.4-106.5-72.2v223.4c0,17.8,14.4,32.1,32.1,32.1h835.6c17.8,0,32.1-14.4,32.1-32.1v-134.6c-26.3,20.6-58.8,31.7-92.2,31.6-58.2,1.6-110.4-35.8-127.7-91.4h0Z"/>
  <path class="st1" d="M150,586.5c6.4,46.4,29.5,151.6,106.5,151.6s71.7-39.1,85.2-80.5c2.1-6.4,8-10.9,14.8-11.1,6.8-.4,13.1,3.7,15.4,10.2l2.3,5.9c16.9,43.3,48.4,123.7,110.7,123.7,101.8,0,133.4-130.8,133.6-132.2,2-8.7,10.6-14.1,19.3-12.1,6.6,1.5,11.5,7,12.4,13.7.1,1.1,15.8,114.6,83.6,114.6s83.6-113.4,83.7-114.6c1.3-8.8,9.5-14.8,18.3-13.5,7.8,1.2,13.6,7.7,13.7,15.6,0,5.3,1.6,128.6,108.3,128.6s77.2-11.1,92.2-52.5v-149.8H150v2.6Z"/>
</svg>