<?xml version="1.0" encoding="UTF-8"?>
<svg id="Calque_1" xmlns="http://www.w3.org/2000/svg" version="1.1" viewBox="0 0 1200 1200">
  <!-- Generator: Adobe Illustrator 29.3.1, SVG Export Plug-In . SVG Version: 2.1.0 Build 151)  -->
  <defs>
    <style>
      .st0 {
        fill: #0071ce;
      }

      .st1 {
        fill: #92c0e9;
      }
    </style>
  </defs>
  <path class="st0" d="M1015.4,149.9c6,0,12,2.3,16.7,6.8,9.5,9.2,9.7,24.4.5,33.9-24.6,25.3-50.3,55.9-72,87.1,10.4,15.6,49.3,79.4,26.1,131.9-12,27.2-37.5,45-75.7,53.3,6.8,36.6,19.4,75.5,31.9,113.7,18.1,55.4,35,107.7,35,154.1,0,65.6-38.3,99.9-75.9,99.9s-72.6-29.4-72.6-93.9-20.8-104.3-38.8-111v319.1h51.9c13.2,0,23,9.2,23,22.4v53.9c0,13.2-9.7,25.4-23,25.4h-496.9c-13.2,0-24.9-12.2-24.9-25.4v-53.9c0-13.2,11.7-22.4,24.9-22.4h49.9V323.5c0-13.2,11.7-22.4,24.9-22.4h25.9v-25.4c0-13.2,11.7-22.4,24.9-22.4h242.5c13.2,0,22.9,9.2,22.9,22.4v25.4h30.9c13.2,0,22.9,9.2,22.9,22.4v253c86.8,14.4,86.7,122.7,86.7,160s12.8,46.1,25,46.1,27.9-18.2,27.9-52-15.9-87.6-32.7-139.2c-23.9-73.4-48.6-149.2-35.7-217,17.4-91,116.8-196.9,136.6-217.2,4.7-4.8,10.9-7.3,17.2-7.3M906,414.9c19.4-5,31.8-13.2,36.8-24.6,8.3-18.6-1.1-46.2-11-66.3-11.5,21.3-19.8,41.6-23.2,59.5-1.9,10.1-2.7,20.6-2.7,31.5M470.2,573.5h242.5c13.2,0,23.9-10.7,23.9-23.9v-170.6c0-13.2-10.7-23.9-23.9-23.9h-242.5c-13.2,0-23.9,10.7-23.9,23.9v170.6c0,13.2,10.7,23.9,23.9,23.9M1015.4,55.3c-31.8,0-62.8,13.1-85,35.9-24.1,24.8-67.6,72.8-104,130.5-3.5-2-7.2-3.8-10.9-5.4-20.2-34.8-57.8-57.7-101.8-57.7h-242.5c-44.9,0-84.1,24.4-104.6,60.4-39,19.3-65.9,58.9-65.9,104.6v535c-43.8,17.4-74.8,59.5-74.8,108.5v53.9c0,65.1,54.7,120,119.5,120h496.9c64.8,0,117.5-53.8,117.5-120v-53.9c0-17.7-3.8-34.5-10.6-49.4,65.7-20.8,123.1-84.9,123.1-187.1s-20.2-123.5-39.7-183.4c-3.6-11-7.2-22.1-10.7-33.1,26.2-20.9,41.8-45.2,51.1-66.2,11-24.8,28.6-83-1-160.1,9.2-10.8,18.7-21.4,28.3-31.2,45.6-46.9,44.5-122-2.4-167.6-22.3-21.6-51.6-33.5-82.6-33.5h0ZM540.9,449.5h101.2v29.3h-101.2v-29.3h0Z"/>
  <path class="st1" d="M1032.1,156.7c-9.5-9.2-24.6-9-33.9.5-19.7,20.3-119.1,126.2-136.6,217.2-13,67.8,11.8,143.6,35.7,217,16.8,51.7,32.7,100.5,32.7,139.2s-14.4,52-27.9,52-25-15.8-25-46.1.1-145.7-86.7-160v-253c0-13.2-9.7-22.4-22.9-22.4h-30.9v-25.4c0-13.2-9.7-22.4-22.9-22.4h-242.5c-13.2,0-24.9,9.2-24.9,22.4v25.4h-25.9c-13.2,0-24.9,9.2-24.9,22.4v621.1h-49.9c-13.2,0-24.9,9.2-24.9,22.4v53.9c0,13.2,11.7,25.4,24.9,25.4h496.9c13.2,0,22.9-12.2,22.9-25.4v-53.9c0-13.2-9.7-22.4-22.9-22.4h-51.9v-319.1c18,6.7,38.8,30,38.8,111s37.8,93.9,72.6,93.9,75.9-34.3,75.9-99.9-17-98.7-35-154.1c-12.4-38.2-25.1-77-31.9-113.7,38.2-8.2,63.7-26.1,75.7-53.3,23.2-52.4-15.7-116.3-26.1-131.9,21.7-31.2,47.4-61.8,72-87.1,9.2-9.5,9-24.6-.5-33.9ZM736.6,549.5c0,13.2-10.7,23.9-23.9,23.9h-242.5c-13.2,0-23.9-10.7-23.9-23.9v-170.6c0-13.2,10.7-23.9,23.9-23.9h242.5c13.2,0,23.9,10.7,23.9,23.9v170.6ZM942.8,390.2c-5.1,11.4-17.5,19.7-36.8,24.6,0-10.9.8-21.4,2.7-31.5,3.4-17.9,11.7-38.2,23.2-59.5,9.9,20.1,19.2,47.8,11,66.3Z"/>
  <rect class="st0" x="494.8" y="405.7" width="204" height="120"/>
</svg>