<?xml version="1.0" encoding="UTF-8"?>
<svg id="Calque_1" xmlns="http://www.w3.org/2000/svg" version="1.1" viewBox="0 0 1200 1200">
  <!-- Generator: Adobe Illustrator 29.3.1, SVG Export Plug-In . SVG Version: 2.1.0 Build 151)  -->
  <defs>
    <style>
      .st0 {
        fill: #0071ce;
      }

      .st1 {
        fill: #92c0e9;
      }
    </style>
  </defs>
  <path class="st1" d="M573.7,794.5c-4.8,0-9.6-.6-14.3-1.9-18.7-5.1-33.4-19.9-38.4-38.6-5-18.7.5-38.9,14.2-52.5l179.4-178.7c10.4-10.2,23.9-15.9,38.3-16,15.1,0,28.6,5.8,38.8,16.1,10.1,10.2,15.7,23.8,15.7,38.3s0,.8,0,1.1c-.4,13.9-6,26.9-15.8,36.8l-179.6,179.5c-10.4,10.3-24,15.9-38.4,15.9"/>
  <path class="st0" d="M753.3,546.5c3.9,0,7.6,1.6,10.4,4.4,2.7,2.8,4.3,6.5,4.3,10.4-.1,3.7-1.6,7.3-4.3,10l-179.5,179.4c-2.8,2.8-6.6,4.3-10.4,4.3s-2.6-.2-3.9-.5c-5.1-1.4-9.1-5.4-10.4-10.5-1.4-5.1.1-10.6,3.9-14.3l179.4-178.7c2.8-2.8,6.6-4.4,10.6-4.4M767.9,561.2h0M753.3,467.2h-.6c-24.7.2-48.1,9.9-65.7,27.2l-179.6,179c-23.7,23.5-33.1,58.3-24.6,90.7,8.6,32.4,34,58,66.3,66.7,8,2.2,16.3,3.3,24.6,3.3,25,0,48.6-9.7,66.3-27.3l179.7-179.5c15.8-16,25.3-36.5,27.2-58.5.2-2.5.4-5,.4-7.6s0-3.4-.2-5c-1.2-23.1-10.7-44.7-27.1-61.2-17.5-17.7-41-27.6-65.9-27.8h-.7"/>
  <path class="st1" d="M553.1,743.3c-7.5,0-15-2.1-21.7-6.5l-319.7-209c-29.4-19.3-48.3-50.3-51.8-85.3-3.5-35.4,8.8-70.1,33.9-95.2l166.8-167.2c21.8-22,52.2-34.6,83.2-34.6s8.2.2,12.3.7c35,3.7,66,22.8,85.1,52.3l208.8,319.6c10.3,15.7,8.1,36.4-5.1,49.7l-163.7,163.8c-7.7,7.7-17.8,11.6-28.1,11.6"/>
  <path class="st0" d="M443.8,185.2c2.7,0,5.4.1,8.2.4,22.9,2.5,43.4,15.1,55.9,34.5l208.9,319.7-163.7,163.8-319.7-209c-19.2-12.6-31.7-33.2-34.1-56.1-2.4-23.4,5.9-46.6,22.5-63.2l166.8-167.2c14.7-14.8,34.6-23,55.1-23M443.8,106c-41.5,0-82.1,16.9-111.4,46.4l-166.7,167.1c-33.5,33.5-50,79.9-45.3,127.1,4.8,47,30.1,88.6,69.5,114.5l319.8,209.1c13.3,8.7,28.4,12.9,43.4,12.9s40.8-7.9,56.1-23.2l163.7-163.8c26.5-26.5,30.8-68,10.3-99.4l-208.9-319.7c-25.4-39.3-67-64.9-113.9-69.9-5.6-.6-11.1-.9-16.6-.9"/>
  <path class="st1" d="M616.4,832.8c-2.8,0-5.6-.3-8.5-.9-13.2-2.9-24-12.3-28.7-24.9l-10.4-27.9c-5.4-14.5-1.8-30.9,9.1-41.8l172.5-172.5c7.6-7.6,17.7-11.6,28-11.6s9.3.8,13.8,2.5l27.8,10.4c12.7,4.7,22,15.5,24.9,28.7,2.9,13.2-1.2,26.9-10.7,36.5l-190,190c-7.5,7.5-17.6,11.6-28,11.6"/>
  <path class="st0" d="M778.6,592.8l27.8,10.4-190,190-10.4-27.9,172.5-172.5ZM778.6,513.6c-20.7,0-40.9,8.1-56.1,23.2l-172.5,172.5c-21.9,21.9-29.1,54.6-18.2,83.7l10.4,27.8c9.4,25.3,31,44.1,57.4,49.8,5.6,1.2,11.3,1.8,16.9,1.8,20.8,0,41-8.2,56.1-23.2l190-190c19.1-19.1,27.2-46.6,21.4-72.9-5.7-26.4-24.5-48-49.8-57.4l-27.9-10.4c-9-3.4-18.4-5-27.6-5"/>
  <path class="st1" d="M702.3,871.3c-31.2,0-62.1-8.2-89.3-23.7-10.7-6.1-18-16.9-19.6-29.2-1.6-12.2,2.5-24.5,11.3-33.3l194.3-194.3c7.5-7.6,18-11.9,28.6-11.9s3.5.1,5.2.4c12.3,1.7,23.4,8.8,29.5,19.6,20.8,37.2,27.9,80.8,20.1,122.7-7.8,41.9-30.1,80-62.9,107.3-32.8,27.3-74.3,42.3-116.9,42.4h-.3Z"/>
  <path class="st0" d="M827.6,618.2c16.3,29.2,21.9,63.2,15.8,96.1-6.1,32.9-23.5,62.7-49.3,84.1-25.7,21.4-58.1,33.2-91.6,33.2h-.2c-24.4,0-48.4-6.4-69.6-18.5l194.3-194.2.6-.6ZM827.6,538.9c-20.9,0-41,8.2-56,23.2l-.7.6-194.3,194.3c-17.5,17.5-25.8,42.1-22.5,66.5,3.3,24.5,17.8,46,39.2,58.3,33.1,19,70.8,29,109,29,52.1,0,102.7-18.4,142.5-51.5,39.8-33.2,67-79.5,76.5-130.5,9.5-51,.8-104-24.5-149.3-12.1-21.7-33.7-36.5-58.3-39.9-3.7-.5-7.3-.8-11-.8"/>
  <path class="st1" d="M934,861.3c-31.3,0-56.8-25.5-56.8-56.8s25.5-56.8,56.8-56.8,56.8,25.5,56.8,56.8-25.5,56.8-56.8,56.8"/>
  <path class="st0" d="M934,787.4c9.5,0,17.1,7.7,17.1,17.1s-7.7,17.1-17.1,17.1-17.1-7.7-17.1-17.1,7.7-17.1,17.1-17.1M934,708.1c-53.2,0-96.4,43.3-96.4,96.4s43.2,96.4,96.4,96.4,96.4-43.3,96.4-96.4-43.2-96.4-96.4-96.4"/>
  <path class="st1" d="M769.3,1032.6c-31.3,0-56.8-25.5-56.8-56.8s25.5-56.8,56.8-56.8,56.8,25.5,56.8,56.8-25.5,56.8-56.8,56.8"/>
  <path class="st0" d="M769.2,958.7c9.5,0,17.1,7.7,17.1,17.1s-7.7,17.1-17.1,17.1-17.1-7.7-17.1-17.1,7.7-17.1,17.1-17.1M769.2,879.4c-53.2,0-96.4,43.3-96.4,96.4s43.2,96.4,96.4,96.4,96.4-43.3,96.4-96.4-43.2-96.4-96.4-96.4"/>
  <path class="st1" d="M863.3,1009.1c-31.3,0-56.8-25.5-56.8-56.8s25.5-56.8,56.8-56.8,56.8,25.5,56.8,56.8-25.5,56.8-56.8,56.8"/>
  <path class="st0" d="M863.3,935.2c9.5,0,17.1,7.7,17.1,17.1s-7.7,17.1-17.1,17.1-17.1-7.7-17.1-17.1,7.7-17.1,17.1-17.1M863.3,855.9c-53.2,0-96.4,43.3-96.4,96.4s43.2,96.4,96.4,96.4,96.4-43.3,96.4-96.4-43.2-96.4-96.4-96.4"/>
  <path class="st1" d="M878.3,926.3c-31.3,0-56.8-25.5-56.8-56.8s25.5-56.8,56.8-56.8,56.8,25.5,56.8,56.8-25.5,56.8-56.8,56.8"/>
  <path class="st0" d="M878.3,852.4c9.5,0,17.1,7.7,17.1,17.1s-7.7,17.1-17.1,17.1-17.1-7.7-17.1-17.1,7.7-17.1,17.1-17.1M878.3,773.1c-53.2,0-96.4,43.3-96.4,96.4s43.2,96.4,96.4,96.4,96.4-43.3,96.4-96.4-43.2-96.4-96.4-96.4"/>
  <path class="st1" d="M794.7,944.1c-31.3,0-56.8-25.5-56.8-56.8s25.5-56.8,56.8-56.8,56.8,25.5,56.8,56.8-25.5,56.8-56.8,56.8"/>
  <path class="st0" d="M794.7,870.2c9.5,0,17.1,7.7,17.1,17.1s-7.7,17.1-17.1,17.1-17.1-7.7-17.1-17.1,7.7-17.1,17.1-17.1M794.7,790.9c-53.2,0-96.4,43.3-96.4,96.4s43.2,96.4,96.4,96.4,96.4-43.3,96.4-96.4-43.2-96.4-96.4-96.4"/>
  <path class="st1" d="M946.3,1054.4c-31.3,0-56.8-25.5-56.8-56.8s25.5-56.8,56.8-56.8,56.8,25.5,56.8,56.8-25.5,56.8-56.8,56.8"/>
  <path class="st0" d="M946.3,980.5c9.5,0,17.1,7.7,17.1,17.1s-7.7,17.1-17.1,17.1-17.1-7.7-17.1-17.1,7.7-17.1,17.1-17.1M946.3,901.2c-53.2,0-96.4,43.3-96.4,96.4s43.2,96.4,96.4,96.4,96.4-43.3,96.4-96.4-43.2-96.4-96.4-96.4"/>
  <path class="st1" d="M984,944.1c-31.3,0-56.8-25.5-56.8-56.8s25.5-56.8,56.8-56.8,56.8,25.5,56.8,56.8-25.5,56.8-56.8,56.8"/>
  <path class="st0" d="M984,870.2c9.5,0,17.1,7.7,17.1,17.1s-7.7,17.1-17.1,17.1-17.1-7.7-17.1-17.1,7.7-17.1,17.1-17.1M984,790.9c-53.2,0-96.4,43.3-96.4,96.4s43.2,96.4,96.4,96.4,96.4-43.3,96.4-96.4-43.2-96.4-96.4-96.4"/>
  <path class="st1" d="M767.9,561.2c0-3.9-1.5-7.6-4.3-10.4-2.7-2.8-6.5-4.3-10.4-4.4-4,0-7.8,1.6-10.6,4.4l-179.4,178.7c-3.7,3.7-5.2,9.2-3.9,14.3,1.4,5.1,5.3,9.1,10.4,10.5,5.1,1.4,10.6,0,14.3-3.8l179.5-179.4c2.6-2.7,4.2-6.2,4.3-10"/>
  <path class="st1" d="M507.9,220.1c-12.5-19.3-33.1-32-55.9-34.4-23.4-2.5-46.7,5.8-63.3,22.5l-166.8,167.2c-16.6,16.6-24.9,39.8-22.5,63.2,2.3,22.9,14.8,43.5,34.1,56.1l319.8,209,163.7-163.8-208.9-319.7Z"/>
  <polygon class="st1" points="778.6 592.8 606.1 765.3 616.4 793.2 806.4 603.2 778.6 592.8"/>
  <path class="st1" d="M827,618.9l-194.3,194.3c21.2,12.2,45.3,18.5,69.8,18.5,33.5,0,65.9-11.8,91.6-33.2,25.7-21.4,43.2-51.2,49.3-84.1,6.1-32.9.5-66.9-15.8-96.1l-.6.6Z"/>
  <path class="st1" d="M951.1,804.5c0,9.5-7.7,17.1-17.1,17.1s-17.1-7.7-17.1-17.1,7.7-17.1,17.1-17.1,17.1,7.7,17.1,17.1"/>
  <path class="st1" d="M786.4,975.8c0,9.5-7.7,17.1-17.1,17.1s-17.1-7.7-17.1-17.1,7.7-17.1,17.1-17.1,17.1,7.7,17.1,17.1"/>
  <path class="st1" d="M880.4,952.3c0,9.5-7.7,17.1-17.1,17.1s-17.1-7.7-17.1-17.1,7.7-17.1,17.1-17.1,17.1,7.7,17.1,17.1"/>
  <path class="st1" d="M895.4,869.5c0,9.5-7.7,17.1-17.1,17.1s-17.1-7.7-17.1-17.1,7.7-17.1,17.1-17.1,17.1,7.7,17.1,17.1"/>
  <path class="st1" d="M811.9,887.4c0,9.5-7.7,17.1-17.1,17.1s-17.1-7.7-17.1-17.1,7.7-17.1,17.1-17.1,17.1,7.7,17.1,17.1"/>
  <path class="st1" d="M1001.1,887.4c0,9.5-7.7,17.1-17.1,17.1s-17.1-7.7-17.1-17.1,7.7-17.1,17.1-17.1,17.1,7.7,17.1,17.1"/>
</svg>