<?xml version="1.0" encoding="UTF-8"?>
<svg id="Calque_1" xmlns="http://www.w3.org/2000/svg" version="1.1" viewBox="0 0 1200 1200">
  <!-- Generator: Adobe Illustrator 29.3.1, SVG Export Plug-In . SVG Version: 2.1.0 Build 151)  -->
  <defs>
    <style>
      .st0 {
        fill: #0071ce;
      }

      .st1 {
        fill: #92c0e9;
      }
    </style>
  </defs>
  <path class="st1" d="M719.4,1025c-1.6,0-3.2,0-4.8-.1-31.9-1.4-61.2-17-80.4-42.6-13-17.5-24.6-36-34.5-55.3-9.9,19.3-21.4,37.8-34.5,55.3-19.3,25.8-48.8,41.3-80.9,42.6-1.4,0-2.8,0-4.2,0-28.1,0-54.9-11.1-74.7-30.7-7.2,2.1-14.7,3.2-22.3,3.2-16.7,0-32.7-5.2-46.2-15-20.1-14.5-31.9-37.1-32.6-61.5-25.8-13.7-44.8-37.3-52.7-65.7-8.5-30.8-2.7-63.5,15.7-89.6,12.6-17.8,26.6-34.4,41.9-49.8-21.4-3.5-42.6-8.7-63.3-15.8-30.5-10.3-54.4-33.6-65.5-63.8-10.3-27.8-8.5-58.2,4.7-84.5-13.8-20.1-17.6-45.2-10-68.8,7.6-23.6,25.4-41.8,48.4-50,5-28.8,21.6-54.2,46.2-70.4,17.4-11.5,37.6-17.5,58.5-17.5s21.3,1.6,31.5,4.8c20.8,6.5,41,14.7,60.4,24.5-3.3-21.5-4.9-43.2-4.6-65,.4-32.2,15.1-62.1,40.4-82.1,18.7-14.7,42-22.8,65.8-22.8s10.8.4,16.1,1.2c14.9-19.4,37.7-30.7,62.4-30.7,24.9.2,47.6,11.5,62.4,30.6,4.9-.7,9.9-1.1,14.9-1.1,24,0,47.6,8.3,66.3,23.2,25,20,39.5,49.7,39.9,81.7.3,21.8-1.3,43.5-4.6,65,19.4-9.8,39.6-18,60.4-24.5,10.2-3.2,20.8-4.8,31.5-4.8,21.1,0,41.5,6.2,59,17.9,24.7,16.5,41.2,42.2,45.9,71.2,22.9,8.1,40.8,26.3,48.5,49.8,7.7,23.5,4,48.7-9.7,68.9,12.9,26.3,14.4,56.5,4,84.1-11.3,29.9-35.1,53-65.3,63.2-20.7,7-41.8,12.3-63.2,15.7,15.3,15.4,29.4,32.1,41.9,49.8,18.6,26.3,24.3,59.1,15.5,90.2-8.1,28.6-27.4,52.2-53.6,65.6-.6,24.3-12.4,46.9-32.3,61.5-13.6,9.9-29.7,15.1-46.5,15.1s-14.9-1-22.1-3.1c-19.7,19.1-46.2,29.9-73.9,29.9"/>
  <path class="st0" d="M600.7,215c13.2,0,25.5,6.9,32.6,18.1,3.2,5,7.8,8.9,13.3,11.2,3.6,1.5,7.4,2.3,11.3,2.3s4-.2,6-.6c4.6-1,9.2-1.5,13.8-1.5,14.9,0,29.5,5,41.4,14.5,15.5,12.4,24.6,31.1,24.9,50.9.8,59.4-13.6,118.1-41.6,170.5,41.2-42.9,92.5-74.7,149.3-92.3,6.4-2,13.1-3,19.7-3,13,0,25.8,3.8,36.8,11.1,16.6,11.1,27.4,29.1,29.2,49,.6,6,3,11.7,6.9,16.3,3.9,4.6,9.2,7.8,15,9.3,12.9,3.2,23.3,12.9,27.5,25.6,4.1,12.7,1.5,26.6-7,36.9-3.8,4.6-6.1,10.2-6.6,16.1-.5,5.9.8,11.8,3.8,17,9.9,17.2,11.6,37.9,4.6,56.5-7,18.6-21.9,33-40.7,39.4-36.5,12.4-74.7,18.6-112.9,18.6s-41.5-1.8-62.1-5.5c53.5,25.9,99.6,64.9,133.9,113.4,11.5,16.3,15.1,37,9.7,56.2-5.4,19.2-19.2,35-37.6,42.9-5.5,2.4-10.2,6.4-13.3,11.5-3.1,5.1-4.6,11.1-4.2,17.1.9,13.3-5.1,26.2-15.9,34.1-6.7,4.9-14.8,7.5-22.9,7.5s-9.7-.9-14.4-2.8c-3.4-1.4-7.1-2.1-10.7-2.1s-4.4.2-6.6.8c-5.8,1.3-11,4.4-15,8.8-12.6,14-30.5,22-49.3,22s-2,0-3,0c-19.8-.9-38.2-10.7-50.1-26.6-35.6-47.6-58.4-103.5-66.5-162.4-8.1,58.9-31,114.7-66.5,162.4-12,16-30.5,25.8-50.5,26.6-.9,0-1.7,0-2.6,0-19,0-37.2-8.2-49.8-22.5-4-4.5-9.3-7.7-15.1-9.1-2.2-.5-4.5-.8-6.7-.8-3.7,0-7.4.7-10.9,2.1-4.7,1.9-9.6,2.8-14.5,2.8-8.1,0-16.1-2.5-22.8-7.4-10.8-7.8-16.9-20.7-16-34,.4-5.9-1.1-11.8-4.1-16.9-3.1-5.1-7.6-9.1-13.1-11.5-18.1-8.1-31.7-23.8-37-43-5.3-19.2-1.7-39.6,9.8-55.8,34.3-48.5,80.4-87.5,133.8-113.4-20.6,3.7-41.3,5.5-62.1,5.5-38.3,0-76.4-6.2-112.9-18.6-18.9-6.4-33.9-21-40.9-39.8-6.9-18.8-5-39.6,5.2-56.8,3.1-5.2,4.4-11.2,4-17.2-.5-6-2.8-11.7-6.7-16.3-8.6-10.2-11.3-24.2-7.2-36.9,4.1-12.7,14.5-22.4,27.4-25.7,5.8-1.5,10.9-4.7,14.8-9.1,3.9-4.5,6.3-10.1,6.9-15.9,2-19.8,12.8-37.6,29.4-48.5,10.9-7.2,23.6-10.9,36.5-10.9s13.2,1,19.7,3c56.8,17.6,108.1,49.4,149.2,92.3-28.1-52.4-42.4-111.1-41.6-170.5.2-20,9.5-38.8,25.2-51.2,11.8-9.3,26.3-14.2,41-14.2s9.8.5,14.6,1.6c2.1.5,4.3.7,6.4.7,3.8,0,7.6-.8,11.2-2.2,5.6-2.3,10.3-6.3,13.5-11.4,7.1-11.3,19.6-18.2,32.9-18.2h.3ZM599.5,530.7h0c-7.5.2-13.5,6.4-13.5,13.9s6.2,13.9,13.9,13.9,13.9-6.2,13.9-13.9-1.5-7.3-4.2-9.9c-2.6-2.5-6.1-3.9-9.7-3.9h-.4M554.6,573.1c7.7,0,13.9-6.2,13.9-13.9,0-3.8-1.5-7.4-4.2-10-2.6-2.5-6.1-4-9.7-4h-.4c-7.5.2-13.5,6.4-13.5,13.9,0,7.7,6.2,13.9,13.9,13.9M645.1,573.2c7.7,0,13.9-6.2,13.9-13.9,0-3.7-1.5-7.3-4.2-10-2.6-2.5-6.1-4-9.7-4h-.3c-7.6.2-13.6,6.4-13.6,13.9,0,7.7,6.2,13.9,13.9,13.9M599.9,600.1c7.7,0,13.9-6.2,13.9-13.9s-1.5-7.3-4.2-10c-2.6-2.5-6.1-3.9-9.7-3.9s-.3,0-.4,0c-7.5.2-13.5,6.4-13.5,13.9s6.2,13.9,13.9,13.9M526.6,611.6c7.7,0,13.9-6.2,13.9-13.9,0-3.8-1.5-7.4-4.2-10-2.6-2.5-6.1-4-9.7-4s-.3,0-.4,0c-7.6.2-13.5,6.4-13.5,13.9,0,7.7,6.2,13.9,13.9,13.9M673.1,611.7c7.7,0,13.9-6.2,13.9-13.9,0-3.7-1.5-7.4-4.2-10-2.6-2.5-6.1-3.9-9.7-3.9s-.3,0-.4,0c-7.5.2-13.5,6.4-13.5,13.9,0,7.7,6.2,13.9,13.9,13.9M566.1,624.4c7.7,0,13.9-6.2,13.9-13.9s-1.5-7.3-4.2-9.9c-2.6-2.5-6.1-3.9-9.7-3.9h-.4c-7.5.2-13.5,6.4-13.5,13.9,0,7.7,6.2,13.9,13.9,13.9M633.5,624.6c7.7,0,13.9-6.2,13.9-13.9s-1.5-7.3-4.2-9.9c-2.6-2.5-6.1-3.9-9.7-3.9s-.2,0-.4,0c-7.5.2-13.5,6.4-13.5,13.9s6.2,13.9,13.9,13.9M526.5,659.2c7.7,0,13.9-6.2,13.9-13.9s-1.5-7.3-4.2-10c-2.6-2.5-6.1-3.9-9.7-3.9s-.3,0-.4,0c-7.5.2-13.5,6.4-13.5,13.9s6.2,13.9,13.9,13.9M672.7,631.6h0c-7.5.2-13.4,6.4-13.4,13.9-.2,3.8,1.1,7.6,3.7,10.3,2.6,2.8,6.3,4.4,10.1,4.4s7.5-1.6,10.1-4.4c2.6-2.8,4-6.5,3.7-10.3,0-3.7-1.5-7.3-4.2-10-2.6-2.5-6.1-3.9-9.7-3.9s-.2,0-.4,0M578.9,664.1c7.7,0,13.9-6.2,13.9-13.9s-1.5-7.3-4.2-9.9c-2.6-2.5-6.1-3.9-9.7-3.9h-.4c-7.5.2-13.5,6.4-13.5,13.9s6.2,13.9,13.9,13.9M620.6,664.1c7.7,0,13.9-6.2,13.9-13.9s-1.5-7.3-4.2-10c-2.6-2.5-6.1-3.9-9.7-3.9s-.2,0-.4,0c-7.5.2-13.5,6.4-13.5,13.9s6.2,13.9,13.9,13.9M554.5,697.8c7.7,0,13.9-6.2,13.9-13.9s-1.5-7.3-4.2-10c-2.6-2.5-6.1-3.9-9.7-3.9h-.4c-7.5.2-13.5,6.4-13.5,13.9,0,7.7,6.2,13.9,13.9,13.9M644.7,670h0c-7.5.2-13.5,6.4-13.5,13.9s6.2,13.9,13.9,13.9,13.9-6.2,13.9-13.9-1.5-7.3-4.2-10c-2.6-2.5-6.1-3.9-9.7-3.9s-.3,0-.4,0M599.8,712.5c7.7,0,13.9-6.2,13.9-13.9s-1.5-7.3-4.2-10c-2.6-2.5-6.1-3.9-9.7-3.9s-.3,0-.4,0c-7.5.2-13.5,6.4-13.5,13.9s6.2,13.9,13.9,13.9M672.7,631.6h0M600.7,135.1c-.6,0-1.1,0-1.7,0-28.9.3-56,10.9-77,29.5h-.1c-32.7,0-64.9,11.2-90.6,31.4-34.8,27.5-55.1,68.6-55.6,113,0,1.3,0,2.7,0,4.1-1.3-.4-2.6-.8-3.9-1.2-14.1-4.4-28.7-6.6-43.4-6.6-28.7,0-56.5,8.4-80.5,24.2-27.7,18.3-48,45-58.2,75.8-24.6,14.5-43.3,37.6-52.4,65.7-9,28-7.4,57.5,3.9,83.5-10.1,31-9.6,64.6,1.9,95.9,15.3,41.6,48.2,73.6,90.2,87.8,1.3.5,2.6.9,4,1.3-.8,1.1-1.6,2.2-2.4,3.3-25.4,35.9-33.3,80.8-21.6,123.2,8.8,32,27.9,59.6,54.1,78.9,6.2,27.9,22.4,52.8,46.3,70.1,20.4,14.8,44.5,22.5,69.6,22.5s7.3-.2,11-.5c24.8,18,54.8,28,86,28s3.8,0,5.8-.1c44.3-1.7,84.9-23.1,111.4-58.6.8-1.1,1.6-2.2,2.5-3.3.8,1.1,1.6,2.2,2.5,3.3,26.3,35.2,66.6,56.6,110.5,58.6,2.2.1,4.4.2,6.6.2,30.7,0,60.4-9.7,85-27.3,3.6.3,7.3.5,11,.5,25.3,0,49.6-7.9,70-22.8,23.7-17.3,39.7-42.1,45.9-69.8,26.4-19.1,45.8-46.6,54.9-78.8,12-42.7,4.2-87.9-21.4-124.1-.8-1.1-1.6-2.2-2.4-3.3,1.3-.4,2.6-.9,3.9-1.3,41.6-14.1,74.4-45.8,89.9-87,11.7-31.1,12.4-64.6,2.6-95.6,11.3-26.2,12.9-55.9,3.7-83.9-9.1-27.9-27.7-50.8-52.1-65.2-10-31.1-30.2-58-57.9-76.6-24.1-16.1-52.2-24.6-81.2-24.6s-29.3,2.2-43.4,6.6c-1.3.4-2.6.8-4,1.2,0-1.3,0-2.7,0-4-.6-44-20.6-84.9-54.9-112.4-25.5-20.4-57.4-31.7-90-32-21.2-18.7-48.5-29.4-77.7-29.6h-.6"/>
</svg>