<?xml version="1.0" encoding="UTF-8"?>
<svg id="Calque_1" xmlns="http://www.w3.org/2000/svg" version="1.1" viewBox="0 0 1200 1200">
  <!-- Generator: Adobe Illustrator 29.3.1, SVG Export Plug-In . SVG Version: 2.1.0 Build 151)  -->
  <defs>
    <style>
      .st0 {
        fill: #0071ce;
      }

      .st1 {
        fill: #92c0e9;
      }
    </style>
  </defs>
  <g id="SVGCleanerId_0">
    <path d="M381.6,618.8c-49.4,0-89.7,38.9-89.7,86.8s40.2,86.8,89.7,86.8,89.7-38.9,89.7-86.8-40.2-86.8-89.7-86.8ZM381.6,759.5c-31.3,0-56.7-24.2-56.7-53.9s25.5-53.9,56.7-53.9,56.7,24.2,56.7,53.9-25.5,53.9-56.7,53.9Z"/>
  </g>
  <path d="M564.6,333.7c-44.9,0-80,27.1-80,61.7s35.2,61.7,80,61.7,80-27.1,80-61.7c0-34.6-35.2-61.7-80-61.7ZM564.6,424.2c-25.1,0-47.1-13.5-47.1-28.8s19.3-28.8,47.1-28.8,47.1,15.2,47.1,28.8c0,15.4-22,28.8-47.1,28.8Z"/>
  <path d="M381.6,618.8c-49.4,0-89.7,38.9-89.7,86.8s40.2,86.8,89.7,86.8,89.7-38.9,89.7-86.8-40.2-86.8-89.7-86.8ZM381.6,759.5c-31.3,0-56.7-24.2-56.7-53.9s25.5-53.9,56.7-53.9,56.7,24.2,56.7,53.9-25.5,53.9-56.7,53.9Z"/>
  <path class="st0" d="M108.9,1046.4c-42.9,0-76.5-33.7-76.5-76.8v-118c0-21.1,9.1-40.1,23.7-53.3-14.7-13-23.7-32.5-23.7-55v-84.8c0-38,14.4-63.9,22.1-75,3.6-5.8,10.2-15.8,20.4-27.6,8.9-10.4,29.7-28.3,85.4-73.9l2.5-2c3.8-3.1,6.5-5.3,7.6-6.2,16-13.6,34.6-20.8,53.8-20.8s9.6.6,13.9,1.4c-.9-9.2.2-18.7,3.6-28,4.7-12.9,13.1-24.7,25.1-34.8,45.4-38.4,248-210.5,252.9-214.7,17.5-15,40.8-23.1,65.9-23.1,72.9,0,145.9,10.7,216.8,31.9,125.5,37.5,235,104.9,325.4,200.4,16.9,17.9,25.6,37.2,28.7,45.1,2.8,7,11.1,30,11.1,55.4,0,62.6-1.3,211.1-2,282.5v10.4c-.2,14.5-.3,23.5-.3,24.8,0,40.1-25.4,70-64.8,76.2l-262.4,44.3c-279.9,47.2-702.9,118.6-715.2,120.7-4.8.8-9.5,1.2-14,1.2ZM127,872.6v76c88.5-14.9,447.9-75.6,695.4-117.3l248.5-41.9c0-3.2,0-6.8,0-10.9v-10.4c.7-65.7,2.1-219.4,2.1-281.7s-2.9-16.7-4.4-20.2l-.3-.7c-.9-2.2-4.2-9.1-9.3-14.5-78.8-83.3-174.3-142.1-283.8-174.8-62.2-18.6-126-28-189.8-28s-4.5.6-4.9.8c-3.1,2.8-166.2,141.2-232.2,197.1,8,10.9,12.4,23.5,12.4,36.7,0,27.1-18.2,50.5-48.8,62.7-25.6,10.1-57.7,11.5-84.8,3.8-1.3,1.1-2.9,2.4-4.6,3.8l-2.5,2c-16.2,13.3-65.8,53.8-73.8,62.6-7.1,8.2-10.8,14.4-11.5,15.5l-2.8,4.2c-.2.2-5.1,7.4-5.1,21v63.1c34.2,7.2,60.1,38.3,60.1,75.5s-25.8,68.3-60.1,75.5ZM103.5,873.7s0,0,.2,0c0,0-.1,0-.2,0ZM1085.3,786.9c0,0-.1,0-.2,0h.2ZM713.9,646.8c-54.7,0-99.2-43.6-99.2-97.3,0-12.7,1.2-19.2,3.6-27.5l.7-2.5c15.1-47.8,64.5-54,80.7-56.1,30.6-3.8,60.6,4.6,82.5,22.5,19.9,16.3,30.9,38.8,30.9,63.5,0,53.7-44.5,97.3-99.2,97.3ZM722.4,559.2s0,0,0,0l29.9-36.6-29.9,36.6Z"/>
  <g>
    <path class="st1" d="M1112.5,448.4c-1.3-3.4-7.2-17.5-19.1-30-84.6-89.4-187.1-152.5-304.6-187.6-66.5-19.9-134.9-29.9-203.3-29.9s-26.2,4.1-35,11.6c-4,3.4-212.1,180.1-253.1,214.8-5.6,4.8-9.4,9.8-11.3,15-3,8.3,1,17.4,9.1,20.8,12,5,18.3,13.2,18.3,19.7s-6.6,13.8-19,18.7c-9,3.6-19.6,5.5-30.5,5.5s-18.6-1.4-26.7-4.1c-.2,0-7.4-2.9-13.2-2.9s-15.7,3.2-23.1,9.5c-1.4,1.2-5.3,4.4-10.9,8.9-42.2,34.5-71.9,59.3-79.5,68.2-9.4,10.9-14.8,19.5-16.6,22.6-3.7,5-14.4,21.9-14.4,49.1v84.8c0,17.1,11.4,24.8,22.8,24.8s4.2-.3,5.4-.5h.6c1.1-.3,2.2-.3,3.4-.3,15.3,0,27.8,13.4,27.8,29.8s-12.5,29.8-27.8,29.8-2.1,0-3.1-.2c-1.1-.1-2.1-.2-3.2-.2-12.7,0-25.9,9.4-25.9,25.1v118c0,16.8,12.6,29.5,29.2,29.5s4-.2,6-.5c12.3-2.1,435.4-73.5,715.3-120.7,127.6-21.5,230.5-38.9,262.9-44.4,11.3-1.8,24.9-8.3,24.9-29.5s0-10.2.2-25.2c.6-62,2.1-226.6,2.1-292.4,0-17.5-6.4-34.6-7.8-38ZM752.3,522.6c6.2,5.1,13.6,13.8,13.6,26.9,0,27.6-23.3,50-51.9,50s-51.9-22.4-51.9-50c0-9.3.7-10.8,2.1-15.7,3.1-9.8,10.3-19.5,41.5-23.4,2.7-.3,5.6-.5,8.3-.5,14.4,0,28.4,4.6,38.3,12.7h0s0,0,0,0Z"/>
    <path class="st0" d="M108.9,1007c-21.2,0-37.1-16.1-37.1-37.4v-118c0-22.5,20.8-34.8,38-32.7.5,0,1.3.1,2.1.1,11,0,19.9-9.8,19.9-21.9s-8.9-21.9-19.9-21.9-1.6,0-2.3.2c-2.2.3-4.5.6-7.2.6-14.7,0-30.6-10.2-30.6-32.7v-84.8c0-29.1,11.2-47.3,16-53.8,1.5-2.7,7.2-11.8,17-23.1,8-9.2,36.7-33.3,80.5-69.1l2.5-2c4.2-3.4,7.1-5.8,8.3-6.8,8.9-7.6,18.3-11.4,28.2-11.4s13.2,2.3,15.9,3.3c15.4,5.1,36.5,4.7,51.6-1.3,9.7-3.9,14-8.5,14-11.4s-3.3-8.1-13.5-12.4c-12-5-17.9-18.5-13.5-30.8,2.3-6.5,6.9-12.6,13.6-18.3,38.5-32.6,249-211.3,253.1-214.8,10.2-8.8,24.5-13.6,40.2-13.6,69.1,0,138.3,10.2,205.6,30.3,118.8,35.5,222.5,99.3,308.1,189.8,12.7,13.4,19,28.2,20.7,32.5,1.5,3.6,8.4,21.8,8.4,40.9,0,62.5-1.4,216.4-2,282.1v10.4c-.2,14.9-.3,24.1-.3,25.1,0,20.6-11.5,34.2-31.5,37.3l-262.8,44.4c-279.9,47.2-703,118.6-715.3,120.7-2.5.4-4.9.6-7.3.6ZM105.6,834.4c-8.9,0-18,6.5-18,17.2v118c0,14.1,11.8,23.6,26,21.2,12.3-2.1,435.4-73.5,715.3-120.7l262.9-44.4c12.5-2,18.3-8.9,18.3-21.7s0-10.2.2-25.2v-10.4c.7-65.7,2.1-219.6,2.1-282,0-16.6-6.5-33.2-7.2-35h0c-1-2.6-6.4-15.9-17.4-27.5-83.6-88.4-185-150.8-301.1-185.5-65.8-19.7-133.4-29.6-201-29.6s-22.6,3.5-29.9,9.7c-4.1,3.5-214.7,182.3-253.2,214.9-4.5,3.9-7.6,7.8-9,11.6-1.6,4.3.5,9.1,4.8,10.9,14.1,5.9,23.2,16.5,23.2,27s-3.1,17.8-24,26.1c-18.5,7.3-43.3,7.9-62.6,1.5-3.5-1.3-7.9-2.5-10.7-2.5-6,0-12,2.6-18,7.6-1.2,1-4.2,3.5-8.5,7l-2.5,2c-36.3,29.7-71,58.4-78.6,67.2-8.9,10.4-14,18.5-15.7,21.5-3.5,4.8-13.3,20.1-13.3,45.1v84.8c0,12.5,7.7,16.9,14.9,16.9s3.2-.2,4.1-.4c2.2-.3,3.7-.4,5.3-.4,19.7,0,35.7,16.9,35.7,37.7s-16,37.6-35.7,37.6-2.8,0-4-.2c-.9-.1-1.6-.2-2.4-.2ZM713.9,607.4c-33,0-59.8-26-59.8-57.9,0-9,.7-11.9,2-16.5l.5-1.6c5.3-16.7,19.6-25.3,48.1-28.8,19.2-2.4,39.2,3,52.6,13.9,7.5,6.1,16.5,16.8,16.5,33,0,31.9-26.8,57.9-59.8,57.9ZM714,517.8c-2.5,0-4.9.2-7.4.5-30.5,3.8-33.4,13-35,17.9-1.4,4.8-1.8,6.1-1.8,13.3,0,23.2,19.8,42.1,44,42.1s44.1-18.9,44.1-42.1-3.6-15-10.7-20.8h0c-8.5-7-20.6-11-33.3-11Z"/>
  </g>
  <g id="SVGCleanerId_01" data-name="SVGCleanerId_0">
    <path class="st0" d="M381.6,618.8c-49.4,0-89.7,38.9-89.7,86.8s40.2,86.8,89.7,86.8,89.7-38.9,89.7-86.8-40.2-86.8-89.7-86.8ZM381.6,759.5c-31.3,0-56.7-24.2-56.7-53.9s25.5-53.9,56.7-53.9,56.7,24.2,56.7,53.9-25.5,53.9-56.7,53.9Z"/>
  </g>
  <path class="st0" d="M564.6,333.7c-44.9,0-80,27.1-80,61.7s35.2,61.7,80,61.7,80-27.1,80-61.7c0-34.6-35.2-61.7-80-61.7ZM564.6,424.2c-25.1,0-47.1-13.5-47.1-28.8s19.3-28.8,47.1-28.8,47.1,15.2,47.1,28.8c0,15.4-22,28.8-47.1,28.8Z"/>
  <path class="st0" d="M381.6,618.8c-49.4,0-89.7,38.9-89.7,86.8s40.2,86.8,89.7,86.8,89.7-38.9,89.7-86.8-40.2-86.8-89.7-86.8Z"/>
  <g>
    <path class="st0" d="M1112.5,448.4c-1.3-3.4-7.2-17.5-19.1-30-84.6-89.4-187.1-152.5-304.6-187.6-66.5-19.9-134.9-29.9-203.3-29.9s-26.2,4.1-35,11.6c-4,3.4-212.1,180.1-253.1,214.8-5.6,4.8-9.4,9.8-11.3,15-3,8.3,1,17.4,9.1,20.8,12,5,18.3,13.2,18.3,19.7s-6.6,13.8-19,18.7c-9,3.6-19.6,5.5-30.5,5.5s-18.6-1.4-26.7-4.1c-.2,0-7.4-2.9-13.2-2.9s-15.7,3.2-23.1,9.5c-1.4,1.2-5.3,4.4-10.9,8.9-42.2,34.5-71.9,59.3-79.5,68.2-9.4,10.9-14.8,19.5-16.6,22.6-3.7,5-14.4,21.9-14.4,49.1v84.8c0,17.1,11.4,24.8,22.8,24.8s4.2-.3,5.4-.5h.6c1.1-.3,2.2-.3,3.4-.3,15.3,0,27.8,13.4,27.8,29.8s-12.5,29.8-27.8,29.8-2.1,0-3.1-.2c-1.1-.1-2.1-.2-3.2-.2-12.7,0-25.9,9.4-25.9,25.1v118c0,16.8,12.6,29.5,29.2,29.5s4-.2,6-.5c12.3-2.1,435.4-73.5,715.3-120.7,127.6-21.5,230.5-38.9,262.9-44.4,11.3-1.8,24.9-8.3,24.9-29.5s0-10.2.2-25.2c.6-62,2.1-226.6,2.1-292.4,0-17.5-6.4-34.6-7.8-38ZM211.1,544c5.8-4.7,9.9-8.1,11.4-9.4.8-.7,3.8-.7,4.5-.5,11.4,3.8,24.3,5.8,37.1,5.8s29.8-2.7,42.6-7.8c25.8-10.3,41.3-29,41.3-50.1s-6-25.1-16.8-34.9c-1-.9-2.8-2.9-.3-5,56.9-48.4,236.7-200.9,241.1-204.6,2.7-2.3,7.8-3.7,13.6-3.7,107.5,0,313.3,26.9,484,207.3.3.3.6.7.9,1l-15,2.6-288.5,47.8c-14.9-9.9-33.7-15.5-52.9-15.5s-8.3.3-12.4.8c-21.8,2.7-51.1,9.5-64.8,36.3l-486.6,80.7c18.5-16.1,48.8-40.8,60.9-50.8ZM1085.4,778.6c-.1,11.1-.2,19.1-.2,22.9-35.4,6-136.2,23-260.4,43.9-284.9,48.1-670.9,113.2-712.2,120.2v-105.8c33.2-.4,60-28.4,60-62.7s-26.9-62.3-60-62.7v-84.7c0-11.8,3.1-13.2,11.9-16.2l504.6-84.8v.8c0,45.7,38.1,82.9,84.9,82.9s84.7-37.2,84.9-82.9c0-16.6-6.1-27.7-6.2-27.9l268.2-44.5,25-3.9c1,4.2,1.7,8.9,1.7,13.2,0,65.7-1.5,230.2-2,292.1Z"/>
    <path class="st0" d="M108.9,1003c-18.9,0-33.2-14.4-33.2-33.5v-118c0-19.8,18.2-30.8,33.6-28.8.7,0,1.7.2,2.6.2,13.2,0,23.9-11.6,23.9-25.8s-10.7-25.8-23.9-25.8-2,0-2.9.2c-2.1.3-4.2.6-6.6.6-12.9,0-26.7-9-26.7-28.7v-84.8c0-28.7,11.6-46.6,15.2-51.5,1.7-2.9,7.2-11.8,16.8-22.9,7.8-9,36.4-33,80-68.7l2.5-2c4.2-3.4,7.2-5.9,8.3-6.9,8.1-6.9,16.7-10.4,25.6-10.4s12.5,2.4,14.5,3.1c16.6,5.5,38.5,5,54.5-1.3,10.3-4.1,16.5-9.8,16.5-15.1s-5-11.5-15.9-16.1c-10.1-4.2-15-15.5-11.3-25.8,2.1-5.8,6.3-11.4,12.4-16.6,38.5-32.6,249-211.3,253.1-214.8,9.5-8.1,22.8-12.6,37.6-12.6,68.7,0,137.5,10.1,204.4,30.1,118.2,35.3,221.2,98.8,306.3,188.7,12.2,12.9,18.3,27.1,19.9,31.2,1.4,3.4,8.1,21,8.1,39.4,0,62.5-1.4,216.4-2,282.1v10.4c-.2,14.9-.3,24.2-.3,25.1,0,18.7-10,30.5-28.2,33.4l-262.9,44.4c-280,47.2-703,118.6-715.3,120.7-2.2.4-4.5.6-6.7.6ZM105.6,830.4c-10.8,0-22,7.9-22,21.2v118c0,14.6,10.9,25.6,25.3,25.6s3.6-.2,5.3-.5c12.3-2.1,435.4-73.5,715.3-120.7l262.9-44.4c14.3-2.2,21.6-10.9,21.6-25.6s0-10.2.2-25.2v-10.4c.7-65.7,2.1-219.6,2.1-282,0-17.4-6.7-34.6-7.5-36.5h0c-1-2.7-6.7-16.6-18.2-28.7-84.1-88.9-186-151.7-302.9-186.6-66.2-19.8-134.2-29.8-202.2-29.8s-24.4,3.8-32.5,10.7c-4.1,3.6-214.7,182.3-253.2,214.9-5.1,4.3-8.5,8.8-10.1,13.3-2.3,6.3.8,13.3,6.9,15.8,12.6,5.3,20.8,14.4,20.8,23.3s-7.6,16.9-21.5,22.4c-17.6,7-41.5,7.5-59.9,1.4-1.4-.5-7.4-2.7-11.9-2.7-7,0-13.9,2.9-20.5,8.5-1.2,1-4.2,3.5-8.5,7l-2.5,2c-42.1,34.5-71.7,59.1-79.1,67.7-9.1,10.6-14.3,19-16.2,22.1-3.4,4.7-13.9,20.8-13.9,47.1v84.8c0,15.4,10.1,20.9,18.8,20.9s3.6-.2,4.7-.4c2-.3,3.3-.4,4.8-.4,17.5,0,31.8,15.1,31.8,33.7s-14.2,33.7-31.8,33.7-2.5,0-3.6-.2c-1-.1-1.9-.2-2.8-.2ZM108.7,970.3v-114.4h3.9c31-.4,56.1-26.8,56.1-58.8s-25.2-58.4-56.1-58.8h-3.9v-88.6c0-13.6,4.2-16.4,14.5-19.9l509.8-85.7v4.7c0,44.3,36.3,79.8,80.9,79.8s80.7-35.4,80.9-79c0-14.3-4.8-24.1-5.7-25.9l-2.6-4.8,5.4-1,296.8-49,.8,3.6c1.2,5.3,1.8,10,1.8,14,0,63.6-1.4,219.4-2,285.9l-.3,32.5-263.6,44.4c-284.9,48-670.9,113.2-712.2,120.2l-4.6.8ZM116.6,863.6v97.4c59.6-10.1,431.2-72.8,707.6-119.4l257.1-43.4.2-25.9c.6-66.5,2-222.3,2-285.8s-.3-5.4-.9-8.7l-21.2,3.3-263.1,43.6c2,5.1,4.5,13.9,4.5,24.8-.2,47.9-40,86.9-88.8,86.9s-86.6-36.9-88.7-83l-500.1,84c-7.3,2.6-8.6,3-8.6,12.3v80.9c33.5,2.5,60,31.5,60,66.5s-26.6,64-60,66.4ZM137,601l10.5-9.1c17.6-15.3,45.4-38.1,58.8-49l2.2-1.8c5.8-4.7,9.9-8.1,11.3-9.3,2.5-2.1,7.3-1.5,8.3-1.2,24,7.9,54.1,7.2,77.1-1.9,24.3-9.7,38.8-27,38.8-46.4s-5.4-22.7-15.5-32c-2.4-2.1-2.8-4.3-2.8-5.7,0-1.4.5-3.4,2.6-5.2,35.5-30.2,118.6-100.7,177.3-150.5,35.5-30.1,62.1-52.7,63.8-54.1,3.4-3,9.3-4.6,16.1-4.6,108.1,0,315.1,27.1,486.8,208.5l5.1,5.4-6.4,2.2-15,2.6-290.1,48.1-1.3-.9c-17.5-11.7-40.7-17-62.6-14.1-20.3,2.5-48.8,8.9-61.8,34.2l-.9,1.8-2,.3-500.4,83ZM213.6,547.1l-2.2,1.8c-10.9,8.9-31.3,25.6-47.9,39.7l470.8-78.1c15.1-27.2,45.3-34,66.9-36.7,23.2-3,47.8,2.4,66.7,14.5l294.8-48.9c-168.9-175.4-371-201.7-477-201.7s-9.5,1.5-11,2.7c-1.7,1.4-28.3,24-63.8,54.2-58.3,49.5-140.7,119.4-176.6,149.9,11.7,11,17.8,23.9,17.8,37.5,0,22.8-16.3,42.9-43.7,53.8-24.7,9.8-56.8,10.6-82.5,2.1,0,0-1.1,0-1.4.2-.7.8-4.9,4.2-10.7,9Z"/>
  </g>
  <path class="st0" d="M564.6,333.7c-44.9,0-80,27.1-80,61.7,0,34.6,35.1,61.7,80,61.7s80-27.1,80-61.7c0-34.6-35.2-61.7-80-61.7Z"/>
</svg>