<?xml version="1.0" encoding="UTF-8"?>
<svg id="Calque_1" xmlns="http://www.w3.org/2000/svg" version="1.1" viewBox="0 0 1200 1200">
  <!-- Generator: Adobe Illustrator 29.3.1, SVG Export Plug-In . SVG Version: 2.1.0 Build 151)  -->
  <defs>
    <style>
      .st0 {
        fill: #0071ce;
      }

      .st1 {
        fill: #92c0e9;
      }
    </style>
  </defs>
  <path class="st1" d="M674.7,1035.9c-21.3,0-42.3-4.1-62.5-12.1-4.1-1.7-8.4-2.5-12.8-2.5s-8.7.8-12.8,2.5c-20.2,8-41.2,12.1-62.5,12.1-157,0-293.8-224.8-302.4-410.9-3.3-71.7,20.3-137.8,66.4-186.1,44.7-46.8,106.1-72.7,172.7-72.7s38.4,2.2,57.6,6.5c-14-37.6-35.8-66.3-47.7-80.2-12.6-14.9-17.2-34.8-12.3-53.5,4.8-18.7,18.5-33.9,36.6-40.7l35.4-13.5c6.8-2.6,13.9-3.9,21.1-3.9s12.7,1,18.8,3c13.1,4.4,24.2,13.2,31.5,24.7,32,51.8,52.9,109,61.7,168.3,24.7-7.2,49.9-10.9,74.6-10.9,66.6,0,127.9,25.8,172.7,72.7,46.1,48.3,69.7,114.4,66.4,186.1-8.6,186.1-145.4,410.9-302.4,410.9h0Z"/>
  <path class="st0" d="M551.4,228.4c1.3,0,2.6.2,3.8.6,2.7.9,4.9,2.7,6.4,5,39.4,63.7,59.9,137.2,59.3,212.1,39.6-22.4,79.5-32.6,117-32.6,109.4,0,197.5,86.6,191.8,209.2-7.5,162.4-127.2,365.7-255.1,365.7s-30-2.8-45.1-8.7c-9.7-3.9-20-5.8-30.3-5.8s-20.6,1.9-30.3,5.8c-15,5.9-30.1,8.7-45.1,8.7-127.9,0-247.6-203.4-255.1-365.7-5.7-122.6,82.5-209.3,191.8-209.2,37.8,0,78.1,10.3,118,33.1,1.7-88.4-48.7-157.5-72.1-184.9-2.5-3-3.5-7-2.5-10.8,1-3.8,3.8-6.9,7.4-8.3l35.6-13.5c1.4-.5,2.8-.8,4.3-.8M551.4,133.8c-13,0-25.8,2.4-38,7l-35.5,13.5c-32.1,12-56.7,39.4-65.4,73-8.4,32.4-1,66.9,19.7,93.1-68.6,6.5-131.1,36.4-178.3,85.9-55.2,57.7-83.4,136.2-79.5,220.9,4.4,96.1,41,205.1,97.9,291.4,69.9,106.1,159.3,164.5,251.8,164.5s51-4.6,75.3-13.6c24.4,9.1,49.7,13.6,75.3,13.6,92.5,0,181.9-58.4,251.8-164.5,56.9-86.3,93.4-195.3,97.9-291.4,3.9-84.7-24.3-163.2-79.4-220.9-53.8-56.3-127.2-87.3-206.9-87.3s-25.1.8-37.6,2.4c-12.3-48.1-31.8-94.3-58.2-137.1-.1-.2-.3-.4-.4-.6-13.1-20.8-33.2-36.6-56.5-44.4-10.8-3.6-22.3-5.5-33.8-5.5"/>
  <path class="st1" d="M710.8,413.2c-28,0-56.2-6.3-81.5-18.1-11.7-5.5-20.7-15.6-24.8-27.8-3.5-10.4-3.2-21.7.7-31.9.5-2.4,1-5.5,1.7-9.1,5.9-33.3,16.9-95.1,64.4-128.6,36-25.3,75.8-37.1,125.5-37.1s64.6,4.1,111.9,13.3c18.6,3.6,33.3,18,37.2,36.5,4,18.5-3.5,37.7-19,48.6-9.4,6.6-18.2,20.1-28.5,35.7-19.6,29.8-46.4,70.5-101.2,98.2-26,13-54.8,20-83.7,20.4h-2.5Z"/>
  <path class="st0" d="M796.7,207.9c28.6,0,61.9,4.5,102.9,12.4-41.5,29.2-50.7,93.5-123.8,130.3h0c-19.6,9.8-41.1,15-63,15.3-.6,0-1.3,0-1.9,0-21.2,0-42.2-4.7-61.5-13.7,5.6-10.6,7.4-86.5,49.1-115.9,28.2-19.9,58.6-28.5,98.2-28.5M775.8,350.6h0M796.7,113.2h0c-59.8,0-108.4,14.5-152.7,45.8-63.4,44.7-77.1,121.9-83.7,159-.3,1.8-.6,3.5-.9,5-6.2,19.1-6.2,39.9.3,59.2,8.2,24.6,26.2,44.7,49.7,55.7,31.6,14.8,66.7,22.6,101.6,22.6h3.1c35-.5,70.1-8.8,101.6-24.1,1.8-.8,3.5-1.7,5.2-2.6,64.6-33.5,96.1-81.4,117.1-113.2,5.6-8.5,13.2-20,16.7-23.3,30.7-21.9,45.5-59.9,37.6-96.8-7.9-37.1-37.2-65.8-74.5-73.1-50.4-9.8-87.7-14.2-120.9-14.2"/>
  <path class="st1" d="M620.9,446.2c.6-74.9-19.9-148.4-59.3-212.1-1.5-2.4-3.8-4.1-6.4-5-2.7-.9-5.5-.8-8.2.2l-35.6,13.5c-3.7,1.4-6.4,4.5-7.4,8.3-1,3.8,0,7.8,2.5,10.8,23.4,27.4,73.9,96.5,72.1,184.9-155.3-88.6-317.4,11.1-309.8,176.2,8.4,181.3,156.7,413.8,300.2,357,19.5-7.7,41.1-7.7,60.5,0,143.5,56.9,291.8-175.7,300.2-357,7.6-164.7-153.9-264.4-308.9-176.7"/>
  <path class="st1" d="M775.8,350.6c73-36.8,82.3-101.1,123.8-130.3-97.7-19-152.5-18.1-201.1,16.1-41.7,29.4-43.5,105.2-49.1,115.9,19.8,9.3,41.5,13.9,63.4,13.6,21.9-.3,43.4-5.5,63-15.3h0Z"/>
</svg>