<?xml version="1.0" encoding="UTF-8"?>
<svg id="Calque_1" xmlns="http://www.w3.org/2000/svg" version="1.1" viewBox="0 0 1200 1200">
  <!-- Generator: Adobe Illustrator 29.3.1, SVG Export Plug-In . SVG Version: 2.1.0 Build 151)  -->
  <defs>
    <style>
      .st0 {
        fill: #0071ce;
      }

      .st1 {
        fill: #92c0e9;
      }
    </style>
  </defs>
  <path class="st1" d="M399.1,1048.3c-16.9,0-32.1-10.1-38.7-25.6l-8.5-20c-5.4-12.5-10.8-25-16.2-37l-8-16.8c-2.8-5.5-5.6-11-8.4-16.3-4.3-8-9.9-18-15.4-25.7-5.2-7.6-10-13.4-14.4-17.6-3.7-3.5-7.4-6.3-11.2-8.1-3.2-1.6-6.9-2.8-11.6-3.7-5-.9-8.4-1.1-9.2-1.1-.3,0-8-.3-8-.3-17.3-.8-32.2-12.4-37.7-28.8-5.5-16.5-.1-34.8,13.3-45.9,0,0,2.4-2,7.5-5.4,3.5-2.4,6.9-4.3,9.8-5.9,5.2-3,10.2-5,15.3-7,15.2-5.5,30.4-8.1,46-8.1,18.5,0,37.9,3.7,56.5,10.8,5.2,2,10.3,4.3,15.4,6.8-2.4-6.3-4.8-12.6-7.3-18.7-4-9.1-8.5-18.4-13-26.8-4.1-7.1-8.7-13.7-13.4-19.3-2.9-3.4-5.5-5.4-7-6.4-1.5-.6-6.6-2.3-13.8-2.3s-12.2,1.2-18.2,3.6c-25.3,10-55,33-64.2,41-7.8,6.8-17.7,10.3-27.6,10.3s-14.5-1.9-21-5.6c-15.5-9-23.7-26.7-20.3-44.3,1.2-6,12.8-60,68.7-102.5,5.4-4.4,10.9-7.9,15.8-11l3.8-2.4c.7-.5,1.5-.9,2.2-1.3,12.3-7,31.8-16.9,58-21.8,8.5-1.6,17.4-2.3,26.5-2.3,18.4,0,37,3.2,53.7,9.3,8.9,3.1,17.5,7.1,26.1,12-1.4-7.6-2.9-15.1-4.1-22.5-.9-4.6-1.9-9.1-2.9-13.6-1.7-7.8-3.3-15.5-4.8-23.2-1.5-7.4-2.9-15-4.3-22.4-3-15.7-5.8-30.5-9-44-4.6-21.5-8.5-41.1-11.8-59.1-3.8-16.4-7.1-31.6-9.8-45.1-1.8-8.7-3.1-16.4-4.3-22.7,0,0-1.4-7.8-1.5-8.2l-1.6-10.3c-3.1-19.5,7.7-38.5,26-45.8,5-2,10.3-3,15.5-3,13.6,0,26.8,6.7,34.9,18.5,0,0,6.5,9.6,6.7,10l3.8,5.8c3.7,5.6,8.3,12.6,13.4,21,7.4,11.8,15.9,26,25.1,42,.3.6.7,1.2,1,1.8,8.4,16.3,17.8,35.2,27.8,56.2,1.6,3.4,2.9,6.2,4.3,9,3.6,7.6,7.7,16.3,11.4,25.6l12.1,30.6c.6-5.4,1.3-10.7,2.1-16.1l.5-4c2-16,4.2-32.6,7-48.9l.3-2.2c2.6-16,5.2-32.6,8.7-48.9,1.1-5.8,13.7-66.4,63-158.1,4.2-7.9,9.3-14.8,13-19.8.7-1,1.3-1.8,1.9-2.6,1.3-2.3,2.7-4.6,4-6.7l10.3-16.9,7.6-12.1c7.9-12.5,21.5-19.6,35.6-19.6s10.6,1,15.8,3.1c18.9,7.6,29.6,27.7,25.4,47.7l-2.8,13c-.7,3.2-2.8,18.2-4.3,29.1-2.3,15.8-4.6,32.1-6.2,40.9-1.6,10.9-13,134.6-13.9,145.2l-1.6,24.2c-.9,12.4-1.7,24.8-2.4,37.4,8.5-15.1,19.4-33.8,31-50.2,10.9-16.2,21.7-29.4,29.6-39,4.4-5.7,9.3-10.9,13.5-15.2l8.6-9,8-8.1c8.1-8.2,19-12.5,29.9-12.5s15.3,2.1,22.1,6.3c16.7,10.3,24,30.8,17.7,49.4l-3.2,9.4c-.8,2.4-1.8,5.2-2.9,8.2-1.7,4.7-3.9,10.5-6,17.3-1.1,3.6-2.4,7.5-3.8,11.6-2.9,8.6-5.8,17.5-8.6,27.4l-1.9,6.4c-1.7,5.4-3.4,11.1-4.9,17.1-1.1,4.4-2.3,8.5-3.5,12.6-1.3,4.4-2.6,9-3.7,13.8-.1.6-.3,1.2-.4,1.8-4.5,17.1-9.2,37-14.6,60.8-4.7,21.1-9.4,44.1-14.2,68.4-1.9,9.8-3.8,19.8-5.6,29.8,1.4-1.2,2.9-2.3,4.6-3.5,13.9-11.2,29.4-21.2,45.9-29.7.6-.3,1.2-.6,1.9-.9l4.5-2c5.3-2.4,10.2-4.7,15-6.6.9-.4,1.8-.7,2.7-1,6.6-2.3,12.8-4.1,18.2-5.7l7.1-2c.7-.2,1.4-.4,2.1-.5,2.6-.6,5.2-1,7.7-1.4l11.8-1.7c7.5-1,11.1-1.3,11.1-1.3,1,0,2.1-.1,3.1-.1,17.4,0,33.3,10.8,39.5,27.3,6.5,17.5.9,37.2-14,48.4l-6.3,4.7c-1.1.8-3.1,2.3-5.3,3.9-2.9,2-5.3,3.7-7.5,5.8-.4.4-10.3,9.2-10.3,9.2-1.9,2.1-8,8.6-8,8.6,2-.9,10.6-4.9,11-5.1,6.8-2.9,12.6-4.9,16.8-6.4,0,0,4.1-1.4,4.5-1.6,5.8-2,9-2.8,9-2.8,3.6-1,7.3-1.4,10.9-1.4,13.4,0,26.3,6.4,34.3,17.6,10.2,14.2,10.6,33.3.9,47.8,0,0-3.8,5.8-4.1,6.2-2.1,3-5.2,7.4-9.1,12.9-1.9,3-4,6-6.2,9.3-2.2,3.2-4.6,6.6-6.9,10.5-1.6,2.6-3.2,5.1-4.8,7.6-1.1,1.7-2.3,3.5-3.5,5.4l-8.7,14.6c-11.2,19.5-23.2,42.5-34.4,66.1l-8.7,18.7c-2.9,6.7-5.8,13.4-8.9,20.1l-5.3,12.6c-3.9,9.1-7.8,18.4-11.5,27.7-1.5,3.8-6.4,15.9-6.4,15.9-6.4,15.9-21.8,26.3-39,26.3h-457.7Z"/>
  <path class="st0" d="M706.5,190.2s-.9,4.5-2.8,12.9c-1.8,8.4-7.9,55.6-10.8,71.2-1.5,7.7-13.8,141.3-14.5,149.5-.5,8.2-1.1,16.4-1.6,24.7-2.4,33.2-4.1,67.6-6.1,102.6-1.7,35-3.5,70.5-4.8,106.1-1.6,43.6-3.1,87.1-4.7,129.7,3.9-22.5,8.1-44.9,13.4-66.8,2.8-13.1,6.3-26.1,9.9-38.8,3.3-12.8,7.3-25.4,11.2-37.7,7.9-24.6,16.8-48.2,26.1-70.3,4.7-11,9.7-21.7,14.5-31.9,4.9-10.2,10.2-20,15.1-29.3,10.4-18.6,20.3-35.3,30.5-49.7,9.7-14.5,19.5-26.5,27.5-36.3,3.9-5,7.8-9.1,11.3-12.7,3.4-3.6,6.3-6.7,8.7-9.1,4.8-4.9,7.4-7.5,7.4-7.5,0,0-1.1,3.3-3.2,9.4-2.1,6.1-5.6,14.9-9.2,26.2-3.6,11.3-8.4,24.8-12.8,40.5-2.4,7.8-5,16-7.2,24.9-2.2,8.8-5.3,17.8-7.4,27.6-5,19.2-9.9,40.1-14.9,62.2-4.9,22.1-9.7,45.5-14.4,69.6-4.7,24.2-9.2,49.3-13.7,74.8-2.1,12.8-4.3,25.6-6.5,38.5-2.3,12.9-4.2,25.9-6.2,38.9-4.4,25.8-8,51.8-12,77.3,2.4-7.6,5.2-15.1,8.1-22.6,3.3-9.4,7.6-18.5,11.8-27.5,4-9,8.9-17.8,13.6-26.3,5-8.5,10.1-16.8,15.4-24.8,5.9-7.8,11.1-15.6,17.2-22.8,6.5-7,11.9-14.1,18.6-20.4,3.3-3.1,6.6-6.2,9.8-9.1,3.1-3,6.3-5.9,9.9-8.4,13.2-10.7,26.9-19.2,39.5-25.7,6.6-3,12.6-5.8,18.3-8.1,5.9-2,11.5-3.7,16.4-5.1,2.5-.7,4.8-1.4,6.9-2,2.2-.5,4.4-.7,6.4-1.1,4-.6,7.3-1.1,10-1.5,5.4-.7,8.2-1,8.2-1,0,0-2.2,1.6-6.3,4.7-4,3.1-10.3,6.8-16.7,13-3.3,2.9-6.9,6.1-10.8,9.6-3.5,3.9-7.4,7.9-11.3,12.1-7.6,8.8-15.5,18.9-22.9,30.5-7.5,11.5-14.5,24.5-21.3,38.4-3.2,7.1-6.5,14.3-9.8,21.7-2.7,7.7-6.2,15.3-9,23.2-2.5,8.1-6,16-8.5,24.4-2.5,8.4-5.5,16.7-7.9,25.4-1.3,4.3-2.6,8.6-3.9,12.9-1.1,4.4-2.3,8.8-3.6,13.1-2.2,7.3-4,14.8-5.9,22.4,1.8-3.4,3.4-6.8,5.2-10.1,8-14.7,17.2-28.7,26.9-41.9,9.7-13.2,20.1-25.4,30.9-36.4,5.6-5.4,10.6-10.8,16.3-15.6,5.7-4.8,10.9-9.5,16.3-13.7,5.6-4.1,10.9-8.1,16.1-11.6,5.3-3.5,10.5-6.6,15.4-9.5,9.6-5.9,19.1-9.9,26.4-13.4,7.6-3.3,14.1-5.2,18.2-6.7,4.2-1.4,6.5-2.1,6.5-2.1,0,0-1.2,1.8-3.5,5.2-2.3,3.2-5.6,8-9.9,14-3.8,6.3-9.2,13.1-14.2,21.6-2.5,4.2-5.5,8.4-8.3,13.1-2.7,4.6-5.6,9.5-8.6,14.5-11.7,20.3-24.1,43.9-36.3,69.6-3,6.4-6,13-9.1,19.6-2.9,6.7-5.8,13.5-9,20.2-5.7,13.7-11.8,27.6-17.4,41.7-2.2,5.3-4.2,10.6-6.4,15.9h-457.7c-2.8-6.7-5.7-13.3-8.5-20-5.5-12.9-11.1-25.5-16.6-37.8-2.9-6.1-5.7-12.1-8.6-18.1-3-5.8-5.9-11.5-8.7-17.1-6-11-11.9-21.5-18.3-30.6-6.3-9.2-12.8-17.2-19.7-23.8-6.8-6.5-14-11.7-21.5-15.4-7.4-3.8-15.2-6-22.1-7.3-6.9-1.2-12.9-1.9-17-2-4.2-.2-6.5-.3-6.5-.3,0,0,1.6-1.3,5-3.6,1.7-1.2,3.9-2.4,6.6-3.9,2.7-1.6,6-2.9,9.8-4.4,7.7-2.8,18.2-5.3,30.9-5.3h.3c12.6,0,27,2.7,41.2,8.1,14.2,5.5,27.9,13.6,40.5,23.3,12.6,9.7,23.9,21,34.1,33.2,5.3,6.1,9.9,12.4,14.5,18.9,4.6,6.5,8.9,13.1,12.8,20,5,8.3,9.4,16.9,13.6,25.5-.7-3-1.3-5.9-2-8.9-2.8-12-5.6-24.2-8.4-36.4-5.9-24.4-11.9-49-19.1-73-6.8-24.1-15-47.7-24.1-69.8-4.8-10.9-9.9-21.4-15.2-31.3-5.6-9.6-11.7-18.4-18-25.8-6.3-7.5-13.1-12.9-19.3-16.3-4-2.2-16.5-7.3-33.7-7.3s-21.3,1.7-33.6,6.5c-37.9,15-76.4,48.4-76.4,48.4,0,0,8.3-43.3,53.4-77.4,4.8-4,10.8-7.5,16.5-11.2,12.3-7,26.8-13.6,44.9-17,6-1.1,12.4-1.7,18.9-1.7,13.2,0,27,2.2,39.3,6.7,18.7,6.5,33.5,17.2,45.6,28.1,24.2,22.4,39.7,47.5,52.3,73,5.8,11.6,10.8,23.4,15.3,35.3-1.8-10.9-3.7-21.9-5.5-32.8-2.6-13.9-5.2-27.9-7.7-41.7-2.6-13.8-5-27.5-7.2-41.1-2.8-13.5-5.6-26.8-7.9-39.9-2.4-13.2-5-26.1-7.1-38.8-2.6-12.6-5.4-24.9-7.7-37-4.8-24.1-8.8-47.1-13.8-68.1-4.5-21.1-8.4-40.6-11.5-58-4-17.2-7.3-32.2-9.8-44.7-2.6-12.5-4.1-22.5-5.4-29.3-1.1-6.8-1.7-10.5-1.7-10.5,0,0,2.1,3.2,6.2,9.1,3.8,6,9.8,14.7,16.7,26,7,11.3,15.3,25.1,24.6,41.1,8.4,16.2,17.5,34.7,27.2,55,4.7,10.2,10.1,20.7,14.4,31.8,4.4,11.2,9,22.7,13.7,34.6,4.7,11.9,9.1,24.2,13.9,36.7,4.3,12.6,8.1,25.7,12.3,38.8,4.2,13.2,8.1,26.7,12.1,40.3,3.7,13.7,7.1,27.6,10.3,41.7,3.2,14.1,7,28.2,9.7,42.5,2.7,14.3,5.3,28.7,8,43.1.1.7.2,1.5.4,2.2,0-2,0-4,0-6-.5-35.6.4-71.8,1.5-108,1.8-36.2,3.8-72.4,7.4-108,1.7-17.8,3.4-35.4,5.8-52.9,2.2-17.4,4.3-34.6,7.3-51.5,2.7-16.9,5.3-33.5,8.8-49.7,3.1-16.2,17.7-70.4,58.9-146.9,4.7-8.8,12.5-18,14.2-21.2,1.8-3.2,3.7-6.2,5.3-8.9,3.3-5.5,6.2-10.2,8.5-14,4.7-7.5,7.2-11.5,7.2-11.5M706.5,106.1c-28.2,0-55.4,14.2-71.2,39.3l-7.2,11.5c-.2.4-.5.8-.7,1.2l-3.4,5.6-5.1,8.4c-.2.4-.4.7-.6,1.1l-1,1.7c-1.2,1.9-2.3,3.8-3.5,5.8l-.4.6c-4.2,5.7-10.4,14.3-16.1,24.7-39.8,74-57.1,129-63.9,155.5-.3-.5-.6-1.1-.9-1.6-9.4-16.2-18.1-30.7-25.8-43.1-5.4-8.9-10.3-16.3-13.9-21.7-1.3-2-2.5-3.9-3.5-5.4-.4-.7-.8-1.3-1.3-1.9l-6.1-9c-16-23.7-42.4-37-69.7-37s-20.8,1.9-30.9,5.9c-36.7,14.5-58.3,52.6-52.1,91.5l1.6,10.2c.1.8.3,1.6.4,2.5.4,1.9.7,4,1.1,6.4,1.1,6.1,2.5,14.4,4.5,24,2.7,13.5,6,28.6,9.8,45.1,3.3,17.9,7.2,37.5,11.7,58.4.1.6.3,1.2.4,1.9,3,12.6,5.8,27.1,8.7,42.4.7,3.9,1.5,7.8,2.3,11.8-8.2-1-16.4-1.5-24.6-1.5-11.6,0-23.1,1-34,3-24.9,4.6-47.5,13-71.3,26.6-1.5.8-2.9,1.7-4.3,2.6l-3.3,2.1c-5.5,3.5-12.2,7.8-19.4,13.5-66.5,50.9-81.7,115.3-84,127.7-6.7,35.2,9.6,70.8,40.7,88.7,1,.5,1.9,1.1,2.9,1.6-6,17.1-6.4,36.1-.5,54.1,10.9,33.2,41.2,56.1,76.1,57.7l6.5.3c.4,0,.8,0,1.3,0,.6,0,1.8.2,3.7.5,0,0,.2,0,.2,0,.2.2.5.5.9.8,1.2,1.2,4.1,4.2,8.6,10.8.1.2.3.4.4.6,4.1,5.9,8.7,14.1,12.8,21.6,2.5,4.8,5,9.8,7.6,14.9l7.7,16.2c5.3,11.8,10.6,23.8,15.6,35.6l7.5,17.7.9,2.2c13.2,31,43.7,51.2,77.4,51.2h457.7c34.3,0,65.2-20.8,78-52.6l2.4-6.1c1.2-3,2.4-6.1,3.7-9.1.1-.3.2-.6.3-.9,3.6-9,7.4-18,11.2-26.9,1.7-4.1,3.4-8.1,5.1-12.2,2.8-6.1,5.7-12.6,8.9-19.9l5.1-11,3.3-7.1c10.6-22.3,21.9-44.1,32.7-62.9l3.5-5.8,5-8.4c.8-1.3,1.6-2.5,2.4-3.7,2-3,3.9-5.9,5.6-8.9,1.5-2.6,3.4-5.2,5.5-8.3,2-3,4.3-6.2,6.6-9.9,3.5-5,6.3-9,8.3-11.8.6-.8,1.1-1.6,1.7-2.4l3.2-4.9c19.5-29.2,18.8-67.4-1.8-95.9-7.1-9.9-16.2-17.9-26.3-23.7,3.2-15.3,2.1-31.6-3.7-47-12.4-33-44.2-54.5-79-54.5s-4.1,0-6.2.2c0,0-4.4.3-12.7,1.5-.4,0-.7.1-1,.2l-9.6,1.4c-.6,0-1.2.2-1.8.3h-.2c-2.4.4-6.3.9-11.1,2-1.4.3-2.7.7-4,1l-7.3,2.1c-7.4,2.1-13.7,4.1-20.1,6.2-.5.2-1,.3-1.5.5.5-2.1.9-4.1,1.4-6.2,5.2-23,9.8-42.4,14.2-59.2.3-1.2.6-2.3.8-3.5.6-2.9,1.7-6.7,2.9-10.9,1.4-4.7,2.7-9.3,3.8-14,0-.2,0-.3.1-.5,1.1-4.4,2.6-9.4,4.2-14.6l1.8-5.9c.2-.5.3-1.1.5-1.6,2.5-8.9,5.3-17.4,8-25.5,1.4-4.3,2.8-8.3,4-12.1,1.8-5.6,3.6-10.6,5.4-15.4,1.2-3.4,2.3-6.4,3.2-9l3.2-9.5c12.7-37.1-2-78.1-35.3-98.7-13.7-8.5-29-12.6-44.2-12.6-21.9,0-43.6,8.6-59.9,25l-6.8,6.9c2.5-26,4.8-49.5,5.7-56.5,1.6-9,3.5-22.2,6.2-40.9,1.4-9.7,3.3-22.9,4-26.9,1.7-8.1,2.7-12.5,2.7-12.5,8.4-39.9-12.9-80-50.7-95.3-10.3-4.2-21-6.2-31.6-6.2M706.5,274.3h0,0Z"/>
</svg>