<?xml version="1.0" encoding="UTF-8"?>
<svg id="Calque_1" xmlns="http://www.w3.org/2000/svg" version="1.1" viewBox="0 0 1200 1200">
  <!-- Generator: Adobe Illustrator 29.3.1, SVG Export Plug-In . SVG Version: 2.1.0 Build 151)  -->
  <defs>
    <style>
      .st0 {
        fill: #0071ce;
      }

      .st1 {
        fill: #92c0e9;
      }
    </style>
  </defs>
  <path class="st0" d="M156.7,215.9c2.4,0,4.8.3,7.2.9,82.8,20.7,140.6,94.7,140.6,180v114.6c0,39.2,30.7,71.4,69.3,73.7,30.8-18.7,66.9-29.4,105.5-29.4h231.8c34.7,0,68.4-9.4,97.9-27.3l28.1-62.4c5.1-11.3,16-17.4,27-17.4s16.1,3.2,22.1,10l33.9,38.6c33.1,2.8,64.7,15.8,90.4,37.2l51.6,43c6.7,5.6,10.6,13.9,10.6,22.7,0,48.9-39.8,88.6-88.6,88.6s-8,0-12.1,0c-23.8,0-51.4,2-77.8,28.3-30.6,30.6-28.3,61.9-28.3,87l29,144.9c3.7,18.3-10.3,35.3-29,35.3h-44.3c-9.9,0-19.1-4.9-24.6-13.1l-34.5-51.8v35.4c0,16.3-13.2,29.5-29.5,29.5h-59.1c-16.3,0-29.5-13.2-29.5-29.5v-103.4h-88.6v103.4c0,16.3-13.2,29.5-29.5,29.5h-59.1c-16.3,0-29.5-13.2-29.5-29.5v-71.9c-6.9,3.1-14.1,5.7-21.4,7.9-26.6,79.9-24.5,74-25.8,76.7-4.8,10.1-15.2,16.8-26.7,16.8h-59.1c-16.3,0-29.5-13.2-29.5-29.5,0-207.2-.6-201.6,1.5-218.9-88-30.4-149.2-114.3-149.2-209.5V245.4c0-16.8,13.7-29.6,29.5-29.6M334.1,854.2c0-80.1,65.2-145.3,145.3-145.3h231.8c49.1,0,96.7-14.4,137.6-41.7,13.6-9,17.2-27.4,8.2-41-5.7-8.5-15.1-13.2-24.6-13.2s-11.3,1.6-16.3,5c-31.2,20.8-67.4,31.7-104.8,31.7h-231.8c-49.9,0-95.7,18-131.2,47.8-18.1,37.8-14.1,61.1-14.1,156.6M156.8,121.3h0c-32.6,0-63.5,12.6-86.8,35.5-24,23.5-37.3,55-37.3,88.7v280.7c0,110.2,57.2,210.6,147.7,267.6,0,12.9,0,28.7,0,48.6,0,28,0,64.5,0,112.2,0,68.4,55.7,124.1,124.1,124.1h59.1c18.1,0,35.7-4,51.6-11.3,15.8,7.3,33.3,11.3,51.8,11.3h59.1c27.6,0,53.2-9.1,73.9-24.4,20.7,15.3,46.2,24.4,73.9,24.4h59.1c15.6,0,30.5-2.9,44.3-8.2,13.9,5.3,28.9,8.2,44.4,8.2h44.3c37.3,0,72.3-16.6,96-45.4,23.7-28.9,33.1-66.4,25.7-103l-27.2-135.9c0-3.8,0-7.9.3-10.3.1-.1.2-.2.3-.3,0,0,.1-.1.2-.2,1.6-.2,4.6-.4,10.7-.4h5.6s6.6,0,6.6,0c101,0,183.2-82.2,183.2-183.2s-16.3-71.7-44.7-95.4l-51.5-42.9c-29.9-24.9-64.6-42.5-101.8-51.9l-12-13.6c-23.6-26.8-57.5-42.2-93.1-42.2s-93.1,28.6-113.2,73l-13.7,30.4c-8.4,2.4-17.2,3.7-26.1,3.7h-231.8c-27.3,0-54.2,3.7-80.2,11v-75.3c0-128.8-87.3-240.6-212.2-271.8-9.8-2.5-20-3.7-30.1-3.7h0Z"/>
  <path class="st1" d="M1062.1,577.3l-51.6-43c-25.6-21.4-57.3-34.3-90.4-37.2l-33.9-38.6c-14.2-16.2-40.3-12.1-49.1,7.3l-28.1,62.4c-29.5,17.9-63.2,27.3-97.9,27.3h-231.8c-38.6,0-74.7,10.7-105.5,29.4-38.6-2.3-69.3-34.5-69.3-73.7v-114.6c0-85.3-57.8-159.4-140.6-180-18.5-4.7-36.7,9.3-36.7,28.7v280.7c0,95.2,61.2,179.1,149.2,209.5-2.1,17.4-1.5,11.7-1.5,218.9s13.2,29.5,29.5,29.5h59.1c11.5,0,21.9-6.8,26.7-16.8,1.2-2.7-.9,3.3,25.8-76.7,7.3-2.2,14.5-4.8,21.4-7.9v71.9c0,16.3,13.2,29.5,29.5,29.5h59.1c16.3,0,29.5-13.2,29.5-29.5v-103.4h88.6v103.4c0,16.3,13.2,29.5,29.5,29.5h59.1c16.3,0,29.5-13.2,29.5-29.5v-35.4l34.5,51.8c5.5,8.2,14.7,13.1,24.6,13.1h44.3c18.6,0,32.6-17.1,29-35.3l-29-144.9c0-25.1-2.3-56.4,28.3-87,31-31,63.8-28.3,89.9-28.3,48.9,0,88.6-39.8,88.6-88.6s-3.9-17.1-10.6-22.7ZM711.1,709h-231.8c-80.1,0-145.3,65.2-145.3,145.3,0-95.5-4-118.8,14.1-156.6,35.5-29.8,81.3-47.8,131.2-47.8h231.8c37.4,0,73.7-11,104.8-31.7,13.6-9,31.9-5.4,41,8.2,9.1,13.6,5.4,31.9-8.2,41-40.9,27.3-88.5,41.7-137.6,41.7Z"/>
</svg>