<?xml version="1.0" encoding="UTF-8"?>
<svg id="Calque_1" xmlns="http://www.w3.org/2000/svg" version="1.1" viewBox="0 0 1200 1200">
  <!-- Generator: Adobe Illustrator 29.3.1, SVG Export Plug-In . SVG Version: 2.1.0 Build 151)  -->
  <defs>
    <style>
      .st0 {
        fill: #0071ce;
      }

      .st1 {
        fill: #92c0e9;
      }
    </style>
  </defs>
  <path class="st1" d="M848.6,803.9c-14.7,0-28.5-7.1-37.1-19.2-9.5-13.3-11.1-30.7-4.2-45.6,0,0,1.2-2.6,1.6-3.3.8-1.6,1.5-3.1,2.2-4.8,4.5-10,8.3-19.7,11.4-29,1.1-3.2,2.4-6.1,4.1-8.9-5.4-6.8-13.8-15.8-26.7-27.1-1-.9-1.9-1.8-2.8-2.7-44.4-38.5-113.1-79.9-189.2-114.2-77.8-35-156.1-59.1-214.7-66.1-11.1-1.3-21.2-2-30.2-2s-5.6,0-8,.2c-1,3.2-2.3,6.2-4,9.1-4.9,8.5-9.6,17.9-14.1,27.7-.8,1.7-1.5,3.2-2.1,4.9-.4.9-1.7,3.9-1.7,3.9-6.6,14.9-20.7,25.1-36.9,26.7-1.6.2-3.1.3-4.7.3-14.5,0-28.3-6.9-36.9-18.9-38.1-52.6-32.6-93.7-21.2-118.9,6.5-14.5,16.3-26.7,29.1-36.7,52.4-69.1,159.9-177.8,318-177.8s72.3,5.7,109,17c16.9-30.6,36-52.6,67.6-52.6s25.8,4.6,36.6,13.2c33.7,26.9,28.1,64.1,15.1,94.3,188.5,119.7,173.9,326.6,155.2,421.1,1.1,16.2-1.6,31.7-8.1,46.1-11.4,25.2-38.4,56.6-103,63.1-1.5.2-3,.2-4.5.2"/>
  <path class="st0" d="M757.2,211.4c2.7,0,5.5,1,8.2,3.3,19.6,15.6-.6,49.1-18.6,76.1,204.8,100.5,192.4,301.8,171.2,401.5,1.7,10.6.6,20.5-3.6,29.6-6.8,15.2-24,32.2-66,36.4l.5-1.2c1.3-2.5,2.4-4.9,3.6-7.5,5-11.2,9.4-22.3,13-33.2,8.1-2.8,12.6-6.4,14.2-10,2.1-4.7.8-12.9-5.2-23.5-7.3-13.4-21.6-30.9-44.7-51.2v-.2c-47.6-42.2-122-87.4-203.5-124.1-81.5-36.6-164.7-62.2-227.9-69.8-13.4-1.6-25.3-2.4-35.6-2.4s-24.1,1.2-32.4,3.1c-11.9,2.5-18.9,7.1-21,11.7-1.6,3.6-1.3,9.4,2,17.3-5.7,9.9-11.1,20.5-16.2,31.8-1.2,2.6-2.2,5-3.2,7.7l-.5,1.2c-24.7-34.1-23.4-58.3-16.6-73.5,4.1-9.2,10.8-16.6,19.8-22.3,47.2-64.1,144.5-165.2,285.8-165.2,40.3,0,84.2,8.3,131.6,28,16.6-34.8,30.6-63.6,45-63.6M757.2,120.2h0c-39.8,0-67,19.6-87.5,45.8-29.9-6.7-59.7-10.1-89.1-10.1-174.3,0-292.1,115.3-351,191.5-16.3,13.8-29.1,30.8-37.7,49.9-13.3,29.6-27.6,90.3,25.9,164.3,17.2,23.8,44.8,37.7,73.8,37.7s6.2-.2,9.3-.5c32.4-3.3,60.5-23.6,73.8-53.3l.5-1.2c.8-1.8,1.6-3.7,2.3-5.6.2-.4.6-1.2.9-2.1,1.4-3.1,2.8-6.1,4.2-9,1.6.2,3.2.3,4.8.5,53.7,6.5,129,29.8,201.7,62.5,70.4,31.6,136,71,176.7,105.9,1.2,1.2,2.5,2.4,3.8,3.6,1.3,1.1,2.5,2.2,3.6,3.2-1.2,3-2.5,6-3.8,9-.4.8-.7,1.7-1.1,2.5-.9,1.7-1.5,3-2.3,4.7l-.5,1.2c-13.5,29.7-10.1,64.3,8.9,90.8,17.2,24,44.9,38,74,38s6-.2,9.1-.5c90.8-9.1,126.7-60.1,140-89.7,8.6-19.1,12.7-40,12.2-61.4,11.2-59.2,18.1-143.2-4.6-229.3-22.9-86.7-71.7-159.3-142.9-213.4,9.1-50.9-13.3-90.4-40.2-111.8-19-15.1-41.5-23.1-65.1-23.1"/>
  <path class="st1" d="M484.6,1034.2c-30.9,0-60-6.1-86.6-18-156.2-70.2-189.1-332.6-113.2-511.6l.4-.9c1-2.5,2-4.9,3.1-7.4,5.6-12.4,11.5-23.9,17.6-34.5,2.3-4.2,5.3-9,8.5-13.9,7.9-11.6,20.6-19,34.6-20,4-.3,8.6-.5,13.9-.5,11.1,0,23.4.8,36.6,2.4,63.8,7.7,147.7,33.4,230.2,70.5,76.7,34.5,145.7,75.6,194.4,115.9l10.7,9.3c15.3,13.7,27,25.9,35.3,36.7,8.6,11.1,11.5,25.6,8.1,39.1-1.5,5.9-3.1,11.2-5,16.5-3.5,10.6-8.1,22.6-13.6,34.8-1.2,2.7-2.3,5.1-3.6,7.6-80.9,171.5-252.4,273.9-371.5,273.9h0Z"/>
  <path class="st0" d="M363.1,473.1c8.1,0,18.3.5,31,2.1,59.5,7.2,138.6,31.6,217,66.8,72.9,32.8,139,72.2,184,109.5l10,8.7c14.3,12.9,23.4,22.8,29,30.1-1.1,4.3-2.3,8.3-3.8,12.6-3.3,10.1-7.4,20.6-12.2,31.3-.9,2.1-1.8,4-2.9,6l-.2.5c-60.2,127.9-206.4,248.1-330.4,248.1s-46.6-4.4-67.9-14c-132.5-59.5-155.6-297.4-89.9-452.3l.7-1.6c.8-2.1,1.6-4,2.5-6.1,4.8-10.7,9.9-20.7,15.3-29.9,2.2-4,4.5-7.7,7-11.4,3.1-.2,6.7-.3,10.8-.3M447.8,925.2c7,0,14.1-4.9,17.2-11.8,4.3-9.5-.3-20.2-9.5-25-71-37.1-73.6-99.3-66.3-138,4.2-9.7-.9-21.1-9.9-25-2.4-1-4.9-1.5-7.4-1.5-7.4,0-14.4,4.4-17.5,11.5-9.3,67.7,10.2,137.4,85.6,187.5,2.4,1.6,5.1,2.3,7.8,2.3M363.1,381.9h0c-5.8,0-11.6.2-17,.6-28,1.9-53.5,16.6-69.3,39.9-3.8,5.7-7.3,11.4-10.7,17.3-6.8,11.7-13.3,24.4-19.2,37.6-1,2.2-2.3,5.2-3.7,8.8,0,.2-.2.4-.3.6-85.7,202.1-45.5,489.2,136.5,571,32.5,14.6,67.9,22,105.3,22,169.4,0,342.3-151.9,412.3-299.1,1.9-3.7,3.3-6.9,4.4-9.2,6-13.3,11.2-26.6,15.4-39.4,2.2-6.2,4.1-12.6,5.8-19.3,6.9-27.2,1-56-16.2-78.2-10.2-13.2-23.4-27-40.3-42.2-.4-.4-.9-.8-1.3-1.1l-10-8.7c-.5-.4-.9-.8-1.4-1.2-51.7-42.8-124.4-86.3-204.7-122.4-87.7-39.4-174.2-65.8-243.4-74.1-14.8-1.8-29-2.8-42-2.8"/>
  <path class="st1" d="M848.6,758.3c41.9-4.2,59.1-21.2,66-36.4,4.1-9.2,5.2-19.1,3.6-29.6,21.1-99.7,33.5-301.1-171.2-401.5,17.9-27,38.2-60.5,18.6-76.1-17.4-13.9-33.4,19-53.2,60.3-213.1-88.7-356.6,54.9-417.3,137.3-9,5.8-15.7,13.2-19.8,22.4-6.8,15.2-8.1,39.3,16.6,73.5l.6-1.2c1-2.7,2.1-5.1,3.2-7.7,5-11.2,10.5-21.9,16.1-31.8-3.3-7.9-3.6-13.7-2-17.3,2.1-4.7,9.1-9.2,21-11.7,14.9-3.5,37.5-4.5,68-.8,63.2,7.6,146.4,33.2,227.9,69.8,81.5,36.6,155.9,81.9,203.6,124.1v.2c23,20.3,37.3,37.8,44.6,51.2,6,10.6,7.3,18.9,5.2,23.5-1.6,3.6-6.1,7.2-14.2,10-3.6,10.8-8,21.9-13,33.2-1.2,2.6-2.2,5-3.6,7.5l-.5,1.2Z"/>
  <path class="st1" d="M416.7,974.6c132.8,59.7,326.6-81.8,398.4-234.1l.2-.5c1.1-2,2-3.9,2.9-6,4.8-10.7,8.9-21.1,12.2-31.3,1.5-4.3,2.7-8.3,3.8-12.6-5.6-7.3-14.7-17.2-29-30.1l-10-8.7c-44.9-37.2-111.1-76.7-184-109.4-78.4-35.2-157.6-59.6-217-66.8-19.1-2.4-32.6-2.4-41.8-1.8-2.5,3.7-4.8,7.4-7,11.4-5.4,9.2-10.5,19.2-15.3,29.9-.9,2.1-1.8,4-2.6,6.1l-.7,1.6c-65.6,154.9-42.6,392.8,89.9,452.3M379.3,725.3c9.1,3.9,14.1,15.3,9.9,25-7.2,38.7-4.7,100.8,66.3,138,9.2,4.8,13.8,15.5,9.5,25-4.3,9.7-16.4,15.3-25,9.5-75.3-50.1-94.8-119.9-85.6-187.5,4.1-9.6,15.3-14.1,24.8-10h0Z"/>
</svg>