<?xml version="1.0" encoding="UTF-8"?>
<svg id="Calque_1" xmlns="http://www.w3.org/2000/svg" version="1.1" viewBox="0 0 1200 1200">
  <!-- Generator: Adobe Illustrator 29.3.1, SVG Export Plug-In . SVG Version: 2.1.0 Build 151)  -->
  <defs>
    <style>
      .st0 {
        fill: #0071ce;
      }

      .st1 {
        fill: #92c0e9;
      }
    </style>
  </defs>
  <path class="st1" d="M596.8,1034.3c-95.3,0-184.4-5.4-250.9-15.3-46.8-6.9-144.1-21.4-144.1-82.4s12-67.8,66.3-104.6c10.3-65.4,68.6-114.1,141.4-114.6,18-23.4,44.1-41.3,74.2-50.6,42.1-39.4,81.9-48,108.6-48,44,0,81.3,22.7,101.6,47.4,33.8,7.5,63.2,26.3,83.1,52.9,2.9-.2,5.8-.3,8.7-.3,72.7,0,133,50.8,142.7,116.5,51.7,36.3,63.2,74.5,63.2,101.2,0,61.1-97.3,75.5-144.1,82.4-66.5,9.9-155.6,15.3-250.9,15.3"/>
  <path class="st0" d="M592.4,657c36.8,0,64.9,22.1,75.8,38.2,0,3,1.5,4.4,1.5,5.9,39.7,2.9,73.6,26.5,88.3,60.3,8.8-2.9,17.7-4.4,28-4.4,58.9,0,105.9,44.1,105.9,97.1v2.9c39.7,23.5,61.8,51.5,61.8,79.5,0,39.7-178.4,59.6-356.9,59.6s-356.8-19.9-356.8-59.6,23.5-58.9,64.7-82.4v-1.5c0-54.4,47.1-97.1,106-97.1s13.2,0,19.1,1.5c13.2-28,41.2-48.6,73.6-55.9,32.1-32.8,62.8-44.1,89-44.1M592.4,580.7h0c-32.3,0-79.5,9.5-128.3,52.5-28.1,10-53.1,26.3-72.8,47-76.2,7.7-138.5,60.2-157.2,129.2-57.4,43.8-70.5,92.1-70.5,127.1,0,94,123.8,112.4,176.6,120.2,68.3,10.1,159.4,15.7,256.5,15.7s188.2-5.6,256.5-15.7c52.9-7.8,176.6-26.2,176.6-120.2s-9.5-77.1-66.8-122.9c-18.5-73.5-86.5-129-168.4-132.8-21.6-22.8-49.2-39.7-80.2-48.8-26.4-26.8-68.9-51.4-122.2-51.4"/>
  <path class="st1" d="M593.9,768.1c-11.6,0-22.8-4.3-31.5-12-8.7-7.7-14.2-18.4-15.6-29.9-7.4-62.2-7.3-125.7.4-188.6-2.5-18.1-6-35.9-10.5-53l-62.2-24.9c-64.9-26-106.9-101.5-95.6-171.7l14-87c2.4-14.6,11.1-27.2,23.9-34.4,7.3-4.1,15.5-6.3,23.9-6.3s12.3,1.2,18.1,3.5l83.8,33.6c65,26,107,101.5,95.6,171.8l-12.2,75.9c.7,2.2,1.3,4.5,2,6.8l27.6-50.9c24.9-45.9,77.7-76.8,131.5-76.8s24.4,1.6,35.8,4.9l78.5,22.2c13.9,3.9,25.2,13.8,30.8,27.2,5.6,13.3,4.9,28.2-2,41,0,0-38.4,70.7-38.6,71.1-13.3,22.8-32.4,41.9-55.3,55.1-22.9,13.3-48.9,20.4-75.3,20.6h0c-12.6,0-24.5-1.6-36-4.8l-56.4-15.9c-10.2,7.8-20,16.2-29.3,25-4.4,48.2-3.8,96.9,1.8,145,1.5,12.5-2,24.9-9.8,34.9-7.9,10-19.1,16.3-31.6,17.7-2.2.2-3.9.3-5.6.3"/>
  <path class="st0" d="M440.7,198.3c1.3,0,2.6.2,3.8.7l83.9,33.6c48.2,19.3,80.6,77.8,72.1,130.2l-13.7,84.7c3.9,12.3,7.2,24.7,10.1,37.3,3.3,7.3,4.7,26.7,9.5,38.5,14.4-13.1,29.7-25.2,45.7-36.3l36.9-68.2c18.7-34.5,59.1-56.8,97.9-56.8s17.2,1.1,25.4,3.4l78.5,22.2c2.7.8,4.9,2.7,6,5.3,1.1,2.6.9,5.5-.4,8l-37.9,70c-10,17.1-24.3,31.4-41.4,41.3-17.2,10-36.6,15.3-56.5,15.4h-.3c-8.5,0-16.9-1.2-25.1-3.4l-74.2-21c-20.9,14.6-40.4,31-58.4,49.1-6.2,55.5-6,111.6.5,167.1.3,2.4-.4,4.9-1.9,6.8-1.5,1.9-3.7,3.2-6.2,3.5-.4,0-.7,0-1.1,0-2.3,0-4.4-.8-6.1-2.3-1.7-1.5-2.8-3.6-3-5.8-7.3-61.3-6.9-123.2.9-184.3-3.5-27.6-9.2-54.8-17.5-81.4l-79.5-31.9c-48.2-19.3-80.6-77.8-72.1-130.2l14-87.1c.5-3.1,2.4-5.8,5.1-7.3,1.6-.9,3.3-1.3,5-1.3M440.7,121.9c-14.9,0-29.6,3.9-42.6,11.2-23.1,13-38.7,35.5-42.9,61.6l-14,87c-14.1,87.2,38.3,180.8,119.1,213.2l43.9,17.6c1.8,8.3,3.3,16.8,4.6,25.4-7.4,64.3-7.4,129.1.2,192.8,2.4,20.7,12.4,39.9,28.1,53.8,15.6,13.9,35.7,21.6,56.7,21.6h.7c3.1,0,6.2-.2,9.3-.6,22.9-2.7,43.2-14.1,57.3-32,14.2-18,20.5-40.3,17.8-63-4.8-40.6-5.7-81.6-2.9-122.4.4-.4.8-.7,1.2-1l37.2,10.5c15.1,4.2,30.4,6.3,45.9,6.3h.7c33.3-.3,65.8-9.2,94.4-25.7,28.6-16.6,52.5-40.4,69.1-68.9.4-.7.8-1.4,1.2-2.1l37.9-70c12.4-22.9,13.8-49.9,3.6-74-10.2-24.2-30.5-42.1-55.8-49.2l-78.3-22.1c-14.8-4.2-30.3-6.3-46.2-6.3-39.4,0-78.5,13.3-110.4,36-9-69.4-55.3-134.1-119.8-159.9l-83.9-33.6c-10.2-4.1-21.1-6.2-32.2-6.2"/>
  <path class="st1" d="M891.8,857.1v-2.9c0-53-47.1-97.1-105.9-97.1s-19.1,1.5-28,4.4c-14.7-33.9-48.6-57.4-88.3-60.3,0-1.5-1.5-2.9-1.5-5.9-18.7-27.6-87.9-72.9-164.8,5.9-32.4,7.4-60.3,28-73.6,55.9-5.9-1.5-13.3-1.5-19.1-1.5-58.9,0-105.9,42.7-105.9,97.1v1.5c-41.2,23.5-64.8,51.5-64.8,82.4,0,79.5,713.7,79.5,713.7,0s-22.1-55.9-61.8-79.5"/>
  <path class="st1" d="M896.9,393c-1.1-2.6-3.3-4.6-6-5.3h0s-78.5-22.2-78.5-22.2c-45.1-12.8-100.5,11.2-123.3,53.4l-36.9,68.2c-16,11.1-31.2,23.2-45.7,36.3-4.8-11.8-6.2-31.3-9.5-38.5-2.9-12.5-6.2-25-10.1-37.3l13.7-84.7c8.5-52.5-23.9-110.9-72.1-130.2l-83.9-33.6c-2.9-1.2-6.2-.9-8.9.6-2.7,1.5-4.6,4.2-5.1,7.3h0s-14,87-14,87c-8.5,52.5,23.9,110.9,72.1,130.2l79.5,31.9c8.3,26.6,14.1,53.9,17.5,81.4-7.8,61.1-8.2,122.9-.9,184.3.3,2.2,1.3,4.3,3,5.8,1.7,1.5,3.9,2.3,6.1,2.3s.7,0,1.1,0c2.4-.3,4.7-1.5,6.2-3.5,1.5-1.9,2.2-4.4,1.9-6.8-6.5-55.5-6.7-111.5-.5-167.1,17.9-18.1,37.5-34.6,58.4-49.1l74.2,21c8.3,2.3,16.8,3.5,25.4,3.4,19.8-.2,39.3-5.5,56.5-15.4,17.2-10,31.4-24.2,41.4-41.4l37.9-70c1.3-2.5,1.5-5.4.4-8"/>
</svg>