<?xml version="1.0" encoding="UTF-8"?>
<svg id="Calque_2" data-name="Calque 2" xmlns="http://www.w3.org/2000/svg" viewBox="0 0 159.2 30.36">
  <defs>
    <style>
      .cls-1 {
        stroke: #dcffb1;
        stroke-linecap: round;
        stroke-linejoin: round;
        stroke-width: 9px;
      }

      .cls-1, .cls-2 {
        fill: #0533a1;
      }
    </style>
  </defs>
  <g id="Calque_1-2" data-name="Calque 1">
    <g>
      <g>
        <path class="cls-1" d="M22.57,6.93c-.48.94-.67,1.2-.67,9.22v9.41s-.78-.05-2.7-.05c-2.06,0-3.72.05-3.72.05l-5.43-11.92c-.45-.99-.75-2-.78-2.11v4.62c0,7.78.11,7.89.67,8.96l.24.45s-.86-.05-2.81-.05c-2.09,0-2.89.05-2.89.05l.24-.45c.48-.94.67-1.2.67-9.22s-.11-7.89-.67-8.96l-.24-.45s1.15.05,3.85.05c2.3,0,3.5-.05,3.5-.05l5.4,11.87c.53,1.15.78,2.17.78,2.17v-4.62c0-7.78-.11-7.89-.67-8.96l-.24-.45s.86.05,2.81.05c2.09,0,2.89-.05,2.89-.05l-.24.45Z"/>
        <path class="cls-1" d="M32.7,19.28c-1.47,0-2.49-.19-2.49-.19,0,.86.4,3.58,4.01,3.58s4.46-1.39,4.54-1.52c0,2.27-1.71,4.71-6.34,4.71-5.8,0-7.78-3.42-7.78-7.83,0-5.05,2.22-8.26,7.43-8.26,1.9,0,6.87.08,6.87,4.81,0,1.95-.59,4.71-6.25,4.71ZM32.14,12.36c-2.06,0-2.08,1.82-2.08,4.12,0,0,.43.11,1.47.11,1.55,0,2.33-.45,2.33-2.17,0-.96-.35-2.06-1.71-2.06Z"/>
        <path class="cls-1" d="M64.29,16.4l-2.19,9.17s-.86-.05-3.29-.05-3.34.05-3.34.05l-1.92-9.46c-.29-1.44-.35-2.08-.35-2.27-.03.19-.08.86-.37,2.25l-1.92,9.49s-1.04-.05-3.48-.05-3.47.05-3.47.05l-2.11-9.17c-.86-3.77-1.34-5.37-2.33-6.34,0,0,1.23.05,3.85.05s3.82-.05,3.82-.05c-.35.24-.86.69-.86,1.68,0,.94.27,2.59.64,4.6l.64,3.5c.37,2.09.43,2.86.45,3.02,0-.16.11-.99.51-3.02l2-9.78s.78.05,2.99.05,3.02-.05,3.02-.05l2.03,9.76c.4,1.95.51,2.75.54,2.94,0-.13.05-.83.45-2.94l.64-3.61c.35-2.03.59-3.53.59-4.46,0-.99-.51-1.44-.86-1.68,0,0,1.18.05,3.58.05,2.19,0,3.1-.05,3.1-.05-.99.96-1.47,2.57-2.38,6.34Z"/>
        <path class="cls-1" d="M78.72,25.78c-3.5,0-5.16-.88-5.16-.88,0,0,.05-.51.05-2.14,0-1.79-.05-2.62-.05-2.62,1.26,2.09,2.75,2.57,4.41,2.57,1.5,0,2.11-.45,2.11-1.2s-.37-.99-1.23-1.39l-1.98-.94c-2.03-.96-3.31-2.17-3.31-4.62,0-2.97,2-4.76,5.91-4.76,3.69,0,4.92.86,4.92.86,0,0-.05.59-.05,2.3s.05,2.43.05,2.43c-1.02-1.6-2.14-2.54-4.06-2.54-1.39,0-2,.35-2,1.1s.48,1.02,1.55,1.5l1.87.86c2.03.94,3.26,2.14,3.26,4.54,0,3.07-2.14,4.95-6.28,4.95Z"/>
        <path class="cls-1" d="M92.48,25.81c-2.25,0-3.42-.75-4.09-1.63-.64-.86-.86-2.38-.86-4.28,0-4.25.08-6.71.08-6.71h-1.74s.94-.94,2.43-2.91c1.34-1.76,2.33-3.34,2.33-3.34h2.38v3.23h1.39c2.19,0,2.62-.29,2.62-.29,0,0-.03.48-.03,1.79s.03,1.79.03,1.79c0,0-.4-.27-2.62-.27h-1.39v6.58c0,1.12.05,1.66.29,2.14.27.56.8.91,1.79.91,1.47,0,2.14-.75,2.14-.75,0,1.87-1.34,3.74-4.76,3.74Z"/>
        <path class="cls-1" d="M106.83,14.1c-1.82,0-2.3.86-2.3.86v3.34c0,5.85.29,6.04.75,6.79l.29.48s-1.2-.05-3.74-.05-3.63.05-3.63.05l.24-.45c.43-.78.67-.99.67-6.82v-1.15c0-4.62-.24-5.37-.67-6.15l-.24-.45,6.17-.67-.13,4.89c.54-4.41,2.49-5,3.88-5s1.84.48,1.84.48c0,0-.05.67-.05,2.51,0,1.98.05,2.75.05,2.75-.88-1.23-2.22-1.42-3.13-1.42Z"/>
        <path class="cls-1" d="M127.07,25.08l-6.2.67.16-4.49c-.7,3.98-3.21,4.57-4.71,4.57-5.43,0-5.48-6.07-5.48-7.73,0-6.52,3.48-8.34,6.63-8.34s3.98,1.42,3.98,1.42l5-1.44s-.24,2-.24,7.75v.99c0,4.62.19,5.37.61,6.15l.24.45ZM120.79,13.4s-.54-.67-1.6-.67c-1.71,0-2.7,1.5-2.7,5.08,0,1.84.11,4.73,2.22,4.73,1.71,0,2.09-1.52,2.09-1.52v-7.62Z"/>
        <path class="cls-1" d="M132.6,25.51c-2.57,0-3.64.05-3.64.05l.24-.45c.43-.78.67-.99.67-6.82v-1.15c0-4.62-.24-5.37-.67-6.15l-.24-.45,6.58-.67s-.24,1.5-.24,7.25v1.18c0,4.95.11,5.75.67,6.82l.24.45s-1.07-.05-3.61-.05ZM132.6,8.67c-1.71,0-3.13-.35-3.13-2.03s1.34-2.14,3.1-2.14,3.13.35,3.13,2.03-1.34,2.14-3.1,2.14Z"/>
        <path class="cls-1" d="M154.7,25.57s-1.07-.05-3.61-.05-3.64.05-3.64.05l.24-.45c.43-.78.67-.96.67-6.79,0-3.21-.11-4.01-.35-4.49-.19-.4-.67-.78-1.55-.78-1.74,0-2.11,1.5-2.11,1.5v3.8c0,5.8.27,5.99.7,6.76l.24.45s-1.07-.05-3.61-.05-3.64.05-3.64.05l.24-.45c.43-.78.67-.99.67-6.82v-1.15c0-4.62-.24-5.37-.67-6.15l-.24-.45,6.23-.67-.16,4.46c.8-4.52,3.96-4.57,5.08-4.57,1.9,0,3.18.59,3.88,1.84.64,1.12.72,2.41.72,5.53v1.15c0,5.83.24,6.04.67,6.82l.24.45Z"/>
      </g>
      <g>
        <path class="cls-2" d="M22.57,6.93c-.48.94-.67,1.2-.67,9.22v9.41s-.78-.05-2.7-.05c-2.06,0-3.72.05-3.72.05l-5.43-11.92c-.45-.99-.75-2-.78-2.11v4.62c0,7.78.11,7.89.67,8.96l.24.45s-.86-.05-2.81-.05c-2.09,0-2.89.05-2.89.05l.24-.45c.48-.94.67-1.2.67-9.22s-.11-7.89-.67-8.96l-.24-.45s1.15.05,3.85.05c2.3,0,3.5-.05,3.5-.05l5.4,11.87c.53,1.15.78,2.17.78,2.17v-4.62c0-7.78-.11-7.89-.67-8.96l-.24-.45s.86.05,2.81.05c2.09,0,2.89-.05,2.89-.05l-.24.45Z"/>
        <path class="cls-2" d="M32.7,19.28c-1.47,0-2.49-.19-2.49-.19,0,.86.4,3.58,4.01,3.58s4.46-1.39,4.54-1.52c0,2.27-1.71,4.71-6.34,4.71-5.8,0-7.78-3.42-7.78-7.83,0-5.05,2.22-8.26,7.43-8.26,1.9,0,6.87.08,6.87,4.81,0,1.95-.59,4.71-6.25,4.71ZM32.14,12.36c-2.06,0-2.08,1.82-2.08,4.12,0,0,.43.11,1.47.11,1.55,0,2.33-.45,2.33-2.17,0-.96-.35-2.06-1.71-2.06Z"/>
        <path class="cls-2" d="M64.29,16.4l-2.19,9.17s-.86-.05-3.29-.05-3.34.05-3.34.05l-1.92-9.46c-.29-1.44-.35-2.08-.35-2.27-.03.19-.08.86-.37,2.25l-1.92,9.49s-1.04-.05-3.48-.05-3.47.05-3.47.05l-2.11-9.17c-.86-3.77-1.34-5.37-2.33-6.34,0,0,1.23.05,3.85.05s3.82-.05,3.82-.05c-.35.24-.86.69-.86,1.68,0,.94.27,2.59.64,4.6l.64,3.5c.37,2.09.43,2.86.45,3.02,0-.16.11-.99.51-3.02l2-9.78s.78.05,2.99.05,3.02-.05,3.02-.05l2.03,9.76c.4,1.95.51,2.75.54,2.94,0-.13.05-.83.45-2.94l.64-3.61c.35-2.03.59-3.53.59-4.46,0-.99-.51-1.44-.86-1.68,0,0,1.18.05,3.58.05,2.19,0,3.1-.05,3.1-.05-.99.96-1.47,2.57-2.38,6.34Z"/>
        <path class="cls-2" d="M78.72,25.78c-3.5,0-5.16-.88-5.16-.88,0,0,.05-.51.05-2.14,0-1.79-.05-2.62-.05-2.62,1.26,2.09,2.75,2.57,4.41,2.57,1.5,0,2.11-.45,2.11-1.2s-.37-.99-1.23-1.39l-1.98-.94c-2.03-.96-3.31-2.17-3.31-4.62,0-2.97,2-4.76,5.91-4.76,3.69,0,4.92.86,4.92.86,0,0-.05.59-.05,2.3s.05,2.43.05,2.43c-1.02-1.6-2.14-2.54-4.06-2.54-1.39,0-2,.35-2,1.1s.48,1.02,1.55,1.5l1.87.86c2.03.94,3.26,2.14,3.26,4.54,0,3.07-2.14,4.95-6.28,4.95Z"/>
        <path class="cls-2" d="M92.48,25.81c-2.25,0-3.42-.75-4.09-1.63-.64-.86-.86-2.38-.86-4.28,0-4.25.08-6.71.08-6.71h-1.74s.94-.94,2.43-2.91c1.34-1.76,2.33-3.34,2.33-3.34h2.38v3.23h1.39c2.19,0,2.62-.29,2.62-.29,0,0-.03.48-.03,1.79s.03,1.79.03,1.79c0,0-.4-.27-2.62-.27h-1.39v6.58c0,1.12.05,1.66.29,2.14.27.56.8.91,1.79.91,1.47,0,2.14-.75,2.14-.75,0,1.87-1.34,3.74-4.76,3.74Z"/>
        <path class="cls-2" d="M106.83,14.1c-1.82,0-2.3.86-2.3.86v3.34c0,5.85.29,6.04.75,6.79l.29.48s-1.2-.05-3.74-.05-3.63.05-3.63.05l.24-.45c.43-.78.67-.99.67-6.82v-1.15c0-4.62-.24-5.37-.67-6.15l-.24-.45,6.17-.67-.13,4.89c.54-4.41,2.49-5,3.88-5s1.84.48,1.84.48c0,0-.05.67-.05,2.51,0,1.98.05,2.75.05,2.75-.88-1.23-2.22-1.42-3.13-1.42Z"/>
        <path class="cls-2" d="M127.07,25.08l-6.2.67.16-4.49c-.7,3.98-3.21,4.57-4.71,4.57-5.43,0-5.48-6.07-5.48-7.73,0-6.52,3.48-8.34,6.63-8.34s3.98,1.42,3.98,1.42l5-1.44s-.24,2-.24,7.75v.99c0,4.62.19,5.37.61,6.15l.24.45ZM120.79,13.4s-.54-.67-1.6-.67c-1.71,0-2.7,1.5-2.7,5.08,0,1.84.11,4.73,2.22,4.73,1.71,0,2.09-1.52,2.09-1.52v-7.62Z"/>
        <path class="cls-2" d="M132.6,25.51c-2.57,0-3.64.05-3.64.05l.24-.45c.43-.78.67-.99.67-6.82v-1.15c0-4.62-.24-5.37-.67-6.15l-.24-.45,6.58-.67s-.24,1.5-.24,7.25v1.18c0,4.95.11,5.75.67,6.82l.24.45s-1.07-.05-3.61-.05ZM132.6,8.67c-1.71,0-3.13-.35-3.13-2.03s1.34-2.14,3.1-2.14,3.13.35,3.13,2.03-1.34,2.14-3.1,2.14Z"/>
        <path class="cls-2" d="M154.7,25.57s-1.07-.05-3.61-.05-3.64.05-3.64.05l.24-.45c.43-.78.67-.96.67-6.79,0-3.21-.11-4.01-.35-4.49-.19-.4-.67-.78-1.55-.78-1.74,0-2.11,1.5-2.11,1.5v3.8c0,5.8.27,5.99.7,6.76l.24.45s-1.07-.05-3.61-.05-3.64.05-3.64.05l.24-.45c.43-.78.67-.99.67-6.82v-1.15c0-4.62-.24-5.37-.67-6.15l-.24-.45,6.23-.67-.16,4.46c.8-4.52,3.96-4.57,5.08-4.57,1.9,0,3.18.59,3.88,1.84.64,1.12.72,2.41.72,5.53v1.15c0,5.83.24,6.04.67,6.82l.24.45Z"/>
      </g>
    </g>
  </g>
</svg>