<?xml version="1.0" encoding="UTF-8"?>
<svg id="Calque_2" data-name="Calque 2" xmlns="http://www.w3.org/2000/svg" viewBox="0 0 235.8 30.6">
  <defs>
    <style>
      .cls-1 {
        stroke: #dcffb1;
        stroke-linecap: round;
        stroke-linejoin: round;
        stroke-width: 9px;
      }

      .cls-1, .cls-2 {
        fill: #0533a1;
      }
    </style>
  </defs>
  <g id="Calque_1-2" data-name="Calque 1">
    <g>
      <g>
        <path class="cls-1" d="M22.57,7.17c-.48.94-.67,1.2-.67,9.22v9.41s-.78-.05-2.7-.05c-2.06,0-3.72.05-3.72.05l-5.43-11.92c-.45-.99-.75-2-.78-2.11v4.62c0,7.78.11,7.89.67,8.96l.24.45s-.86-.05-2.81-.05c-2.09,0-2.89.05-2.89.05l.24-.45c.48-.94.67-1.2.67-9.22s-.11-7.89-.67-8.96l-.24-.45s1.15.05,3.85.05c2.3,0,3.5-.05,3.5-.05l5.4,11.87c.53,1.15.78,2.17.78,2.17v-4.62c0-7.78-.11-7.89-.67-8.96l-.24-.45s.86.05,2.81.05c2.09,0,2.89-.05,2.89-.05l-.24.45Z"/>
        <path class="cls-1" d="M32.59,26.1c-5.19,0-7.94-2.83-7.94-7.78,0-5.45,2.83-8.31,8.1-8.31s7.94,2.83,7.94,7.78c0,5.45-2.83,8.31-8.1,8.31ZM32.64,13.11c-1.79,0-2.35,1.42-2.35,5.08,0,3.93.64,4.81,2.41,4.81s2.35-1.42,2.35-5.08c0-3.93-.64-4.81-2.41-4.81Z"/>
        <path class="cls-1" d="M58.92,25.3l-6.25.67.19-4.46c-.8,4.52-3.93,4.57-5.13,4.57-1.82,0-3.13-.56-3.82-1.79-.64-1.12-.72-2.35-.72-5.48v-1.42c0-4.92-.11-5.29-.56-6.15l-.24-.45,6.39-.67s-.16,2.01-.16,5.67v1.74c0,3.21.11,4.01.35,4.49.19.4.67.78,1.55.78,1.74,0,2.11-1.5,2.11-1.5v-3.9c0-4.92-.11-5.29-.56-6.15l-.24-.45,6.33-.67s-.13,2.94-.13,5.67v2.91c0,4.62.24,5.37.67,6.15l.24.45Z"/>
        <path class="cls-1" d="M74.5,16.64l-2.54,9.17s-1.34-.05-3.82-.05-3.82.05-3.82.05l-2.49-9.17c-1.02-3.74-1.39-5.37-2.38-6.34,0,0,.91.05,3.79.05s3.98-.05,3.98-.05c-.35.24-.86.69-.86,1.68,0,.94.4,2.57.88,4.54l1.2,5.11c.16.69.29,1.63.32,1.76.03-.13.16-1.02.35-1.74l1.23-5.13c.48-2,.88-3.61.88-4.54,0-.99-.51-1.44-.86-1.68,0,0,1.1.05,3.37.05s3.18-.05,3.18-.05c-.99.96-1.39,2.59-2.43,6.34Z"/>
        <path class="cls-1" d="M85.27,19.52c-1.47,0-2.49-.19-2.49-.19,0,.86.4,3.58,4.01,3.58s4.46-1.39,4.54-1.52c0,2.27-1.71,4.71-6.34,4.71-5.8,0-7.78-3.42-7.78-7.83,0-5.05,2.22-8.26,7.43-8.26,1.9,0,6.87.08,6.87,4.81,0,1.95-.59,4.71-6.26,4.71ZM84.71,12.6c-2.06,0-2.08,1.82-2.08,4.12,0,0,.43.11,1.47.11,1.55,0,2.33-.45,2.33-2.17,0-.96-.35-2.06-1.71-2.06Z"/>
        <path class="cls-1" d="M96.87,25.75c-2.57,0-3.64.05-3.64.05l.24-.45c.43-.78.67-1.02.67-6.82v-6.52c0-4.62-.24-5.37-.67-6.15l-.24-.45,6.42-.67s-.08,2.67-.08,5.13v8.66c0,5.8.24,6.04.67,6.82l.24.45s-1.07-.05-3.61-.05Z"/>
        <path class="cls-1" d="M105.87,25.75c-2.57,0-3.64.05-3.64.05l.24-.45c.43-.78.67-1.02.67-6.82v-6.52c0-4.62-.24-5.37-.67-6.15l-.24-.45,6.42-.67s-.08,2.67-.08,5.13v8.66c0,5.8.24,6.04.67,6.82l.24.45s-1.07-.05-3.61-.05Z"/>
        <path class="cls-1" d="M119.24,19.52c-1.47,0-2.49-.19-2.49-.19,0,.86.4,3.58,4.01,3.58s4.46-1.39,4.54-1.52c0,2.27-1.71,4.71-6.34,4.71-5.8,0-7.78-3.42-7.78-7.83,0-5.05,2.22-8.26,7.43-8.26,1.9,0,6.87.08,6.87,4.81,0,1.95-.59,4.71-6.26,4.71ZM118.67,12.6c-2.06,0-2.08,1.82-2.08,4.12,0,0,.43.11,1.47.11,1.55,0,2.33-.45,2.33-2.17,0-.96-.35-2.06-1.71-2.06Z"/>
        <path class="cls-1" d="M147.11,16.64l-2.54,9.17s-1.34-.05-3.82-.05-3.82.05-3.82.05l-2.49-9.17c-1.02-3.74-1.39-5.37-2.38-6.34,0,0,.91.05,3.8.05s3.98-.05,3.98-.05c-.35.24-.86.69-.86,1.68,0,.94.4,2.57.88,4.54l1.2,5.11c.16.69.29,1.63.32,1.76.03-.13.16-1.02.35-1.74l1.23-5.13c.48-2,.88-3.61.88-4.54,0-.99-.51-1.44-.86-1.68,0,0,1.1.05,3.37.05s3.18-.05,3.18-.05c-.99.96-1.39,2.59-2.43,6.34Z"/>
        <path class="cls-1" d="M166.11,25.33l-6.2.67.16-4.49c-.69,3.98-3.21,4.57-4.71,4.57-5.43,0-5.48-6.07-5.48-7.73,0-6.52,3.47-8.34,6.63-8.34s3.98,1.42,3.98,1.42l5-1.44s-.24,2-.24,7.75v.99c0,4.62.19,5.37.62,6.15l.24.45ZM159.83,13.64s-.53-.67-1.6-.67c-1.71,0-2.7,1.5-2.7,5.08,0,1.84.11,4.73,2.22,4.73,1.71,0,2.08-1.52,2.08-1.52v-7.62Z"/>
        <path class="cls-1" d="M176.64,14.34c-1.82,0-2.3.86-2.3.86v3.34c0,5.85.29,6.04.75,6.79l.29.48s-1.2-.05-3.74-.05-3.64.05-3.64.05l.24-.45c.43-.78.67-.99.67-6.82v-1.15c0-4.62-.24-5.37-.67-6.15l-.24-.45,6.18-.67-.13,4.89c.54-4.41,2.49-5,3.88-5s1.85.48,1.85.48c0,0-.05.67-.05,2.51,0,1.98.05,2.75.05,2.75-.88-1.23-2.22-1.42-3.13-1.42Z"/>
        <path class="cls-1" d="M184.36,25.75c-2.57,0-3.64.05-3.64.05l.24-.45c.43-.78.67-.99.67-6.82v-1.15c0-4.62-.24-5.37-.67-6.15l-.24-.45,6.58-.67s-.24,1.5-.24,7.25v1.18c0,4.95.11,5.75.67,6.82l.24.45s-1.07-.05-3.61-.05ZM184.36,8.91c-1.71,0-3.13-.35-3.13-2.03s1.34-2.14,3.1-2.14,3.13.35,3.13,2.03-1.34,2.14-3.1,2.14Z"/>
        <path class="cls-1" d="M197.73,19.52c-1.47,0-2.49-.19-2.49-.19,0,.86.4,3.58,4.01,3.58s4.46-1.39,4.54-1.52c0,2.27-1.71,4.71-6.34,4.71-5.8,0-7.78-3.42-7.78-7.83,0-5.05,2.22-8.26,7.43-8.26,1.9,0,6.87.08,6.87,4.81,0,1.95-.59,4.71-6.26,4.71ZM196.71,4.5h4.65s-.35,1.2-2.49,2.83c-1.92,1.47-3.98,1.79-3.98,1.79l1.82-4.62ZM197.17,12.6c-2.06,0-2.08,1.82-2.08,4.12,0,0,.43.11,1.47.11,1.55,0,2.33-.45,2.33-2.17,0-.96-.35-2.06-1.71-2.06Z"/>
        <path class="cls-1" d="M211.41,26.05c-2.25,0-3.42-.75-4.09-1.63-.64-.86-.86-2.38-.86-4.28,0-4.25.08-6.71.08-6.71h-1.74s.94-.94,2.43-2.91c1.34-1.76,2.33-3.34,2.33-3.34h2.38v3.23h1.39c2.19,0,2.62-.29,2.62-.29,0,0-.03.48-.03,1.79s.03,1.79.03,1.79c0,0-.4-.27-2.62-.27h-1.39v6.58c0,1.12.05,1.66.29,2.14.27.56.8.91,1.79.91,1.47,0,2.14-.75,2.14-.75,0,1.87-1.34,3.74-4.76,3.74Z"/>
        <path class="cls-1" d="M225.04,19.52c-1.47,0-2.49-.19-2.49-.19,0,.86.4,3.58,4.01,3.58s4.46-1.39,4.54-1.52c0,2.27-1.71,4.71-6.34,4.71-5.8,0-7.78-3.42-7.78-7.83,0-5.05,2.22-8.26,7.43-8.26,1.9,0,6.87.08,6.87,4.81,0,1.95-.59,4.71-6.25,4.71ZM224.03,4.5h4.65s-.35,1.2-2.49,2.83c-1.92,1.47-3.98,1.79-3.98,1.79l1.82-4.62ZM224.48,12.6c-2.06,0-2.08,1.82-2.08,4.12,0,0,.43.11,1.47.11,1.55,0,2.33-.45,2.33-2.17,0-.96-.35-2.06-1.71-2.06Z"/>
      </g>
      <g>
        <path class="cls-2" d="M22.57,7.17c-.48.94-.67,1.2-.67,9.22v9.41s-.78-.05-2.7-.05c-2.06,0-3.72.05-3.72.05l-5.43-11.92c-.45-.99-.75-2-.78-2.11v4.62c0,7.78.11,7.89.67,8.96l.24.45s-.86-.05-2.81-.05c-2.09,0-2.89.05-2.89.05l.24-.45c.48-.94.67-1.2.67-9.22s-.11-7.89-.67-8.96l-.24-.45s1.15.05,3.85.05c2.3,0,3.5-.05,3.5-.05l5.4,11.87c.53,1.15.78,2.17.78,2.17v-4.62c0-7.78-.11-7.89-.67-8.96l-.24-.45s.86.05,2.81.05c2.09,0,2.89-.05,2.89-.05l-.24.45Z"/>
        <path class="cls-2" d="M32.59,26.1c-5.19,0-7.94-2.83-7.94-7.78,0-5.45,2.83-8.31,8.1-8.31s7.94,2.83,7.94,7.78c0,5.45-2.83,8.31-8.1,8.31ZM32.64,13.11c-1.79,0-2.35,1.42-2.35,5.08,0,3.93.64,4.81,2.41,4.81s2.35-1.42,2.35-5.08c0-3.93-.64-4.81-2.41-4.81Z"/>
        <path class="cls-2" d="M58.92,25.3l-6.25.67.19-4.46c-.8,4.52-3.93,4.57-5.13,4.57-1.82,0-3.13-.56-3.82-1.79-.64-1.12-.72-2.35-.72-5.48v-1.42c0-4.92-.11-5.29-.56-6.15l-.24-.45,6.39-.67s-.16,2.01-.16,5.67v1.74c0,3.21.11,4.01.35,4.49.19.4.67.78,1.55.78,1.74,0,2.11-1.5,2.11-1.5v-3.9c0-4.92-.11-5.29-.56-6.15l-.24-.45,6.33-.67s-.13,2.94-.13,5.67v2.91c0,4.62.24,5.37.67,6.15l.24.45Z"/>
        <path class="cls-2" d="M74.5,16.64l-2.54,9.17s-1.34-.05-3.82-.05-3.82.05-3.82.05l-2.49-9.17c-1.02-3.74-1.39-5.37-2.38-6.34,0,0,.91.05,3.79.05s3.98-.05,3.98-.05c-.35.24-.86.69-.86,1.68,0,.94.4,2.57.88,4.54l1.2,5.11c.16.69.29,1.63.32,1.76.03-.13.16-1.02.35-1.74l1.23-5.13c.48-2,.88-3.61.88-4.54,0-.99-.51-1.44-.86-1.68,0,0,1.1.05,3.37.05s3.18-.05,3.18-.05c-.99.96-1.39,2.59-2.43,6.34Z"/>
        <path class="cls-2" d="M85.27,19.52c-1.47,0-2.49-.19-2.49-.19,0,.86.4,3.58,4.01,3.58s4.46-1.39,4.54-1.52c0,2.27-1.71,4.71-6.34,4.71-5.8,0-7.78-3.42-7.78-7.83,0-5.05,2.22-8.26,7.43-8.26,1.9,0,6.87.08,6.87,4.81,0,1.95-.59,4.71-6.26,4.71ZM84.71,12.6c-2.06,0-2.08,1.82-2.08,4.12,0,0,.43.11,1.47.11,1.55,0,2.33-.45,2.33-2.17,0-.96-.35-2.06-1.71-2.06Z"/>
        <path class="cls-2" d="M96.87,25.75c-2.57,0-3.64.05-3.64.05l.24-.45c.43-.78.67-1.02.67-6.82v-6.52c0-4.62-.24-5.37-.67-6.15l-.24-.45,6.42-.67s-.08,2.67-.08,5.13v8.66c0,5.8.24,6.04.67,6.82l.24.45s-1.07-.05-3.61-.05Z"/>
        <path class="cls-2" d="M105.87,25.75c-2.57,0-3.64.05-3.64.05l.24-.45c.43-.78.67-1.02.67-6.82v-6.52c0-4.62-.24-5.37-.67-6.15l-.24-.45,6.42-.67s-.08,2.67-.08,5.13v8.66c0,5.8.24,6.04.67,6.82l.24.45s-1.07-.05-3.61-.05Z"/>
        <path class="cls-2" d="M119.24,19.52c-1.47,0-2.49-.19-2.49-.19,0,.86.4,3.58,4.01,3.58s4.46-1.39,4.54-1.52c0,2.27-1.71,4.71-6.34,4.71-5.8,0-7.78-3.42-7.78-7.83,0-5.05,2.22-8.26,7.43-8.26,1.9,0,6.87.08,6.87,4.81,0,1.95-.59,4.71-6.26,4.71ZM118.67,12.6c-2.06,0-2.08,1.82-2.08,4.12,0,0,.43.11,1.47.11,1.55,0,2.33-.45,2.33-2.17,0-.96-.35-2.06-1.71-2.06Z"/>
        <path class="cls-2" d="M147.11,16.64l-2.54,9.17s-1.34-.05-3.82-.05-3.82.05-3.82.05l-2.49-9.17c-1.02-3.74-1.39-5.37-2.38-6.34,0,0,.91.05,3.8.05s3.98-.05,3.98-.05c-.35.24-.86.69-.86,1.68,0,.94.4,2.57.88,4.54l1.2,5.11c.16.69.29,1.63.32,1.76.03-.13.16-1.02.35-1.74l1.23-5.13c.48-2,.88-3.61.88-4.54,0-.99-.51-1.44-.86-1.68,0,0,1.1.05,3.37.05s3.18-.05,3.18-.05c-.99.96-1.39,2.59-2.43,6.34Z"/>
        <path class="cls-2" d="M166.11,25.33l-6.2.67.16-4.49c-.69,3.98-3.21,4.57-4.71,4.57-5.43,0-5.48-6.07-5.48-7.73,0-6.52,3.47-8.34,6.63-8.34s3.98,1.42,3.98,1.42l5-1.44s-.24,2-.24,7.75v.99c0,4.62.19,5.37.62,6.15l.24.45ZM159.83,13.64s-.53-.67-1.6-.67c-1.71,0-2.7,1.5-2.7,5.08,0,1.84.11,4.73,2.22,4.73,1.71,0,2.08-1.52,2.08-1.52v-7.62Z"/>
        <path class="cls-2" d="M176.64,14.34c-1.82,0-2.3.86-2.3.86v3.34c0,5.85.29,6.04.75,6.79l.29.48s-1.2-.05-3.74-.05-3.64.05-3.64.05l.24-.45c.43-.78.67-.99.67-6.82v-1.15c0-4.62-.24-5.37-.67-6.15l-.24-.45,6.18-.67-.13,4.89c.54-4.41,2.49-5,3.88-5s1.85.48,1.85.48c0,0-.05.67-.05,2.51,0,1.98.05,2.75.05,2.75-.88-1.23-2.22-1.42-3.13-1.42Z"/>
        <path class="cls-2" d="M184.36,25.75c-2.57,0-3.64.05-3.64.05l.24-.45c.43-.78.67-.99.67-6.82v-1.15c0-4.62-.24-5.37-.67-6.15l-.24-.45,6.58-.67s-.24,1.5-.24,7.25v1.18c0,4.95.11,5.75.67,6.82l.24.45s-1.07-.05-3.61-.05ZM184.36,8.91c-1.71,0-3.13-.35-3.13-2.03s1.34-2.14,3.1-2.14,3.13.35,3.13,2.03-1.34,2.14-3.1,2.14Z"/>
        <path class="cls-2" d="M197.73,19.52c-1.47,0-2.49-.19-2.49-.19,0,.86.4,3.58,4.01,3.58s4.46-1.39,4.54-1.52c0,2.27-1.71,4.71-6.34,4.71-5.8,0-7.78-3.42-7.78-7.83,0-5.05,2.22-8.26,7.43-8.26,1.9,0,6.87.08,6.87,4.81,0,1.95-.59,4.71-6.26,4.71ZM196.71,4.5h4.65s-.35,1.2-2.49,2.83c-1.92,1.47-3.98,1.79-3.98,1.79l1.82-4.62ZM197.17,12.6c-2.06,0-2.08,1.82-2.08,4.12,0,0,.43.11,1.47.11,1.55,0,2.33-.45,2.33-2.17,0-.96-.35-2.06-1.71-2.06Z"/>
        <path class="cls-2" d="M211.41,26.05c-2.25,0-3.42-.75-4.09-1.63-.64-.86-.86-2.38-.86-4.28,0-4.25.08-6.71.08-6.71h-1.74s.94-.94,2.43-2.91c1.34-1.76,2.33-3.34,2.33-3.34h2.38v3.23h1.39c2.19,0,2.62-.29,2.62-.29,0,0-.03.48-.03,1.79s.03,1.79.03,1.79c0,0-.4-.27-2.62-.27h-1.39v6.58c0,1.12.05,1.66.29,2.14.27.56.8.91,1.79.91,1.47,0,2.14-.75,2.14-.75,0,1.87-1.34,3.74-4.76,3.74Z"/>
        <path class="cls-2" d="M225.04,19.52c-1.47,0-2.49-.19-2.49-.19,0,.86.4,3.58,4.01,3.58s4.46-1.39,4.54-1.52c0,2.27-1.71,4.71-6.34,4.71-5.8,0-7.78-3.42-7.78-7.83,0-5.05,2.22-8.26,7.43-8.26,1.9,0,6.87.08,6.87,4.81,0,1.95-.59,4.71-6.25,4.71ZM224.03,4.5h4.65s-.35,1.2-2.49,2.83c-1.92,1.47-3.98,1.79-3.98,1.79l1.82-4.62ZM224.48,12.6c-2.06,0-2.08,1.82-2.08,4.12,0,0,.43.11,1.47.11,1.55,0,2.33-.45,2.33-2.17,0-.96-.35-2.06-1.71-2.06Z"/>
      </g>
    </g>
  </g>
</svg>