<?xml version="1.0" encoding="UTF-8"?>
<svg id="Calque_2" data-name="Calque 2" xmlns="http://www.w3.org/2000/svg" viewBox="0 0 155.33 56.63">
  <defs>
    <style>
      .cls-1 {
        fill: #dcffb1;
      }

      .cls-2 {
        fill: #0533a1;
      }
    </style>
  </defs>
  <g id="Calque_1-2" data-name="Calque 1">
    <g>
      <rect class="cls-1" x="106.68" y="22.49" width="16.46" height="16.46"/>
      <rect class="cls-1" x="33.53" y="27.64" width="16.46" height="16.46"/>
      <g>
        <g>
          <path class="cls-2" d="M40.48,25.35c-1.44.4-3.08.45-5.45.45-.99,0-3.42-.05-4.44-.05-1.87,0-2.78.05-2.78.05l.24-.45c.53-.99.67-1.2.67-9.22s-.11-7.89-.67-8.96l-.24-.45s.96.05,2.51.05c.91,0,3.18-.05,4.04-.05,4.57,0,8.98.11,8.98,4.54,0,3.61-3.1,4.46-4.71,4.6,2.81.08,5.32,1.26,5.32,4.62,0,3.1-1.87,4.44-3.48,4.87ZM34.84,9.45c-.69,0-.94.05-.94.05v5.16s.24.03.99.03c.61,0,1.18-.08,1.66-.24.88-.32,1.44-1.04,1.44-2.38,0-2.11-1.15-2.62-3.16-2.62ZM35.16,17.41c-.78,0-1.26.05-1.26.05v5.48s.21.08,1.26.08c.72,0,1.36-.08,1.87-.29.88-.35,1.42-1.1,1.42-2.57,0-2.17-1.26-2.75-3.29-2.75Z"/>
          <path class="cls-1" d="M35.02,30.31c-.51,0-1.38-.01-2.26-.03-.84-.01-1.68-.03-2.18-.03-1.68,0-2.51.05-2.52.05-1.64.08-3.17-.7-4.04-2.07-.88-1.37-.95-3.1-.19-4.54l.25-.46c.14-1.09.14-5.12.14-7.11s0-5.81-.13-6.81l-.26-.49c-.76-1.43-.69-3.17.18-4.54.88-1.37,2.44-2.15,4.04-2.07,0,0,.88.05,2.26.05.44,0,1.23-.01,2-.03.81-.01,1.6-.03,2.04-.03,4.03,0,13.48,0,13.48,9.04,0,1.48-.31,2.84-.89,4.04.97,1.42,1.5,3.18,1.5,5.19,0,5.44-3.5,8.32-6.79,9.21-2.06.57-4.13.61-6.64.61ZM33.95,20.18c.03.24.15.5.31.75l-.13-1.25c-.1.18-.16.36-.18.5ZM33.8,11.22c-.2.32-.3.64-.31.85.02.27.17.59.38.88.05,0,.11,0,.17-.01l.14-1.72c-.11,0-.24,0-.38,0Z"/>
        </g>
        <g>
          <path class="cls-2" d="M49.35,25.75c-2.57,0-3.64.05-3.64.05l.24-.45c.43-.78.67-.99.67-6.82v-1.15c0-4.62-.24-5.37-.67-6.15l-.24-.45,6.58-.67s-.24,1.5-.24,7.25v1.18c0,4.95.11,5.75.67,6.82l.24.45s-1.07-.05-3.61-.05ZM49.35,8.91c-1.71,0-3.13-.35-3.13-2.03s1.34-2.14,3.1-2.14,3.13.35,3.13,2.03-1.34,2.14-3.1,2.14Z"/>
          <path class="cls-1" d="M52.96,30.31c-.08,0-.15,0-.23,0,0,0-1.03-.05-3.38-.05s-3.41.05-3.42.05c-1.61.07-3.15-.72-4.02-2.08-.87-1.37-.94-3.09-.18-4.52l.24-.45s0-.02.01-.03c.06-.46.13-1.63.13-4.68v-1.15c0-2.78-.09-3.73-.15-4.06l-.23-.44c-.7-1.32-.7-2.91,0-4.23.05-.09.1-.17.15-.26-.12-.51-.17-1.02-.17-1.52,0-1.11.37-6.64,7.6-6.64,5.63,0,7.63,3.52,7.63,6.53,0,.36-.04,1.17-.33,2.11.18.62.22,1.29.11,1.94h0s-.18,1.51-.18,6.53v1.18c0,1.24,0,4.15.15,4.74l.24.43c.76,1.43.69,3.16-.18,4.52-.83,1.3-2.26,2.08-3.79,2.08ZM49.33,4.58c-.5.29-.98.83-1.22,1.43l2.33-.24c-.27-.52-.7-.95-1.11-1.19Z"/>
        </g>
        <g>
          <path class="cls-2" d="M62.71,19.52c-1.47,0-2.49-.19-2.49-.19,0,.86.4,3.58,4.01,3.58s4.46-1.39,4.54-1.52c0,2.27-1.71,4.71-6.34,4.71-5.8,0-7.78-3.42-7.78-7.83,0-5.05,2.22-8.26,7.43-8.26,1.9,0,6.87.08,6.87,4.81,0,1.95-.59,4.71-6.26,4.71ZM62.15,12.6c-2.06,0-2.09,1.82-2.09,4.12,0,0,.43.11,1.47.11,1.55,0,2.33-.45,2.33-2.17,0-.96-.35-2.06-1.71-2.06Z"/>
          <path class="cls-1" d="M62.44,30.6c-7.57,0-12.28-4.73-12.28-12.33s4.57-12.76,11.93-12.76c10.55,0,11.37,7.13,11.37,9.31,0,1.58-.3,2.98-.88,4.19.44.7.69,1.52.69,2.39,0,4.43-3.39,9.21-10.84,9.21ZM60.23,14.84c.1,0,.2,0,.31.01l.04-.18c-.12.04-.24.1-.35.17Z"/>
        </g>
        <g>
          <path class="cls-2" d="M87.41,25.81s-1.07-.05-3.61-.05-3.63.05-3.63.05l.24-.45c.43-.78.67-.96.67-6.79,0-3.21-.11-4.01-.35-4.49-.19-.4-.67-.78-1.55-.78-1.74,0-2.11,1.5-2.11,1.5v3.8c0,5.8.27,5.99.7,6.76l.24.45s-1.07-.05-3.61-.05-3.63.05-3.63.05l.24-.45c.43-.78.67-.99.67-6.82v-1.15c0-4.62-.24-5.37-.67-6.15l-.24-.45,6.23-.67-.16,4.46c.8-4.52,3.96-4.57,5.08-4.57,1.9,0,3.18.59,3.88,1.84.64,1.12.72,2.41.72,5.53v1.15c0,5.83.24,6.04.67,6.82l.24.45Z"/>
          <path class="cls-1" d="M87.41,30.31c-.07,0-.15,0-.22,0-.04,0-1.07-.05-3.39-.05s-3.4.05-3.41.05c-.45.02-.88-.02-1.3-.13-.42.11-.87.15-1.31.13,0,0-1.03-.05-3.38-.05s-3.4.05-3.41.05c-1.63.08-3.15-.72-4.02-2.08-.87-1.36-.94-3.09-.18-4.52l.24-.45s0-.02.02-.03c.06-.46.13-1.63.13-4.68v-1.15c0-2.78-.09-3.73-.15-4.06l-.23-.44c-.7-1.32-.7-2.9,0-4.22.7-1.32,2.01-2.2,3.49-2.36l6.23-.67c.77-.08,1.54.03,2.23.33.97-.3,2.03-.46,3.17-.46,4.79,0,6.95,2.61,7.81,4.17,1.22,2.13,1.29,4.32,1.29,7.71v1.15c0,3.05.07,4.23.13,4.68l.26.49c.76,1.43.69,3.16-.18,4.52-.83,1.3-2.26,2.08-3.79,2.08Z"/>
        </g>
        <g>
          <path class="cls-2" d="M94.86,26.05c-2.25,0-3.42-.75-4.09-1.63-.64-.86-.86-2.38-.86-4.28,0-4.25.08-6.71.08-6.71h-1.74s.94-.94,2.43-2.91c1.34-1.76,2.33-3.34,2.33-3.34h2.38v3.23h1.39c2.19,0,2.62-.29,2.62-.29,0,0-.03.48-.03,1.79s.03,1.79.03,1.79c0,0-.4-.27-2.62-.27h-1.39v6.58c0,1.12.05,1.66.29,2.14.27.56.8.91,1.79.91,1.47,0,2.14-.75,2.14-.75,0,1.87-1.34,3.74-4.76,3.74Z"/>
          <path class="cls-1" d="M94.86,30.55c-4.21,0-6.5-1.86-7.68-3.41-1.57-2.1-1.77-4.84-1.77-6.99,0-1.22,0-2.29.02-3.21-.57-.46-1.04-1.07-1.33-1.78-.7-1.68-.31-3.62.97-4.9h0s.78-.8,2.03-2.45c1.19-1.57,2.09-3,2.1-3.02.82-1.31,2.26-2.11,3.81-2.11h2.38c1.94,0,3.59,1.23,4.22,2.95.68.03,1.37.22,1.99.57,1.5.84,2.38,2.46,2.29,4.17,0,.06-.02.51-.02,1.55s.02,1.48.02,1.56c.08,1.7-.8,3.3-2.28,4.14-.26.15-.53.27-.81.36.14.04.28.08.42.14,1.74.67,2.9,2.34,2.9,4.2,0,3.97-2.9,8.24-9.26,8.24ZM96.27,19.3s0,0,0,0c0,0,0,0,0,0ZM96.27,19.3h0s0,0,0,0Z"/>
        </g>
        <g>
          <path class="cls-2" d="M108.38,26.1c-5.19,0-7.94-2.83-7.94-7.78,0-5.45,2.83-8.31,8.1-8.31s7.94,2.83,7.94,7.78c0,5.45-2.83,8.31-8.1,8.31ZM113.38,9.15c-1.55.03-3.53-.54-4.95-2.11-1.18,1.39-3.45,2.25-4.95,2.11l3.42-4.65h3.05l3.42,4.65ZM108.44,13.11c-1.79,0-2.35,1.42-2.35,5.08,0,3.93.64,4.81,2.41,4.81s2.35-1.42,2.35-5.08c0-3.93-.64-4.81-2.41-4.81Z"/>
          <path class="cls-1" d="M108.38,30.6c-7.56,0-12.44-4.82-12.44-12.28,0-3.74,1.08-6.82,3.05-9.01-.03-1,.26-1.99.87-2.82l3.42-4.65c.85-1.15,2.19-1.83,3.62-1.83h3.05c1.43,0,2.78.68,3.62,1.83l3.42,4.65c.58.78.87,1.72.88,2.66,1.99,2.12,3.1,5.08,3.1,8.64,0,7.9-4.83,12.81-12.6,12.81Z"/>
        </g>
        <g>
          <path class="cls-2" d="M123.91,26.05c-2.25,0-3.42-.75-4.09-1.63-.64-.86-.86-2.38-.86-4.28,0-4.25.08-6.71.08-6.71h-1.74s.94-.94,2.43-2.91c1.34-1.76,2.33-3.34,2.33-3.34h2.38v3.23h1.39c2.19,0,2.62-.29,2.62-.29,0,0-.03.48-.03,1.79s.03,1.79.03,1.79c0,0-.4-.27-2.62-.27h-1.39v6.58c0,1.12.05,1.66.29,2.14.27.56.8.91,1.79.91,1.47,0,2.14-.75,2.14-.75,0,1.87-1.34,3.74-4.76,3.74Z"/>
          <path class="cls-1" d="M123.91,30.55c-4.21,0-6.5-1.86-7.68-3.41-1.57-2.09-1.77-4.83-1.77-6.99,0-1.22,0-2.29.02-3.21-.57-.46-1.04-1.07-1.33-1.78-.7-1.68-.31-3.62.97-4.9h0s.78-.81,2.03-2.45c1.19-1.57,2.09-3.01,2.1-3.02.82-1.31,2.26-2.1,3.81-2.1h2.38c1.94,0,3.59,1.23,4.22,2.95.69.03,1.37.22,1.99.57,1.5.84,2.38,2.46,2.29,4.18,0,.06-.02.51-.02,1.54s.02,1.47.02,1.55c.08,1.7-.8,3.31-2.28,4.14-.26.15-.54.27-.82.36.14.04.28.08.42.14,1.74.67,2.9,2.34,2.9,4.2,0,3.97-2.9,8.24-9.26,8.24ZM125.32,19.3s0,0,0,0c0,0,0,0,0,0ZM125.32,19.3s0,0,0,0c0,0,0,0,0,0Z"/>
        </g>
        <g>
          <path class="cls-2" d="M12.55,45.52c-1.47,0-2.49-.19-2.49-.19,0,.86.4,3.58,4.01,3.58s4.46-1.39,4.54-1.52c0,2.27-1.71,4.71-6.34,4.71-5.8,0-7.78-3.42-7.78-7.83,0-5.05,2.22-8.26,7.43-8.26,1.9,0,6.87.08,6.87,4.81,0,1.95-.59,4.71-6.26,4.71ZM11.99,38.6c-2.06,0-2.09,1.82-2.09,4.12,0,0,.43.11,1.47.11,1.55,0,2.33-.45,2.33-2.17,0-.96-.35-2.06-1.71-2.06Z"/>
          <path class="cls-1" d="M12.28,56.6c-7.57,0-12.28-4.73-12.28-12.33s4.57-12.76,11.93-12.76c10.55,0,11.37,7.13,11.37,9.31,0,1.58-.3,2.98-.88,4.19.44.7.69,1.52.69,2.39,0,4.43-3.39,9.21-10.84,9.21ZM10.06,40.84c.1,0,.2,0,.3.01l.04-.18c-.12.04-.24.1-.35.17Z"/>
        </g>
        <g>
          <path class="cls-2" d="M37.24,51.81s-1.07-.05-3.61-.05-3.63.05-3.63.05l.24-.45c.43-.78.67-.96.67-6.79,0-3.21-.11-4.01-.35-4.49-.19-.4-.67-.78-1.55-.78-1.74,0-2.11,1.5-2.11,1.5v3.8c0,5.8.27,5.99.7,6.76l.24.45s-1.07-.05-3.61-.05-3.63.05-3.63.05l.24-.45c.43-.78.67-.99.67-6.82v-1.15c0-4.62-.24-5.37-.67-6.15l-.24-.45,6.23-.67-.16,4.46c.8-4.52,3.96-4.57,5.08-4.57,1.9,0,3.18.59,3.88,1.84.64,1.12.72,2.41.72,5.53v1.15c0,5.83.24,6.04.67,6.82l.24.45Z"/>
          <path class="cls-1" d="M37.25,56.31c-.07,0-.14,0-.22,0h0s-1.04-.05-3.39-.05-3.41.05-3.42.05c-.45.02-.88-.02-1.3-.13-.42.1-.86.15-1.31.13,0,0-1.03-.05-3.39-.05s-3.41.05-3.42.05c-1.63.08-3.15-.72-4.01-2.08-.87-1.36-.94-3.09-.18-4.52l.24-.45s0-.02.02-.03c.06-.46.13-1.63.13-4.68v-1.15c0-2.78-.09-3.73-.15-4.06l-.23-.44c-.7-1.32-.7-2.9,0-4.22.7-1.32,2.01-2.2,3.49-2.36l6.23-.67c.77-.08,1.54.04,2.23.33.97-.3,2.03-.46,3.17-.46,4.79,0,6.95,2.61,7.81,4.17,1.22,2.13,1.29,4.32,1.29,7.71v1.15c0,3.05.07,4.23.13,4.68l.26.48c.76,1.43.69,3.16-.18,4.52-.83,1.3-2.26,2.08-3.8,2.08Z"/>
        </g>
        <g>
          <path class="cls-2" d="M54.29,52.13c-6.15,0-9.17-3.34-9.17-9.6s3.18-10.02,9.12-10.02,9.17,3.34,9.17,9.6-3.18,10.03-9.12,10.03ZM54.29,35.63c-2.62,0-3.29,2.27-3.29,6.71s.67,6.66,3.24,6.66,3.29-2.27,3.29-6.71-.67-6.66-3.23-6.66Z"/>
          <path class="cls-1" d="M54.29,56.63c-8.56,0-13.67-5.27-13.67-14.1s5.34-14.52,13.62-14.52,13.67,5.27,13.67,14.1-5.34,14.53-13.62,14.53ZM54.29,40.13h0v-3.13,3.13Z"/>
        </g>
        <g>
          <path class="cls-2" d="M81.9,51.81s-1.07-.05-3.61-.05-3.64.05-3.64.05l.24-.45c.43-.78.67-.96.67-6.79,0-3.21-.11-4.01-.35-4.49-.19-.4-.67-.78-1.55-.78-1.74,0-2.11,1.5-2.11,1.5v3.8c0,5.8.27,5.99.7,6.76l.24.45s-1.07-.05-3.61-.05-3.64.05-3.64.05l.24-.45c.43-.78.67-.99.67-6.82v-1.15c0-4.62-.24-5.37-.67-6.15l-.24-.45,6.23-.67-.16,4.46c.8-4.52,3.96-4.57,5.08-4.57,1.9,0,3.18.59,3.88,1.84.64,1.12.72,2.41.72,5.53v1.15c0,5.83.24,6.04.67,6.82l.24.45Z"/>
          <path class="cls-1" d="M81.9,56.31c-.07,0-.15,0-.22,0-.05,0-1.08-.05-3.39-.05s-3.41.05-3.42.05c-.44.02-.88-.02-1.3-.13-.42.1-.87.15-1.31.13,0,0-1.03-.05-3.39-.05s-3.41.05-3.42.05c-1.59.08-3.15-.72-4.01-2.08-.87-1.36-.94-3.09-.18-4.52l.24-.45s0-.02.02-.03c.06-.46.13-1.63.13-4.68v-1.15c0-2.78-.09-3.73-.15-4.06l-.23-.44c-.7-1.32-.7-2.9,0-4.22.7-1.32,2.01-2.2,3.49-2.36l6.23-.67c.77-.08,1.54.04,2.23.33.97-.3,2.03-.46,3.17-.46,4.79,0,6.95,2.61,7.81,4.17,1.22,2.13,1.28,4.32,1.28,7.71v1.15c0,3.05.07,4.23.13,4.68l.26.48c.76,1.43.69,3.16-.18,4.52-.83,1.3-2.26,2.08-3.8,2.08Z"/>
        </g>
        <g>
          <path class="cls-2" d="M89.36,52.05c-2.25,0-3.42-.75-4.09-1.63-.64-.86-.86-2.38-.86-4.28,0-4.25.08-6.71.08-6.71h-1.74s.94-.94,2.43-2.91c1.34-1.76,2.33-3.34,2.33-3.34h2.38v3.23h1.39c2.19,0,2.62-.29,2.62-.29,0,0-.03.48-.03,1.79s.03,1.79.03,1.79c0,0-.4-.27-2.62-.27h-1.39v6.58c0,1.12.05,1.66.29,2.14.27.56.8.91,1.79.91,1.47,0,2.14-.75,2.14-.75,0,1.87-1.34,3.74-4.76,3.74Z"/>
          <path class="cls-1" d="M89.36,56.55c-4.21,0-6.5-1.85-7.68-3.41-1.57-2.1-1.77-4.84-1.77-7,0-1.22,0-2.29.02-3.21-.57-.46-1.04-1.07-1.33-1.78-.7-1.68-.31-3.62.98-4.9h0s.78-.8,2.02-2.45c1.19-1.57,2.09-3,2.1-3.02.82-1.31,2.26-2.11,3.81-2.11h2.38c1.94,0,3.59,1.23,4.22,2.95.69.03,1.37.22,1.99.57,1.5.84,2.38,2.46,2.29,4.17,0,.06-.02.51-.02,1.54s.02,1.48.02,1.56c.08,1.69-.8,3.3-2.27,4.14-.26.15-.54.27-.82.36.14.04.28.08.41.14,1.75.67,2.9,2.34,2.9,4.21,0,3.97-2.9,8.24-9.26,8.24ZM90.76,45.3s0,0,0,0c0,0,0,0,0,0ZM90.76,45.3s0,0,0,0h0Z"/>
        </g>
        <g>
          <path class="cls-2" d="M111.22,51.33l-6.2.67.16-4.49c-.7,3.98-3.21,4.57-4.71,4.57-5.43,0-5.48-6.07-5.48-7.73,0-6.52,3.47-8.34,6.63-8.34s3.98,1.42,3.98,1.42l5-1.44s-.24,2-.24,7.75v.99c0,4.62.19,5.37.62,6.15l.24.46ZM104.94,39.64s-.53-.67-1.6-.67c-1.71,0-2.7,1.5-2.7,5.08,0,1.84.11,4.73,2.22,4.73,1.71,0,2.08-1.52,2.08-1.52v-7.62Z"/>
          <path class="cls-1" d="M100.47,56.57c-4.83,0-9.98-3.21-9.98-12.23,0-9.48,6-12.84,11.13-12.84,1.91,0,3.51.4,4.78,1l2.96-.85c1.45-.42,3.01-.08,4.16.89,1.15.98,1.73,2.47,1.55,3.96h0s-.21,1.96-.21,7.22v.99c0,2.74.07,3.75.13,4.12l.2.39c.7,1.32.69,2.9,0,4.21-.7,1.32-2.01,2.2-3.49,2.36l-6.2.67c-.76.08-1.52-.03-2.21-.32-.94.29-1.89.43-2.81.43Z"/>
        </g>
        <g>
          <path class="cls-2" d="M121.75,40.34c-1.82,0-2.3.86-2.3.86v3.34c0,5.85.29,6.04.75,6.79l.29.48s-1.2-.05-3.74-.05-3.64.05-3.64.05l.24-.45c.43-.78.67-.99.67-6.82v-1.15c0-4.62-.24-5.37-.67-6.15l-.24-.45,6.18-.67-.13,4.89c.53-4.41,2.49-5,3.88-5s1.85.48,1.85.48c0,0-.05.67-.05,2.51,0,1.98.05,2.75.05,2.75-.88-1.23-2.22-1.42-3.13-1.42Z"/>
          <path class="cls-1" d="M120.49,56.31c-.07,0-.13,0-.2,0,0,0-1.17-.05-3.54-.05s-3.41.05-3.42.05c-1.61.08-3.15-.72-4.01-2.09s-.93-3.09-.18-4.52l.24-.45s0-.02.01-.03c.06-.46.13-1.63.13-4.68v-1.15c0-2.78-.09-3.73-.15-4.05l-.23-.44c-.7-1.32-.7-2.9,0-4.22s2.01-2.21,3.49-2.37l6.18-.67c.64-.07,1.29,0,1.89.2.91-.27,1.74-.33,2.34-.33,2.9,0,4.45,1.18,5.12,1.89.88.93,1.32,2.19,1.21,3.46h0s-.04.62-.04,2.15c0,1.73.04,2.45.04,2.45.13,2-1.09,3.86-2.98,4.53-.8.29-1.64.33-2.43.17.02,1.75.08,2.54.13,2.9l.25.4c.87,1.42.88,3.2.04,4.63-.81,1.38-2.29,2.21-3.88,2.21Z"/>
        </g>
        <g>
          <path class="cls-2" d="M129.47,51.75c-2.57,0-3.64.05-3.64.05l.24-.45c.43-.78.67-.99.67-6.82v-1.15c0-4.62-.24-5.37-.67-6.15l-.24-.45,6.58-.67s-.24,1.5-.24,7.25v1.18c0,4.95.11,5.75.67,6.82l.24.45s-1.07-.05-3.61-.05ZM129.47,34.91c-1.71,0-3.13-.35-3.13-2.03s1.34-2.14,3.1-2.14,3.13.35,3.13,2.03-1.34,2.14-3.1,2.14Z"/>
          <path class="cls-1" d="M133.08,56.31c-.07,0-.15,0-.22,0,0,0-1.03-.05-3.39-.05s-3.41.05-3.42.05c-1.61.08-3.15-.72-4.01-2.09s-.93-3.09-.18-4.52l.24-.45s0-.01.01-.02c.06-.46.13-1.63.13-4.68v-1.15c0-2.78-.09-3.73-.15-4.06l-.23-.44c-.7-1.32-.7-2.91,0-4.23.05-.09.1-.17.15-.26-.12-.51-.17-1.02-.17-1.52,0-1.11.37-6.64,7.6-6.64,5.63,0,7.63,3.52,7.63,6.53,0,.36-.04,1.17-.33,2.11.18.62.22,1.29.11,1.94h0s-.18,1.51-.18,6.53v1.18c0,1.24,0,4.15.15,4.74l.24.43c.76,1.43.69,3.16-.18,4.52-.83,1.3-2.26,2.08-3.8,2.08ZM129.45,30.58c-.5.29-.98.83-1.22,1.43l2.33-.24c-.27-.52-.7-.95-1.11-1.19Z"/>
        </g>
        <g>
          <path class="cls-2" d="M142.73,52.1c-5.19,0-7.94-2.83-7.94-7.78,0-5.45,2.83-8.31,8.1-8.31s7.94,2.83,7.94,7.78c0,5.45-2.83,8.31-8.1,8.31ZM142.78,39.11c-1.79,0-2.35,1.42-2.35,5.08,0,3.93.64,4.81,2.41,4.81s2.35-1.42,2.35-5.08c0-3.93-.64-4.81-2.41-4.81Z"/>
          <path class="cls-1" d="M142.73,56.6c-7.56,0-12.44-4.82-12.44-12.28,0-7.9,4.83-12.81,12.6-12.81s12.44,4.82,12.44,12.28c0,7.9-4.83,12.81-12.6,12.81Z"/>
        </g>
      </g>
      <rect class="cls-1" x="51.04" y="25.78" width="67.84" height="13.17"/>
      <g>
        <path class="cls-2" d="M40.48,25.35c-1.44.4-3.08.45-5.45.45-.99,0-3.42-.05-4.44-.05-1.87,0-2.78.05-2.78.05l.24-.45c.53-.99.67-1.2.67-9.22s-.11-7.89-.67-8.96l-.24-.45s.96.05,2.51.05c.91,0,3.18-.05,4.04-.05,4.57,0,8.98.11,8.98,4.54,0,3.61-3.1,4.46-4.71,4.6,2.81.08,5.32,1.26,5.32,4.62,0,3.1-1.87,4.44-3.48,4.87ZM34.84,9.45c-.69,0-.94.05-.94.05v5.16s.24.03.99.03c.61,0,1.18-.08,1.66-.24.88-.32,1.44-1.04,1.44-2.38,0-2.11-1.15-2.62-3.16-2.62ZM35.16,17.41c-.78,0-1.26.05-1.26.05v5.48s.21.08,1.26.08c.72,0,1.36-.08,1.87-.29.88-.35,1.42-1.1,1.42-2.57,0-2.17-1.26-2.75-3.29-2.75Z"/>
        <path class="cls-2" d="M49.35,25.75c-2.57,0-3.64.05-3.64.05l.24-.45c.43-.78.67-.99.67-6.82v-1.15c0-4.62-.24-5.37-.67-6.15l-.24-.45,6.58-.67s-.24,1.5-.24,7.25v1.18c0,4.95.11,5.75.67,6.82l.24.45s-1.07-.05-3.61-.05ZM49.35,8.91c-1.71,0-3.13-.35-3.13-2.03s1.34-2.14,3.1-2.14,3.13.35,3.13,2.03-1.34,2.14-3.1,2.14Z"/>
        <path class="cls-2" d="M62.71,19.52c-1.47,0-2.49-.19-2.49-.19,0,.86.4,3.58,4.01,3.58s4.46-1.39,4.54-1.52c0,2.27-1.71,4.71-6.34,4.71-5.8,0-7.78-3.42-7.78-7.83,0-5.05,2.22-8.26,7.43-8.26,1.9,0,6.87.08,6.87,4.81,0,1.95-.59,4.71-6.26,4.71ZM62.15,12.6c-2.06,0-2.09,1.82-2.09,4.12,0,0,.43.11,1.47.11,1.55,0,2.33-.45,2.33-2.17,0-.96-.35-2.06-1.71-2.06Z"/>
        <path class="cls-2" d="M87.41,25.81s-1.07-.05-3.61-.05-3.63.05-3.63.05l.24-.45c.43-.78.67-.96.67-6.79,0-3.21-.11-4.01-.35-4.49-.19-.4-.67-.78-1.55-.78-1.74,0-2.11,1.5-2.11,1.5v3.8c0,5.8.27,5.99.7,6.76l.24.45s-1.07-.05-3.61-.05-3.63.05-3.63.05l.24-.45c.43-.78.67-.99.67-6.82v-1.15c0-4.62-.24-5.37-.67-6.15l-.24-.45,6.23-.67-.16,4.46c.8-4.52,3.96-4.57,5.08-4.57,1.9,0,3.18.59,3.88,1.84.64,1.12.72,2.41.72,5.53v1.15c0,5.83.24,6.04.67,6.82l.24.45Z"/>
        <path class="cls-2" d="M94.86,26.05c-2.25,0-3.42-.75-4.09-1.63-.64-.86-.86-2.38-.86-4.28,0-4.25.08-6.71.08-6.71h-1.74s.94-.94,2.43-2.91c1.34-1.76,2.33-3.34,2.33-3.34h2.38v3.23h1.39c2.19,0,2.62-.29,2.62-.29,0,0-.03.48-.03,1.79s.03,1.79.03,1.79c0,0-.4-.27-2.62-.27h-1.39v6.58c0,1.12.05,1.66.29,2.14.27.56.8.91,1.79.91,1.47,0,2.14-.75,2.14-.75,0,1.87-1.34,3.74-4.76,3.74Z"/>
        <path class="cls-2" d="M108.38,26.1c-5.19,0-7.94-2.83-7.94-7.78,0-5.45,2.83-8.31,8.1-8.31s7.94,2.83,7.94,7.78c0,5.45-2.83,8.31-8.1,8.31ZM113.38,9.15c-1.55.03-3.53-.54-4.95-2.11-1.18,1.39-3.45,2.25-4.95,2.11l3.42-4.65h3.05l3.42,4.65ZM108.44,13.11c-1.79,0-2.35,1.42-2.35,5.08,0,3.93.64,4.81,2.41,4.81s2.35-1.42,2.35-5.08c0-3.93-.64-4.81-2.41-4.81Z"/>
        <path class="cls-2" d="M123.91,26.05c-2.25,0-3.42-.75-4.09-1.63-.64-.86-.86-2.38-.86-4.28,0-4.25.08-6.71.08-6.71h-1.74s.94-.94,2.43-2.91c1.34-1.76,2.33-3.34,2.33-3.34h2.38v3.23h1.39c2.19,0,2.62-.29,2.62-.29,0,0-.03.48-.03,1.79s.03,1.79.03,1.79c0,0-.4-.27-2.62-.27h-1.39v6.58c0,1.12.05,1.66.29,2.14.27.56.8.91,1.79.91,1.47,0,2.14-.75,2.14-.75,0,1.87-1.34,3.74-4.76,3.74Z"/>
        <path class="cls-2" d="M12.55,45.52c-1.47,0-2.49-.19-2.49-.19,0,.86.4,3.58,4.01,3.58s4.46-1.39,4.54-1.52c0,2.27-1.71,4.71-6.34,4.71-5.8,0-7.78-3.42-7.78-7.83,0-5.05,2.22-8.26,7.43-8.26,1.9,0,6.87.08,6.87,4.81,0,1.95-.59,4.71-6.26,4.71ZM11.99,38.6c-2.06,0-2.09,1.82-2.09,4.12,0,0,.43.11,1.47.11,1.55,0,2.33-.45,2.33-2.17,0-.96-.35-2.06-1.71-2.06Z"/>
        <path class="cls-2" d="M37.24,51.81s-1.07-.05-3.61-.05-3.63.05-3.63.05l.24-.45c.43-.78.67-.96.67-6.79,0-3.21-.11-4.01-.35-4.49-.19-.4-.67-.78-1.55-.78-1.74,0-2.11,1.5-2.11,1.5v3.8c0,5.8.27,5.99.7,6.76l.24.45s-1.07-.05-3.61-.05-3.63.05-3.63.05l.24-.45c.43-.78.67-.99.67-6.82v-1.15c0-4.62-.24-5.37-.67-6.15l-.24-.45,6.23-.67-.16,4.46c.8-4.52,3.96-4.57,5.08-4.57,1.9,0,3.18.59,3.88,1.84.64,1.12.72,2.41.72,5.53v1.15c0,5.83.24,6.04.67,6.82l.24.45Z"/>
        <path class="cls-2" d="M54.29,52.13c-6.15,0-9.17-3.34-9.17-9.6s3.18-10.02,9.12-10.02,9.17,3.34,9.17,9.6-3.18,10.03-9.12,10.03ZM54.29,35.63c-2.62,0-3.29,2.27-3.29,6.71s.67,6.66,3.24,6.66,3.29-2.27,3.29-6.71-.67-6.66-3.23-6.66Z"/>
        <path class="cls-2" d="M81.9,51.81s-1.07-.05-3.61-.05-3.64.05-3.64.05l.24-.45c.43-.78.67-.96.67-6.79,0-3.21-.11-4.01-.35-4.49-.19-.4-.67-.78-1.55-.78-1.74,0-2.11,1.5-2.11,1.5v3.8c0,5.8.27,5.99.7,6.76l.24.45s-1.07-.05-3.61-.05-3.64.05-3.64.05l.24-.45c.43-.78.67-.99.67-6.82v-1.15c0-4.62-.24-5.37-.67-6.15l-.24-.45,6.23-.67-.16,4.46c.8-4.52,3.96-4.57,5.08-4.57,1.9,0,3.18.59,3.88,1.84.64,1.12.72,2.41.72,5.53v1.15c0,5.83.24,6.04.67,6.82l.24.45Z"/>
        <path class="cls-2" d="M89.36,52.05c-2.25,0-3.42-.75-4.09-1.63-.64-.86-.86-2.38-.86-4.28,0-4.25.08-6.71.08-6.71h-1.74s.94-.94,2.43-2.91c1.34-1.76,2.33-3.34,2.33-3.34h2.38v3.23h1.39c2.19,0,2.62-.29,2.62-.29,0,0-.03.48-.03,1.79s.03,1.79.03,1.79c0,0-.4-.27-2.62-.27h-1.39v6.58c0,1.12.05,1.66.29,2.14.27.56.8.91,1.79.91,1.47,0,2.14-.75,2.14-.75,0,1.87-1.34,3.74-4.76,3.74Z"/>
        <path class="cls-2" d="M111.22,51.33l-6.2.67.16-4.49c-.7,3.98-3.21,4.57-4.71,4.57-5.43,0-5.48-6.07-5.48-7.73,0-6.52,3.47-8.34,6.63-8.34s3.98,1.42,3.98,1.42l5-1.44s-.24,2-.24,7.75v.99c0,4.62.19,5.37.62,6.15l.24.46ZM104.94,39.64s-.53-.67-1.6-.67c-1.71,0-2.7,1.5-2.7,5.08,0,1.84.11,4.73,2.22,4.73,1.71,0,2.08-1.52,2.08-1.52v-7.62Z"/>
        <path class="cls-2" d="M121.75,40.34c-1.82,0-2.3.86-2.3.86v3.34c0,5.85.29,6.04.75,6.79l.29.48s-1.2-.05-3.74-.05-3.64.05-3.64.05l.24-.45c.43-.78.67-.99.67-6.82v-1.15c0-4.62-.24-5.37-.67-6.15l-.24-.45,6.18-.67-.13,4.89c.53-4.41,2.49-5,3.88-5s1.85.48,1.85.48c0,0-.05.67-.05,2.51,0,1.98.05,2.75.05,2.75-.88-1.23-2.22-1.42-3.13-1.42Z"/>
        <path class="cls-2" d="M129.47,51.75c-2.57,0-3.64.05-3.64.05l.24-.45c.43-.78.67-.99.67-6.82v-1.15c0-4.62-.24-5.37-.67-6.15l-.24-.45,6.58-.67s-.24,1.5-.24,7.25v1.18c0,4.95.11,5.75.67,6.82l.24.45s-1.07-.05-3.61-.05ZM129.47,34.91c-1.71,0-3.13-.35-3.13-2.03s1.34-2.14,3.1-2.14,3.13.35,3.13,2.03-1.34,2.14-3.1,2.14Z"/>
        <path class="cls-2" d="M142.73,52.1c-5.19,0-7.94-2.83-7.94-7.78,0-5.45,2.83-8.31,8.1-8.31s7.94,2.83,7.94,7.78c0,5.45-2.83,8.31-8.1,8.31ZM142.78,39.11c-1.79,0-2.35,1.42-2.35,5.08,0,3.93.64,4.81,2.41,4.81s2.35-1.42,2.35-5.08c0-3.93-.64-4.81-2.41-4.81Z"/>
      </g>
    </g>
  </g>
</svg>