<?xml version="1.0" encoding="UTF-8"?>
<svg id="Calque_2" data-name="Calque 2" xmlns="http://www.w3.org/2000/svg" viewBox="0 0 188.39 56.39">
  <defs>
    <style>
      .cls-1 {
        fill: #dcffb1;
      }

      .cls-2 {
        fill: #0533a1;
      }
    </style>
  </defs>
  <g id="Calque_1-2" data-name="Calque 1">
    <g>
      <g>
        <g>
          <path class="cls-2" d="M14.15,25.73c-6.23,0-9.65-2.89-9.65-9.36,0-6.95,3.66-10.05,9.84-10.05,3.61,0,5.03.77,5.03.77,0,0-.05.56-.05,2.43,0,1.52.05,2.51.05,2.51-1.15-1.66-2.14-2.62-4.46-2.62-3.9,0-4.62,3.85-4.62,6.79,0,4.36,1.76,6.42,4.52,6.42,2.33,0,3.42-1.02,4.57-2.67,0,0-.05.83-.05,2.7,0,1.71.05,2.3.05,2.3,0,0-1.66.77-5.21.77Z"/>
          <path class="cls-1" d="M14.15,30.23C5.16,30.23,0,25.18,0,16.37S5.36,1.82,14.34,1.82c4.29,0,6.46.93,7.18,1.33,1.58.86,2.49,2.58,2.32,4.38h0s-.03.53-.03,2c0,1.33.04,2.22.05,2.27.09,1.76-.84,3.38-2.35,4.2,1.53.83,2.46,2.48,2.35,4.25h0s-.04.76-.04,2.41c0,1.39.04,1.93.04,1.93.14,1.86-.89,3.65-2.58,4.44-.6.28-2.89,1.2-7.12,1.2ZM15.06,13.92c-.13.36-.29,1.09-.29,2.29,0,.97.12,1.58.23,1.91.04,0,.07,0,.1,0,.08-.07.25-.26.57-.72.41-.59.95-1.06,1.55-1.39-.61-.33-1.14-.8-1.55-1.39-.27-.38-.42-.58-.51-.67-.03,0-.06,0-.09,0Z"/>
        </g>
        <g>
          <path class="cls-2" d="M28.93,25.86c-5.19,0-7.94-2.83-7.94-7.78,0-5.45,2.83-8.31,8.1-8.31s7.94,2.83,7.94,7.78c0,5.45-2.83,8.31-8.1,8.31ZM28.98,12.87c-1.79,0-2.35,1.42-2.35,5.08,0,3.93.64,4.81,2.41,4.81s2.35-1.42,2.35-5.08c0-3.93-.64-4.81-2.41-4.81Z"/>
          <path class="cls-1" d="M28.93,30.36c-7.56,0-12.44-4.82-12.44-12.28,0-7.9,4.83-12.81,12.6-12.81s12.44,4.82,12.44,12.28c0,7.9-4.83,12.81-12.6,12.81Z"/>
        </g>
        <g>
          <path class="cls-2" d="M64.91,25.57s-1.07-.05-3.61-.05-3.64.05-3.64.05l.24-.45c.43-.78.67-.96.67-6.79,0-3.21-.11-4.01-.35-4.49-.19-.4-.67-.78-1.55-.78-1.74,0-2.11,1.5-2.11,1.5v3.74c0,5.83.27,6.04.7,6.82l.24.45s-1.07-.05-3.61-.05-3.66.05-3.66.05l.24-.45c.43-.78.67-.96.67-6.79,0-3.21-.11-4.01-.35-4.49-.19-.4-.67-.78-1.55-.78-1.74,0-2.09,1.5-2.09,1.5v3.74c0,5.8.24,6.04.67,6.82l.24.45s-1.07-.05-3.61-.05-3.64.05-3.64.05l.24-.45c.43-.78.67-.99.67-6.82v-1.15c0-4.62-.24-5.37-.67-6.15l-.24-.45,6.26-.67-.16,4.46c.8-4.52,3.96-4.57,5.08-4.57,1.9,0,3.18.61,3.88,1.84.54.94.59,2.09.59,2.09.91-3.88,3.88-3.96,4.95-3.96,1.9,0,3.18.61,3.88,1.84.64,1.12.72,2.41.72,5.53v1.18c0,5.83.24,6.04.67,6.82l.24.45Z"/>
          <path class="cls-1" d="M64.91,30.07c-.07,0-.15,0-.22,0-.02,0-1.05-.05-3.39-.05s-3.41.05-3.42.05c-.44.02-.88-.02-1.3-.13-.42.1-.87.15-1.31.13,0,0-1.03-.05-3.38-.05s-3.44.05-3.45.05c-.44.02-.88-.02-1.29-.13-.42.1-.87.15-1.31.13,0,0-1.03-.05-3.38-.05s-3.41.05-3.42.05c-1.62.07-3.15-.72-4.02-2.08-.87-1.37-.94-3.09-.18-4.52l.24-.45s0-.02.01-.03c.06-.46.13-1.63.13-4.68v-1.15c0-2.78-.09-3.73-.15-4.06l-.23-.44c-.7-1.32-.7-2.9,0-4.22.7-1.32,2.01-2.21,3.5-2.36l6.26-.67c.77-.08,1.54.04,2.23.33.97-.3,2.03-.46,3.17-.46,1.98,0,3.51.45,4.69,1.08,1.36-.72,2.96-1.11,4.72-1.11,4.75,0,6.92,2.59,7.79,4.13,1.24,2.17,1.3,4.36,1.3,7.75v1.18c0,3.05.07,4.23.13,4.68l.26.49c.76,1.43.69,3.16-.18,4.52-.83,1.3-2.26,2.08-3.79,2.08Z"/>
        </g>
        <g>
          <path class="cls-2" d="M70.35,25.51c-2.57,0-3.64.05-3.64.05l.24-.45c.43-.78.67-.99.67-6.82v-1.15c0-4.62-.24-5.37-.67-6.15l-.24-.45,6.58-.67s-.24,1.5-.24,7.25v1.18c0,4.95.11,5.75.67,6.82l.24.45s-1.07-.05-3.61-.05ZM70.35,8.67c-1.71,0-3.13-.35-3.13-2.03s1.34-2.14,3.1-2.14,3.13.35,3.13,2.03-1.34,2.14-3.1,2.14Z"/>
          <path class="cls-1" d="M73.96,30.07c-.08,0-.15,0-.23,0,0,0-1.03-.05-3.38-.05s-3.41.05-3.42.05c-1.61.07-3.15-.72-4.01-2.08s-.94-3.09-.18-4.52l.24-.45s.01-.02.02-.03c.06-.45.13-1.63.13-4.68v-1.15c0-2.78-.09-3.73-.15-4.05l-.24-.45c-.7-1.32-.7-2.91.01-4.23.05-.09.1-.17.15-.25-.12-.51-.17-1.02-.17-1.52,0-1.11.37-6.64,7.6-6.64,5.63,0,7.63,3.52,7.63,6.53,0,.36-.04,1.17-.33,2.11.18.62.22,1.28.11,1.94h0s-.18,1.51-.18,6.53v1.18c0,1.24,0,4.15.15,4.74l.24.43c.76,1.43.69,3.16-.18,4.52-.83,1.3-2.26,2.08-3.79,2.08ZM70.33,4.34c-.5.29-.98.83-1.22,1.43l2.33-.24c-.27-.52-.7-.95-1.11-1.19Z"/>
        </g>
        <g>
          <path class="cls-2" d="M92.46,25.57s-1.07-.05-3.61-.05-3.64.05-3.64.05l.24-.45c.43-.78.67-.96.67-6.79,0-3.21-.11-4.01-.35-4.49-.19-.4-.67-.78-1.55-.78-1.74,0-2.11,1.5-2.11,1.5v3.8c0,5.8.27,5.99.7,6.76l.24.45s-1.07-.05-3.61-.05-3.64.05-3.64.05l.24-.45c.43-.78.67-.99.67-6.82v-1.15c0-4.62-.24-5.37-.67-6.15l-.24-.45,6.23-.67-.16,4.46c.8-4.52,3.96-4.57,5.08-4.57,1.9,0,3.18.59,3.88,1.84.64,1.12.72,2.41.72,5.53v1.15c0,5.83.24,6.04.67,6.82l.24.45Z"/>
          <path class="cls-1" d="M92.46,30.07c-.07,0-.15,0-.22,0-.04,0-1.07-.05-3.39-.05s-3.41.05-3.42.05c-.44.02-.88-.02-1.3-.13-.42.1-.87.15-1.31.13,0,0-1.03-.05-3.38-.05s-3.41.05-3.42.05c-1.62.07-3.15-.72-4.02-2.08-.87-1.37-.94-3.09-.18-4.52l.24-.45s0-.02.01-.03c.06-.46.13-1.63.13-4.68v-1.15c0-2.78-.09-3.73-.15-4.06l-.23-.44c-.7-1.32-.7-2.9,0-4.22.7-1.32,2.01-2.21,3.49-2.36l6.23-.67c.77-.09,1.54.03,2.23.33.97-.3,2.03-.46,3.17-.46,4.79,0,6.95,2.61,7.81,4.17,1.22,2.13,1.28,4.32,1.28,7.71v1.15c0,3.05.07,4.23.13,4.68l.26.49c.76,1.43.69,3.16-.18,4.52-.83,1.3-2.26,2.08-3.79,2.08Z"/>
        </g>
        <g>
          <path class="cls-2" d="M109.94,9.71s-.24,1.63-.24,7.38v5.64c0,3.31-.21,4.92-1.71,6.44-1.52,1.55-3.96,2.06-7.08,2.06-3.66,0-5.67-.72-5.67-.72,0,0,.05-.72.05-2.14,0-1.79-.05-2.7-.05-2.7,1.39,1.76,2.94,2.3,4.89,2.3,4.04,0,4.14-2.27,4.14-3.4v-.29c0-1.31.16-2.65.21-3.05-.72,3.88-3.21,4.44-4.73,4.44-5.51,0-5.56-6.07-5.56-7.65,0-6.44,3.5-8.26,6.71-8.26,2.99,0,4.06,1.34,4.06,1.34l4.97-1.39ZM104.27,13.4s-.54-.67-1.66-.67c-1.76,0-2.78,1.52-2.78,5,0,1.74.11,4.65,2.27,4.65,1.76,0,2.17-1.52,2.17-1.52v-7.46Z"/>
          <path class="cls-1" d="M100.9,35.73c-4.23,0-6.73-.82-7.19-.99-1.9-.68-3.11-2.55-2.96-4.57h0s.04-.62.04-1.81c0-1.6-.05-2.43-.05-2.44-.03-.5.03-.98.15-1.45-.76-1.7-1.2-3.83-1.2-6.46,0-9.42,6.04-12.76,11.21-12.76,2.04,0,3.62.42,4.8.96l3.03-.85c1.46-.41,3.04-.05,4.19.96,1.13,1,1.69,2.49,1.48,3.98-.02.14-.2,1.78-.2,6.77v5.64c0,3.58-.23,6.77-3,9.6-3,3.05-7.31,3.4-10.29,3.4Z"/>
        </g>
        <g>
          <path class="cls-2" d="M123.59,25.78c-3.5,0-5.16-.88-5.16-.88,0,0,.05-.51.05-2.14,0-1.79-.05-2.62-.05-2.62,1.26,2.09,2.75,2.57,4.41,2.57,1.5,0,2.11-.45,2.11-1.2s-.37-.99-1.23-1.39l-1.98-.94c-2.03-.96-3.32-2.17-3.32-4.62,0-2.97,2-4.76,5.91-4.76,3.69,0,4.92.86,4.92.86,0,0-.05.59-.05,2.3s.05,2.43.05,2.43c-1.02-1.6-2.14-2.54-4.06-2.54-1.39,0-2,.35-2,1.1s.48,1.02,1.55,1.5l1.87.86c2.03.94,3.26,2.14,3.26,4.54,0,3.07-2.14,4.95-6.28,4.95Z"/>
          <path class="cls-1" d="M123.59,30.28c-4.29,0-6.65-1.08-7.27-1.41-1.62-.86-2.55-2.62-2.36-4.44h0s.03-.46.03-1.67c0-1.58-.04-2.33-.04-2.34-.05-.89.16-1.75.57-2.48-.39-1.03-.58-2.16-.58-3.38,0-4.27,2.73-9.26,10.41-9.26,4.44,0,6.6,1.04,7.49,1.66,1.33.92,2.06,2.49,1.91,4.1h0s-.04.54-.04,1.89c0,1.45.04,2.12.04,2.12.04.6-.04,1.19-.23,1.73.57,1.19.85,2.54.85,4.03,0,4.36-2.82,9.45-10.78,9.45Z"/>
        </g>
        <g>
          <path class="cls-2" d="M139.52,25.86c-5.19,0-7.94-2.83-7.94-7.78,0-5.45,2.83-8.31,8.1-8.31s7.94,2.83,7.94,7.78c0,5.45-2.83,8.31-8.1,8.31ZM139.57,12.87c-1.79,0-2.35,1.42-2.35,5.08,0,3.93.64,4.81,2.41,4.81s2.35-1.42,2.35-5.08c0-3.93-.64-4.81-2.41-4.81Z"/>
          <path class="cls-1" d="M139.52,30.36c-7.56,0-12.44-4.82-12.44-12.28,0-7.9,4.83-12.81,12.6-12.81s12.44,4.82,12.44,12.28c0,7.9-4.83,12.81-12.6,12.81Z"/>
        </g>
        <g>
          <path class="cls-2" d="M157.34,25.86c-5.19,0-7.94-2.83-7.94-7.78,0-5.45,2.83-8.31,8.1-8.31s7.94,2.83,7.94,7.78c0,5.45-2.83,8.31-8.1,8.31ZM157.4,12.87c-1.79,0-2.35,1.42-2.35,5.08,0,3.93.64,4.81,2.41,4.81s2.35-1.42,2.35-5.08c0-3.93-.64-4.81-2.41-4.81Z"/>
          <path class="cls-1" d="M157.34,30.36c-7.56,0-12.44-4.82-12.44-12.28,0-7.9,4.83-12.81,12.6-12.81s12.44,4.82,12.44,12.28c0,7.9-4.83,12.81-12.6,12.81Z"/>
        </g>
        <g>
          <path class="cls-2" d="M183.89,25.57s-1.07-.05-3.61-.05-3.64.05-3.64.05l.24-.45c.43-.78.67-.96.67-6.79,0-3.21-.11-4.01-.35-4.49-.19-.4-.67-.78-1.55-.78-1.74,0-2.11,1.5-2.11,1.5v3.8c0,5.8.27,5.99.7,6.76l.24.45s-1.07-.05-3.61-.05-3.64.05-3.64.05l.24-.45c.43-.78.67-.99.67-6.82v-1.15c0-4.62-.24-5.37-.67-6.15l-.24-.45,6.23-.67-.16,4.46c.8-4.52,3.96-4.57,5.08-4.57,1.9,0,3.18.59,3.88,1.84.64,1.12.72,2.41.72,5.53v1.15c0,5.83.24,6.04.67,6.82l.24.45Z"/>
          <path class="cls-1" d="M183.89,30.07c-.07,0-.15,0-.22,0-.04,0-1.07-.05-3.39-.05s-3.41.05-3.42.05c-.44.02-.88-.02-1.3-.13-.42.1-.87.15-1.31.13,0,0-1.03-.05-3.38-.05s-3.41.05-3.42.05c-1.6.07-3.15-.72-4.02-2.08-.87-1.37-.94-3.09-.18-4.52l.24-.45s0-.02.01-.03c.06-.46.13-1.63.13-4.68v-1.15c0-2.78-.09-3.73-.15-4.06l-.23-.44c-.7-1.32-.7-2.9,0-4.22.7-1.32,2.01-2.21,3.49-2.36l6.23-.67c.77-.09,1.54.03,2.23.33.97-.3,2.03-.46,3.17-.46,4.79,0,6.95,2.61,7.81,4.17,1.22,2.13,1.28,4.32,1.28,7.71v1.15c0,3.05.07,4.23.13,4.68l.26.49c.76,1.43.69,3.16-.18,4.52-.83,1.3-2.26,2.08-3.79,2.08Z"/>
        </g>
        <g>
          <path class="cls-2" d="M28.22,51.51c-2.57,0-3.63.05-3.63.05l.24-.45c.43-.78.67-.99.67-6.82v-1.15c0-4.62-.24-5.37-.67-6.15l-.24-.45,6.58-.67s-.24,1.5-.24,7.25v1.18c0,4.95.11,5.75.67,6.82l.24.45s-1.07-.05-3.61-.05ZM28.22,34.67c-1.71,0-3.13-.35-3.13-2.03s1.34-2.14,3.1-2.14,3.13.35,3.13,2.03-1.34,2.14-3.1,2.14Z"/>
          <path class="cls-1" d="M31.83,56.07c-.07,0-.15,0-.22,0,0,0-1.03-.05-3.39-.05s-3.41.05-3.42.05c-1.63.08-3.15-.72-4.01-2.08-.87-1.36-.94-3.09-.18-4.52l.24-.45s0-.02.02-.03c.06-.46.13-1.63.13-4.68v-1.15c0-2.78-.09-3.73-.15-4.06l-.23-.44c-.7-1.32-.7-2.91,0-4.23.05-.09.1-.17.15-.26-.12-.51-.17-1.02-.17-1.52,0-1.11.37-6.64,7.6-6.64,5.63,0,7.63,3.52,7.63,6.53,0,.36-.04,1.17-.33,2.11.18.62.22,1.28.11,1.94h0s-.18,1.51-.18,6.53v1.18c0,1.24,0,4.15.15,4.74l.24.43c.76,1.43.69,3.16-.18,4.52-.83,1.3-2.26,2.08-3.8,2.08ZM28.2,30.34c-.49.29-.98.83-1.22,1.43l2.33-.24c-.27-.52-.7-.95-1.11-1.19Z"/>
        </g>
        <g>
          <path class="cls-2" d="M50.33,51.57s-1.07-.05-3.61-.05-3.64.05-3.64.05l.24-.45c.43-.78.67-.96.67-6.79,0-3.21-.11-4.01-.35-4.49-.19-.4-.67-.78-1.55-.78-1.74,0-2.11,1.5-2.11,1.5v3.8c0,5.8.27,5.99.7,6.76l.24.45s-1.07-.05-3.61-.05-3.64.05-3.64.05l.24-.45c.43-.78.67-.99.67-6.82v-1.15c0-4.62-.24-5.37-.67-6.15l-.24-.45,6.23-.67-.16,4.46c.8-4.52,3.96-4.57,5.08-4.57,1.9,0,3.18.59,3.88,1.84.64,1.12.72,2.41.72,5.53v1.15c0,5.83.24,6.04.67,6.82l.24.45Z"/>
          <path class="cls-1" d="M50.33,56.07c-.07,0-.14,0-.22,0h0s-1.04-.05-3.39-.05-3.41.05-3.42.05c-.44.02-.88-.02-1.3-.13-.42.1-.86.15-1.31.13,0,0-1.03-.05-3.39-.05s-3.41.05-3.42.05c-1.6.08-3.15-.72-4.01-2.09-.87-1.37-.93-3.09-.18-4.52l.24-.45s0-.01.01-.02c.06-.46.13-1.63.13-4.68v-1.15c0-2.78-.09-3.73-.15-4.06l-.23-.44c-.7-1.32-.7-2.9,0-4.22.7-1.32,2.01-2.21,3.5-2.37l6.23-.67c.77-.08,1.54.04,2.23.33.97-.3,2.03-.46,3.17-.46,4.8,0,6.96,2.61,7.81,4.17,1.22,2.13,1.28,4.32,1.28,7.71v1.15c0,3.05.07,4.23.13,4.68l.26.49c.76,1.43.69,3.16-.18,4.52-.83,1.3-2.26,2.08-3.8,2.08Z"/>
        </g>
        <g>
          <path class="cls-2" d="M67.37,51.89c-6.15,0-9.17-3.34-9.17-9.6s3.18-10.02,9.12-10.02,9.17,3.34,9.17,9.6-3.18,10.03-9.12,10.03ZM67.37,35.39c-2.62,0-3.29,2.27-3.29,6.71s.67,6.66,3.23,6.66,3.29-2.27,3.29-6.71-.67-6.66-3.24-6.66Z"/>
          <path class="cls-1" d="M67.37,56.39c-8.56,0-13.67-5.27-13.67-14.1s5.34-14.52,13.62-14.52,13.67,5.27,13.67,14.1-5.34,14.53-13.62,14.53ZM67.37,39.89h0v-3.13,3.13Z"/>
        </g>
        <g>
          <path class="cls-2" d="M94.98,51.57s-1.07-.05-3.61-.05-3.64.05-3.64.05l.24-.45c.43-.78.67-.96.67-6.79,0-3.21-.11-4.01-.35-4.49-.19-.4-.67-.78-1.55-.78-1.74,0-2.11,1.5-2.11,1.5v3.8c0,5.8.27,5.99.69,6.76l.24.45s-1.07-.05-3.61-.05-3.64.05-3.64.05l.24-.45c.43-.78.67-.99.67-6.82v-1.15c0-4.62-.24-5.37-.67-6.15l-.24-.45,6.23-.67-.16,4.46c.8-4.52,3.96-4.57,5.08-4.57,1.9,0,3.18.59,3.88,1.84.64,1.12.72,2.41.72,5.53v1.15c0,5.83.24,6.04.67,6.82l.24.45Z"/>
          <path class="cls-1" d="M94.99,56.07c-.07,0-.14,0-.22,0-.02,0-1.05-.05-3.39-.05s-3.41.05-3.42.05c-.44.02-.88-.02-1.3-.13-.42.1-.86.15-1.31.13,0,0-1.03-.05-3.39-.05s-3.41.05-3.42.05c-1.6.08-3.15-.72-4.01-2.09-.87-1.37-.93-3.09-.18-4.52l.24-.45s0-.01.01-.02c.06-.46.13-1.63.13-4.68v-1.15c0-2.78-.09-3.73-.15-4.06l-.23-.44c-.7-1.32-.7-2.9,0-4.22.7-1.32,2.01-2.21,3.5-2.37l6.23-.67c.77-.08,1.54.04,2.23.33.97-.3,2.03-.46,3.17-.46,4.79,0,6.95,2.61,7.81,4.17,1.22,2.13,1.28,4.32,1.28,7.71v1.15c0,3.05.07,4.23.13,4.68l.25.48c.76,1.43.69,3.16-.18,4.52-.83,1.3-2.26,2.09-3.8,2.09Z"/>
        </g>
        <g>
          <path class="cls-2" d="M102.44,51.81c-2.25,0-3.42-.75-4.09-1.63-.64-.86-.86-2.38-.86-4.28,0-4.25.08-6.71.08-6.71h-1.74s.94-.94,2.43-2.91c1.34-1.76,2.33-3.34,2.33-3.34h2.38v3.23h1.39c2.19,0,2.62-.29,2.62-.29,0,0-.03.48-.03,1.79s.03,1.79.03,1.79c0,0-.4-.27-2.62-.27h-1.39v6.58c0,1.12.05,1.66.29,2.14.27.56.8.91,1.79.91,1.47,0,2.14-.75,2.14-.75,0,1.87-1.34,3.74-4.76,3.74Z"/>
          <path class="cls-1" d="M102.44,56.31c-4.21,0-6.5-1.85-7.68-3.41-1.57-2.09-1.77-4.84-1.77-7,0-1.22,0-2.29.02-3.21-.57-.46-1.04-1.07-1.33-1.78-.7-1.68-.31-3.62.98-4.9h0s.78-.8,2.03-2.45c1.19-1.57,2.1-3.01,2.1-3.02.82-1.31,2.26-2.11,3.81-2.11h2.38c1.94,0,3.59,1.23,4.22,2.95.69.03,1.37.22,1.99.57,1.5.84,2.38,2.46,2.29,4.18,0,.06-.02.51-.02,1.54s.02,1.47.02,1.55c.08,1.7-.8,3.3-2.27,4.14-.26.15-.54.27-.82.36.14.04.28.08.41.14,1.75.67,2.9,2.34,2.9,4.21,0,3.97-2.9,8.24-9.26,8.24ZM103.84,45.06s0,0,0,0c0,0,0,0,0,0ZM103.84,45.06s0,0,0,0h0Z"/>
        </g>
        <g>
          <path class="cls-2" d="M124.3,51.08l-6.2.67.16-4.49c-.7,3.98-3.21,4.57-4.71,4.57-5.43,0-5.48-6.07-5.48-7.73,0-6.52,3.48-8.34,6.63-8.34s3.98,1.42,3.98,1.42l5-1.44s-.24,2-.24,7.75v.99c0,4.62.19,5.37.61,6.15l.24.46ZM118.02,39.4s-.54-.67-1.6-.67c-1.71,0-2.7,1.5-2.7,5.08,0,1.84.11,4.73,2.22,4.73,1.71,0,2.09-1.52,2.09-1.52v-7.62Z"/>
          <path class="cls-1" d="M113.55,56.33c-4.83,0-9.98-3.21-9.98-12.23,0-9.48,6-12.84,11.13-12.84,1.91,0,3.51.4,4.77,1l2.96-.85c1.45-.42,3.01-.08,4.16.9,1.15.98,1.73,2.47,1.55,3.97h0s-.21,1.96-.21,7.22v.99c0,2.74.07,3.75.13,4.12l.2.38c.7,1.32.7,2.9,0,4.22-.7,1.32-2.01,2.2-3.49,2.36l-6.2.67c-.76.08-1.52-.03-2.21-.32-.94.29-1.9.43-2.81.43Z"/>
        </g>
        <g>
          <path class="cls-2" d="M134.83,40.1c-1.82,0-2.3.86-2.3.86v3.34c0,5.85.29,6.04.75,6.79l.29.48s-1.2-.05-3.74-.05-3.64.05-3.64.05l.24-.45c.43-.78.67-.99.67-6.82v-1.15c0-4.62-.24-5.37-.67-6.15l-.24-.45,6.17-.67-.13,4.89c.53-4.41,2.49-5,3.88-5s1.84.48,1.84.48c0,0-.05.67-.05,2.51,0,1.98.05,2.75.05,2.75-.88-1.23-2.22-1.42-3.13-1.42Z"/>
          <path class="cls-1" d="M133.57,56.07c-.07,0-.13,0-.2,0,0,0-1.17-.05-3.54-.05s-3.41.05-3.42.05c-1.6.08-3.15-.72-4.01-2.09-.87-1.37-.93-3.09-.18-4.52l.24-.45s0-.01.01-.02c.06-.46.13-1.63.13-4.68v-1.15c0-2.78-.09-3.73-.15-4.06l-.23-.44c-.7-1.32-.7-2.9,0-4.22s2.01-2.21,3.49-2.37l6.17-.67c.64-.07,1.29,0,1.89.2.91-.27,1.74-.33,2.34-.33,2.9,0,4.45,1.18,5.12,1.89.88.93,1.32,2.18,1.21,3.45h0s-.04.62-.04,2.15c0,1.73.04,2.45.04,2.46.12,2-1.09,3.85-2.98,4.53-.8.29-1.64.33-2.43.17.02,1.75.08,2.54.13,2.9l.25.41c.87,1.42.88,3.2.03,4.63-.81,1.37-2.29,2.21-3.87,2.21Z"/>
        </g>
        <g>
          <path class="cls-2" d="M142.55,51.51c-2.57,0-3.64.05-3.64.05l.24-.45c.43-.78.67-.99.67-6.82v-1.15c0-4.62-.24-5.37-.67-6.15l-.24-.45,6.58-.67s-.24,1.5-.24,7.25v1.18c0,4.95.11,5.75.67,6.82l.24.45s-1.07-.05-3.61-.05ZM142.55,34.67c-1.71,0-3.13-.35-3.13-2.03s1.34-2.14,3.1-2.14,3.13.35,3.13,2.03-1.34,2.14-3.1,2.14Z"/>
          <path class="cls-1" d="M146.16,56.07c-.07,0-.15,0-.22,0,0,0-1.03-.05-3.39-.05s-3.41.05-3.42.05c-1.61.08-3.15-.72-4.01-2.08-.87-1.36-.94-3.09-.18-4.52l.24-.45s0-.02.02-.03c.06-.45.13-1.63.13-4.68v-1.15c0-2.78-.09-3.73-.15-4.05l-.23-.44c-.7-1.32-.7-2.91,0-4.23.05-.09.1-.17.15-.26-.12-.51-.17-1.02-.17-1.52,0-1.11.37-6.64,7.6-6.64,5.63,0,7.63,3.52,7.63,6.53,0,.36-.04,1.17-.33,2.11.18.62.22,1.28.11,1.94h0s-.18,1.51-.18,6.53v1.18c0,1.24,0,4.15.15,4.74l.24.43c.76,1.43.69,3.16-.18,4.52-.83,1.3-2.26,2.08-3.8,2.08ZM142.53,30.34c-.5.29-.98.83-1.22,1.43l2.33-.24c-.27-.52-.7-.95-1.11-1.19Z"/>
        </g>
        <g>
          <path class="cls-2" d="M155.81,51.86c-5.19,0-7.94-2.83-7.94-7.78,0-5.45,2.83-8.31,8.1-8.31s7.94,2.83,7.94,7.78c0,5.45-2.83,8.31-8.1,8.31ZM155.86,38.87c-1.79,0-2.35,1.42-2.35,5.08,0,3.93.64,4.81,2.41,4.81s2.35-1.42,2.35-5.08c0-3.93-.64-4.81-2.41-4.81Z"/>
          <path class="cls-1" d="M155.81,56.36c-7.56,0-12.44-4.82-12.44-12.28,0-7.9,4.83-12.81,12.6-12.81s12.44,4.82,12.44,12.28c0,7.9-4.83,12.81-12.6,12.81Z"/>
        </g>
      </g>
      <rect class="cls-1" x="7.25" y="8.87" width="19.1" height="15.76"/>
      <rect class="cls-1" x="32.54" y="24.63" width="66.44" height="15.76"/>
      <rect class="cls-1" x="42.08" y="27.27" width="19.1" height="15.76"/>
      <rect class="cls-1" x="104.6" y="19.39" width="51.74" height="15.76"/>
      <g>
        <path class="cls-2" d="M14.15,25.73c-6.23,0-9.65-2.89-9.65-9.36,0-6.95,3.66-10.05,9.84-10.05,3.61,0,5.03.77,5.03.77,0,0-.05.56-.05,2.43,0,1.52.05,2.51.05,2.51-1.15-1.66-2.14-2.62-4.46-2.62-3.9,0-4.62,3.85-4.62,6.79,0,4.36,1.76,6.42,4.52,6.42,2.33,0,3.42-1.02,4.57-2.67,0,0-.05.83-.05,2.7,0,1.71.05,2.3.05,2.3,0,0-1.66.77-5.21.77Z"/>
        <path class="cls-2" d="M28.93,25.86c-5.19,0-7.94-2.83-7.94-7.78,0-5.45,2.83-8.31,8.1-8.31s7.94,2.83,7.94,7.78c0,5.45-2.83,8.31-8.1,8.31ZM28.98,12.87c-1.79,0-2.35,1.42-2.35,5.08,0,3.93.64,4.81,2.41,4.81s2.35-1.42,2.35-5.08c0-3.93-.64-4.81-2.41-4.81Z"/>
        <path class="cls-2" d="M64.91,25.57s-1.07-.05-3.61-.05-3.64.05-3.64.05l.24-.45c.43-.78.67-.96.67-6.79,0-3.21-.11-4.01-.35-4.49-.19-.4-.67-.78-1.55-.78-1.74,0-2.11,1.5-2.11,1.5v3.74c0,5.83.27,6.04.7,6.82l.24.45s-1.07-.05-3.61-.05-3.66.05-3.66.05l.24-.45c.43-.78.67-.96.67-6.79,0-3.21-.11-4.01-.35-4.49-.19-.4-.67-.78-1.55-.78-1.74,0-2.09,1.5-2.09,1.5v3.74c0,5.8.24,6.04.67,6.82l.24.45s-1.07-.05-3.61-.05-3.64.05-3.64.05l.24-.45c.43-.78.67-.99.67-6.82v-1.15c0-4.62-.24-5.37-.67-6.15l-.24-.45,6.26-.67-.16,4.46c.8-4.52,3.96-4.57,5.08-4.57,1.9,0,3.18.61,3.88,1.84.54.94.59,2.09.59,2.09.91-3.88,3.88-3.96,4.95-3.96,1.9,0,3.18.61,3.88,1.84.64,1.12.72,2.41.72,5.53v1.18c0,5.83.24,6.04.67,6.82l.24.45Z"/>
        <path class="cls-2" d="M70.35,25.51c-2.57,0-3.64.05-3.64.05l.24-.45c.43-.78.67-.99.67-6.82v-1.15c0-4.62-.24-5.37-.67-6.15l-.24-.45,6.58-.67s-.24,1.5-.24,7.25v1.18c0,4.95.11,5.75.67,6.82l.24.45s-1.07-.05-3.61-.05ZM70.35,8.67c-1.71,0-3.13-.35-3.13-2.03s1.34-2.14,3.1-2.14,3.13.35,3.13,2.03-1.34,2.14-3.1,2.14Z"/>
        <path class="cls-2" d="M92.46,25.57s-1.07-.05-3.61-.05-3.64.05-3.64.05l.24-.45c.43-.78.67-.96.67-6.79,0-3.21-.11-4.01-.35-4.49-.19-.4-.67-.78-1.55-.78-1.74,0-2.11,1.5-2.11,1.5v3.8c0,5.8.27,5.99.7,6.76l.24.45s-1.07-.05-3.61-.05-3.64.05-3.64.05l.24-.45c.43-.78.67-.99.67-6.82v-1.15c0-4.62-.24-5.37-.67-6.15l-.24-.45,6.23-.67-.16,4.46c.8-4.52,3.96-4.57,5.08-4.57,1.9,0,3.18.59,3.88,1.84.64,1.12.72,2.41.72,5.53v1.15c0,5.83.24,6.04.67,6.82l.24.45Z"/>
        <path class="cls-2" d="M109.94,9.71s-.24,1.63-.24,7.38v5.64c0,3.31-.21,4.92-1.71,6.44-1.52,1.55-3.96,2.06-7.08,2.06-3.66,0-5.67-.72-5.67-.72,0,0,.05-.72.05-2.14,0-1.79-.05-2.7-.05-2.7,1.39,1.76,2.94,2.3,4.89,2.3,4.04,0,4.14-2.27,4.14-3.4v-.29c0-1.31.16-2.65.21-3.05-.72,3.88-3.21,4.44-4.73,4.44-5.51,0-5.56-6.07-5.56-7.65,0-6.44,3.5-8.26,6.71-8.26,2.99,0,4.06,1.34,4.06,1.34l4.97-1.39ZM104.27,13.4s-.54-.67-1.66-.67c-1.76,0-2.78,1.52-2.78,5,0,1.74.11,4.65,2.27,4.65,1.76,0,2.17-1.52,2.17-1.52v-7.46Z"/>
        <path class="cls-2" d="M123.59,25.78c-3.5,0-5.16-.88-5.16-.88,0,0,.05-.51.05-2.14,0-1.79-.05-2.62-.05-2.62,1.26,2.09,2.75,2.57,4.41,2.57,1.5,0,2.11-.45,2.11-1.2s-.37-.99-1.23-1.39l-1.98-.94c-2.03-.96-3.32-2.17-3.32-4.62,0-2.97,2-4.76,5.91-4.76,3.69,0,4.92.86,4.92.86,0,0-.05.59-.05,2.3s.05,2.43.05,2.43c-1.02-1.6-2.14-2.54-4.06-2.54-1.39,0-2,.35-2,1.1s.48,1.02,1.55,1.5l1.87.86c2.03.94,3.26,2.14,3.26,4.54,0,3.07-2.14,4.95-6.28,4.95Z"/>
        <path class="cls-2" d="M139.52,25.86c-5.19,0-7.94-2.83-7.94-7.78,0-5.45,2.83-8.31,8.1-8.31s7.94,2.83,7.94,7.78c0,5.45-2.83,8.31-8.1,8.31ZM139.57,12.87c-1.79,0-2.35,1.42-2.35,5.08,0,3.93.64,4.81,2.41,4.81s2.35-1.42,2.35-5.08c0-3.93-.64-4.81-2.41-4.81Z"/>
        <path class="cls-2" d="M157.34,25.86c-5.19,0-7.94-2.83-7.94-7.78,0-5.45,2.83-8.31,8.1-8.31s7.94,2.83,7.94,7.78c0,5.45-2.83,8.31-8.1,8.31ZM157.4,12.87c-1.79,0-2.35,1.42-2.35,5.08,0,3.93.64,4.81,2.41,4.81s2.35-1.42,2.35-5.08c0-3.93-.64-4.81-2.41-4.81Z"/>
        <path class="cls-2" d="M183.89,25.57s-1.07-.05-3.61-.05-3.64.05-3.64.05l.24-.45c.43-.78.67-.96.67-6.79,0-3.21-.11-4.01-.35-4.49-.19-.4-.67-.78-1.55-.78-1.74,0-2.11,1.5-2.11,1.5v3.8c0,5.8.27,5.99.7,6.76l.24.45s-1.07-.05-3.61-.05-3.64.05-3.64.05l.24-.45c.43-.78.67-.99.67-6.82v-1.15c0-4.62-.24-5.37-.67-6.15l-.24-.45,6.23-.67-.16,4.46c.8-4.52,3.96-4.57,5.08-4.57,1.9,0,3.18.59,3.88,1.84.64,1.12.72,2.41.72,5.53v1.15c0,5.83.24,6.04.67,6.82l.24.45Z"/>
        <path class="cls-2" d="M28.22,51.51c-2.57,0-3.63.05-3.63.05l.24-.45c.43-.78.67-.99.67-6.82v-1.15c0-4.62-.24-5.37-.67-6.15l-.24-.45,6.58-.67s-.24,1.5-.24,7.25v1.18c0,4.95.11,5.75.67,6.82l.24.45s-1.07-.05-3.61-.05ZM28.22,34.67c-1.71,0-3.13-.35-3.13-2.03s1.34-2.14,3.1-2.14,3.13.35,3.13,2.03-1.34,2.14-3.1,2.14Z"/>
        <path class="cls-2" d="M50.33,51.57s-1.07-.05-3.61-.05-3.64.05-3.64.05l.24-.45c.43-.78.67-.96.67-6.79,0-3.21-.11-4.01-.35-4.49-.19-.4-.67-.78-1.55-.78-1.74,0-2.11,1.5-2.11,1.5v3.8c0,5.8.27,5.99.7,6.76l.24.45s-1.07-.05-3.61-.05-3.64.05-3.64.05l.24-.45c.43-.78.67-.99.67-6.82v-1.15c0-4.62-.24-5.37-.67-6.15l-.24-.45,6.23-.67-.16,4.46c.8-4.52,3.96-4.57,5.08-4.57,1.9,0,3.18.59,3.88,1.84.64,1.12.72,2.41.72,5.53v1.15c0,5.83.24,6.04.67,6.82l.24.45Z"/>
        <path class="cls-2" d="M67.37,51.89c-6.15,0-9.17-3.34-9.17-9.6s3.18-10.02,9.12-10.02,9.17,3.34,9.17,9.6-3.18,10.03-9.12,10.03ZM67.37,35.39c-2.62,0-3.29,2.27-3.29,6.71s.67,6.66,3.23,6.66,3.29-2.27,3.29-6.71-.67-6.66-3.24-6.66Z"/>
        <path class="cls-2" d="M94.98,51.57s-1.07-.05-3.61-.05-3.64.05-3.64.05l.24-.45c.43-.78.67-.96.67-6.79,0-3.21-.11-4.01-.35-4.49-.19-.4-.67-.78-1.55-.78-1.74,0-2.11,1.5-2.11,1.5v3.8c0,5.8.27,5.99.69,6.76l.24.45s-1.07-.05-3.61-.05-3.64.05-3.64.05l.24-.45c.43-.78.67-.99.67-6.82v-1.15c0-4.62-.24-5.37-.67-6.15l-.24-.45,6.23-.67-.16,4.46c.8-4.52,3.96-4.57,5.08-4.57,1.9,0,3.18.59,3.88,1.84.64,1.12.72,2.41.72,5.53v1.15c0,5.83.24,6.04.67,6.82l.24.45Z"/>
        <path class="cls-2" d="M102.44,51.81c-2.25,0-3.42-.75-4.09-1.63-.64-.86-.86-2.38-.86-4.28,0-4.25.08-6.71.08-6.71h-1.74s.94-.94,2.43-2.91c1.34-1.76,2.33-3.34,2.33-3.34h2.38v3.23h1.39c2.19,0,2.62-.29,2.62-.29,0,0-.03.48-.03,1.79s.03,1.79.03,1.79c0,0-.4-.27-2.62-.27h-1.39v6.58c0,1.12.05,1.66.29,2.14.27.56.8.91,1.79.91,1.47,0,2.14-.75,2.14-.75,0,1.87-1.34,3.74-4.76,3.74Z"/>
        <path class="cls-2" d="M124.3,51.08l-6.2.67.16-4.49c-.7,3.98-3.21,4.57-4.71,4.57-5.43,0-5.48-6.07-5.48-7.73,0-6.52,3.48-8.34,6.63-8.34s3.98,1.42,3.98,1.42l5-1.44s-.24,2-.24,7.75v.99c0,4.62.19,5.37.61,6.15l.24.46ZM118.02,39.4s-.54-.67-1.6-.67c-1.71,0-2.7,1.5-2.7,5.08,0,1.84.11,4.73,2.22,4.73,1.71,0,2.09-1.52,2.09-1.52v-7.62Z"/>
        <path class="cls-2" d="M134.83,40.1c-1.82,0-2.3.86-2.3.86v3.34c0,5.85.29,6.04.75,6.79l.29.48s-1.2-.05-3.74-.05-3.64.05-3.64.05l.24-.45c.43-.78.67-.99.67-6.82v-1.15c0-4.62-.24-5.37-.67-6.15l-.24-.45,6.17-.67-.13,4.89c.53-4.41,2.49-5,3.88-5s1.84.48,1.84.48c0,0-.05.67-.05,2.51,0,1.98.05,2.75.05,2.75-.88-1.23-2.22-1.42-3.13-1.42Z"/>
        <path class="cls-2" d="M142.55,51.51c-2.57,0-3.64.05-3.64.05l.24-.45c.43-.78.67-.99.67-6.82v-1.15c0-4.62-.24-5.37-.67-6.15l-.24-.45,6.58-.67s-.24,1.5-.24,7.25v1.18c0,4.95.11,5.75.67,6.82l.24.45s-1.07-.05-3.61-.05ZM142.55,34.67c-1.71,0-3.13-.35-3.13-2.03s1.34-2.14,3.1-2.14,3.13.35,3.13,2.03-1.34,2.14-3.1,2.14Z"/>
        <path class="cls-2" d="M155.81,51.86c-5.19,0-7.94-2.83-7.94-7.78,0-5.45,2.83-8.31,8.1-8.31s7.94,2.83,7.94,7.78c0,5.45-2.83,8.31-8.1,8.31ZM155.86,38.87c-1.79,0-2.35,1.42-2.35,5.08,0,3.93.64,4.81,2.41,4.81s2.35-1.42,2.35-5.08c0-3.93-.64-4.81-2.41-4.81Z"/>
      </g>
    </g>
  </g>
</svg>