<?xml version="1.0" encoding="UTF-8"?>
<svg id="Calque_2" data-name="Calque 2" xmlns="http://www.w3.org/2000/svg" viewBox="0 0 225.4 30.63">
  <defs>
    <style>
      .cls-1 {
        fill: #dcffb1;
      }

      .cls-2 {
        fill: #0533a1;
      }
    </style>
  </defs>
  <g id="Calque_1-2" data-name="Calque 1">
    <g>
      <g>
        <g>
          <path class="cls-2" d="M17.55,24.68l-.05,1.1H6.56c-1.44,0-2.06.03-2.06.03l.24-.45c.54-.99.67-1.2.67-9.22s-.11-7.89-.67-8.96l-.24-.45s.59.03,2.03.03h10.69s-.03.64-.03,2.11.05,2.25.05,2.3c-.03-.03-.19-.27-.94-.72-.64-.37-1.68-.59-2.94-.59h-2.54v4.84h1.9c1.26,0,2.3-.13,2.94-.51.69-.4.91-.64.96-.69,0,.03-.08.75-.08,2.78,0,1.87.08,2.7.08,2.75-.03-.03-.21-.27-.96-.72-.64-.37-1.68-.51-2.94-.51h-1.9v4.89h2.27c3.31,0,3.74-.78,4.73-2.22,0,0-.13,1.12-.29,4.22Z"/>
          <path class="cls-1" d="M4.51,30.31c-1.54,0-2.98-.79-3.81-2.1-.86-1.36-.93-3.08-.18-4.5l.25-.47c.14-1.09.14-5.12.14-7.1s0-5.81-.13-6.81l-.26-.5c-.75-1.43-.69-3.15.18-4.51.87-1.36,2.43-2.16,4.01-2.08.06,0,.61.02,1.83.02h10.69c1.23,0,2.4.5,3.25,1.38.85.88,1.3,2.08,1.25,3.3,0,.05-.02.65-.02,1.93,0,1.15.03,1.78.04,1.98,0,.08,0,.24,0,.32,0,.82-.22,1.6-.62,2.27v.05c0,.13,0,.28-.02.41-.01.17-.06.86-.06,2.37,0,.38,0,.73,0,1.06.92.95,1.41,2.29,1.24,3.67h0s-.12,1.09-.27,3.92l-.05,1.09c-.12,2.4-2.09,4.28-4.49,4.28H6.56c-1.24,0-1.8.02-1.87.02-.06,0-.12,0-.18,0Z"/>
        </g>
        <g>
          <path class="cls-2" d="M31.98,25.75c-2.67,0-3.9.05-3.9.05.35-.29.51-.64.51-1.04,0-.7-.19-1.18-1.36-2.86l-.67-.96-.4.72c-1.1,1.95-1.36,2.41-1.36,3.1,0,.4.16.75.51,1.04,0,0-1.31-.05-3.45-.05-2.3,0-3.58.05-3.58.05.96-.67,1.6-1.5,3.47-4.3l2.57-3.85-2.11-3.05c-1.92-2.75-2.46-3.64-3.53-4.3,0,0,1.28.05,4.33.05,2.67,0,3.9-.05,3.9-.05-.35.29-.51.64-.51,1.04,0,.69.21,1.15,1.36,2.86l.21.32.21-.35c.94-1.55,1.2-2.14,1.2-2.83,0-.4-.16-.75-.51-1.04,0,0,1.2.05,3.34.05,2.3,0,3.45-.05,3.45-.05-.96.67-1.6,1.5-3.48,4.3l-2.06,3.07,2.65,3.82c1.92,2.75,2.46,3.64,3.53,4.3,0,0-1.28-.05-4.33-.05Z"/>
          <path class="cls-1" d="M36.31,30.31c-.06,0-.13,0-.19,0,0,0-1.26-.05-4.14-.05-2.51,0-3.7.05-3.71.05-.55.02-1.08-.05-1.58-.22-.5.16-1.04.24-1.57.22-.01,0-1.26-.05-3.27-.05-2.16,0-3.38.05-3.4.05-1.99.07-3.81-1.17-4.45-3.06-.64-1.9.05-3.99,1.7-5.13.32-.22.9-1,2.3-3.1l.87-1.31-.98-1.4c-.68-.98-1.38-1.98-1.6-2.18-1.73-1.08-2.52-3.2-1.92-5.15.6-1.95,2.46-3.25,4.48-3.17,0,0,1.26.05,4.14.05,2.51,0,3.7-.05,3.71-.05.4-.02.8.02,1.18.11.38-.09.78-.12,1.19-.11,0,0,1.15.05,3.14.05,2.14,0,3.23-.05,3.24-.05,2.03-.09,3.83,1.16,4.47,3.06.64,1.9-.05,3.99-1.7,5.14-.32.22-.9,1-2.3,3.1l-.36.54,1.51,2.17c.68.98,1.38,1.99,1.6,2.18,1.73,1.08,2.52,3.2,1.92,5.15-.59,1.89-2.33,3.17-4.29,3.17Z"/>
        </g>
        <g>
          <path class="cls-2" d="M48.95,21.29c0,2.11-1.39,4.81-5.67,4.81-5.29,0-7.14-3.45-7.14-7.7,0-5.48,2.67-8.37,7.75-8.37,3.5,0,4.79,1.04,4.79,1.04,0,0-.05.72-.05,2.22,0,1.58.05,2.83.05,2.83-1.52-2.59-2.51-2.91-3.74-2.91-2.57,0-3.15,2.3-3.15,4.71,0,2.57.59,4.89,3.61,4.89,2.65,0,3.48-1.39,3.56-1.52Z"/>
          <path class="cls-1" d="M43.28,30.6c-7.18,0-11.64-4.67-11.64-12.2,0-7.94,4.7-12.87,12.25-12.87,4.6,0,6.86,1.43,7.62,2.05,1.14.93,1.76,2.35,1.65,3.82h0s-.04.63-.04,1.89c0,1.45.05,2.61.05,2.65.04.93-.21,1.83-.68,2.58.6.77.96,1.74.96,2.77,0,4.63-3.49,9.31-10.17,9.31Z"/>
        </g>
        <g>
          <path class="cls-2" d="M54,25.75c-2.57,0-3.64.05-3.64.05l.24-.45c.43-.78.67-1.02.67-6.82v-6.52c0-4.62-.24-5.37-.67-6.15l-.24-.45,6.42-.67s-.08,2.67-.08,5.13v8.66c0,5.8.24,6.04.67,6.82l.24.45s-1.07-.05-3.61-.05Z"/>
          <path class="cls-1" d="M57.61,30.31c-.08,0-.15,0-.23,0,0,0-1.03-.05-3.38-.05s-3.41.05-3.42.05c-1.6.08-3.15-.72-4.01-2.08-.87-1.36-.94-3.09-.18-4.52l.24-.45s0-.02.02-.03c.06-.45.13-1.63.13-4.68v-6.52c0-2.78-.09-3.73-.15-4.06l-.23-.44c-.7-1.32-.7-2.9,0-4.22s2.02-2.2,3.5-2.36l6.42-.67c1.3-.14,2.58.3,3.53,1.18.95.88,1.47,2.13,1.44,3.43,0,.03-.08,2.64-.08,5v8.66c0,3.06.07,4.23.13,4.69l.26.48c.76,1.43.69,3.16-.18,4.52-.83,1.3-2.26,2.08-3.79,2.08Z"/>
        </g>
        <g>
          <path class="cls-2" d="M75.89,25.3l-6.26.67.19-4.46c-.8,4.52-3.93,4.57-5.13,4.57-1.82,0-3.13-.56-3.82-1.79-.64-1.12-.72-2.35-.72-5.48v-1.42c0-4.92-.11-5.29-.56-6.15l-.24-.45,6.39-.67s-.16,2.01-.16,5.67v1.74c0,3.21.11,4.01.35,4.49.19.4.67.78,1.55.78,1.74,0,2.11-1.5,2.11-1.5v-3.9c0-4.92-.11-5.29-.56-6.15l-.24-.45,6.34-.67s-.13,2.94-.13,5.67v2.91c0,4.62.24,5.37.67,6.15l.24.45Z"/>
          <path class="cls-1" d="M64.69,30.57c-4.73,0-6.88-2.55-7.74-4.08-1.24-2.17-1.3-4.34-1.3-7.7v-1.42c0-.94,0-3.33-.08-4.13l-.2-.37c-.7-1.32-.7-2.9,0-4.22.7-1.32,2.02-2.2,3.5-2.36l6.39-.67c1.03-.1,2.04.14,2.9.69.05,0,.1-.01.15-.02l6.34-.67c1.3-.14,2.6.3,3.56,1.2.95.9,1.47,2.17,1.41,3.48,0,.03-.13,2.88-.13,5.46v2.91c0,2.78.09,3.73.15,4.06l.23.44c.7,1.32.7,2.9,0,4.22s-2.01,2.2-3.49,2.36l-6.26.67c-.76.08-1.51-.03-2.19-.31-.94.28-2.01.45-3.23.45Z"/>
        </g>
        <g>
          <path class="cls-2" d="M82.86,26.02c-3.5,0-5.16-.88-5.16-.88,0,0,.05-.51.05-2.14,0-1.79-.05-2.62-.05-2.62,1.26,2.09,2.75,2.57,4.41,2.57,1.5,0,2.11-.45,2.11-1.2s-.38-.99-1.23-1.39l-1.98-.94c-2.03-.96-3.32-2.17-3.32-4.62,0-2.97,2-4.76,5.91-4.76,3.69,0,4.92.86,4.92.86,0,0-.05.59-.05,2.3s.05,2.43.05,2.43c-1.02-1.6-2.14-2.54-4.06-2.54-1.39,0-2,.35-2,1.1s.48,1.02,1.55,1.5l1.87.86c2.03.94,3.26,2.14,3.26,4.54,0,3.07-2.14,4.95-6.28,4.95Z"/>
          <path class="cls-1" d="M82.86,30.52c-4.29,0-6.65-1.08-7.28-1.41-1.62-.86-2.55-2.62-2.36-4.44h0s.03-.46.03-1.67c0-1.58-.04-2.33-.04-2.34-.05-.89.16-1.75.57-2.48-.39-1.03-.58-2.16-.58-3.38,0-4.27,2.73-9.26,10.41-9.26,4.44,0,6.6,1.04,7.49,1.66,1.33.92,2.06,2.49,1.91,4.1h0s-.04.54-.04,1.89c0,1.45.04,2.12.04,2.12.04.6-.04,1.19-.23,1.73.57,1.19.85,2.54.85,4.03,0,4.36-2.82,9.45-10.78,9.45Z"/>
        </g>
        <g>
          <path class="cls-2" d="M94.62,25.75c-2.57,0-3.64.05-3.64.05l.24-.45c.43-.78.67-.99.67-6.82v-1.15c0-4.62-.24-5.37-.67-6.15l-.24-.45,6.58-.67s-.24,1.5-.24,7.25v1.18c0,4.95.11,5.75.67,6.82l.24.45s-1.07-.05-3.61-.05ZM94.62,8.91c-1.71,0-3.13-.35-3.13-2.03s1.34-2.14,3.1-2.14,3.13.35,3.13,2.03-1.34,2.14-3.1,2.14Z"/>
          <path class="cls-1" d="M98.23,30.31c-.08,0-.15,0-.23,0,0,0-1.03-.05-3.38-.05s-3.41.05-3.42.05c-1.6.08-3.15-.72-4.02-2.08-.87-1.37-.94-3.09-.18-4.52l.24-.45s0-.02.01-.03c.06-.46.13-1.63.13-4.68v-1.15c0-2.78-.09-3.73-.15-4.06l-.23-.44c-.7-1.32-.7-2.91,0-4.23.05-.09.1-.17.15-.26-.12-.51-.17-1.02-.17-1.52,0-1.11.37-6.64,7.6-6.64,5.63,0,7.63,3.52,7.63,6.53,0,.36-.04,1.17-.33,2.11.18.62.22,1.29.11,1.94h0s-.18,1.51-.18,6.53v1.18c0,1.24,0,4.15.15,4.74l.24.43c.76,1.43.69,3.16-.18,4.52-.83,1.3-2.26,2.08-3.79,2.08ZM94.6,4.58c-.49.29-.98.83-1.22,1.43l2.33-.24c-.27-.52-.7-.95-1.11-1.19Z"/>
        </g>
        <g>
          <path class="cls-2" d="M113.76,16.64l-2.54,9.17s-1.34-.05-3.82-.05-3.82.05-3.82.05l-2.49-9.17c-1.02-3.74-1.39-5.37-2.38-6.34,0,0,.91.05,3.8.05s3.98-.05,3.98-.05c-.35.24-.86.69-.86,1.68,0,.94.4,2.57.88,4.54l1.2,5.11c.16.69.29,1.63.32,1.76.03-.13.16-1.02.35-1.74l1.23-5.13c.48-2,.88-3.61.88-4.54,0-.99-.51-1.44-.86-1.68,0,0,1.1.05,3.37.05s3.18-.05,3.18-.05c-.99.96-1.39,2.59-2.43,6.34Z"/>
          <path class="cls-1" d="M103.57,30.31c-2.02,0-3.81-1.36-4.34-3.32l-2.73-10.06c-.4-1.49-.82-3.03-1.06-3.52-1.24-1.31-1.58-3.25-.85-4.91.76-1.72,2.51-2.79,4.38-2.68h0s.91.05,3.53.05,3.75-.05,3.76-.05c.62-.03,1.24.07,1.8.28.56-.21,1.17-.31,1.8-.28,0,0,1.05.05,3.15.05s2.94-.05,2.94-.05c1.88-.09,3.61.98,4.36,2.69.73,1.67.38,3.6-.87,4.91-.26.5-.71,2.13-1.15,3.71l-2.74,9.88c-.56,2.01-2.45,3.38-4.52,3.3-.01,0-1.3-.05-3.64-.05s-3.64.05-3.65.05c-.06,0-.12,0-.17,0Z"/>
        </g>
        <g>
          <path class="cls-2" d="M120.52,25.75c-2.57,0-3.64.05-3.64.05l.24-.45c.43-.78.67-.99.67-6.82v-1.15c0-4.62-.24-5.37-.67-6.15l-.24-.45,6.58-.67s-.24,1.5-.24,7.25v1.18c0,4.95.11,5.75.67,6.82l.24.45s-1.07-.05-3.61-.05ZM120.52,8.91c-1.71,0-3.13-.35-3.13-2.03s1.34-2.14,3.1-2.14,3.13.35,3.13,2.03-1.34,2.14-3.1,2.14Z"/>
          <path class="cls-1" d="M124.13,30.31c-.08,0-.15,0-.23,0,0,0-1.03-.05-3.38-.05s-3.41.05-3.42.05c-1.6.08-3.15-.72-4.02-2.08-.87-1.37-.94-3.09-.18-4.52l.24-.45s0-.02.01-.03c.06-.46.13-1.63.13-4.68v-1.15c0-2.78-.09-3.73-.15-4.06l-.23-.44c-.7-1.32-.7-2.91,0-4.23.05-.09.1-.17.15-.26-.12-.51-.17-1.02-.17-1.52,0-1.11.37-6.64,7.6-6.64,5.63,0,7.63,3.52,7.63,6.53,0,.36-.04,1.17-.33,2.11.18.62.22,1.29.11,1.94h0s-.18,1.51-.18,6.53v1.18c0,1.24,0,4.15.15,4.74l.24.43c.76,1.43.69,3.16-.18,4.52-.83,1.3-2.26,2.08-3.79,2.08ZM120.5,4.58c-.49.29-.98.83-1.22,1.43l2.33-.24c-.27-.52-.7-.95-1.11-1.19Z"/>
        </g>
        <g>
          <path class="cls-2" d="M131.61,26.05c-2.25,0-3.42-.75-4.09-1.63-.64-.86-.86-2.38-.86-4.28,0-4.25.08-6.71.08-6.71h-1.74s.94-.94,2.43-2.91c1.34-1.76,2.33-3.34,2.33-3.34h2.38v3.23h1.39c2.19,0,2.62-.29,2.62-.29,0,0-.03.48-.03,1.79s.03,1.79.03,1.79c0,0-.4-.27-2.62-.27h-1.39v6.58c0,1.12.05,1.66.29,2.14.27.56.8.91,1.79.91,1.47,0,2.14-.75,2.14-.75,0,1.87-1.34,3.74-4.76,3.74Z"/>
          <path class="cls-1" d="M131.61,30.55c-4.21,0-6.5-1.86-7.68-3.41-1.57-2.09-1.77-4.84-1.77-6.99,0-1.22,0-2.29.02-3.21-.57-.46-1.04-1.07-1.33-1.78-.7-1.68-.31-3.62.97-4.9h0s.78-.8,2.03-2.45c1.19-1.57,2.09-3,2.1-3.02.82-1.31,2.26-2.11,3.81-2.11h2.38c1.94,0,3.59,1.23,4.22,2.95.68.03,1.37.22,1.99.57,1.5.84,2.38,2.46,2.29,4.17,0,.06-.02.51-.02,1.55s.02,1.48.02,1.56c.08,1.7-.8,3.3-2.28,4.14-.26.15-.53.27-.81.36.14.04.28.08.41.13,1.75.67,2.9,2.34,2.9,4.21,0,3.97-2.9,8.24-9.26,8.24ZM133.01,19.3s0,0,0,0c0,0,0,0,0,0ZM133.02,19.3s0,0,0,0h0Z"/>
        </g>
        <g>
          <path class="cls-2" d="M145.24,19.52c-1.47,0-2.49-.19-2.49-.19,0,.86.4,3.58,4.01,3.58s4.46-1.39,4.54-1.52c0,2.27-1.71,4.71-6.34,4.71-5.8,0-7.78-3.42-7.78-7.83,0-5.05,2.22-8.26,7.43-8.26,1.9,0,6.87.08,6.87,4.81,0,1.95-.59,4.71-6.26,4.71ZM144.22,4.5h4.65s-.35,1.2-2.49,2.83c-1.92,1.47-3.98,1.79-3.98,1.79l1.82-4.62ZM144.68,12.6c-2.06,0-2.08,1.82-2.08,4.12,0,0,.43.11,1.47.11,1.55,0,2.33-.45,2.33-2.17,0-.96-.35-2.06-1.71-2.06Z"/>
          <path class="cls-1" d="M144.97,30.6c-7.57,0-12.28-4.73-12.28-12.33,0-5.32,2.09-9.28,5.72-11.29l1.62-4.13c.68-1.72,2.34-2.85,4.19-2.85h4.65c1.41,0,2.75.67,3.6,1.8.85,1.13,1.12,2.59.73,3.95-.1.36-.33.98-.83,1.76,3.27,2.28,3.63,5.87,3.63,7.31,0,1.58-.3,2.98-.88,4.19.44.7.69,1.52.69,2.39,0,4.43-3.39,9.21-10.84,9.21ZM142.75,14.84c.1,0,.2,0,.31.01l.04-.18c-.12.04-.24.1-.35.17Z"/>
        </g>
        <g>
          <path class="cls-2" d="M186.67,13.05l-3.21,12.75s-1.02-.05-3.55-.05-3.58.05-3.58.05l-2.38-11.63c-.21-1.02-.32-1.9-.32-2.11-.03.16-.11.94-.35,2.14l-2.25,11.6s-1.12-.05-3.58-.05-3.72.05-3.72.05l-3.07-12.75c-.91-3.77-1.47-5.37-2.46-6.34,0,0,1.18.05,3.88.05,2.89,0,4.22-.05,4.22-.05-.35.24-.86.7-.86,1.68,0,.94.29,2.46.67,4.46l1.66,8.69.24,1.71c.03-.16.13-.99.29-1.68l2.89-14.86s.99.05,2.97.05,2.99-.05,2.99-.05l2.99,14.57c.13.72.35,2,.35,2,0,0,.19-1.23.35-2l1.66-8.42c.4-2,.7-3.53.7-4.46,0-.99-.51-1.44-.86-1.68,0,0,1.18.05,3.5.05s3.29-.05,3.29-.05c-.99.96-1.52,2.57-2.46,6.34Z"/>
          <path class="cls-1" d="M183.46,30.31c-.08,0-.16,0-.24,0,0,0-.98-.05-3.32-.05s-3.36.05-3.37.05c-1.06.04-2.05-.27-2.86-.86-.8.58-1.8.91-2.86.86,0,0-1.08-.05-3.37-.05s-3.51.05-3.52.05c-2.18.1-4.06-1.35-4.57-3.44l-3.07-12.75c-.58-2.42-1.02-3.85-1.29-4.24-1.34-1.3-1.7-3.26-.96-4.98.74-1.72,2.51-2.76,4.37-2.67,0,0,1.15.05,3.67.05,2.73,0,4.03-.05,4.05-.05.96-.04,1.86.23,2.62.72.77-.5,1.7-.77,2.69-.72,0,0,.92.05,2.72.05s2.75-.05,2.75-.05c1.05-.05,2.03.25,2.83.82.8-.56,1.78-.87,2.8-.82,0,0,1.13.05,3.3.05s3.05-.05,3.06-.05c1.86-.09,3.6.98,4.35,2.7.74,1.69.37,3.66-.93,4.96-.39.63-1.06,3.35-1.29,4.25,0,0,0,0,0,.01l-3.21,12.75c-.51,2.01-2.31,3.4-4.36,3.4Z"/>
        </g>
        <g>
          <path class="cls-2" d="M196.66,19.52c-1.47,0-2.49-.19-2.49-.19,0,.86.4,3.58,4.01,3.58s4.46-1.39,4.54-1.52c0,2.27-1.71,4.71-6.33,4.71-5.8,0-7.78-3.42-7.78-7.83,0-5.05,2.22-8.26,7.43-8.26,1.9,0,6.87.08,6.87,4.81,0,1.95-.59,4.71-6.26,4.71ZM196.1,12.6c-2.06,0-2.08,1.82-2.08,4.12,0,0,.43.11,1.47.11,1.55,0,2.33-.45,2.33-2.17,0-.96-.35-2.06-1.71-2.06Z"/>
          <path class="cls-1" d="M196.39,30.6c-7.58,0-12.28-4.73-12.28-12.33s4.57-12.76,11.93-12.76c10.55,0,11.37,7.13,11.37,9.31,0,1.58-.3,2.98-.88,4.19.44.7.69,1.52.69,2.39,0,4.43-3.39,9.21-10.83,9.21ZM194.17,14.84c.1,0,.2,0,.31.01l.04-.18c-.12.04-.24.1-.35.17Z"/>
        </g>
        <g>
          <path class="cls-2" d="M214.19,26.07c-2.99,0-4.06-1.36-4.06-1.36l-4.97,1.42s.24-1.63.24-7.38v-6.74c0-4.62-.24-5.37-.67-6.15l-.24-.45,6.42-.67s-.08,2.67-.08,5.13v.8c0,1.47-.16,3.23-.24,3.74.75-3.82,3.21-4.41,4.76-4.41,5.51,0,5.56,6.07,5.56,7.73,0,6.52-3.5,8.34-6.71,8.34ZM212.99,13.3c-1.76,0-2.17,1.52-2.17,1.52v7.62s.54.67,1.66.67c1.76,0,2.78-1.5,2.78-5.08,0-1.87-.11-4.73-2.27-4.73Z"/>
          <path class="cls-1" d="M205.16,30.63c-1.08,0-2.13-.39-2.97-1.12-1.15-1.01-1.71-2.53-1.49-4.04,0-.01.19-1.61.19-6.72v-6.74c0-2.78-.09-3.73-.15-4.06l-.23-.44c-.7-1.32-.7-2.91,0-4.23.7-1.32,2.02-2.2,3.51-2.36l6.42-.67c1.3-.14,2.58.3,3.53,1.18.95.88,1.47,2.13,1.44,3.43,0,0,0,.24-.02.63,4.85.02,10.02,3.24,10.02,12.23,0,9.48-6.04,12.84-11.21,12.84-2.04,0-3.62-.43-4.8-.97l-3,.85c-.41.12-.82.17-1.23.17Z"/>
        </g>
      </g>
      <g>
        <path class="cls-2" d="M17.55,24.68l-.05,1.1H6.56c-1.44,0-2.06.03-2.06.03l.24-.45c.54-.99.67-1.2.67-9.22s-.11-7.89-.67-8.96l-.24-.45s.59.03,2.03.03h10.69s-.03.64-.03,2.11.05,2.25.05,2.3c-.03-.03-.19-.27-.94-.72-.64-.37-1.68-.59-2.94-.59h-2.54v4.84h1.9c1.26,0,2.3-.13,2.94-.51.69-.4.91-.64.96-.69,0,.03-.08.75-.08,2.78,0,1.87.08,2.7.08,2.75-.03-.03-.21-.27-.96-.72-.64-.37-1.68-.51-2.94-.51h-1.9v4.89h2.27c3.31,0,3.74-.78,4.73-2.22,0,0-.13,1.12-.29,4.22Z"/>
        <path class="cls-2" d="M31.98,25.75c-2.67,0-3.9.05-3.9.05.35-.29.51-.64.51-1.04,0-.7-.19-1.18-1.36-2.86l-.67-.96-.4.72c-1.1,1.95-1.36,2.41-1.36,3.1,0,.4.16.75.51,1.04,0,0-1.31-.05-3.45-.05-2.3,0-3.58.05-3.58.05.96-.67,1.6-1.5,3.47-4.3l2.57-3.85-2.11-3.05c-1.92-2.75-2.46-3.64-3.53-4.3,0,0,1.28.05,4.33.05,2.67,0,3.9-.05,3.9-.05-.35.29-.51.64-.51,1.04,0,.69.21,1.15,1.36,2.86l.21.32.21-.35c.94-1.55,1.2-2.14,1.2-2.83,0-.4-.16-.75-.51-1.04,0,0,1.2.05,3.34.05,2.3,0,3.45-.05,3.45-.05-.96.67-1.6,1.5-3.48,4.3l-2.06,3.07,2.65,3.82c1.92,2.75,2.46,3.64,3.53,4.3,0,0-1.28-.05-4.33-.05Z"/>
        <path class="cls-2" d="M48.95,21.29c0,2.11-1.39,4.81-5.67,4.81-5.29,0-7.14-3.45-7.14-7.7,0-5.48,2.67-8.37,7.75-8.37,3.5,0,4.79,1.04,4.79,1.04,0,0-.05.72-.05,2.22,0,1.58.05,2.83.05,2.83-1.52-2.59-2.51-2.91-3.74-2.91-2.57,0-3.15,2.3-3.15,4.71,0,2.57.59,4.89,3.61,4.89,2.65,0,3.48-1.39,3.56-1.52Z"/>
        <path class="cls-2" d="M54,25.75c-2.57,0-3.64.05-3.64.05l.24-.45c.43-.78.67-1.02.67-6.82v-6.52c0-4.62-.24-5.37-.67-6.15l-.24-.45,6.42-.67s-.08,2.67-.08,5.13v8.66c0,5.8.24,6.04.67,6.82l.24.45s-1.07-.05-3.61-.05Z"/>
        <path class="cls-2" d="M75.89,25.3l-6.26.67.19-4.46c-.8,4.52-3.93,4.57-5.13,4.57-1.82,0-3.13-.56-3.82-1.79-.64-1.12-.72-2.35-.72-5.48v-1.42c0-4.92-.11-5.29-.56-6.15l-.24-.45,6.39-.67s-.16,2.01-.16,5.67v1.74c0,3.21.11,4.01.35,4.49.19.4.67.78,1.55.78,1.74,0,2.11-1.5,2.11-1.5v-3.9c0-4.92-.11-5.29-.56-6.15l-.24-.45,6.34-.67s-.13,2.94-.13,5.67v2.91c0,4.62.24,5.37.67,6.15l.24.45Z"/>
        <path class="cls-2" d="M82.86,26.02c-3.5,0-5.16-.88-5.16-.88,0,0,.05-.51.05-2.14,0-1.79-.05-2.62-.05-2.62,1.26,2.09,2.75,2.57,4.41,2.57,1.5,0,2.11-.45,2.11-1.2s-.38-.99-1.23-1.39l-1.98-.94c-2.03-.96-3.32-2.17-3.32-4.62,0-2.97,2-4.76,5.91-4.76,3.69,0,4.92.86,4.92.86,0,0-.05.59-.05,2.3s.05,2.43.05,2.43c-1.02-1.6-2.14-2.54-4.06-2.54-1.39,0-2,.35-2,1.1s.48,1.02,1.55,1.5l1.87.86c2.03.94,3.26,2.14,3.26,4.54,0,3.07-2.14,4.95-6.28,4.95Z"/>
        <path class="cls-2" d="M94.62,25.75c-2.57,0-3.64.05-3.64.05l.24-.45c.43-.78.67-.99.67-6.82v-1.15c0-4.62-.24-5.37-.67-6.15l-.24-.45,6.58-.67s-.24,1.5-.24,7.25v1.18c0,4.95.11,5.75.67,6.82l.24.45s-1.07-.05-3.61-.05ZM94.62,8.91c-1.71,0-3.13-.35-3.13-2.03s1.34-2.14,3.1-2.14,3.13.35,3.13,2.03-1.34,2.14-3.1,2.14Z"/>
        <path class="cls-2" d="M113.76,16.64l-2.54,9.17s-1.34-.05-3.82-.05-3.82.05-3.82.05l-2.49-9.17c-1.02-3.74-1.39-5.37-2.38-6.34,0,0,.91.05,3.8.05s3.98-.05,3.98-.05c-.35.24-.86.69-.86,1.68,0,.94.4,2.57.88,4.54l1.2,5.11c.16.69.29,1.63.32,1.76.03-.13.16-1.02.35-1.74l1.23-5.13c.48-2,.88-3.61.88-4.54,0-.99-.51-1.44-.86-1.68,0,0,1.1.05,3.37.05s3.18-.05,3.18-.05c-.99.96-1.39,2.59-2.43,6.34Z"/>
        <path class="cls-2" d="M120.52,25.75c-2.57,0-3.64.05-3.64.05l.24-.45c.43-.78.67-.99.67-6.82v-1.15c0-4.62-.24-5.37-.67-6.15l-.24-.45,6.58-.67s-.24,1.5-.24,7.25v1.18c0,4.95.11,5.75.67,6.82l.24.45s-1.07-.05-3.61-.05ZM120.52,8.91c-1.71,0-3.13-.35-3.13-2.03s1.34-2.14,3.1-2.14,3.13.35,3.13,2.03-1.34,2.14-3.1,2.14Z"/>
        <path class="cls-2" d="M131.61,26.05c-2.25,0-3.42-.75-4.09-1.63-.64-.86-.86-2.38-.86-4.28,0-4.25.08-6.71.08-6.71h-1.74s.94-.94,2.43-2.91c1.34-1.76,2.33-3.34,2.33-3.34h2.38v3.23h1.39c2.19,0,2.62-.29,2.62-.29,0,0-.03.48-.03,1.79s.03,1.79.03,1.79c0,0-.4-.27-2.62-.27h-1.39v6.58c0,1.12.05,1.66.29,2.14.27.56.8.91,1.79.91,1.47,0,2.14-.75,2.14-.75,0,1.87-1.34,3.74-4.76,3.74Z"/>
        <path class="cls-2" d="M145.24,19.52c-1.47,0-2.49-.19-2.49-.19,0,.86.4,3.58,4.01,3.58s4.46-1.39,4.54-1.52c0,2.27-1.71,4.71-6.34,4.71-5.8,0-7.78-3.42-7.78-7.83,0-5.05,2.22-8.26,7.43-8.26,1.9,0,6.87.08,6.87,4.81,0,1.95-.59,4.71-6.26,4.71ZM144.22,4.5h4.65s-.35,1.2-2.49,2.83c-1.92,1.47-3.98,1.79-3.98,1.79l1.82-4.62ZM144.68,12.6c-2.06,0-2.08,1.82-2.08,4.12,0,0,.43.11,1.47.11,1.55,0,2.33-.45,2.33-2.17,0-.96-.35-2.06-1.71-2.06Z"/>
        <path class="cls-2" d="M186.67,13.05l-3.21,12.75s-1.02-.05-3.55-.05-3.58.05-3.58.05l-2.38-11.63c-.21-1.02-.32-1.9-.32-2.11-.03.16-.11.94-.35,2.14l-2.25,11.6s-1.12-.05-3.58-.05-3.72.05-3.72.05l-3.07-12.75c-.91-3.77-1.47-5.37-2.46-6.34,0,0,1.18.05,3.88.05,2.89,0,4.22-.05,4.22-.05-.35.24-.86.7-.86,1.68,0,.94.29,2.46.67,4.46l1.66,8.69.24,1.71c.03-.16.13-.99.29-1.68l2.89-14.86s.99.05,2.97.05,2.99-.05,2.99-.05l2.99,14.57c.13.72.35,2,.35,2,0,0,.19-1.23.35-2l1.66-8.42c.4-2,.7-3.53.7-4.46,0-.99-.51-1.44-.86-1.68,0,0,1.18.05,3.5.05s3.29-.05,3.29-.05c-.99.96-1.52,2.57-2.46,6.34Z"/>
        <path class="cls-2" d="M196.66,19.52c-1.47,0-2.49-.19-2.49-.19,0,.86.4,3.58,4.01,3.58s4.46-1.39,4.54-1.52c0,2.27-1.71,4.71-6.33,4.71-5.8,0-7.78-3.42-7.78-7.83,0-5.05,2.22-8.26,7.43-8.26,1.9,0,6.87.08,6.87,4.81,0,1.95-.59,4.71-6.26,4.71ZM196.1,12.6c-2.06,0-2.08,1.82-2.08,4.12,0,0,.43.11,1.47.11,1.55,0,2.33-.45,2.33-2.17,0-.96-.35-2.06-1.71-2.06Z"/>
        <path class="cls-2" d="M214.19,26.07c-2.99,0-4.06-1.36-4.06-1.36l-4.97,1.42s.24-1.63.24-7.38v-6.74c0-4.62-.24-5.37-.67-6.15l-.24-.45,6.42-.67s-.08,2.67-.08,5.13v.8c0,1.47-.16,3.23-.24,3.74.75-3.82,3.21-4.41,4.76-4.41,5.51,0,5.56,6.07,5.56,7.73,0,6.52-3.5,8.34-6.71,8.34ZM212.99,13.3c-1.76,0-2.17,1.52-2.17,1.52v7.62s.54.67,1.66.67c1.76,0,2.78-1.5,2.78-5.08,0-1.87-.11-4.73-2.27-4.73Z"/>
      </g>
    </g>
  </g>
</svg>