<?xml version="1.0" encoding="UTF-8"?>
<svg id="Calque_2" data-name="Calque 2" xmlns="http://www.w3.org/2000/svg" viewBox="0 0 141.01 35.71">
  <defs>
    <style>
      .cls-1 {
        fill: #dcffb1;
      }

      .cls-2 {
        fill: #0533a1;
      }
    </style>
  </defs>
  <g id="Calque_1-2" data-name="Calque 1">
    <g>
      <g>
        <g>
          <path class="cls-2" d="M33.01,12.81l-3.21,12.75s-1.02-.05-3.55-.05-3.58.05-3.58.05l-2.38-11.63c-.21-1.02-.32-1.9-.32-2.11-.03.16-.11.94-.35,2.14l-2.25,11.6s-1.12-.05-3.58-.05-3.72.05-3.72.05l-3.07-12.75c-.91-3.77-1.47-5.37-2.46-6.34,0,0,1.18.05,3.88.05,2.89,0,4.22-.05,4.22-.05-.35.24-.86.7-.86,1.68,0,.94.29,2.46.67,4.46l1.66,8.69.24,1.71c.03-.16.13-.99.29-1.68l2.89-14.86s.99.05,2.97.05,2.99-.05,2.99-.05l2.99,14.57c.13.72.35,2,.35,2,0,0,.19-1.23.35-2l1.66-8.42c.4-2,.7-3.53.7-4.46,0-.99-.51-1.44-.86-1.68,0,0,1.18.05,3.5.05s3.29-.05,3.29-.05c-.99.96-1.52,2.57-2.46,6.34Z"/>
          <path class="cls-1" d="M29.81,30.07c-.08,0-.16,0-.24,0,0,0-.98-.05-3.32-.05s-3.36.05-3.37.05c-1.06.05-2.05-.27-2.86-.86-.8.58-1.8.91-2.86.86,0,0-1.08-.05-3.37-.05s-3.51.05-3.52.05c-2.17.1-4.06-1.35-4.57-3.44l-3.07-12.75c-.58-2.42-1.02-3.85-1.29-4.24C0,8.33-.36,6.37.38,4.65c.74-1.72,2.52-2.76,4.37-2.67,0,0,1.15.05,3.67.05,2.73,0,4.03-.05,4.05-.05.96-.04,1.86.23,2.62.72.77-.5,1.7-.78,2.69-.72,0,0,.92.05,2.72.05s2.75-.05,2.75-.05c1.05-.05,2.03.25,2.83.82.8-.56,1.78-.87,2.8-.82,0,0,1.13.05,3.3.05s3.05-.05,3.06-.05c1.86-.1,3.6.98,4.35,2.7.74,1.69.37,3.66-.93,4.96-.39.63-1.06,3.35-1.29,4.25,0,0,0,0,0,.01l-3.21,12.75c-.51,2.01-2.31,3.4-4.36,3.4Z"/>
        </g>
        <g>
          <path class="cls-2" d="M43,19.28c-1.47,0-2.49-.19-2.49-.19,0,.86.4,3.58,4.01,3.58s4.46-1.39,4.54-1.52c0,2.27-1.71,4.71-6.33,4.71-5.8,0-7.78-3.42-7.78-7.83,0-5.05,2.22-8.26,7.43-8.26,1.9,0,6.87.08,6.87,4.81,0,1.95-.59,4.71-6.26,4.71ZM42.44,12.36c-2.06,0-2.08,1.82-2.08,4.12,0,0,.43.11,1.47.11,1.55,0,2.33-.45,2.33-2.17,0-.96-.35-2.06-1.71-2.06Z"/>
          <path class="cls-1" d="M42.74,30.36c-7.58,0-12.28-4.73-12.28-12.33s4.57-12.76,11.93-12.76c10.55,0,11.37,7.13,11.37,9.31,0,1.58-.3,2.98-.88,4.19.44.7.69,1.52.69,2.39,0,4.43-3.39,9.21-10.83,9.21ZM40.52,14.6c.1,0,.2,0,.31.01l.04-.18c-.12.04-.24.1-.35.17Z"/>
        </g>
        <g>
          <path class="cls-2" d="M60.53,25.83c-2.99,0-4.06-1.36-4.06-1.36l-4.97,1.42s.24-1.63.24-7.38v-6.74c0-4.62-.24-5.37-.67-6.15l-.24-.45,6.42-.67s-.08,2.67-.08,5.13v.8c0,1.47-.16,3.23-.24,3.74.75-3.82,3.21-4.41,4.76-4.41,5.51,0,5.56,6.07,5.56,7.73,0,6.52-3.5,8.34-6.71,8.34ZM59.33,13.05c-1.76,0-2.17,1.52-2.17,1.52v7.62s.54.67,1.66.67c1.76,0,2.78-1.5,2.78-5.08,0-1.87-.11-4.73-2.27-4.73Z"/>
          <path class="cls-1" d="M51.5,30.39c-1.08,0-2.13-.39-2.97-1.12-1.15-1.01-1.71-2.53-1.49-4.04,0-.01.19-1.61.19-6.72v-6.74c0-2.78-.09-3.73-.15-4.06l-.23-.44c-.7-1.32-.7-2.91,0-4.23.7-1.32,2.02-2.2,3.51-2.36L56.78.02c1.29-.13,2.58.3,3.53,1.18.95.88,1.47,2.13,1.44,3.43,0,0,0,.24-.02.63,4.85.02,10.02,3.24,10.02,12.23,0,9.48-6.04,12.84-11.21,12.84-2.04,0-3.62-.43-4.8-.97l-3,.85c-.41.12-.82.17-1.23.17Z"/>
        </g>
        <g>
          <path class="cls-2" d="M83.04,25.86c-5.19,0-7.94-2.83-7.94-7.78,0-5.45,2.83-8.31,8.1-8.31s7.94,2.83,7.94,7.78c0,5.45-2.83,8.31-8.1,8.31ZM83.09,12.87c-1.79,0-2.35,1.42-2.35,5.08,0,3.93.64,4.81,2.41,4.81s2.35-1.42,2.35-5.08c0-3.93-.64-4.81-2.41-4.81Z"/>
          <path class="cls-1" d="M83.04,30.36c-7.56,0-12.44-4.82-12.44-12.28,0-7.9,4.83-12.81,12.6-12.81s12.44,4.82,12.44,12.28c0,7.9-4.83,12.81-12.6,12.81Z"/>
        </g>
        <g>
          <path class="cls-2" d="M109.58,25.57s-1.07-.05-3.61-.05-3.64.05-3.64.05l.24-.45c.43-.78.67-.96.67-6.79,0-3.21-.11-4.01-.35-4.49-.19-.4-.67-.78-1.55-.78-1.74,0-2.11,1.5-2.11,1.5v3.8c0,5.8.27,5.99.7,6.76l.24.45s-1.07-.05-3.61-.05-3.64.05-3.64.05l.24-.45c.43-.78.67-.99.67-6.82v-1.15c0-4.62-.24-5.37-.67-6.15l-.24-.45,6.23-.67-.16,4.46c.8-4.52,3.96-4.57,5.08-4.57,1.9,0,3.18.59,3.88,1.84.64,1.12.72,2.41.72,5.53v1.15c0,5.83.24,6.04.67,6.82l.24.45Z"/>
          <path class="cls-1" d="M109.58,30.07c-.07,0-.15,0-.22,0-.04,0-1.07-.05-3.39-.05s-3.41.05-3.42.05c-.44.02-.88-.02-1.3-.13-.42.1-.87.15-1.31.13,0,0-1.03-.05-3.38-.05s-3.41.05-3.42.05c-1.61.08-3.15-.72-4.02-2.08-.87-1.37-.94-3.09-.18-4.52l.24-.45s0-.02.01-.03c.06-.46.13-1.63.13-4.68v-1.15c0-2.78-.09-3.73-.15-4.06l-.23-.44c-.7-1.32-.7-2.9,0-4.22.7-1.32,2.01-2.21,3.49-2.36l6.23-.67c.77-.09,1.54.03,2.23.33.97-.3,2.03-.46,3.17-.46,4.79,0,6.95,2.61,7.81,4.17,1.22,2.14,1.28,4.32,1.28,7.71v1.15c0,3.05.07,4.23.13,4.68l.26.49c.76,1.43.69,3.16-.18,4.52-.83,1.3-2.26,2.08-3.79,2.08Z"/>
        </g>
        <g>
          <path class="cls-2" d="M114.95,25.51c-2.57,0-3.64.05-3.64.05l.24-.45c.43-.78.67-1.02.67-6.82v-6.52c0-4.62-.24-5.37-.67-6.15l-.24-.45,6.42-.67s-.08,2.67-.08,5.13v8.66c0,5.8.24,6.04.67,6.82l.24.45s-1.07-.05-3.61-.05Z"/>
          <path class="cls-1" d="M118.56,30.07c-.08,0-.15,0-.23,0,0,0-1.03-.05-3.38-.05s-3.41.05-3.42.05c-1.61.07-3.15-.72-4.01-2.08-.87-1.36-.94-3.09-.18-4.52l.24-.45s0-.02.02-.03c.06-.45.13-1.63.13-4.68v-6.52c0-2.78-.09-3.73-.15-4.06l-.23-.44c-.7-1.32-.7-2.9,0-4.22s2.02-2.2,3.5-2.36L117.26.02c1.3-.13,2.58.3,3.53,1.18.95.88,1.47,2.13,1.44,3.43,0,.03-.08,2.64-.08,5v8.66c0,3.06.07,4.23.13,4.69l.26.48c.76,1.43.69,3.16-.18,4.52-.83,1.3-2.26,2.08-3.79,2.08Z"/>
        </g>
        <g>
          <path class="cls-2" d="M133.79,16.4l-3.26,10.29c-1.12,3.53-2.86,4.52-5.75,4.52-2.57,0-3.26-.4-3.26-.4,0,0,.05-.62.05-2.11,0-1.74-.05-2.54-.05-2.54.83,1.28,1.26,1.92,2.57,1.92s1.71-.69,1.87-1.2l.03-.08-3.93-10.4c-1.36-3.61-2.03-5.37-3.02-6.34,0,0,1.26.05,4.14.05s3.98-.05,3.98-.05c-.35.24-.86.69-.86,1.68,0,.94.43,2.59.96,4.57l.86,3.23c.35,1.31.37,2,.37,2,0,0,.03-.61.37-2.03l.8-3.23c.48-2,.88-3.61.88-4.54,0-.99-.51-1.44-.86-1.68,0,0,1.02.05,3.45.05s3.37-.05,3.37-.05c-.99.96-1.55,2.65-2.73,6.34Z"/>
          <path class="cls-1" d="M124.78,35.71c-2.54,0-4.34-.33-5.51-1-1.52-.87-2.39-2.55-2.24-4.29h0s.04-.53.04-1.72c0-1.52-.04-2.24-.04-2.25-.11-1.79.85-3.46,2.4-4.27l-1.58-4.19c-.83-2.2-1.62-4.28-2-4.75-1.34-1.3-1.71-3.27-.97-4.98s2.46-2.77,4.35-2.69c0,0,1.23.05,3.95.05s3.75-.05,3.76-.05c.51-.03,1.02.04,1.49.18.48-.14.99-.21,1.51-.18,0,0,.97.05,3.21.05s3.1-.04,3.1-.05c1.89-.1,3.62.97,4.38,2.68.74,1.69.38,3.67-.92,4.98-.36.54-1.06,2.75-1.63,4.53l-3.26,10.28c-1.64,5.15-4.92,7.66-10.04,7.66ZM139.66,13.28s0,0,0,0c0,0,0,0,0,0Z"/>
        </g>
      </g>
      <g>
        <path class="cls-2" d="M33.01,12.81l-3.21,12.75s-1.02-.05-3.55-.05-3.58.05-3.58.05l-2.38-11.63c-.21-1.02-.32-1.9-.32-2.11-.03.16-.11.94-.35,2.14l-2.25,11.6s-1.12-.05-3.58-.05-3.72.05-3.72.05l-3.07-12.75c-.91-3.77-1.47-5.37-2.46-6.34,0,0,1.18.05,3.88.05,2.89,0,4.22-.05,4.22-.05-.35.24-.86.7-.86,1.68,0,.94.29,2.46.67,4.46l1.66,8.69.24,1.71c.03-.16.13-.99.29-1.68l2.89-14.86s.99.05,2.97.05,2.99-.05,2.99-.05l2.99,14.57c.13.72.35,2,.35,2,0,0,.19-1.23.35-2l1.66-8.42c.4-2,.7-3.53.7-4.46,0-.99-.51-1.44-.86-1.68,0,0,1.18.05,3.5.05s3.29-.05,3.29-.05c-.99.96-1.52,2.57-2.46,6.34Z"/>
        <path class="cls-2" d="M43,19.28c-1.47,0-2.49-.19-2.49-.19,0,.86.4,3.58,4.01,3.58s4.46-1.39,4.54-1.52c0,2.27-1.71,4.71-6.33,4.71-5.8,0-7.78-3.42-7.78-7.83,0-5.05,2.22-8.26,7.43-8.26,1.9,0,6.87.08,6.87,4.81,0,1.95-.59,4.71-6.26,4.71ZM42.44,12.36c-2.06,0-2.08,1.82-2.08,4.12,0,0,.43.11,1.47.11,1.55,0,2.33-.45,2.33-2.17,0-.96-.35-2.06-1.71-2.06Z"/>
        <path class="cls-2" d="M60.53,25.83c-2.99,0-4.06-1.36-4.06-1.36l-4.97,1.42s.24-1.63.24-7.38v-6.74c0-4.62-.24-5.37-.67-6.15l-.24-.45,6.42-.67s-.08,2.67-.08,5.13v.8c0,1.47-.16,3.23-.24,3.74.75-3.82,3.21-4.41,4.76-4.41,5.51,0,5.56,6.07,5.56,7.73,0,6.52-3.5,8.34-6.71,8.34ZM59.33,13.05c-1.76,0-2.17,1.52-2.17,1.52v7.62s.54.67,1.66.67c1.76,0,2.78-1.5,2.78-5.08,0-1.87-.11-4.73-2.27-4.73Z"/>
        <path class="cls-2" d="M83.04,25.86c-5.19,0-7.94-2.83-7.94-7.78,0-5.45,2.83-8.31,8.1-8.31s7.94,2.83,7.94,7.78c0,5.45-2.83,8.31-8.1,8.31ZM83.09,12.87c-1.79,0-2.35,1.42-2.35,5.08,0,3.93.64,4.81,2.41,4.81s2.35-1.42,2.35-5.08c0-3.93-.64-4.81-2.41-4.81Z"/>
        <path class="cls-2" d="M109.58,25.57s-1.07-.05-3.61-.05-3.64.05-3.64.05l.24-.45c.43-.78.67-.96.67-6.79,0-3.21-.11-4.01-.35-4.49-.19-.4-.67-.78-1.55-.78-1.74,0-2.11,1.5-2.11,1.5v3.8c0,5.8.27,5.99.7,6.76l.24.45s-1.07-.05-3.61-.05-3.64.05-3.64.05l.24-.45c.43-.78.67-.99.67-6.82v-1.15c0-4.62-.24-5.37-.67-6.15l-.24-.45,6.23-.67-.16,4.46c.8-4.52,3.96-4.57,5.08-4.57,1.9,0,3.18.59,3.88,1.84.64,1.12.72,2.41.72,5.53v1.15c0,5.83.24,6.04.67,6.82l.24.45Z"/>
        <path class="cls-2" d="M114.95,25.51c-2.57,0-3.64.05-3.64.05l.24-.45c.43-.78.67-1.02.67-6.82v-6.52c0-4.62-.24-5.37-.67-6.15l-.24-.45,6.42-.67s-.08,2.67-.08,5.13v8.66c0,5.8.24,6.04.67,6.82l.24.45s-1.07-.05-3.61-.05Z"/>
        <path class="cls-2" d="M133.79,16.4l-3.26,10.29c-1.12,3.53-2.86,4.52-5.75,4.52-2.57,0-3.26-.4-3.26-.4,0,0,.05-.62.05-2.11,0-1.74-.05-2.54-.05-2.54.83,1.28,1.26,1.92,2.57,1.92s1.71-.69,1.87-1.2l.03-.08-3.93-10.4c-1.36-3.61-2.03-5.37-3.02-6.34,0,0,1.26.05,4.14.05s3.98-.05,3.98-.05c-.35.24-.86.69-.86,1.68,0,.94.43,2.59.96,4.57l.86,3.23c.35,1.31.37,2,.37,2,0,0,.03-.61.37-2.03l.8-3.23c.48-2,.88-3.61.88-4.54,0-.99-.51-1.44-.86-1.68,0,0,1.02.05,3.45.05s3.37-.05,3.37-.05c-.99.96-1.55,2.65-2.73,6.34Z"/>
      </g>
    </g>
  </g>
</svg>