<svg xmlns="http://www.w3.org/2000/svg" width="17.193" height="17.193" viewBox="0 0 17.193 17.193">
    <g id="Groupe_917" data-name="Groupe 917" transform="translate(-1753.76 -433.759)">
        <g id="Groupe_897" data-name="Groupe 897" transform="translate(1753.759 433.759)">
            <path id="Icon_feather-chevron-down" data-name="Icon feather-chevron-down" d="M16.6,22.594a1.5,1.5,0,0,1-1.059-.439l-7.1-7.1a1.5,1.5,0,0,1,2.118-2.118l6.04,6.04,6.04-6.04a1.5,1.5,0,1,1,2.118,2.118l-7.1,7.1A1.5,1.5,0,0,1,16.6,22.594Z" transform="translate(-8 -12.5)" fill="#021760"></path>
            <path id="Icon_feather-chevron-down-2" data-name="Icon feather-chevron-down" d="M8.6,10.094a1.5,1.5,0,0,1-1.059-.439l-7.1-7.1A1.5,1.5,0,0,1,2.556.439L8.6,6.479l6.04-6.04a1.5,1.5,0,1,1,2.118,2.118l-7.1,7.1A1.5,1.5,0,0,1,8.6,10.094Z" transform="translate(17.193 17.193) rotate(180)" fill="#021760"></path>
        </g>
    </g>
</svg>