<svg xmlns="http://www.w3.org/2000/svg" width="21" height="21" viewBox="0 0 21 21">
  <g id="Groupe_1113" data-name="Groupe 1113" transform="translate(-1015 -688)">
    <circle id="Ellipse_101" data-name="Ellipse 101" cx="10.5" cy="10.5" r="10.5" transform="translate(1015 688)" fill="#fff"/>
    <path id="x" d="M5.17,5.17a.548.548,0,0,1,.793,0l3,3,3-3c.057-.057.113-.113.17-.113a.481.481,0,0,1,.453,0c.057.057.113.057.17.113s.113.113.113.17a.341.341,0,0,1,.057.227.341.341,0,0,1-.057.227c-.057.057-.057.113-.113.17l-3,3,3,3a.561.561,0,1,1-.793.793l-3-3-3,3a.548.548,0,0,1-.793,0,.548.548,0,0,1,0-.793l3-3-3-3a.548.548,0,0,1,0-.793Z" transform="translate(1016.535 689.535)" fill="#ff1818" fill-rule="evenodd"/>
  </g>
</svg>
