<?xml version="1.0" encoding="utf-8"?>
<!-- Generator: Adobe Illustrator 28.2.0, SVG Export Plug-In . SVG Version: 6.00 Build 0)  -->
<svg version="1.1" id="Calque_1" xmlns="http://www.w3.org/2000/svg" xmlns:xlink="http://www.w3.org/1999/xlink" x="0px" y="0px"
	 viewBox="0 0 600 600" style="enable-background:new 0 0 600 600;" xml:space="preserve">
<style type="text/css">
	.st0{fill:#00214F;}
	.st1{fill:#DCFFB1;}
</style>
<g>
	<g>
		<g>
			<g>
				<path class="st0" d="M125.4,299.5c1.2,0.8,3.6,2.2,7.2,3.9c3.3,1.5,7.2,2.6,9,2.5c2.3-0.1,3.1-0.5,3.1-0.5l-6.5,15.8l-1.7-2.1
					c-1.7-2.2-7.5-3.5-16.7-8.6c-7.8-4.3-11.3-7.6-12.5-8.8c-16.3-2.4-25.2-13.8-25.8-33.1c-0.6-18.7,7.6-36.9,31.4-37.6
					c21.7-0.7,33.1,11.6,33.8,33.6C147.2,279.7,143,294.9,125.4,299.5z M113.4,241c-9.8,0.3-14.1,8.4-13.5,26.3
					c0.6,17.9,5.2,25.4,14.9,25.1c9.8-0.3,14.1-8.4,13.5-26.3C127.8,248.2,123.1,240.7,113.4,241z"/>
				<path class="st1" d="M138.6,330.6c-2.9,0.1-5.6-1.1-7.5-3.4l-1.2-1.5c-0.7-0.4-2-1-3.1-1.4c-2.8-1.2-6.7-3-11.5-5.6
					c-6.1-3.4-9.9-6.3-12.2-8.2c-18.9-4-30.1-19-30.8-41.5c-0.9-27.9,15-46.5,40.4-47.3c26.3-0.8,42.6,15.1,43.4,42.7
					c0.5,15.2-3.5,25.3-8.9,32.1c1.4,0.4,2.8,1.1,3.9,2.1c2.9,2.6,3.9,6.8,2.4,10.5l-6.5,15.8c-1.2,3-4,5.2-7.2,5.7
					C139.3,330.5,138.9,330.6,138.6,330.6z M129.2,324.9C129.2,325,129.2,325,129.2,324.9C129.2,325,129.2,325,129.2,324.9z
					 M113.7,250.4c-1.8,0.1-2.1,0.5-2.7,1.5c-0.8,1.6-2.1,5.6-1.8,15.1c0.3,9.5,1.8,13.4,2.7,14.9c0.5,0.9,0.7,1.2,2.6,1.2
					c1.8-0.1,2.1-0.5,2.7-1.5c0.8-1.6,2.1-5.6,1.8-15.1c-0.3-9.5-1.8-13.4-2.7-14.9C115.8,250.7,115.6,250.3,113.7,250.4z"/>
			</g>
			<g>
				<path class="st0" d="M212.6,296.4l-19.8,3.1l0.2-15.9c-2.4,16-13.3,16.7-17.7,16.8c-6.3,0.2-11.5-1.5-14.2-6.2
					c-2.5-4-2.9-8.6-3.3-20l-0.1-4.7c-0.6-17.6-1-19.3-2.8-22.3l-0.9-1.6l20.2-3.1c0,0-0.3,7.2,0.2,20.9l0.2,6.1
					c0.4,11.4,0.8,14.9,2,17c0.8,1.7,2.8,3.2,6.7,3.1c7.3-0.2,8.9-7,8.9-7l-0.4-14.1c-0.6-17.6-1.1-19.3-2.8-22.3l-0.9-1.6l20-3.1
					c0,0-0.2,10,0.2,21.4l0.3,9.5c0.5,16.8,1.5,19.5,3.1,22.3L212.6,296.4z"/>
				<path class="st1" d="M175.6,309.7c-13.1,0.4-19.5-5.6-22.5-10.7c-3.8-6.2-4.2-13-4.6-24.4l-0.1-4.7c-0.5-16.2-0.9-17-1.5-18
					l-0.9-1.6c-1.5-2.7-1.6-5.9-0.3-8.7c1.3-2.8,4-4.7,7-5.2l20.2-3.1c2.7-0.4,5.5,0.4,7.6,2.3c0.6,0.6,1.2,1.2,1.6,1.9
					c1.3-1.1,2.9-1.9,4.7-2.1l20-3.1c2.7-0.4,5.5,0.4,7.6,2.2c2.1,1.8,3.2,4.4,3.2,7.2c0,0.1-0.2,10,0.2,21l0.3,9.5
					c0.5,15.6,1.3,17,1.8,17.9l1,1.8c1.5,2.7,1.6,5.9,0.3,8.7s-3.9,4.7-7,5.2l-19.8,3.1c-2.4,0.4-4.8-0.2-6.8-1.6
					C184.3,308.6,180.3,309.6,175.6,309.7z"/>
			</g>
			<g>
				<path class="st0" d="M276.7,294.5l-19.6,3.1l0.1-16c-2.1,14.5-11.2,16.6-16.5,16.8C221,299,220.1,277,219.9,271
					c-0.7-23.7,11.6-30.7,23.1-31c10.6-0.3,14.4,4.7,14.4,4.7l15.3-5.7c0,0-0.7,7,0,28l0.1,3.6c0.5,16.8,1.3,19.6,2.9,22.3
					L276.7,294.5z M255.4,251.8c0,0-2.4-2.6-7.1-2.4c-7.6,0.2-11.4,6.6-11,20.1c0.2,6.4,0.9,18.4,10.1,18.1c7.2-0.2,8.8-7,8.8-7
					L255.4,251.8z"/>
				<path class="st1" d="M240.9,307.7c-12.2,0.4-21.6-5.6-26.5-16.8c-3.1-7.1-3.7-14.6-3.8-19.6c-0.9-29.2,16-40.1,32.1-40.7
					c7.4-0.2,12.6,1.5,16.2,3.5l10.5-3.9c3-1.1,6.4-0.6,8.9,1.3c2.6,2,3.9,5.1,3.6,8.3c0,0-0.6,7.1,0,26.8l0.1,3.6
					c0.4,14,1,16.9,1.6,17.9l1,1.8c1.5,2.7,1.6,5.9,0.3,8.7c-1.3,2.8-3.9,4.7-7,5.2l-19.6,3.1c-2.4,0.4-4.8-0.2-6.8-1.6
					C248.5,306.7,244.9,307.5,240.9,307.7z M249.3,258.8L249.3,258.8L249.3,258.8z"/>
			</g>
			<g>
				<path class="st0" d="M342.8,294.2c0,0-3.5-0.1-11.7,0.2c-8.4,0.3-11.8,0.6-11.8,0.6l0.8-1.7c1.5-2.9,2.3-3.6,1.7-24.8
					c-0.4-11.3-0.8-14.9-2-17c-0.8-1.6-2.8-3.1-6.7-3c-7.3,0.2-8.9,6.9-8.9,6.9l0.4,13.6c0.7,21.2,1.7,21.9,3.3,24.7l0.9,1.6
					c0,0-3.4-0.1-11.7,0.2c-8.3,0.3-11.7,0.6-11.7,0.6l0.8-1.7c1.5-2.9,2.3-3.7,1.7-24.9l-0.1-3.9c-0.5-16.8-1.5-19.5-3.1-22.3
					l-0.9-1.6l19.7-3.1l-0.1,15.9c2.4-15.9,13.4-16.7,17.6-16.8c6.5-0.2,11.6,1.6,14.3,6.4c2.5,4,2.9,8.7,3.3,20.1l0.1,3.8
					c0.7,21.2,1.6,22,3.2,24.8L342.8,294.2z"/>
				<path class="st1" d="M343.1,303.5c-0.2,0-0.3,0-0.5,0l0,0l0,0l0,0c0,0-3.5-0.1-11.2,0.2c-7.9,0.2-11.2,0.5-11.3,0.5
					c-2.1,0.2-4.1-0.3-5.8-1.4c-1.6,1.2-3.6,1.8-5.7,1.8c0,0-3.4-0.1-11.2,0.2c-7.8,0.2-11.1,0.5-11.2,0.5c-3.4,0.3-6.6-1.2-8.5-4
					c-1.9-2.8-2.2-6.4-0.7-9.4l1.1-2.2c0.1-0.2,0.2-0.4,0.3-0.6c0.3-1,0.6-5.3,0.2-19.5l-0.1-3.9c-0.5-15.6-1.3-17-1.8-17.9l-1-1.8
					c-1.5-2.7-1.6-5.9-0.3-8.7c1.3-2.8,3.9-4.7,7-5.2l19.7-3.1c2.4-0.4,4.9,0.2,6.9,1.6c3.4-1.6,7.4-2.6,11.8-2.7
					c13.1-0.4,19.6,5.7,22.6,10.9c3.8,6.3,4.2,13.1,4.6,24.6l0.1,3.8c0.4,14.2,1,18.4,1.4,19.4c0.1,0.2,0.2,0.3,0.3,0.5l1.2,2.1
					c1.7,2.9,1.6,6.5-0.1,9.4C349.2,301.7,346.3,303.4,343.1,303.5z"/>
			</g>
			<g>
				<path class="st0" d="M370.4,294.2c-7.5,0.2-11.6-2.3-13.9-5.2c-2.2-2.9-3.1-7.7-3.3-14.7c-0.6-18-0.5-26.7-0.5-26.7l-6.3,0.2
					c0.2-0.1,3.4-3.5,8-10.2c4.3-6.3,7.1-11.7,7.1-11.7l7.3-0.2l0.4,11.9l5.5-0.2c8-0.3,9.5-1.4,9.5-1.4s0,1.7,0.1,5.8
					c0.1,4.2,0.3,5.7,0.3,5.7s-1.5-0.9-9.6-0.7l-5.5,0.2l0.8,26.5c0.1,4.2,0.4,6,1.3,7.8c1,2,3.1,3.3,6.7,3.2
					c5.4-0.2,7.8-3.1,7.8-3.1C386.3,286.5,382.9,293.8,370.4,294.2z"/>
				<path class="st1" d="M370.7,303.5c-11.8,0.4-18.2-4.6-21.5-8.7c-4.3-5.5-5.1-12.9-5.3-20.2c-0.2-7.6-0.4-13.6-0.5-17.9
					c-2.9-1-5.3-3.3-6.1-6.4c-0.9-3.4,0.2-7,2.7-9.3c0.5-0.6,3-3.3,6.6-8.6c3.9-5.8,6.5-10.7,6.6-10.8c1.6-3,4.6-4.9,8-5l7.3-0.2
					c5.2-0.2,9.5,3.9,9.6,9l0.1,2.4c1.1-0.1,1.8-0.2,2.1-0.3c2.6-1.2,5.6-1.1,8.2,0.2c3.2,1.7,5.1,5,5,8.5l0,0c0,0,0,1.6,0.1,5.3
					c0.1,3.7,0.2,5.2,0.2,5.2c0.3,3.5-1.4,6.9-4.4,8.8c-2.4,1.5-5.4,1.8-8,0.9c-0.3,0-1-0.1-2.3-0.2l0.5,17.1c0,0.6,0,1,0.1,1.4
					c2.5-2.4,6.2-3.2,9.5-2.1c3.7,1.3,6.1,4.7,6.3,8.5C395.7,291.5,388.2,302.9,370.7,303.5z M381.6,256.4L381.6,256.4L381.6,256.4z
					 M379.6,255.5C379.6,255.5,379.6,255.5,379.6,255.5S379.6,255.5,379.6,255.5z M379.5,255.5C379.5,255.5,379.6,255.5,379.5,255.5
					C379.6,255.5,379.5,255.5,379.5,255.5z M379.5,255.5C379.5,255.5,379.5,255.5,379.5,255.5C379.5,255.5,379.5,255.5,379.5,255.5z
					 M379.5,255.4C379.5,255.4,379.5,255.4,379.5,255.4C379.5,255.4,379.5,255.4,379.5,255.4z M379.5,255.4
					C379.5,255.4,379.5,255.4,379.5,255.4C379.5,255.4,379.5,255.4,379.5,255.4z M339.9,241L339.9,241L339.9,241z M341.9,239.5
					C341.9,239.5,341.9,239.5,341.9,239.5C341.9,239.5,341.9,239.5,341.9,239.5z M341.9,239.5C341.9,239.5,341.9,239.5,341.9,239.5
					C341.9,239.5,341.9,239.5,341.9,239.5z M378.6,228.4C378.6,228.4,378.6,228.4,378.6,228.4C378.6,228.4,378.6,228.4,378.6,228.4z
					 M378.6,228.4C378.6,228.4,378.6,228.4,378.6,228.4C378.6,228.4,378.6,228.4,378.6,228.4z M378.6,228.4
					C378.6,228.4,378.6,228.4,378.6,228.4C378.6,228.4,378.6,228.4,378.6,228.4z M378.6,228.4C378.6,228.4,378.6,228.4,378.6,228.4
					L378.6,228.4z"/>
			</g>
			<g>
				<path class="st0" d="M403,292.1c-8.3,0.3-11.7,0.6-11.7,0.6l0.8-1.7c1.6-3.1,2.3-4.3,1.7-24.9l-0.1-3.9
					c-0.5-16.8-1.5-19.5-3.1-22.3l-0.9-1.6l20.9-3.1c0,0-0.7,5.5,0,26.4l0.1,4c0.6,18,1,20.9,3.2,24.8l0.9,1.6
					C414.7,291.9,411.3,291.8,403,292.1z M401,230.1c-5.6,0.2-10.1-1.1-10.3-6.7c-0.2-5.7,4.1-7.4,9.7-7.6
					c5.6-0.2,10.1,1.1,10.3,6.7C410.9,228.3,406.8,230,401,230.1z"/>
				<path class="st1" d="M415,301.2c-0.2,0-0.4,0-0.5,0c0,0-3.4-0.1-11.2,0.2c-7.8,0.2-11.1,0.5-11.2,0.5c-3.4,0.3-6.6-1.2-8.5-4
					c-1.9-2.8-2.2-6.4-0.7-9.4l0.8-1.7c0,0,0.1-0.2,0.1-0.2c0.6-1.1,1.2-2.3,0.6-20.3l-0.1-3.9c-0.5-15.6-1.3-17-1.8-17.9l-1-1.8
					c-1.5-2.7-1.6-5.9-0.3-8.7c0.5-1.1,1.3-2.1,2.2-2.9c-1.3-2.3-1.9-4.9-2-7.5c-0.3-8,4.5-16.8,18.7-17.2
					c14.3-0.4,19.6,7.8,19.9,15.7c0.1,3.2-0.5,5.9-1.6,8.1c1.1,1.8,1.5,3.9,1.2,6c0,0.1-0.6,5.7,0,24.9l0.1,4
					c0.5,17.1,1,18.7,2,20.5l0.9,1.6c1.7,2.9,1.6,6.5-0.1,9.4C421.1,299.4,418.1,301.1,415,301.2z"/>
			</g>
			<g>
				<path class="st0" d="M442.4,291.9c-7.5,0.2-11.6-2.3-13.9-5.2c-2.2-2.9-3.1-7.7-3.3-14.7c-0.6-18-0.5-26.7-0.5-26.7l-6.3,0.2
					c0.2-0.1,3.4-3.5,8-10.2c4.3-6.3,7.1-11.7,7.1-11.7l7.3-0.2l0.4,11.9l5.5-0.2c8-0.3,9.5-1.4,9.5-1.4s0,1.7,0.1,5.8
					c0.1,4.2,0.3,5.7,0.3,5.7s-1.5-0.9-9.6-0.7l-5.5,0.2l0.8,26.5c0.1,4.2,0.4,6,1.3,7.8c1,2,3.1,3.3,6.7,3.2
					c5.4-0.2,7.8-3.1,7.8-3.1C458.2,284.3,454.8,291.5,442.4,291.9z"/>
				<path class="st1" d="M442.7,301.2c-11.8,0.4-18.2-4.6-21.5-8.7c-4.3-5.5-5.1-12.9-5.3-20.2c-0.2-7.6-0.4-13.6-0.5-17.9
					c-2.9-1-5.3-3.3-6.1-6.4c-0.9-3.4,0.2-7,2.7-9.3c0.5-0.6,3-3.3,6.6-8.6c3.9-5.7,6.5-10.7,6.6-10.8c1.6-3,4.6-4.9,8-5l7.3-0.2
					c5.2-0.2,9.5,3.9,9.6,9l0.1,2.4c1.1-0.1,1.8-0.2,2.1-0.3c2.6-1.2,5.6-1.1,8.2,0.2c3.2,1.7,5.1,5,5,8.5l0,0c0,0,0,1.6,0.1,5.3
					c0.1,3.7,0.2,5.2,0.2,5.2c0.3,3.5-1.4,6.9-4.4,8.8c-2.4,1.5-5.4,1.8-8,0.9c-0.3,0-1-0.1-2.3-0.2l0.5,17.1c0,0.6,0,1,0.1,1.4
					c2.5-2.4,6.2-3.2,9.5-2.1c3.7,1.3,6.1,4.7,6.3,8.5C467.7,289.2,460.1,300.7,442.7,301.2z M453.5,254.1L453.5,254.1L453.5,254.1z
					 M451.5,253.2L451.5,253.2L451.5,253.2z M451.5,253.2C451.5,253.2,451.5,253.2,451.5,253.2C451.5,253.2,451.5,253.2,451.5,253.2
					z M451.5,253.2C451.5,253.2,451.5,253.2,451.5,253.2C451.5,253.2,451.5,253.2,451.5,253.2z M451.5,253.2
					C451.5,253.2,451.5,253.2,451.5,253.2C451.5,253.2,451.5,253.2,451.5,253.2z M451.5,253.2C451.5,253.2,451.5,253.2,451.5,253.2
					C451.5,253.2,451.5,253.2,451.5,253.2z M411.9,238.7L411.9,238.7L411.9,238.7z M413.8,237.3
					C413.8,237.3,413.8,237.3,413.8,237.3C413.8,237.3,413.8,237.3,413.8,237.3z M413.8,237.3C413.8,237.3,413.8,237.3,413.8,237.3
					C413.8,237.3,413.8,237.3,413.8,237.3z M413.8,237.3C413.8,237.3,413.8,237.3,413.8,237.3C413.8,237.3,413.8,237.3,413.8,237.3z
					 M450.5,226.1C450.5,226.1,450.5,226.1,450.5,226.1C450.5,226.1,450.5,226.1,450.5,226.1z M450.5,226.1
					C450.5,226.1,450.5,226.1,450.5,226.1C450.5,226.1,450.5,226.1,450.5,226.1z M450.5,226.1C450.5,226.1,450.5,226.1,450.5,226.1
					C450.5,226.1,450.5,226.1,450.5,226.1z M450.5,226.1C450.5,226.1,450.5,226.1,450.5,226.1C450.5,226.1,450.5,226.1,450.5,226.1z
					"/>
			</g>
			<g>
				<path class="st0" d="M488.7,266.4c-5.9,0.2-9.8-0.5-9.8-0.5c0.1,4.6,2.3,14.6,15.6,14.2c13-0.4,16.1-5.9,16.4-6.4
					c0.2,7.9-5.3,16.3-21.3,16.9c-20.4,0.6-27.6-11.5-28.1-27.5c-0.6-19.8,8.5-30.3,25.2-30.8c8.9-0.3,23.6,1.4,24.1,16.3
					C511,255.4,509.3,265.7,488.7,266.4z M487,240.8c-7.6,0.2-9.1,6.3-8.7,16.7c0,0,2,0.3,6.8,0.2c6.9-0.2,9.7-2.9,9.5-8.8
					C494.5,245.6,493.4,240.6,487,240.8z M485.6,212.7l15.1-0.5c0,0-1.1,4.2-8.5,10.1c-6.6,5.5-13.1,6.7-13.1,6.7L485.6,212.7z"/>
				<path class="st1" d="M489.9,299.9c-23.2,0.7-36.9-12.6-37.7-36.5c-0.6-17.7,5.9-30.5,17.8-36.5c0.1-0.4,0.2-0.9,0.4-1.3
					l6.5-16.4c1.4-3.5,4.7-5.8,8.4-5.9l15.1-0.5c3-0.1,5.8,1.2,7.6,3.5c1.8,2.3,2.5,5.4,1.7,8.2c-0.4,1.3-1.8,5.3-6.7,10.5
					c15.1,5.2,17,18.4,17.1,23.2c0.2,4.9-0.7,11.6-5,17.1c3,1.5,5,4.6,5.2,8.1C520.6,286.1,511.4,299.2,489.9,299.9z M485.2,248.3
					L485.2,248.3z"/>
			</g>
		</g>
	</g>
	<g>
		<g>
			<path class="st0" d="M125.4,299.5c1.2,0.8,3.6,2.2,7.2,3.9c3.3,1.5,7.2,2.6,9,2.5c2.3-0.1,3.1-0.5,3.1-0.5l-6.5,15.8l-1.7-2.1
				c-1.7-2.2-7.5-3.5-16.7-8.6c-7.8-4.3-11.3-7.6-12.5-8.8c-16.3-2.4-25.2-13.8-25.8-33.1c-0.6-18.7,7.6-36.9,31.4-37.6
				c21.7-0.7,33.1,11.6,33.8,33.6C147.2,279.7,143,294.9,125.4,299.5z M113.4,241c-9.8,0.3-14.1,8.4-13.5,26.3
				c0.6,17.9,5.2,25.4,14.9,25.1c9.8-0.3,14.1-8.4,13.5-26.3C127.8,248.2,123.1,240.7,113.4,241z"/>
			<path class="st0" d="M212.6,296.4l-19.8,3.1l0.2-15.9c-2.4,16-13.3,16.7-17.7,16.8c-6.3,0.2-11.5-1.5-14.2-6.2
				c-2.5-4-2.9-8.6-3.3-20l-0.1-4.7c-0.6-17.6-1-19.3-2.8-22.3l-0.9-1.6l20.2-3.1c0,0-0.3,7.2,0.2,20.9l0.2,6.1
				c0.4,11.4,0.8,14.9,2,17c0.8,1.7,2.8,3.2,6.7,3.1c7.3-0.2,8.9-7,8.9-7l-0.4-14.1c-0.6-17.6-1.1-19.3-2.8-22.3l-0.9-1.6l20-3.1
				c0,0-0.2,10,0.2,21.4l0.3,9.5c0.5,16.8,1.5,19.5,3.1,22.3L212.6,296.4z"/>
			<path class="st0" d="M276.7,294.5l-19.6,3.1l0.1-16c-2.1,14.5-11.2,16.6-16.5,16.8C221,299,220.1,277,219.9,271
				c-0.7-23.7,11.6-30.7,23.1-31c10.6-0.3,14.4,4.7,14.4,4.7l15.3-5.7c0,0-0.7,7,0,28l0.1,3.6c0.5,16.8,1.3,19.6,2.9,22.3
				L276.7,294.5z M255.4,251.8c0,0-2.4-2.6-7.1-2.4c-7.6,0.2-11.4,6.6-11,20.1c0.2,6.4,0.9,18.4,10.1,18.1c7.2-0.2,8.8-7,8.8-7
				L255.4,251.8z"/>
			<path class="st0" d="M342.8,294.2c0,0-3.5-0.1-11.7,0.2c-8.4,0.3-11.8,0.6-11.8,0.6l0.8-1.7c1.5-2.9,2.3-3.6,1.7-24.8
				c-0.4-11.3-0.8-14.9-2-17c-0.8-1.6-2.8-3.1-6.7-3c-7.3,0.2-8.9,6.9-8.9,6.9l0.4,13.6c0.7,21.2,1.7,21.9,3.3,24.7l0.9,1.6
				c0,0-3.4-0.1-11.7,0.2c-8.3,0.3-11.7,0.6-11.7,0.6l0.8-1.7c1.5-2.9,2.3-3.7,1.7-24.9l-0.1-3.9c-0.5-16.8-1.5-19.5-3.1-22.3
				l-0.9-1.6l19.7-3.1l-0.1,15.9c2.4-15.9,13.4-16.7,17.6-16.8c6.5-0.2,11.6,1.6,14.3,6.4c2.5,4,2.9,8.7,3.3,20.1l0.1,3.8
				c0.7,21.2,1.6,22,3.2,24.8L342.8,294.2z"/>
			<path class="st0" d="M370.4,294.2c-7.5,0.2-11.6-2.3-13.9-5.2c-2.2-2.9-3.1-7.7-3.3-14.7c-0.6-18-0.5-26.7-0.5-26.7l-6.3,0.2
				c0.2-0.1,3.4-3.5,8-10.2c4.3-6.3,7.1-11.7,7.1-11.7l7.3-0.2l0.4,11.9l5.5-0.2c8-0.3,9.5-1.4,9.5-1.4s0,1.7,0.1,5.8
				c0.1,4.2,0.3,5.7,0.3,5.7s-1.5-0.9-9.6-0.7l-5.5,0.2l0.8,26.5c0.1,4.2,0.4,6,1.3,7.8c1,2,3.1,3.3,6.7,3.2
				c5.4-0.2,7.8-3.1,7.8-3.1C386.3,286.5,382.9,293.8,370.4,294.2z"/>
			<path class="st0" d="M403,292.1c-8.3,0.3-11.7,0.6-11.7,0.6l0.8-1.7c1.6-3.1,2.3-4.3,1.7-24.9l-0.1-3.9
				c-0.5-16.8-1.5-19.5-3.1-22.3l-0.9-1.6l20.9-3.1c0,0-0.7,5.5,0,26.4l0.1,4c0.6,18,1,20.9,3.2,24.8l0.9,1.6
				C414.7,291.9,411.3,291.8,403,292.1z M401,230.1c-5.6,0.2-10.1-1.1-10.3-6.7c-0.2-5.7,4.1-7.4,9.7-7.6c5.6-0.2,10.1,1.1,10.3,6.7
				C410.9,228.3,406.8,230,401,230.1z"/>
			<path class="st0" d="M442.4,291.9c-7.5,0.2-11.6-2.3-13.9-5.2c-2.2-2.9-3.1-7.7-3.3-14.7c-0.6-18-0.5-26.7-0.5-26.7l-6.3,0.2
				c0.2-0.1,3.4-3.5,8-10.2c4.3-6.3,7.1-11.7,7.1-11.7l7.3-0.2l0.4,11.9l5.5-0.2c8-0.3,9.5-1.4,9.5-1.4s0,1.7,0.1,5.8
				c0.1,4.2,0.3,5.7,0.3,5.7s-1.5-0.9-9.6-0.7l-5.5,0.2l0.8,26.5c0.1,4.2,0.4,6,1.3,7.8c1,2,3.1,3.3,6.7,3.2
				c5.4-0.2,7.8-3.1,7.8-3.1C458.2,284.3,454.8,291.5,442.4,291.9z"/>
			<path class="st0" d="M488.7,266.4c-5.9,0.2-9.8-0.5-9.8-0.5c0.1,4.6,2.3,14.6,15.6,14.2c13-0.4,16.1-5.9,16.4-6.4
				c0.2,7.9-5.3,16.3-21.3,16.9c-20.4,0.6-27.6-11.5-28.1-27.5c-0.6-19.8,8.5-30.3,25.2-30.8c8.9-0.3,23.6,1.4,24.1,16.3
				C511,255.4,509.3,265.7,488.7,266.4z M487,240.8c-7.6,0.2-9.1,6.3-8.7,16.7c0,0,2,0.3,6.8,0.2c6.9-0.2,9.7-2.9,9.5-8.8
				C494.5,245.6,493.4,240.6,487,240.8z M485.6,212.7l15.1-0.5c0,0-1.1,4.2-8.5,10.1c-6.6,5.5-13.1,6.7-13.1,6.7L485.6,212.7z"/>
		</g>
	</g>
</g>
<g>
	<g>
		<g>
			<g>
				<path class="st0" d="M176,394.5c-8.3,0.9-11.7,1.5-11.7,1.5l0.7-1.7c1.3-3.2,1.9-4.5-0.3-25l-2.6-23c-1.9-16.9-3-19.7-5-22.6
					l-1.1-1.5l20-4.7c0,0,0.8,9.9,1.8,19.1l3.4,30.9c2.2,20.2,3.2,21.5,5.2,24.4l1.1,1.6C187.5,393.4,184.1,393.6,176,394.5z"/>
				<path class="st1" d="M165,405.3c-3,0.2-6-1.1-7.9-3.4c-2.1-2.6-2.7-6.2-1.4-9.3l0.7-1.7c0,0,0.1-0.2,0.1-0.2
					c0.5-1.2,1-2.4-1-20.3l-2.6-23c-1.8-16-2.7-17.3-3.4-18.3l-1.1-1.6c-1.7-2.5-2.1-5.8-1-8.6c1.1-2.9,3.6-5,6.6-5.7l20-4.7
					c2.6-0.6,5.4-0.1,7.6,1.5c2.2,1.6,3.6,4.1,3.8,6.8c0,0.1,0.8,9.9,1.8,18.8l3.4,30.9c2,17.8,2.7,18.9,3.6,20.1l1.1,1.6
					c1.9,2.8,2.1,6.4,0.6,9.4c-1.5,3-4.4,4.9-7.7,5.2c0,0-0.1,0-0.1,0c0,0-3.4,0.2-11,1c0,0,0,0,0,0c-7.8,0.9-11.1,1.4-11.2,1.4
					C165.6,405.3,165.3,405.3,165,405.3z M176,394.5L176,394.5L176,394.5z"/>
			</g>
			<g>
				<path class="st0" d="M207.7,391c-8.2,0.9-11.6,1.5-11.6,1.5l0.7-1.7c1.3-3.2,2-4.4-0.3-25l-0.4-3.9c-1.9-16.7-3-19.4-4.9-22
					l-1.1-1.5l20.5-4.7c0,0-0.3,5.5,2,26.3l0.4,4c2,17.9,2.7,20.8,5.2,24.4l1.1,1.5C219.3,389.9,215.9,390.1,207.7,391z
					 M200.8,329.4c-5.5,0.6-10.1-0.3-10.7-5.9c-0.6-5.7,3.5-7.7,9.1-8.4c5.5-0.6,10.1,0.3,10.7,5.9
					C210.5,326.8,206.5,328.8,200.8,329.4z"/>
				<path class="st1" d="M196.7,401.8c-3,0.2-6-1.1-7.9-3.4c-2.1-2.6-2.7-6.2-1.4-9.3l0.7-1.7c0,0,0.1-0.2,0.1-0.2
					c0.5-1.2,1-2.3-1-20.3l-0.4-3.9c-1.7-15.5-2.7-16.8-3.2-17.7l-1.1-1.7c-1.7-2.5-2.1-5.8-1-8.7c0.5-1.2,1.1-2.2,2-3.1
					c-1.5-2.2-2.3-4.7-2.5-7.3c-0.9-8,3.2-17.1,17.3-18.7c4.8-0.5,8.7-0.1,12,1.4c5.1,2.3,8.4,6.9,9,12.7c0.4,3.2,0,5.9-0.9,8.2
					c1.2,1.7,1.8,3.7,1.7,5.8c0,0.1-0.1,5.7,2,24.9l0.4,4c1.9,17,2.5,18.6,3.6,20.2l1,1.5c1.9,2.8,2.1,6.4,0.6,9.4
					c-1.5,3-4.4,4.9-7.7,5.2c0,0-0.1,0-0.1,0c0,0-3.4,0.2-11.1,1.1l0,0c-7.8,0.9-11,1.4-11.1,1.4C197.3,401.7,197,401.8,196.7,401.8
					z M207.7,391L207.7,391L207.7,391z"/>
			</g>
			<g>
				<path class="st0" d="M318.4,378.9c0,0-3.5,0.2-11.6,1.1c-8.3,0.9-11.7,1.5-11.7,1.5l0.7-1.7c1.2-3,2-3.8-0.3-24.9
					c-1.2-11.2-1.9-14.8-3.3-16.8c-1-1.6-3.1-2.9-6.9-2.5c-7,0.8-8.2,7-8.3,7.5l1.5,13.6c2.3,21.1,3.4,21.8,5.3,24.4l1.1,1.5
					c0,0-3.4,0.2-11.6,1.1c-8.2,0.9-11.7,1.5-11.7,1.5l0.7-1.7c1.2-3,2-3.8-0.3-24.9c-1.2-11.2-1.9-14.8-3.3-16.8
					c-1.1-1.5-3.1-2.9-6.9-2.5c-7.3,0.8-8.2,7.6-8.2,7.6l1.5,13.5c2.3,21,3.3,21.8,5.2,24.4l1.1,1.5c0,0-3.4,0.2-11.6,1.1
					c-8.2,0.9-11.6,1.5-11.6,1.5l0.7-1.7c1.2-3,2-3.8-0.3-25l-0.4-3.9c-1.9-16.7-3-19.4-4.9-22l-1.1-1.5l19.5-4.6l1.2,15.8
					c1.2-16,12-17.7,16.1-18.2c6.4-0.7,11.6,0.8,14.8,5.2c2,2.8,2.7,6.4,2.8,6.9c1.7-13.9,12-15.4,16-15.9
					c6.5-0.7,11.6,0.7,14.8,5.1c2.8,3.8,3.6,8.4,4.8,19.7l0.4,3.9c2.3,21.1,3.3,21.8,5.2,24.4L318.4,378.9z"/>
				<path class="st1" d="M228.5,398.3c-3,0.2-6-1.1-7.9-3.4c-2.1-2.6-2.7-6.2-1.4-9.3l0.9-2.3c0.1-0.2,0.2-0.4,0.2-0.6
					c0.2-1,0.2-5.3-1.4-19.4l-0.4-3.9c-1.7-15.5-2.7-16.8-3.2-17.6l-1.1-1.7c-1.7-2.5-2.1-5.8-1-8.6s3.6-5,6.5-5.7l19.5-4.6
					c2.4-0.6,4.9-0.2,7,1.1c3.3-1.9,7.1-3.1,11.4-3.6c7.7-0.9,13.3,0.8,17.4,3.3c4.1-3.9,9.6-6.3,16.2-7.1c13.1-1.5,20,4.1,23.4,9
					c4.3,5.9,5.2,12.6,6.5,24.1l0.4,3.9c1.6,14.1,2.5,18.3,2.9,19.3c0.1,0.2,0.2,0.3,0.3,0.5l1.4,2c1.9,2.8,2.1,6.4,0.7,9.4
					c-1.5,3-4.5,5-7.8,5.2c-0.1,0-3.6,0.2-11.1,1.1c-7.8,0.9-11.1,1.4-11.2,1.4c-2,0.4-4.1,0-5.9-0.9c-1.5,1.3-3.5,2.1-5.5,2.2
					c0,0-3.4,0.2-11.1,1.1c-7.8,0.9-11.2,1.4-11.2,1.4c-2,0.3-4.1,0-5.9-0.9c-1.5,1.3-3.5,2.2-5.5,2.2c0,0-3.4,0.2-11.1,1.1
					c-7.8,0.9-11,1.4-11.1,1.4C229.1,398.2,228.8,398.3,228.5,398.3z"/>
			</g>
			<g>
				<path class="st0" d="M338.5,376.5c-8.2,0.9-11.6,1.5-11.6,1.5l0.7-1.7c1.3-3.2,2-4.4-0.3-25l-0.4-3.9c-1.9-16.7-3-19.4-4.9-22
					l-1.1-1.5l20.6-4.7c0,0-0.3,5.5,2,26.3l0.4,4c2,17.9,2.7,20.8,5.2,24.4l1.1,1.5C350.1,375.4,346.7,375.6,338.5,376.5z
					 M331.6,314.9c-5.5,0.6-10.1-0.3-10.7-5.9c-0.6-5.7,3.5-7.7,9.1-8.4c5.5-0.6,10.1,0.3,10.7,5.9
					C341.3,312.3,337.3,314.3,331.6,314.9z"/>
				<path class="st1" d="M327.5,387.3c-3,0.2-6-1.1-7.9-3.4c-2.1-2.6-2.7-6.2-1.4-9.3l0.7-1.7c0,0,0.1-0.2,0.1-0.2
					c0.5-1.2,1-2.4-1-20.3l-0.4-3.9c-1.7-15.5-2.7-16.8-3.2-17.7l-1.1-1.7c-1.7-2.5-2.1-5.8-1-8.7c0.5-1.2,1.1-2.2,2-3.1
					c-1.4-2.1-2.3-4.6-2.6-7.3c-0.9-8,3.2-17.1,17.3-18.7c14.2-1.6,20.2,6.3,21,14.1c0.3,3,0,5.7-1,8.2c1.2,1.7,1.8,3.8,1.7,5.9
					c0,0.1-0.1,5.7,2,24.9l0.4,4c1.9,17,2.5,18.6,3.6,20.2l1,1.5c1.9,2.8,2.1,6.4,0.6,9.4c-1.5,3-4.5,5.1-7.9,5.2
					c0,0-3.4,0.2-11.1,1.1c-7.8,0.9-11,1.4-11.1,1.4C328.1,387.2,327.8,387.3,327.5,387.3z"/>
			</g>
			<g>
				<path class="st0" d="M377.7,373.2c-7.5,0.8-11.7-1.3-14.3-4.1c-2.5-2.7-3.7-7.4-4.4-14.4c-2-17.9-2.7-26.6-2.7-26.6l-6.3,0.7
					c0.2-0.1,3.1-3.8,7.1-10.8c3.8-6.6,6.2-12.3,6.2-12.3l7.3-0.8l1.3,11.8l5.4-0.6c7.9-0.9,9.4-2.1,9.4-2.1s0.1,1.7,0.5,5.8
					c0.5,4.2,0.7,5.7,0.7,5.7s-1.6-0.8-9.6,0.1l-5.4,0.6l2.9,26.3c0.5,4.2,0.9,6,1.9,7.6c1.2,1.9,3.4,3.1,7,2.7
					c5.3-0.6,7.5-3.7,7.5-3.7C392.9,364.4,390.1,371.9,377.7,373.2z"/>
				<path class="st1" d="M377.1,382.6c-10.7,0.7-17-3.4-20.5-7.2c-4.7-5.1-6.1-12.5-6.9-19.7c-0.8-7.6-1.4-13.5-1.9-17.8
					c-3-0.7-5.5-2.9-6.6-5.9c-1.2-3.3-0.4-7,1.9-9.5c0.5-0.6,2.7-3.5,5.9-9.1c3.4-6,5.7-11.2,5.7-11.3c1.3-3.1,4.2-5.2,7.6-5.6
					l7.3-0.8c2.5-0.3,4.9,0.4,6.9,2c1.9,1.5,3.2,3.8,3.4,6.3l0.3,2.4c1.1-0.2,1.8-0.4,2.1-0.5c2.5-1.4,5.5-1.5,8.2-0.4
					c3.3,1.4,5.5,4.5,5.7,8.1l0,0c0,0,0.1,1.6,0.5,5.3c0.4,3.7,0.7,5.1,0.7,5.2c0.6,3.5-0.8,7-3.7,9.1c-2.3,1.7-5.2,2.2-7.9,1.5
					c-0.3,0-1,0-2.3,0l1.9,17c0.1,0.6,0.1,1,0.2,1.4c2.3-2.6,5.9-3.7,9.3-2.8c3.7,1,6.5,4.2,6.9,8c0.6,5.5-1,11.1-4.5,15.3
					c-2.8,3.5-8.3,7.8-18.4,9l0,0C378.2,382.6,377.6,382.6,377.1,382.6z M383.4,353.7L383.4,353.7L383.4,353.7z M385.8,334.7
					L385.8,334.7L385.8,334.7z M383.7,333.9C383.7,333.9,383.7,333.9,383.7,333.9C383.7,333.9,383.7,333.9,383.7,333.9z
					 M383.7,333.9C383.7,333.9,383.7,333.9,383.7,333.9C383.7,333.9,383.7,333.9,383.7,333.9z M383.7,333.9
					C383.7,333.9,383.7,333.9,383.7,333.9C383.7,333.9,383.7,333.9,383.7,333.9z M345,321C345,321,344.9,321,345,321
					C344.9,321,345,321,345,321z M345,321C345,321,345,321,345,321C345,321,345,321,345,321z M380.6,307
					C380.6,307,380.6,307.1,380.6,307C380.6,307,380.6,307,380.6,307z M380.6,307C380.6,307,380.6,307,380.6,307
					C380.6,307,380.6,307,380.6,307z M380.6,307C380.6,307,380.6,307,380.6,307C380.6,307,380.6,307,380.6,307z M380.6,307
					C380.6,307,380.6,307,380.6,307C380.6,307,380.6,307,380.6,307z"/>
			</g>
			<g>
				<path class="st0" d="M421.9,344.1c-5.9,0.7-9.8,0.3-9.8,0.3c0.5,4.6,3.5,14.4,16.6,13c12.9-1.4,15.6-7.1,15.8-7.6
					c0.9,7.8-4,16.7-19.9,18.5c-20.2,2.2-28.4-9.3-30.1-25.2c-2.2-19.7,6.1-30.9,22.6-32.7c8.8-1,23.7-0.5,25.3,14.3
					C443.2,331.5,442.3,341.8,421.9,344.1z M418.2,318.7c-7.6,0.8-8.5,7-7.4,17.4c0,0,2,0.2,6.8-0.4c6.9-0.8,9.4-3.7,8.7-9.5
					C426,323,424.5,318.1,418.2,318.7z M414.5,290.8l15-1.7c0,0-0.8,4.3-7.6,10.7c-6.1,6-12.6,7.8-12.6,7.8L414.5,290.8z"/>
				<path class="st1" d="M423.3,377.7c-21.7,1.5-35.5-10.7-38.1-33.6c-1.3-12,0.7-21.9,5.9-29.4c2.4-3.4,5.4-6.2,8.9-8.3
					c0.1-0.5,0.2-0.9,0.3-1.4l5.2-16.8c1.1-3.6,4.2-6.1,7.9-6.5l15-1.7c3-0.3,5.9,0.8,7.9,2.9c2,2.2,2.9,5.1,2.3,8.1
					c-0.2,1.3-1.4,5.5-5.9,11c1,0.3,2,0.6,3,0.9c9.2,3.4,14.9,10.8,16,20.8c0.5,4.9,0.2,11.6-3.7,17.4c3.1,1.3,5.4,4.2,5.8,7.6
					c1.4,12.6-6.8,26.4-28.2,28.8C424.9,377.6,424.1,377.6,423.3,377.7z M416.9,326.4L416.9,326.4L416.9,326.4z"/>
			</g>
			<g>
				<path class="st0" d="M478.2,337.9c-5.9,0.7-9.8,0.3-9.8,0.3c0.5,4.6,3.5,14.4,16.6,13c12.9-1.4,15.6-7.1,15.8-7.6
					c0.9,7.8-4,16.7-19.9,18.5c-20.2,2.2-28.4-9.3-30.1-25.2c-2.2-19.7,6.1-30.9,22.6-32.7c8.8-1,23.7-0.5,25.3,14.3
					C499.6,325.2,498.7,335.6,478.2,337.9z M474.5,312.5c-7.6,0.8-8.5,7-7.4,17.4c0,0,2,0.2,6.8-0.4c6.9-0.8,9.4-3.7,8.7-9.5
					C482.4,316.7,480.8,311.8,474.5,312.5z"/>
				<path class="st1" d="M479.6,371.5c-11.3,0.8-20.4-2.1-27.1-8.6c-6.1-5.8-9.8-14.3-11-25.1c-1.3-12,0.7-21.9,5.9-29.4
					c5.4-7.7,14-12.4,24.9-13.6c20.4-2.3,33.8,6.2,35.6,22.6c0.3,2.6,1.1,10.3-3.7,17.4c3.1,1.3,5.4,4.2,5.8,7.6
					c1.4,12.6-6.8,26.4-28.1,28.8C481.2,371.3,480.4,371.4,479.6,371.5z"/>
			</g>
		</g>
	</g>
	<g>
		<g>
			<path class="st0" d="M176,394.5c-8.3,0.9-11.7,1.5-11.7,1.5l0.7-1.7c1.3-3.2,1.9-4.5-0.3-25l-2.6-23c-1.9-16.9-3-19.7-5-22.6
				l-1.1-1.5l20-4.7c0,0,0.8,9.9,1.8,19.1l3.4,30.9c2.2,20.2,3.2,21.5,5.2,24.4l1.1,1.6C187.5,393.4,184.1,393.6,176,394.5z"/>
			<path class="st0" d="M207.7,391c-8.2,0.9-11.6,1.5-11.6,1.5l0.7-1.7c1.3-3.2,2-4.4-0.3-25l-0.4-3.9c-1.9-16.7-3-19.4-4.9-22
				l-1.1-1.5l20.5-4.7c0,0-0.3,5.5,2,26.3l0.4,4c2,17.9,2.7,20.8,5.2,24.4l1.1,1.5C219.3,389.9,215.9,390.1,207.7,391z M200.8,329.4
				c-5.5,0.6-10.1-0.3-10.7-5.9c-0.6-5.7,3.5-7.7,9.1-8.4c5.5-0.6,10.1,0.3,10.7,5.9C210.5,326.8,206.5,328.8,200.8,329.4z"/>
			<path class="st0" d="M318.4,378.9c0,0-3.5,0.2-11.6,1.1c-8.3,0.9-11.7,1.5-11.7,1.5l0.7-1.7c1.2-3,2-3.8-0.3-24.9
				c-1.2-11.2-1.9-14.8-3.3-16.8c-1-1.6-3.1-2.9-6.9-2.5c-7,0.8-8.2,7-8.3,7.5l1.5,13.6c2.3,21.1,3.4,21.8,5.3,24.4l1.1,1.5
				c0,0-3.4,0.2-11.6,1.1c-8.2,0.9-11.7,1.5-11.7,1.5l0.7-1.7c1.2-3,2-3.8-0.3-24.9c-1.2-11.2-1.9-14.8-3.3-16.8
				c-1.1-1.5-3.1-2.9-6.9-2.5c-7.3,0.8-8.2,7.6-8.2,7.6l1.5,13.5c2.3,21,3.3,21.8,5.2,24.4l1.1,1.5c0,0-3.4,0.2-11.6,1.1
				c-8.2,0.9-11.6,1.5-11.6,1.5l0.7-1.7c1.2-3,2-3.8-0.3-25l-0.4-3.9c-1.9-16.7-3-19.4-4.9-22l-1.1-1.5l19.5-4.6l1.2,15.8
				c1.2-16,12-17.7,16.1-18.2c6.4-0.7,11.6,0.8,14.8,5.2c2,2.8,2.7,6.4,2.8,6.9c1.7-13.9,12-15.4,16-15.9c6.5-0.7,11.6,0.7,14.8,5.1
				c2.8,3.8,3.6,8.4,4.8,19.7l0.4,3.9c2.3,21.1,3.3,21.8,5.2,24.4L318.4,378.9z"/>
			<path class="st0" d="M338.5,376.5c-8.2,0.9-11.6,1.5-11.6,1.5l0.7-1.7c1.3-3.2,2-4.4-0.3-25l-0.4-3.9c-1.9-16.7-3-19.4-4.9-22
				l-1.1-1.5l20.6-4.7c0,0-0.3,5.5,2,26.3l0.4,4c2,17.9,2.7,20.8,5.2,24.4l1.1,1.5C350.1,375.4,346.7,375.6,338.5,376.5z
				 M331.6,314.9c-5.5,0.6-10.1-0.3-10.7-5.9c-0.6-5.7,3.5-7.7,9.1-8.4c5.5-0.6,10.1,0.3,10.7,5.9
				C341.3,312.3,337.3,314.3,331.6,314.9z"/>
			<path class="st0" d="M377.7,373.2c-7.5,0.8-11.7-1.3-14.3-4.1c-2.5-2.7-3.7-7.4-4.4-14.4c-2-17.9-2.7-26.6-2.7-26.6l-6.3,0.7
				c0.2-0.1,3.1-3.8,7.1-10.8c3.8-6.6,6.2-12.3,6.2-12.3l7.3-0.8l1.3,11.8l5.4-0.6c7.9-0.9,9.4-2.1,9.4-2.1s0.1,1.7,0.5,5.8
				c0.5,4.2,0.7,5.7,0.7,5.7s-1.6-0.8-9.6,0.1l-5.4,0.6l2.9,26.3c0.5,4.2,0.9,6,1.9,7.6c1.2,1.9,3.4,3.1,7,2.7
				c5.3-0.6,7.5-3.7,7.5-3.7C392.9,364.4,390.1,371.9,377.7,373.2z"/>
			<path class="st0" d="M421.9,344.1c-5.9,0.7-9.8,0.3-9.8,0.3c0.5,4.6,3.5,14.4,16.6,13c12.9-1.4,15.6-7.1,15.8-7.6
				c0.9,7.8-4,16.7-19.9,18.5c-20.2,2.2-28.4-9.3-30.1-25.2c-2.2-19.7,6.1-30.9,22.6-32.7c8.8-1,23.7-0.5,25.3,14.3
				C443.2,331.5,442.3,341.8,421.9,344.1z M418.2,318.7c-7.6,0.8-8.5,7-7.4,17.4c0,0,2,0.2,6.8-0.4c6.9-0.8,9.4-3.7,8.7-9.5
				C426,323,424.5,318.1,418.2,318.7z M414.5,290.8l15-1.7c0,0-0.8,4.3-7.6,10.7c-6.1,6-12.6,7.8-12.6,7.8L414.5,290.8z"/>
			<path class="st0" d="M478.2,337.9c-5.9,0.7-9.8,0.3-9.8,0.3c0.5,4.6,3.5,14.4,16.6,13c12.9-1.4,15.6-7.1,15.8-7.6
				c0.9,7.8-4,16.7-19.9,18.5c-20.2,2.2-28.4-9.3-30.1-25.2c-2.2-19.7,6.1-30.9,22.6-32.7c8.8-1,23.7-0.5,25.3,14.3
				C499.6,325.2,498.7,335.6,478.2,337.9z M474.5,312.5c-7.6,0.8-8.5,7-7.4,17.4c0,0,2,0.2,6.8-0.4c6.9-0.8,9.4-3.7,8.7-9.5
				C482.4,316.7,480.8,311.8,474.5,312.5z"/>
		</g>
	</g>
</g>
</svg>
