<?xml version="1.0" encoding="UTF-8"?>
<svg id="Calque_2" data-name="Calque 2" xmlns="http://www.w3.org/2000/svg" viewBox="0 0 380.6 184.29">
  <defs>
    <style>
      .cls-1 {
        fill: #dcffb1;
      }

      .cls-1, .cls-2 {
        stroke-width: 0px;
      }

      .cls-2 {
        fill: #00214f;
      }
    </style>
  </defs>
  <g id="Calque_1-2" data-name="Calque 1">
    <g>
      <g>
        <g>
          <path class="cls-2" d="M54.42,82.2l-.32,3.58-34.34-1.25c-5.09-.19-7.27-.17-7.27-.17l.91-1.57c2.01-3.42,2.51-4.16,3.54-32.46,1-27.45.64-27.84-1.21-31.69l-.79-1.63s3.2.31,11.88.62c8.58.31,11.42.23,11.42.23l-1.01,1.66c-2.21,3.51-2.75,5.38-3.53,26.79l-1.06,29.15,6.32.23c11.7.43,13.31-2.25,16.98-7.22,0,0-.61,3.76-1.54,13.74Z"/>
          <path class="cls-1" d="M54.11,98.28c-.15,0-.31,0-.46,0l-34.34-1.25c-4.65-.17-6.72-.16-6.74-.16h-.06c-4.45,0-8.58-2.37-10.82-6.22-2.25-3.87-2.26-8.65-.02-12.52l.91-1.57.05-.09c.1-.17.18-.3.26-.43.73-3.07,1.27-18.03,1.57-26.14.31-8.39.81-22.33.35-25.12-.08-.18-.17-.36-.27-.56l-.84-1.74c-1.96-4.07-1.58-8.87.99-12.58,2.58-3.71,6.96-5.73,11.45-5.3,0,0,3.13.28,11.15.57,7.81.28,10.6.22,10.63.22,4.58-.13,8.84,2.28,11.13,6.22,2.29,3.95,2.27,8.83-.09,12.73l-1.01,1.66c-.04.06-.08.13-.12.19-.09.14-.18.28-.25.41-.71,2.39-1.15,14.38-1.36,20.18l-.53,14.58.23-.31c3.43-4.64,9.59-6.32,14.9-4.08,5.31,2.24,8.41,7.82,7.49,13.52,0,0-.57,3.66-1.43,12.88l-.32,3.55c-.58,6.47-6,11.39-12.44,11.39Z"/>
        </g>
        <g>
          <path class="cls-2" d="M73.07,86.38c-8.02-.29-11.33-.22-11.33-.22l.91-1.57c1.71-2.87,2.51-3.97,3.24-23.97l.14-3.77c.6-16.32-.16-18.99-1.57-21.78l-.79-1.63,20.37-1.62s-1.04,5.25-1.78,25.53l-.14,3.87c-.64,17.45-.36,20.29,1.48,24.14l.79,1.63s-3.29-.31-11.31-.6ZM75.25,26.38c-5.38-.2-9.66-1.77-9.47-7.15.2-5.57,4.41-6.92,9.88-6.72,5.38.2,9.66,1.77,9.47,7.15-.2,5.56-4.31,6.93-9.88,6.72Z"/>
          <path class="cls-1" d="M84.38,99.48c-.39,0-.78-.02-1.17-.05-.01,0-3.18-.29-10.6-.55,0,0,0,0,0,0-7.41-.27-10.59-.22-10.63-.22-4.49.08-8.71-2.27-11-6.15s-2.32-8.69-.07-12.6l.91-1.57c.03-.05.06-.11.09-.16l.06-.11c.06-.11.12-.21.18-.31.33-1.32.79-5.51,1.23-17.61l.14-3.77c.43-11.67.05-14.73-.15-15.52-.03-.06-.06-.11-.09-.17-.03-.07-.07-.13-.1-.2l-.79-1.63c-1.8-3.72-1.64-8.08.41-11.66.38-.67.82-1.29,1.31-1.87-.66-2.17-.92-4.41-.84-6.55C53.62,9.76,59.8-.54,76.12.02c16.39.6,21.83,11.2,21.5,20.09-.1,2.71-.68,5.25-1.68,7.53.71,2.06.85,4.29.36,6.52-.13.82-.94,6.54-1.57,23.63l-.14,3.87c-.51,14.1-.33,17.04.26,18.28l.77,1.59c1.96,4.06,1.59,8.87-.99,12.57-2.35,3.38-6.2,5.37-10.26,5.37ZM75.64,14.54c-1.5,1.02-2.94,2.96-3,4.67-.01.32.01.64.07.96l2.77-.22.2-5.37-.04-.03ZM75.68,14.57l-.2,5.37,2.79-.22s0-.02,0-.03c.07-1.88-1.18-3.96-2.59-5.12Z"/>
        </g>
        <g>
          <path class="cls-2" d="M180.97,90.5s-3.39-.31-11.31-.6c-8.11-.3-11.42-.23-11.42-.23l.91-1.57c1.61-2.68,2.48-3.31,3.23-23.87.4-10.94.24-14.44-.81-16.56-.7-1.63-2.53-3.21-6.3-3.35-6.79-.25-8.89,5.53-9,6l-.48,13.21c-.75,20.56.17,21.35,1.58,24.14l.79,1.63s-3.29-.31-11.31-.6c-8.02-.29-11.42-.23-11.42-.23l.91-1.57c1.61-2.68,2.48-3.31,3.23-23.87.4-10.94.24-14.44-.81-16.56-.79-1.63-2.53-3.21-6.3-3.35-7.07-.26-8.91,6.1-8.91,6.1l-.48,13.11c-.75,20.47.07,21.35,1.48,24.14l.79,1.63s-3.29-.31-11.31-.6c-8.02-.29-11.33-.22-11.33-.22l.91-1.57c1.61-2.68,2.49-3.4,3.24-23.97l.14-3.77c.6-16.32-.16-18.99-1.57-21.78l-.79-1.63,19.33-1.66-1.13,15.35c3.39-15.18,13.97-15.26,18.02-15.12,6.23.23,10.96,2.38,13.44,7.1,1.5,2.98,1.65,6.48,1.73,7.05,3.59-13.09,13.7-13.1,17.57-12.96,6.32.23,11.06,2.29,13.44,7.01,2.12,4.04,2.24,8.58,1.83,19.62l-.14,3.77c-.75,20.56.07,21.35,1.48,24.14l.79,1.63Z"/>
          <path class="cls-1" d="M180.97,103c-.38,0-.76-.02-1.14-.05h0s-3.29-.29-10.63-.56c-7.5-.27-10.69-.22-10.72-.22-2,.02-3.95-.41-5.7-1.26-1.81.72-3.8,1.03-5.81.84-.01,0-3.18-.29-10.6-.56-7.44-.27-10.71-.22-10.74-.22-2.01.03-3.94-.41-5.68-1.26-1.81.72-3.79,1.03-5.81.84-.01,0-3.18-.29-10.6-.55-7.41-.27-10.6-.22-10.63-.22-4.5.03-8.71-2.27-11-6.15-2.29-3.88-2.32-8.69-.07-12.6l.91-1.57c.03-.06.07-.12.11-.18l.2-.33s.03-.05.04-.07c.29-1.29.77-5.29,1.22-17.59l.14-3.77c.43-11.67.05-14.73-.15-15.52-.03-.06-.06-.12-.09-.17-.03-.06-.06-.13-.1-.2l-.79-1.63c-1.79-3.7-1.65-8.05.39-11.62,2.04-3.57,5.7-5.92,9.8-6.27l19.33-1.66c2.56-.22,5.09.35,7.27,1.6,3.38-1.07,7.11-1.54,11.15-1.4,7.13.26,12.35,2.3,16.14,4.89,4.67-2.64,10.27-3.92,16.59-3.7,6.51.24,18.28,2.35,24.1,13.78,3.7,7.11,3.64,14.09,3.21,25.79l-.14,3.77c-.45,12.31-.26,16.33-.06,17.63.01.02.02.05.04.07l.17.34c.03.06.06.13.1.19l.79,1.63c1.96,4.06,1.59,8.86-.98,12.56-2.35,3.39-6.2,5.38-10.27,5.38Z"/>
        </g>
        <g>
          <path class="cls-2" d="M200.51,91.02c-8.02-.29-11.33-.22-11.33-.22l.91-1.57c1.71-2.87,2.51-3.97,3.23-23.97l.14-3.77c.6-16.32-.16-18.99-1.57-21.78l-.79-1.63,20.37-1.62s-1.04,5.25-1.78,25.53l-.14,3.87c-.64,17.45-.36,20.29,1.48,24.14l.79,1.63s-3.29-.31-11.31-.6ZM202.7,31.03c-5.38-.2-9.66-1.77-9.47-7.15.2-5.57,4.41-6.92,9.88-6.72,5.38.2,9.66,1.77,9.47,7.14-.2,5.56-4.31,6.93-9.88,6.72Z"/>
          <path class="cls-1" d="M211.82,104.12c-.39,0-.78-.02-1.17-.05-.01,0-3.18-.29-10.59-.56-7.42-.27-10.6-.22-10.63-.22-4.51.1-8.71-2.27-11-6.15-2.29-3.88-2.32-8.69-.06-12.6l.91-1.57c.03-.05.06-.1.09-.16l.06-.11c.06-.1.12-.2.18-.3.33-1.32.79-5.51,1.23-17.61l.14-3.77c.43-11.68.05-14.73-.15-15.52-.03-.06-.06-.12-.09-.17-.03-.07-.07-.13-.1-.2l-.79-1.63c-1.8-3.72-1.64-8.08.41-11.66.38-.66.82-1.28,1.3-1.85-.62-2.05-.91-4.26-.82-6.57.25-6.89,3.62-12.69,9.24-15.91,3.69-2.12,8.14-3.05,13.59-2.85,5.31.19,9.58,1.36,13.06,3.56,5.62,3.56,8.7,9.59,8.44,16.53-.09,2.49-.62,5.07-1.69,7.5.72,2.07.87,4.31.37,6.55-.13.82-.94,6.54-1.57,23.63l-.14,3.87c-.51,14.1-.33,17.04.26,18.28l.77,1.6c1.96,4.06,1.58,8.87-.99,12.57-2.35,3.38-6.19,5.37-10.26,5.37ZM203.09,19.18c-1.5,1.02-2.94,2.96-3,4.67-.01.32.01.64.07.96l2.78-.22.2-5.37s-.03-.02-.04-.03ZM203.13,19.22l-.2,5.37,2.79-.22s0-.02,0-.03c.07-1.88-1.18-3.96-2.59-5.12ZM201.62,18.38h0,0Z"/>
        </g>
        <g>
          <path class="cls-2" d="M238.58,93.45c-7.26-.26-11.04-2.95-13.1-5.96-1.97-2.9-2.46-7.64-2.21-14.44.64-17.45,1.22-25.83,1.22-25.83l-6.13-.22c.19-.09,3.52-3.18,8.37-9.33,4.55-5.78,7.67-10.87,7.67-10.87l7.08.26-.42,11.51,5.28.19c7.74.28,9.28-.7,9.28-.7,0,0-.15,1.6-.3,5.66-.15,4.06-.11,5.57-.11,5.57,0,0-1.38-1-9.21-1.28l-5.28-.19-.94,25.66c-.15,4.06-.02,5.86.76,7.58.87,2.02,2.8,3.41,6.29,3.54,5.19.19,7.74-2.46,7.74-2.46-.18,5-3.92,11.76-16,11.32Z"/>
          <path class="cls-1" d="M239.67,105.97c-.5,0-1.02,0-1.54-.03-12.83-.47-19.56-6.44-22.95-11.38-4.34-6.39-4.68-14.33-4.4-21.97.22-6.19.44-11.25.63-15.21-2.68-1.79-4.64-4.61-5.31-7.94-.92-4.6.82-9.23,4.32-12.1.83-.79,3.28-3.34,6.49-7.42,3.99-5.07,6.8-9.62,6.83-9.66,2.36-3.83,6.61-6.12,11.11-5.95l7.08.26c6.28.23,11.3,5.05,11.97,11.11,2.82-.39,5.74.18,8.25,1.73,4.07,2.5,6.36,7.09,5.91,11.85h0s-.13,1.46-.25,4.92c-.13,3.44-.1,4.83-.1,4.84.13,4.75-2.45,9.13-6.65,11.35-2.6,1.38-5.55,1.75-8.33,1.18l-.3,8.27c2.33-.41,4.77-.16,7.04.81,4.77,2.03,7.79,6.78,7.6,11.96-.23,6.25-2.99,12.25-7.59,16.46-3.5,3.21-9.73,6.92-19.82,6.92ZM245.6,73.44s0,0-.01.01c0,0,0,0,.01-.01ZM245.61,73.43h-.01s0,0,.01,0ZM245.62,73.42h0s0,0,0,0ZM213.13,35.65s0,0,0,0c0,0,0,0,0,0ZM213.15,35.64s0,0-.01,0c0,0,0,0,.01,0Z"/>
        </g>
        <g>
          <path class="cls-2" d="M285.09,71.82c-5.75-.21-9.41-1.1-9.41-1.1-.16,4.43,1.27,14.31,14.1,14.78,12.54.46,15.94-4.61,16.24-5.07-.28,7.64-6.23,15.45-21.7,14.89-19.71-.72-25.88-12.94-25.32-28.41.7-19.15,10.21-28.72,26.34-28.13,8.58.31,22.75,2.91,22.23,17.34-.24,6.6-2.58,16.43-22.49,15.71ZM285.14,46.98c-7.36-.27-9.17,5.52-9.54,15.62,0,0,1.87.45,6.59.62,6.7.24,9.53-2.2,9.73-7.86.12-3.21-.65-8.15-6.78-8.37Z"/>
          <path class="cls-1" d="M285.91,107.84c-.67,0-1.35-.01-2.04-.04-16.35-.6-25.17-7.67-29.69-13.51-5.5-7.1-8.08-16.47-7.66-27.85.93-25.62,15.98-40.99,39.29-40.17,26.04.95,34.77,16.27,34.26,30.29-.14,3.88-1.03,10.02-4.7,15.54,2.09,2.35,3.28,5.46,3.16,8.77-.29,7.81-3.73,14.82-9.71,19.73-5.85,4.81-13.55,7.24-22.89,7.24Z"/>
        </g>
        <g>
          <path class="cls-2" d="M368.1,95.62l-19.33,1.66,1.13-15.45c-3.06,13.87-11.89,15.34-17.27,15.14-19.15-.7-18.76-21.75-18.54-27.78.84-22.92,13.33-28.89,24.65-28.48,8.58.31,11.75,4.02,11.75,4.02.5-13.68-.46-15.98-1.68-18.58l-.79-1.63,19.8-1.64s-.66,10.37-1.01,19.99l-1.07,29.34c-.6,16.32.16,18.99,1.57,21.78l.79,1.63ZM350.2,52.94s-2.27-2.63-6.89-2.8c-7.55-.28-11.73,5.62-12.21,18.73-.23,6.32-.37,17.84,8.78,18.17,7.17.26,9.29-6.08,9.29-6.08l1.02-28.02Z"/>
          <path class="cls-1" d="M348.77,109.78c-2.19,0-4.32-.57-6.2-1.65-3.19,1.01-6.67,1.46-10.4,1.33-7.51-.27-31.91-4.02-30.58-40.73.51-13.88,4.67-24.55,12.39-31.7,5.9-5.47,13.49-8.49,22.1-8.81-1.02-3.28-.64-6.87,1.09-9.9,2.04-3.58,5.72-5.92,9.82-6.26l19.8-1.64c3.62-.31,7.19.99,9.79,3.54,2.59,2.54,3.95,6.09,3.72,9.72,0,.1-.65,10.32-.99,19.65l-1.07,29.34c-.43,11.68-.05,14.73.15,15.52.03.06.06.12.09.17.03.06.06.13.1.2l.79,1.63c1.79,3.7,1.65,8.05-.39,11.62-2.03,3.58-5.7,5.92-9.8,6.27l-19.33,1.66c-.36.03-.71.05-1.07.05Z"/>
        </g>
      </g>
      <g>
        <path class="cls-2" d="M54.42,82.2l-.32,3.58-34.34-1.25c-5.09-.19-7.27-.17-7.27-.17l.91-1.57c2.01-3.42,2.51-4.16,3.54-32.46,1-27.45.64-27.84-1.21-31.69l-.79-1.63s3.2.31,11.88.62c8.58.31,11.42.23,11.42.23l-1.01,1.66c-2.21,3.51-2.75,5.38-3.53,26.79l-1.06,29.15,6.32.23c11.7.43,13.31-2.25,16.98-7.22,0,0-.61,3.76-1.54,13.74Z"/>
        <path class="cls-2" d="M73.07,86.38c-8.02-.29-11.33-.22-11.33-.22l.91-1.57c1.71-2.87,2.51-3.97,3.24-23.97l.14-3.77c.6-16.32-.16-18.99-1.57-21.78l-.79-1.63,20.37-1.62s-1.04,5.25-1.78,25.53l-.14,3.87c-.64,17.45-.36,20.29,1.48,24.14l.79,1.63s-3.29-.31-11.31-.6ZM75.25,26.38c-5.38-.2-9.66-1.77-9.47-7.15.2-5.57,4.41-6.92,9.88-6.72,5.38.2,9.66,1.77,9.47,7.15-.2,5.56-4.31,6.93-9.88,6.72Z"/>
        <path class="cls-2" d="M180.97,90.5s-3.39-.31-11.31-.6c-8.11-.3-11.42-.23-11.42-.23l.91-1.57c1.61-2.68,2.48-3.31,3.23-23.87.4-10.94.24-14.44-.81-16.56-.7-1.63-2.53-3.21-6.3-3.35-6.79-.25-8.89,5.53-9,6l-.48,13.21c-.75,20.56.17,21.35,1.58,24.14l.79,1.63s-3.29-.31-11.31-.6c-8.02-.29-11.42-.23-11.42-.23l.91-1.57c1.61-2.68,2.48-3.31,3.23-23.87.4-10.94.24-14.44-.81-16.56-.79-1.63-2.53-3.21-6.3-3.35-7.07-.26-8.91,6.1-8.91,6.1l-.48,13.11c-.75,20.47.07,21.35,1.48,24.14l.79,1.63s-3.29-.31-11.31-.6c-8.02-.29-11.33-.22-11.33-.22l.91-1.57c1.61-2.68,2.49-3.4,3.24-23.97l.14-3.77c.6-16.32-.16-18.99-1.57-21.78l-.79-1.63,19.33-1.66-1.13,15.35c3.39-15.18,13.97-15.26,18.02-15.12,6.23.23,10.96,2.38,13.44,7.1,1.5,2.98,1.65,6.48,1.73,7.05,3.59-13.09,13.7-13.1,17.57-12.96,6.32.23,11.06,2.29,13.44,7.01,2.12,4.04,2.24,8.58,1.83,19.62l-.14,3.77c-.75,20.56.07,21.35,1.48,24.14l.79,1.63Z"/>
        <path class="cls-2" d="M200.51,91.02c-8.02-.29-11.33-.22-11.33-.22l.91-1.57c1.71-2.87,2.51-3.97,3.23-23.97l.14-3.77c.6-16.32-.16-18.99-1.57-21.78l-.79-1.63,20.37-1.62s-1.04,5.25-1.78,25.53l-.14,3.87c-.64,17.45-.36,20.29,1.48,24.14l.79,1.63s-3.29-.31-11.31-.6ZM202.7,31.03c-5.38-.2-9.66-1.77-9.47-7.15.2-5.57,4.41-6.92,9.88-6.72,5.38.2,9.66,1.77,9.47,7.14-.2,5.56-4.31,6.93-9.88,6.72Z"/>
        <path class="cls-2" d="M238.58,93.45c-7.26-.26-11.04-2.95-13.1-5.96-1.97-2.9-2.46-7.64-2.21-14.44.64-17.45,1.22-25.83,1.22-25.83l-6.13-.22c.19-.09,3.52-3.18,8.37-9.33,4.55-5.78,7.67-10.87,7.67-10.87l7.08.26-.42,11.51,5.28.19c7.74.28,9.28-.7,9.28-.7,0,0-.15,1.6-.3,5.66-.15,4.06-.11,5.57-.11,5.57,0,0-1.38-1-9.21-1.28l-5.28-.19-.94,25.66c-.15,4.06-.02,5.86.76,7.58.87,2.02,2.8,3.41,6.29,3.54,5.19.19,7.74-2.46,7.74-2.46-.18,5-3.92,11.76-16,11.32Z"/>
        <path class="cls-2" d="M285.09,71.82c-5.75-.21-9.41-1.1-9.41-1.1-.16,4.43,1.27,14.31,14.1,14.78,12.54.46,15.94-4.61,16.24-5.07-.28,7.64-6.23,15.45-21.7,14.89-19.71-.72-25.88-12.94-25.32-28.41.7-19.15,10.21-28.72,26.34-28.13,8.58.31,22.75,2.91,22.23,17.34-.24,6.6-2.58,16.43-22.49,15.71ZM285.14,46.98c-7.36-.27-9.17,5.52-9.54,15.62,0,0,1.87.45,6.59.62,6.7.24,9.53-2.2,9.73-7.86.12-3.21-.65-8.15-6.78-8.37Z"/>
        <path class="cls-2" d="M368.1,95.62l-19.33,1.66,1.13-15.45c-3.06,13.87-11.89,15.34-17.27,15.14-19.15-.7-18.76-21.75-18.54-27.78.84-22.92,13.33-28.89,24.65-28.48,8.58.31,11.75,4.02,11.75,4.02.5-13.68-.46-15.98-1.68-18.58l-.79-1.63,19.8-1.64s-.66,10.37-1.01,19.99l-1.07,29.34c-.6,16.32.16,18.99,1.57,21.78l.79,1.63ZM350.2,52.94s-2.27-2.63-6.89-2.8c-7.55-.28-11.73,5.62-12.21,18.73-.23,6.32-.37,17.84,8.78,18.17,7.17.26,9.29-6.08,9.29-6.08l1.02-28.02Z"/>
      </g>
      <g>
        <g>
          <path class="cls-2" d="M75.97,171.79c-12.18.16-18.16-2.59-18.16-2.59,0,0,.16-2.17.09-7.36-.07-5.66-.31-9.15-.31-9.15,3.37,4.77,7.96,9.34,17.11,9.22,6.32-.08,11.4-1.56,11.32-7.6-.06-4.72-3.1-6.38-7.67-8.77l-7.8-4.24c-7.42-3.96-13.33-8.98-13.46-18.7-.17-12.74,8.15-19.18,23.91-19.38,11.23-.15,17.12,2.51,17.12,2.51,0,0-.16,2.27-.09,7.65.07,5.57.3,8.68.3,8.68-3.85-5.42-8.62-9.14-16.07-9.04-6.13.08-10.08,1.83-10.01,6.74.06,4.44,3.29,5.9,8.42,8.67l6.75,3.59c8.27,4.33,13.71,9.17,13.85,19.55.2,15.57-10.97,20.06-25.32,20.25Z"/>
          <path class="cls-1" d="M74.96,184.29c-13.54,0-20.99-3.11-22.38-3.75-4.74-2.18-7.62-7.07-7.24-12.28h0s.12-1.93.06-6.28c-.07-5.2-.28-8.45-.28-8.49-.32-4.81,2.15-9.3,6.22-11.65-3.68-4.56-6.62-10.78-6.73-19.12-.17-12.9,5.71-20.34,10.67-24.31,6.23-4.99,14.84-7.59,25.58-7.73,13.33-.18,21.02,2.99,22.43,3.62,4.77,2.15,7.69,7.05,7.32,12.27h0s-.12,2.04-.06,6.61c.07,5.04.27,7.91.27,7.94.28,3.89-1.26,7.57-4,10.1,4,4.81,6.85,11.25,6.97,20.16.13,9.75-3.29,32.46-37.65,32.91h0c-.4,0-.79,0-1.17,0Z"/>
        </g>
        <g>
          <path class="cls-2" d="M128.08,171.39c-7.27.09-11.17-2.4-13.38-5.3-2.11-2.8-2.84-7.52-2.93-14.31-.23-17.46-.05-25.87-.05-25.87l-6.13.08c.19-.1,3.35-3.35,7.9-9.73,4.26-6,7.12-11.23,7.12-11.23l7.08-.09.15,11.51,5.29-.07c7.74-.1,9.24-1.16,9.24-1.16,0,0-.07,1.61-.02,5.67.05,4.06.17,5.57.17,5.57,0,0-1.43-.93-9.26-.82l-5.29.07.33,25.67c.05,4.06.27,5.85,1.14,7.54.97,1.97,2.97,3.27,6.46,3.22,5.19-.07,7.61-2.84,7.61-2.84.07,5-3.34,11.94-15.42,12.1Z"/>
          <path class="cls-1" d="M127.68,183.89c-12.49,0-19.35-5.54-22.93-10.23-4.65-6.18-5.38-14.09-5.48-21.72-.08-6.2-.11-11.26-.12-15.23-2.77-1.66-4.87-4.38-5.7-7.69-1.14-4.55.38-9.25,3.73-12.28.79-.83,3.11-3.5,6.11-7.72,3.74-5.26,6.32-9.95,6.35-9.99,2.17-3.95,6.3-6.43,10.8-6.49l7.08-.09c6.28-.09,11.54,4.48,12.5,10.5,2.79-.53,5.74-.1,8.33,1.31,4.19,2.29,6.71,6.77,6.49,11.54h0s-.05,1.47,0,4.93c.04,3.45.14,4.83.14,4.84.36,4.74-2,9.24-6.09,11.66-2.53,1.5-5.45,2.02-8.25,1.59l.11,8.28c2.3-.52,4.76-.39,7.08.46,4.86,1.79,8.12,6.39,8.18,11.57.15,11.75-8.47,24.5-27.75,24.76h0c-.19,0-.37,0-.56,0ZM134.1,151.06s0,.01-.01.02c0,0,0,0,.01-.02ZM134.11,151.04s0,0-.01.01c0,0,0,0,.01-.01ZM134.12,151.03s0,0,0,0c0,0,0,0,0,0ZM99.84,114.89s0,0,0,0c0,0,0,0,0,0ZM99.86,114.88s0,0-.01,0c0,0,0,0,.01,0Z"/>
        </g>
        <g>
          <path class="cls-2" d="M174.43,170.97c-17.65.23-27.04-10.12-27.26-27.02-.22-16.61,7.93-29.27,27.27-29.53,17.65-.23,27.04,10.13,27.26,27.12.22,16.61-7.93,29.18-27.27,29.43ZM174.1,124.06c-7.46.1-10.02,5.89-9.85,19.2.18,13.59,2.98,18.27,10.53,18.18,7.46-.1,10.02-5.89,9.85-19.2-.18-13.59-2.98-18.27-10.53-18.18Z"/>
          <path class="cls-1" d="M173.88,183.48c-23.53,0-38.89-15.38-39.21-39.36-.33-25.31,15.22-41.87,39.61-42.19,15.24-.16,24.31,5.8,29.27,10.86,6.82,6.97,10.5,16.86,10.66,28.59.15,11.67-3.04,21.72-9.24,29.07-4.91,5.82-14.17,12.81-30.37,13.02h0c-.24,0-.48,0-.71,0Z"/>
        </g>
        <g>
          <path class="cls-2" d="M253.03,153.99c.09,7.17-4.7,16.01-19.05,16.2-17.27.23-24.69-11.19-24.89-26.77-.21-16.23,6.98-29.45,26.23-29.7,11.8-.15,16.38,3.47,16.38,3.47,0,0-.16,2.36-.1,7.18.06,4.91.31,9.15.31,9.15-5.4-8.8-8.91-10.17-13.73-10.11-8.78.11-12.18,7.24-12.03,18.38.13,9.72,2.88,18.18,13.73,18.04,9.63-.13,12.86-5.36,13.14-5.83Z"/>
          <path class="cls-1" d="M233.48,182.7c-14.71,0-23.28-6.44-27.89-11.89-5.75-6.79-8.86-16.2-9-27.22-.15-11.47,2.77-21.39,8.45-28.69,4.77-6.12,13.86-13.46,30.12-13.67,15.04-.2,22.4,4.67,24.29,6.16,3.23,2.55,4.99,6.53,4.72,10.64h0s-.12,2.07-.07,6.18c.06,4.55.29,8.56.29,8.6.24,4.18-1.62,8.09-4.78,10.56,3.56,2.21,5.86,6.11,5.91,10.46.1,7.36-2.59,14.29-7.55,19.5-3.98,4.18-11.34,9.2-23.83,9.36-.22,0-.45,0-.67,0ZM242.24,147.69s0,0,0,0c0,0,0,0,0,0ZM239.37,147.33c.11,0,.22,0,.36,0,1.85-.02,2.77-.39,3.11-.57.71-1,1.55-1.88,2.49-2.62-1.62-1-3.02-2.38-4.07-4.09-.97-1.58-1.72-2.63-2.27-3.32-.2,1.05-.36,2.62-.33,4.89.04,3.2.44,4.9.71,5.7Z"/>
        </g>
        <g>
          <path class="cls-2" d="M306.55,168.12l-10.19.13-17.8-26.1c.26,19.63.75,21.23,2.68,24.79l.87,1.59s-3.31-.15-11.23-.04c-8.12.11-11.42.34-11.42.34l.83-1.62c1.57-2.95,2.31-4.18,2.04-24.1l-.29-22.46c-.22-16.52-1.01-19.25-2.65-22.24l-.87-1.59,19.7-2.62s-.16,9.63-.04,18.6l.37,28.32,9.56-12.3c4.74-5.92,6.41-8.39,6.37-11.13-.02-1.42-.6-2.73-2.03-3.75,0,0,3.12.15,11.9.03,9.63-.12,13.3-.36,13.3-.36-2.25,1.45-7.29,5.29-16.04,15.41l-7.63,8.69,10.29,14.31c8.75,12.25,11.42,14.67,14.09,16.05,0,0-2.55-.06-11.8.06Z"/>
          <path class="cls-1" d="M259.47,181.32c-4.19,0-8.13-2.1-10.45-5.63-2.48-3.76-2.75-8.57-.69-12.58l.83-1.62c.03-.05.06-.11.08-.16.09-.16.16-.29.22-.41.26-1.33.52-5.52.37-17.66l-.29-22.46c-.16-12.2-.66-15.31-.95-16.08,0,0-.03-.08-.17-.32l-.88-1.6c-1.98-3.62-2.05-7.97-.18-11.65s5.42-6.2,9.5-6.74l19.7-2.62c3.61-.48,7.24.64,9.96,3.05,2.72,2.42,4.25,5.9,4.19,9.54,0,.05-.05,3.03-.07,7.16.78-.11,1.58-.15,2.4-.12,0,0,3.05.13,11.14.02,9.03-.12,12.64-.34,12.68-.34,5.69-.36,10.89,3.17,12.66,8.58,1.77,5.41-.32,11.33-5.1,14.41-1.08.7-5.25,3.7-13.34,13.07l-1.13,1.29,4.49,6.24c7,9.81,9.13,11.85,9.71,12.27,5.17,2.68,7.79,8.56,6.34,14.19-1.42,5.54-6.42,9.39-12.12,9.39-.1,0-.2,0-.3,0,0,0-2.64-.05-11.34.06l-10.19.13c-2.54.08-5.02-.71-7.09-2.09-2.25,1.63-5.01,2.5-7.88,2.36-.01,0-3.19-.13-10.52-.03-7.51.1-10.69.31-10.72.31-.28.02-.56.03-.84.03Z"/>
        </g>
      </g>
      <g>
        <path class="cls-2" d="M75.97,171.79c-12.18.16-18.16-2.59-18.16-2.59,0,0,.16-2.17.09-7.36-.07-5.66-.31-9.15-.31-9.15,3.37,4.77,7.96,9.34,17.11,9.22,6.32-.08,11.4-1.56,11.32-7.6-.06-4.72-3.1-6.38-7.67-8.77l-7.8-4.24c-7.42-3.96-13.33-8.98-13.46-18.7-.17-12.74,8.15-19.18,23.91-19.38,11.23-.15,17.12,2.51,17.12,2.51,0,0-.16,2.27-.09,7.65.07,5.57.3,8.68.3,8.68-3.85-5.42-8.62-9.14-16.07-9.04-6.13.08-10.08,1.83-10.01,6.74.06,4.44,3.29,5.9,8.42,8.67l6.75,3.59c8.27,4.33,13.71,9.17,13.85,19.55.2,15.57-10.97,20.06-25.32,20.25Z"/>
        <path class="cls-2" d="M128.08,171.39c-7.27.09-11.17-2.4-13.38-5.3-2.11-2.8-2.84-7.52-2.93-14.31-.23-17.46-.05-25.87-.05-25.87l-6.13.08c.19-.1,3.35-3.35,7.9-9.73,4.26-6,7.12-11.23,7.12-11.23l7.08-.09.15,11.51,5.29-.07c7.74-.1,9.24-1.16,9.24-1.16,0,0-.07,1.61-.02,5.67.05,4.06.17,5.57.17,5.57,0,0-1.43-.93-9.26-.82l-5.29.07.33,25.67c.05,4.06.27,5.85,1.14,7.54.97,1.97,2.97,3.27,6.46,3.22,5.19-.07,7.61-2.84,7.61-2.84.07,5-3.34,11.94-15.42,12.1Z"/>
        <path class="cls-2" d="M174.43,170.97c-17.65.23-27.04-10.12-27.26-27.02-.22-16.61,7.93-29.27,27.27-29.53,17.65-.23,27.04,10.13,27.26,27.12.22,16.61-7.93,29.18-27.27,29.43ZM174.1,124.06c-7.46.1-10.02,5.89-9.85,19.2.18,13.59,2.98,18.27,10.53,18.18,7.46-.1,10.02-5.89,9.85-19.2-.18-13.59-2.98-18.27-10.53-18.18Z"/>
        <path class="cls-2" d="M253.03,153.99c.09,7.17-4.7,16.01-19.05,16.2-17.27.23-24.69-11.19-24.89-26.77-.21-16.23,6.98-29.45,26.23-29.7,11.8-.15,16.38,3.47,16.38,3.47,0,0-.16,2.36-.1,7.18.06,4.91.31,9.15.31,9.15-5.4-8.8-8.91-10.17-13.73-10.11-8.78.11-12.18,7.24-12.03,18.38.13,9.72,2.88,18.18,13.73,18.04,9.63-.13,12.86-5.36,13.14-5.83Z"/>
        <path class="cls-2" d="M306.55,168.12l-10.19.13-17.8-26.1c.26,19.63.75,21.23,2.68,24.79l.87,1.59s-3.31-.15-11.23-.04c-8.12.11-11.42.34-11.42.34l.83-1.62c1.57-2.95,2.31-4.18,2.04-24.1l-.29-22.46c-.22-16.52-1.01-19.25-2.65-22.24l-.87-1.59,19.7-2.62s-.16,9.63-.04,18.6l.37,28.32,9.56-12.3c4.74-5.92,6.41-8.39,6.37-11.13-.02-1.42-.6-2.73-2.03-3.75,0,0,3.12.15,11.9.03,9.63-.12,13.3-.36,13.3-.36-2.25,1.45-7.29,5.29-16.04,15.41l-7.63,8.69,10.29,14.31c8.75,12.25,11.42,14.67,14.09,16.05,0,0-2.55-.06-11.8.06Z"/>
      </g>
    </g>
  </g>
</svg>